%TF.GenerationSoftware,Altium Limited,Altium Designer,20.0.13 (296)*%
G04 Layer_Color=2752767*
%FSLAX45Y45*%
%MOMM*%
%TF.FileFunction,Drawing*%
%TF.Part,Single*%
G01*
G75*
%TA.AperFunction,NonConductor*%
%ADD109C,0.12700*%
%ADD205C,0.16933*%
%ADD206C,0.10160*%
D109*
X3286200Y4349200D02*
Y4450800D01*
X3387800D01*
Y4349200D01*
X3286200D01*
X2302500Y5189200D02*
X2251700Y5290800D01*
X2353300D01*
X2302500Y5189200D01*
Y5909200D02*
X2327900Y5934600D01*
X2353300D01*
X2327900Y5960000D01*
X2353300Y5985400D01*
X2327900D01*
X2302500Y6010800D01*
X2277100Y5985400D01*
X2251700D01*
X2277100Y5960000D01*
X2251700Y5934600D01*
X2277100D01*
X2302500Y5909200D01*
X1746700Y4969200D02*
X1772100Y5020000D01*
X1746700Y5070800D01*
X1797500Y5045400D01*
X1848300Y5070800D01*
X1822900Y5020000D01*
X1848300Y4969200D01*
X1797500Y4994600D01*
X1746700Y4969200D01*
Y6129200D02*
X1772100Y6180000D01*
X1746700Y6230800D01*
X1797500Y6205400D01*
X1848300Y6230800D01*
X1822900Y6180000D01*
X1848300Y6129200D01*
X1797500Y6154600D01*
X1746700Y6129200D01*
X2239100Y5064600D02*
Y5039200D01*
X2289900D01*
Y5064600D01*
X2315300D01*
Y5115400D01*
X2289900D01*
Y5140800D01*
X2239100D01*
Y5115400D01*
X2213700D01*
Y5064600D01*
X2239100D01*
Y6084600D02*
Y6059200D01*
X2289900D01*
Y6084600D01*
X2315300D01*
Y6135400D01*
X2289900D01*
Y6160800D01*
X2239100D01*
Y6135400D01*
X2213700D01*
Y6084600D01*
X2239100D01*
X11869195Y6509197D02*
X11894595D01*
X11919995Y6534597D01*
X11945395Y6509197D01*
X11970795D01*
Y6534597D01*
X11945395Y6559997D01*
X11970795Y6585397D01*
Y6610797D01*
X11945395D01*
X11919995Y6585397D01*
X11894595Y6610797D01*
X11869195D01*
Y6585397D01*
X11894595Y6559997D01*
X11869195Y6534597D01*
Y6509197D01*
X11789195Y6349197D02*
X11814595D01*
X11839995Y6374597D01*
X11865395Y6349197D01*
X11890795D01*
Y6374597D01*
X11865395Y6399997D01*
X11890795Y6425397D01*
Y6450797D01*
X11865395D01*
X11839995Y6425397D01*
X11814595Y6450797D01*
X11789195D01*
Y6425397D01*
X11814595Y6399997D01*
X11789195Y6374597D01*
Y6349197D01*
X11869195Y6189197D02*
X11894595D01*
X11919995Y6214597D01*
X11945395Y6189197D01*
X11970795D01*
Y6214597D01*
X11945395Y6239997D01*
X11970795Y6265397D01*
Y6290797D01*
X11945395D01*
X11919995Y6265397D01*
X11894595Y6290797D01*
X11869195D01*
Y6265397D01*
X11894595Y6239997D01*
X11869195Y6214597D01*
Y6189197D01*
X11789195Y5069198D02*
X11814595D01*
X11839995Y5094598D01*
X11865395Y5069198D01*
X11890795D01*
Y5094598D01*
X11865395Y5119998D01*
X11890795Y5145398D01*
Y5170798D01*
X11865395D01*
X11839995Y5145398D01*
X11814595Y5170798D01*
X11789195D01*
Y5145398D01*
X11814595Y5119998D01*
X11789195Y5094598D01*
Y5069198D01*
X11869195Y4909198D02*
X11894595D01*
X11919995Y4934598D01*
X11945395Y4909198D01*
X11970795D01*
Y4934598D01*
X11945395Y4959998D01*
X11970795Y4985398D01*
Y5010798D01*
X11945395D01*
X11919995Y4985398D01*
X11894595Y5010798D01*
X11869195D01*
Y4985398D01*
X11894595Y4959998D01*
X11869195Y4934598D01*
Y4909198D01*
X11789195Y4749198D02*
X11814595D01*
X11839995Y4774598D01*
X11865395Y4749198D01*
X11890795D01*
Y4774598D01*
X11865395Y4799998D01*
X11890795Y4825398D01*
Y4850798D01*
X11865395D01*
X11839995Y4825398D01*
X11814595Y4850798D01*
X11789195D01*
Y4825398D01*
X11814595Y4799998D01*
X11789195Y4774598D01*
Y4749198D01*
X11629195Y6349197D02*
X11654595D01*
X11679995Y6374597D01*
X11705395Y6349197D01*
X11730795D01*
Y6374597D01*
X11705395Y6399997D01*
X11730795Y6425397D01*
Y6450797D01*
X11705395D01*
X11679995Y6425397D01*
X11654595Y6450797D01*
X11629195D01*
Y6425397D01*
X11654595Y6399997D01*
X11629195Y6374597D01*
Y6349197D01*
X11709195Y6189197D02*
X11734595D01*
X11759995Y6214597D01*
X11785395Y6189197D01*
X11810795D01*
Y6214597D01*
X11785395Y6239997D01*
X11810795Y6265397D01*
Y6290797D01*
X11785395D01*
X11759995Y6265397D01*
X11734595Y6290797D01*
X11709195D01*
Y6265397D01*
X11734595Y6239997D01*
X11709195Y6214597D01*
Y6189197D01*
X11629195Y5069198D02*
X11654595D01*
X11679995Y5094598D01*
X11705395Y5069198D01*
X11730795D01*
Y5094598D01*
X11705395Y5119998D01*
X11730795Y5145398D01*
Y5170798D01*
X11705395D01*
X11679995Y5145398D01*
X11654595Y5170798D01*
X11629195D01*
Y5145398D01*
X11654595Y5119998D01*
X11629195Y5094598D01*
Y5069198D01*
X11709195Y4909198D02*
X11734595D01*
X11759995Y4934598D01*
X11785395Y4909198D01*
X11810795D01*
Y4934598D01*
X11785395Y4959998D01*
X11810795Y4985398D01*
Y5010798D01*
X11785395D01*
X11759995Y4985398D01*
X11734595Y5010798D01*
X11709195D01*
Y4985398D01*
X11734595Y4959998D01*
X11709195Y4934598D01*
Y4909198D01*
X11629195Y4749198D02*
X11654595D01*
X11679995Y4774598D01*
X11705395Y4749198D01*
X11730795D01*
Y4774598D01*
X11705395Y4799998D01*
X11730795Y4825398D01*
Y4850798D01*
X11705395D01*
X11679995Y4825398D01*
X11654595Y4850798D01*
X11629195D01*
Y4825398D01*
X11654595Y4799998D01*
X11629195Y4774598D01*
Y4749198D01*
X11469195Y6349197D02*
X11494595D01*
X11519995Y6374597D01*
X11545395Y6349197D01*
X11570795D01*
Y6374597D01*
X11545395Y6399997D01*
X11570795Y6425397D01*
Y6450797D01*
X11545395D01*
X11519995Y6425397D01*
X11494595Y6450797D01*
X11469195D01*
Y6425397D01*
X11494595Y6399997D01*
X11469195Y6374597D01*
Y6349197D01*
X11549195Y6189197D02*
X11574595D01*
X11599995Y6214597D01*
X11625395Y6189197D01*
X11650795D01*
Y6214597D01*
X11625395Y6239997D01*
X11650795Y6265397D01*
Y6290797D01*
X11625395D01*
X11599995Y6265397D01*
X11574595Y6290797D01*
X11549195D01*
Y6265397D01*
X11574595Y6239997D01*
X11549195Y6214597D01*
Y6189197D01*
X11469195Y5069198D02*
X11494595D01*
X11519995Y5094598D01*
X11545395Y5069198D01*
X11570795D01*
Y5094598D01*
X11545395Y5119998D01*
X11570795Y5145398D01*
Y5170798D01*
X11545395D01*
X11519995Y5145398D01*
X11494595Y5170798D01*
X11469195D01*
Y5145398D01*
X11494595Y5119998D01*
X11469195Y5094598D01*
Y5069198D01*
X11549195Y4909198D02*
X11574595D01*
X11599995Y4934598D01*
X11625395Y4909198D01*
X11650795D01*
Y4934598D01*
X11625395Y4959998D01*
X11650795Y4985398D01*
Y5010798D01*
X11625395D01*
X11599995Y4985398D01*
X11574595Y5010798D01*
X11549195D01*
Y4985398D01*
X11574595Y4959998D01*
X11549195Y4934598D01*
Y4909198D01*
X11469195Y4749198D02*
X11494595D01*
X11519995Y4774598D01*
X11545395Y4749198D01*
X11570795D01*
Y4774598D01*
X11545395Y4799998D01*
X11570795Y4825398D01*
Y4850798D01*
X11545395D01*
X11519995Y4825398D01*
X11494595Y4850798D01*
X11469195D01*
Y4825398D01*
X11494595Y4799998D01*
X11469195Y4774598D01*
Y4749198D01*
X11309195Y6349197D02*
X11334595D01*
X11359995Y6374597D01*
X11385395Y6349197D01*
X11410795D01*
Y6374597D01*
X11385395Y6399997D01*
X11410795Y6425397D01*
Y6450797D01*
X11385395D01*
X11359995Y6425397D01*
X11334595Y6450797D01*
X11309195D01*
Y6425397D01*
X11334595Y6399997D01*
X11309195Y6374597D01*
Y6349197D01*
X11389195Y6189197D02*
X11414595D01*
X11439995Y6214597D01*
X11465395Y6189197D01*
X11490795D01*
Y6214597D01*
X11465395Y6239997D01*
X11490795Y6265397D01*
Y6290797D01*
X11465395D01*
X11439995Y6265397D01*
X11414595Y6290797D01*
X11389195D01*
Y6265397D01*
X11414595Y6239997D01*
X11389195Y6214597D01*
Y6189197D01*
X11309195Y5069198D02*
X11334595D01*
X11359995Y5094598D01*
X11385395Y5069198D01*
X11410795D01*
Y5094598D01*
X11385395Y5119998D01*
X11410795Y5145398D01*
Y5170798D01*
X11385395D01*
X11359995Y5145398D01*
X11334595Y5170798D01*
X11309195D01*
Y5145398D01*
X11334595Y5119998D01*
X11309195Y5094598D01*
Y5069198D01*
X11389195Y4909198D02*
X11414595D01*
X11439995Y4934598D01*
X11465395Y4909198D01*
X11490795D01*
Y4934598D01*
X11465395Y4959998D01*
X11490795Y4985398D01*
Y5010798D01*
X11465395D01*
X11439995Y4985398D01*
X11414595Y5010798D01*
X11389195D01*
Y4985398D01*
X11414595Y4959998D01*
X11389195Y4934598D01*
Y4909198D01*
X11309195Y4749198D02*
X11334595D01*
X11359995Y4774598D01*
X11385395Y4749198D01*
X11410795D01*
Y4774598D01*
X11385395Y4799998D01*
X11410795Y4825398D01*
Y4850798D01*
X11385395D01*
X11359995Y4825398D01*
X11334595Y4850798D01*
X11309195D01*
Y4825398D01*
X11334595Y4799998D01*
X11309195Y4774598D01*
Y4749198D01*
X11229195Y6509197D02*
X11254595D01*
X11279995Y6534597D01*
X11305395Y6509197D01*
X11330795D01*
Y6534597D01*
X11305395Y6559997D01*
X11330795Y6585397D01*
Y6610797D01*
X11305395D01*
X11279995Y6585397D01*
X11254595Y6610797D01*
X11229195D01*
Y6585397D01*
X11254595Y6559997D01*
X11229195Y6534597D01*
Y6509197D01*
X11149195Y6349197D02*
X11174595D01*
X11199995Y6374597D01*
X11225395Y6349197D01*
X11250795D01*
Y6374597D01*
X11225395Y6399997D01*
X11250795Y6425397D01*
Y6450797D01*
X11225395D01*
X11199995Y6425397D01*
X11174595Y6450797D01*
X11149195D01*
Y6425397D01*
X11174595Y6399997D01*
X11149195Y6374597D01*
Y6349197D01*
X11229195Y6189197D02*
X11254595D01*
X11279995Y6214597D01*
X11305395Y6189197D01*
X11330795D01*
Y6214597D01*
X11305395Y6239997D01*
X11330795Y6265397D01*
Y6290797D01*
X11305395D01*
X11279995Y6265397D01*
X11254595Y6290797D01*
X11229195D01*
Y6265397D01*
X11254595Y6239997D01*
X11229195Y6214597D01*
Y6189197D01*
X11149195Y6029197D02*
X11174595D01*
X11199995Y6054597D01*
X11225395Y6029197D01*
X11250795D01*
Y6054597D01*
X11225395Y6079997D01*
X11250795Y6105397D01*
Y6130797D01*
X11225395D01*
X11199995Y6105397D01*
X11174595Y6130797D01*
X11149195D01*
Y6105397D01*
X11174595Y6079997D01*
X11149195Y6054597D01*
Y6029197D01*
Y5709198D02*
X11174595D01*
X11199995Y5734598D01*
X11225395Y5709198D01*
X11250795D01*
Y5734598D01*
X11225395Y5759998D01*
X11250795Y5785398D01*
Y5810798D01*
X11225395D01*
X11199995Y5785398D01*
X11174595Y5810798D01*
X11149195D01*
Y5785398D01*
X11174595Y5759998D01*
X11149195Y5734598D01*
Y5709198D01*
X11229195Y4909198D02*
X11254595D01*
X11279995Y4934598D01*
X11305395Y4909198D01*
X11330795D01*
Y4934598D01*
X11305395Y4959998D01*
X11330795Y4985398D01*
Y5010798D01*
X11305395D01*
X11279995Y4985398D01*
X11254595Y5010798D01*
X11229195D01*
Y4985398D01*
X11254595Y4959998D01*
X11229195Y4934598D01*
Y4909198D01*
X11069195Y6509197D02*
X11094595D01*
X11119995Y6534597D01*
X11145395Y6509197D01*
X11170795D01*
Y6534597D01*
X11145395Y6559997D01*
X11170795Y6585397D01*
Y6610797D01*
X11145395D01*
X11119995Y6585397D01*
X11094595Y6610797D01*
X11069195D01*
Y6585397D01*
X11094595Y6559997D01*
X11069195Y6534597D01*
Y6509197D01*
X10989195Y6349197D02*
X11014595D01*
X11039995Y6374597D01*
X11065395Y6349197D01*
X11090795D01*
Y6374597D01*
X11065395Y6399997D01*
X11090795Y6425397D01*
Y6450797D01*
X11065395D01*
X11039995Y6425397D01*
X11014595Y6450797D01*
X10989195D01*
Y6425397D01*
X11014595Y6399997D01*
X10989195Y6374597D01*
Y6349197D01*
X11069195Y6189197D02*
X11094595D01*
X11119995Y6214597D01*
X11145395Y6189197D01*
X11170795D01*
Y6214597D01*
X11145395Y6239997D01*
X11170795Y6265397D01*
Y6290797D01*
X11145395D01*
X11119995Y6265397D01*
X11094595Y6290797D01*
X11069195D01*
Y6265397D01*
X11094595Y6239997D01*
X11069195Y6214597D01*
Y6189197D01*
X10989195Y6029197D02*
X11014595D01*
X11039995Y6054597D01*
X11065395Y6029197D01*
X11090795D01*
Y6054597D01*
X11065395Y6079997D01*
X11090795Y6105397D01*
Y6130797D01*
X11065395D01*
X11039995Y6105397D01*
X11014595Y6130797D01*
X10989195D01*
Y6105397D01*
X11014595Y6079997D01*
X10989195Y6054597D01*
Y6029197D01*
X11069195Y5869198D02*
X11094595D01*
X11119995Y5894598D01*
X11145395Y5869198D01*
X11170795D01*
Y5894598D01*
X11145395Y5919998D01*
X11170795Y5945398D01*
Y5970798D01*
X11145395D01*
X11119995Y5945398D01*
X11094595Y5970798D01*
X11069195D01*
Y5945398D01*
X11094595Y5919998D01*
X11069195Y5894598D01*
Y5869198D01*
X10989195Y5709198D02*
X11014595D01*
X11039995Y5734598D01*
X11065395Y5709198D01*
X11090795D01*
Y5734598D01*
X11065395Y5759998D01*
X11090795Y5785398D01*
Y5810798D01*
X11065395D01*
X11039995Y5785398D01*
X11014595Y5810798D01*
X10989195D01*
Y5785398D01*
X11014595Y5759998D01*
X10989195Y5734598D01*
Y5709198D01*
X10909195Y6509197D02*
X10934595D01*
X10959995Y6534597D01*
X10985395Y6509197D01*
X11010795D01*
Y6534597D01*
X10985395Y6559997D01*
X11010795Y6585397D01*
Y6610797D01*
X10985395D01*
X10959995Y6585397D01*
X10934595Y6610797D01*
X10909195D01*
Y6585397D01*
X10934595Y6559997D01*
X10909195Y6534597D01*
Y6509197D01*
X10829196Y6349197D02*
X10854596D01*
X10879996Y6374597D01*
X10905396Y6349197D01*
X10930796D01*
Y6374597D01*
X10905396Y6399997D01*
X10930796Y6425397D01*
Y6450797D01*
X10905396D01*
X10879996Y6425397D01*
X10854596Y6450797D01*
X10829196D01*
Y6425397D01*
X10854596Y6399997D01*
X10829196Y6374597D01*
Y6349197D01*
X10909195Y6189197D02*
X10934595D01*
X10959995Y6214597D01*
X10985395Y6189197D01*
X11010795D01*
Y6214597D01*
X10985395Y6239997D01*
X11010795Y6265397D01*
Y6290797D01*
X10985395D01*
X10959995Y6265397D01*
X10934595Y6290797D01*
X10909195D01*
Y6265397D01*
X10934595Y6239997D01*
X10909195Y6214597D01*
Y6189197D01*
X10829196Y6029197D02*
X10854596D01*
X10879996Y6054597D01*
X10905396Y6029197D01*
X10930796D01*
Y6054597D01*
X10905396Y6079997D01*
X10930796Y6105397D01*
Y6130797D01*
X10905396D01*
X10879996Y6105397D01*
X10854596Y6130797D01*
X10829196D01*
Y6105397D01*
X10854596Y6079997D01*
X10829196Y6054597D01*
Y6029197D01*
X10909195Y5869198D02*
X10934595D01*
X10959995Y5894598D01*
X10985395Y5869198D01*
X11010795D01*
Y5894598D01*
X10985395Y5919998D01*
X11010795Y5945398D01*
Y5970798D01*
X10985395D01*
X10959995Y5945398D01*
X10934595Y5970798D01*
X10909195D01*
Y5945398D01*
X10934595Y5919998D01*
X10909195Y5894598D01*
Y5869198D01*
X10829196Y5709198D02*
X10854596D01*
X10879996Y5734598D01*
X10905396Y5709198D01*
X10930796D01*
Y5734598D01*
X10905396Y5759998D01*
X10930796Y5785398D01*
Y5810798D01*
X10905396D01*
X10879996Y5785398D01*
X10854596Y5810798D01*
X10829196D01*
Y5785398D01*
X10854596Y5759998D01*
X10829196Y5734598D01*
Y5709198D01*
X10749195Y6509197D02*
X10774595D01*
X10799995Y6534597D01*
X10825395Y6509197D01*
X10850795D01*
Y6534597D01*
X10825395Y6559997D01*
X10850795Y6585397D01*
Y6610797D01*
X10825395D01*
X10799995Y6585397D01*
X10774595Y6610797D01*
X10749195D01*
Y6585397D01*
X10774595Y6559997D01*
X10749195Y6534597D01*
Y6509197D01*
X10669196Y6349197D02*
X10694596D01*
X10719996Y6374597D01*
X10745396Y6349197D01*
X10770796D01*
Y6374597D01*
X10745396Y6399997D01*
X10770796Y6425397D01*
Y6450797D01*
X10745396D01*
X10719996Y6425397D01*
X10694596Y6450797D01*
X10669196D01*
Y6425397D01*
X10694596Y6399997D01*
X10669196Y6374597D01*
Y6349197D01*
X10749195Y6189197D02*
X10774595D01*
X10799995Y6214597D01*
X10825395Y6189197D01*
X10850795D01*
Y6214597D01*
X10825395Y6239997D01*
X10850795Y6265397D01*
Y6290797D01*
X10825395D01*
X10799995Y6265397D01*
X10774595Y6290797D01*
X10749195D01*
Y6265397D01*
X10774595Y6239997D01*
X10749195Y6214597D01*
Y6189197D01*
X10669196Y6029197D02*
X10694596D01*
X10719996Y6054597D01*
X10745396Y6029197D01*
X10770796D01*
Y6054597D01*
X10745396Y6079997D01*
X10770796Y6105397D01*
Y6130797D01*
X10745396D01*
X10719996Y6105397D01*
X10694596Y6130797D01*
X10669196D01*
Y6105397D01*
X10694596Y6079997D01*
X10669196Y6054597D01*
Y6029197D01*
X10749195Y5869198D02*
X10774595D01*
X10799995Y5894598D01*
X10825395Y5869198D01*
X10850795D01*
Y5894598D01*
X10825395Y5919998D01*
X10850795Y5945398D01*
Y5970798D01*
X10825395D01*
X10799995Y5945398D01*
X10774595Y5970798D01*
X10749195D01*
Y5945398D01*
X10774595Y5919998D01*
X10749195Y5894598D01*
Y5869198D01*
X10669196Y5709198D02*
X10694596D01*
X10719996Y5734598D01*
X10745396Y5709198D01*
X10770796D01*
Y5734598D01*
X10745396Y5759998D01*
X10770796Y5785398D01*
Y5810798D01*
X10745396D01*
X10719996Y5785398D01*
X10694596Y5810798D01*
X10669196D01*
Y5785398D01*
X10694596Y5759998D01*
X10669196Y5734598D01*
Y5709198D01*
X10589195Y6509197D02*
X10614595D01*
X10639995Y6534597D01*
X10665395Y6509197D01*
X10690795D01*
Y6534597D01*
X10665395Y6559997D01*
X10690795Y6585397D01*
Y6610797D01*
X10665395D01*
X10639995Y6585397D01*
X10614595Y6610797D01*
X10589195D01*
Y6585397D01*
X10614595Y6559997D01*
X10589195Y6534597D01*
Y6509197D01*
X10509196Y6349197D02*
X10534596D01*
X10559996Y6374597D01*
X10585396Y6349197D01*
X10610796D01*
Y6374597D01*
X10585396Y6399997D01*
X10610796Y6425397D01*
Y6450797D01*
X10585396D01*
X10559996Y6425397D01*
X10534596Y6450797D01*
X10509196D01*
Y6425397D01*
X10534596Y6399997D01*
X10509196Y6374597D01*
Y6349197D01*
X10589195Y6189197D02*
X10614595D01*
X10639995Y6214597D01*
X10665395Y6189197D01*
X10690795D01*
Y6214597D01*
X10665395Y6239997D01*
X10690795Y6265397D01*
Y6290797D01*
X10665395D01*
X10639995Y6265397D01*
X10614595Y6290797D01*
X10589195D01*
Y6265397D01*
X10614595Y6239997D01*
X10589195Y6214597D01*
Y6189197D01*
X10509196Y6029197D02*
X10534596D01*
X10559996Y6054597D01*
X10585396Y6029197D01*
X10610796D01*
Y6054597D01*
X10585396Y6079997D01*
X10610796Y6105397D01*
Y6130797D01*
X10585396D01*
X10559996Y6105397D01*
X10534596Y6130797D01*
X10509196D01*
Y6105397D01*
X10534596Y6079997D01*
X10509196Y6054597D01*
Y6029197D01*
X10589195Y5869198D02*
X10614595D01*
X10639995Y5894598D01*
X10665395Y5869198D01*
X10690795D01*
Y5894598D01*
X10665395Y5919998D01*
X10690795Y5945398D01*
Y5970798D01*
X10665395D01*
X10639995Y5945398D01*
X10614595Y5970798D01*
X10589195D01*
Y5945398D01*
X10614595Y5919998D01*
X10589195Y5894598D01*
Y5869198D01*
X10509196Y5709198D02*
X10534596D01*
X10559996Y5734598D01*
X10585396Y5709198D01*
X10610796D01*
Y5734598D01*
X10585396Y5759998D01*
X10610796Y5785398D01*
Y5810798D01*
X10585396D01*
X10559996Y5785398D01*
X10534596Y5810798D01*
X10509196D01*
Y5785398D01*
X10534596Y5759998D01*
X10509196Y5734598D01*
Y5709198D01*
X10429196Y6509197D02*
X10454596D01*
X10479996Y6534597D01*
X10505396Y6509197D01*
X10530796D01*
Y6534597D01*
X10505396Y6559997D01*
X10530796Y6585397D01*
Y6610797D01*
X10505396D01*
X10479996Y6585397D01*
X10454596Y6610797D01*
X10429196D01*
Y6585397D01*
X10454596Y6559997D01*
X10429196Y6534597D01*
Y6509197D01*
X10349196Y6349197D02*
X10374596D01*
X10399996Y6374597D01*
X10425396Y6349197D01*
X10450796D01*
Y6374597D01*
X10425396Y6399997D01*
X10450796Y6425397D01*
Y6450797D01*
X10425396D01*
X10399996Y6425397D01*
X10374596Y6450797D01*
X10349196D01*
Y6425397D01*
X10374596Y6399997D01*
X10349196Y6374597D01*
Y6349197D01*
X10429196Y6189197D02*
X10454596D01*
X10479996Y6214597D01*
X10505396Y6189197D01*
X10530796D01*
Y6214597D01*
X10505396Y6239997D01*
X10530796Y6265397D01*
Y6290797D01*
X10505396D01*
X10479996Y6265397D01*
X10454596Y6290797D01*
X10429196D01*
Y6265397D01*
X10454596Y6239997D01*
X10429196Y6214597D01*
Y6189197D01*
X10349196Y6029197D02*
X10374596D01*
X10399996Y6054597D01*
X10425396Y6029197D01*
X10450796D01*
Y6054597D01*
X10425396Y6079997D01*
X10450796Y6105397D01*
Y6130797D01*
X10425396D01*
X10399996Y6105397D01*
X10374596Y6130797D01*
X10349196D01*
Y6105397D01*
X10374596Y6079997D01*
X10349196Y6054597D01*
Y6029197D01*
X10429196Y5869198D02*
X10454596D01*
X10479996Y5894598D01*
X10505396Y5869198D01*
X10530796D01*
Y5894598D01*
X10505396Y5919998D01*
X10530796Y5945398D01*
Y5970798D01*
X10505396D01*
X10479996Y5945398D01*
X10454596Y5970798D01*
X10429196D01*
Y5945398D01*
X10454596Y5919998D01*
X10429196Y5894598D01*
Y5869198D01*
X10349196Y5709198D02*
X10374596D01*
X10399996Y5734598D01*
X10425396Y5709198D01*
X10450796D01*
Y5734598D01*
X10425396Y5759998D01*
X10450796Y5785398D01*
Y5810798D01*
X10425396D01*
X10399996Y5785398D01*
X10374596Y5810798D01*
X10349196D01*
Y5785398D01*
X10374596Y5759998D01*
X10349196Y5734598D01*
Y5709198D01*
Y5389198D02*
X10374596D01*
X10399996Y5414598D01*
X10425396Y5389198D01*
X10450796D01*
Y5414598D01*
X10425396Y5439998D01*
X10450796Y5465398D01*
Y5490798D01*
X10425396D01*
X10399996Y5465398D01*
X10374596Y5490798D01*
X10349196D01*
Y5465398D01*
X10374596Y5439998D01*
X10349196Y5414598D01*
Y5389198D01*
Y5069198D02*
X10374596D01*
X10399996Y5094598D01*
X10425396Y5069198D01*
X10450796D01*
Y5094598D01*
X10425396Y5119998D01*
X10450796Y5145398D01*
Y5170798D01*
X10425396D01*
X10399996Y5145398D01*
X10374596Y5170798D01*
X10349196D01*
Y5145398D01*
X10374596Y5119998D01*
X10349196Y5094598D01*
Y5069198D01*
X10269196Y6509197D02*
X10294596D01*
X10319996Y6534597D01*
X10345396Y6509197D01*
X10370796D01*
Y6534597D01*
X10345396Y6559997D01*
X10370796Y6585397D01*
Y6610797D01*
X10345396D01*
X10319996Y6585397D01*
X10294596Y6610797D01*
X10269196D01*
Y6585397D01*
X10294596Y6559997D01*
X10269196Y6534597D01*
Y6509197D01*
X10189196Y6349197D02*
X10214596D01*
X10239996Y6374597D01*
X10265396Y6349197D01*
X10290796D01*
Y6374597D01*
X10265396Y6399997D01*
X10290796Y6425397D01*
Y6450797D01*
X10265396D01*
X10239996Y6425397D01*
X10214596Y6450797D01*
X10189196D01*
Y6425397D01*
X10214596Y6399997D01*
X10189196Y6374597D01*
Y6349197D01*
X10269196Y6189197D02*
X10294596D01*
X10319996Y6214597D01*
X10345396Y6189197D01*
X10370796D01*
Y6214597D01*
X10345396Y6239997D01*
X10370796Y6265397D01*
Y6290797D01*
X10345396D01*
X10319996Y6265397D01*
X10294596Y6290797D01*
X10269196D01*
Y6265397D01*
X10294596Y6239997D01*
X10269196Y6214597D01*
Y6189197D01*
X10189196Y6029197D02*
X10214596D01*
X10239996Y6054597D01*
X10265396Y6029197D01*
X10290796D01*
Y6054597D01*
X10265396Y6079997D01*
X10290796Y6105397D01*
Y6130797D01*
X10265396D01*
X10239996Y6105397D01*
X10214596Y6130797D01*
X10189196D01*
Y6105397D01*
X10214596Y6079997D01*
X10189196Y6054597D01*
Y6029197D01*
X10269196Y5869198D02*
X10294596D01*
X10319996Y5894598D01*
X10345396Y5869198D01*
X10370796D01*
Y5894598D01*
X10345396Y5919998D01*
X10370796Y5945398D01*
Y5970798D01*
X10345396D01*
X10319996Y5945398D01*
X10294596Y5970798D01*
X10269196D01*
Y5945398D01*
X10294596Y5919998D01*
X10269196Y5894598D01*
Y5869198D01*
X10189196Y5709198D02*
X10214596D01*
X10239996Y5734598D01*
X10265396Y5709198D01*
X10290796D01*
Y5734598D01*
X10265396Y5759998D01*
X10290796Y5785398D01*
Y5810798D01*
X10265396D01*
X10239996Y5785398D01*
X10214596Y5810798D01*
X10189196D01*
Y5785398D01*
X10214596Y5759998D01*
X10189196Y5734598D01*
Y5709198D01*
X10269196Y5229198D02*
X10294596D01*
X10319996Y5254598D01*
X10345396Y5229198D01*
X10370796D01*
Y5254598D01*
X10345396Y5279998D01*
X10370796Y5305398D01*
Y5330798D01*
X10345396D01*
X10319996Y5305398D01*
X10294596Y5330798D01*
X10269196D01*
Y5305398D01*
X10294596Y5279998D01*
X10269196Y5254598D01*
Y5229198D01*
X10189196Y5069198D02*
X10214596D01*
X10239996Y5094598D01*
X10265396Y5069198D01*
X10290796D01*
Y5094598D01*
X10265396Y5119998D01*
X10290796Y5145398D01*
Y5170798D01*
X10265396D01*
X10239996Y5145398D01*
X10214596Y5170798D01*
X10189196D01*
Y5145398D01*
X10214596Y5119998D01*
X10189196Y5094598D01*
Y5069198D01*
X10029196Y6029197D02*
X10054596D01*
X10079996Y6054597D01*
X10105396Y6029197D01*
X10130796D01*
Y6054597D01*
X10105396Y6079997D01*
X10130796Y6105397D01*
Y6130797D01*
X10105396D01*
X10079996Y6105397D01*
X10054596Y6130797D01*
X10029196D01*
Y6105397D01*
X10054596Y6079997D01*
X10029196Y6054597D01*
Y6029197D01*
X10109196Y5869198D02*
X10134596D01*
X10159996Y5894598D01*
X10185396Y5869198D01*
X10210796D01*
Y5894598D01*
X10185396Y5919998D01*
X10210796Y5945398D01*
Y5970798D01*
X10185396D01*
X10159996Y5945398D01*
X10134596Y5970798D01*
X10109196D01*
Y5945398D01*
X10134596Y5919998D01*
X10109196Y5894598D01*
Y5869198D01*
X10029196Y5709198D02*
X10054596D01*
X10079996Y5734598D01*
X10105396Y5709198D01*
X10130796D01*
Y5734598D01*
X10105396Y5759998D01*
X10130796Y5785398D01*
Y5810798D01*
X10105396D01*
X10079996Y5785398D01*
X10054596Y5810798D01*
X10029196D01*
Y5785398D01*
X10054596Y5759998D01*
X10029196Y5734598D01*
Y5709198D01*
Y5389198D02*
X10054596D01*
X10079996Y5414598D01*
X10105396Y5389198D01*
X10130796D01*
Y5414598D01*
X10105396Y5439998D01*
X10130796Y5465398D01*
Y5490798D01*
X10105396D01*
X10079996Y5465398D01*
X10054596Y5490798D01*
X10029196D01*
Y5465398D01*
X10054596Y5439998D01*
X10029196Y5414598D01*
Y5389198D01*
X10109196Y5229198D02*
X10134596D01*
X10159996Y5254598D01*
X10185396Y5229198D01*
X10210796D01*
Y5254598D01*
X10185396Y5279998D01*
X10210796Y5305398D01*
Y5330798D01*
X10185396D01*
X10159996Y5305398D01*
X10134596Y5330798D01*
X10109196D01*
Y5305398D01*
X10134596Y5279998D01*
X10109196Y5254598D01*
Y5229198D01*
X10029196Y5069198D02*
X10054596D01*
X10079996Y5094598D01*
X10105396Y5069198D01*
X10130796D01*
Y5094598D01*
X10105396Y5119998D01*
X10130796Y5145398D01*
Y5170798D01*
X10105396D01*
X10079996Y5145398D01*
X10054596Y5170798D01*
X10029196D01*
Y5145398D01*
X10054596Y5119998D01*
X10029196Y5094598D01*
Y5069198D01*
X9869196Y6029197D02*
X9894596D01*
X9919996Y6054597D01*
X9945396Y6029197D01*
X9970796D01*
Y6054597D01*
X9945396Y6079997D01*
X9970796Y6105397D01*
Y6130797D01*
X9945396D01*
X9919996Y6105397D01*
X9894596Y6130797D01*
X9869196D01*
Y6105397D01*
X9894596Y6079997D01*
X9869196Y6054597D01*
Y6029197D01*
X9949196Y5869198D02*
X9974596D01*
X9999996Y5894598D01*
X10025396Y5869198D01*
X10050796D01*
Y5894598D01*
X10025396Y5919998D01*
X10050796Y5945398D01*
Y5970798D01*
X10025396D01*
X9999996Y5945398D01*
X9974596Y5970798D01*
X9949196D01*
Y5945398D01*
X9974596Y5919998D01*
X9949196Y5894598D01*
Y5869198D01*
X9869196Y5709198D02*
X9894596D01*
X9919996Y5734598D01*
X9945396Y5709198D01*
X9970796D01*
Y5734598D01*
X9945396Y5759998D01*
X9970796Y5785398D01*
Y5810798D01*
X9945396D01*
X9919996Y5785398D01*
X9894596Y5810798D01*
X9869196D01*
Y5785398D01*
X9894596Y5759998D01*
X9869196Y5734598D01*
Y5709198D01*
X9949196Y5229198D02*
X9974596D01*
X9999996Y5254598D01*
X10025396Y5229198D01*
X10050796D01*
Y5254598D01*
X10025396Y5279998D01*
X10050796Y5305398D01*
Y5330798D01*
X10025396D01*
X9999996Y5305398D01*
X9974596Y5330798D01*
X9949196D01*
Y5305398D01*
X9974596Y5279998D01*
X9949196Y5254598D01*
Y5229198D01*
X9709196Y6029197D02*
X9734596D01*
X9759996Y6054597D01*
X9785396Y6029197D01*
X9810796D01*
Y6054597D01*
X9785396Y6079997D01*
X9810796Y6105397D01*
Y6130797D01*
X9785396D01*
X9759996Y6105397D01*
X9734596Y6130797D01*
X9709196D01*
Y6105397D01*
X9734596Y6079997D01*
X9709196Y6054597D01*
Y6029197D01*
X9789196Y5869198D02*
X9814596D01*
X9839996Y5894598D01*
X9865396Y5869198D01*
X9890796D01*
Y5894598D01*
X9865396Y5919998D01*
X9890796Y5945398D01*
Y5970798D01*
X9865396D01*
X9839996Y5945398D01*
X9814596Y5970798D01*
X9789196D01*
Y5945398D01*
X9814596Y5919998D01*
X9789196Y5894598D01*
Y5869198D01*
X9709196Y5709198D02*
X9734596D01*
X9759996Y5734598D01*
X9785396Y5709198D01*
X9810796D01*
Y5734598D01*
X9785396Y5759998D01*
X9810796Y5785398D01*
Y5810798D01*
X9785396D01*
X9759996Y5785398D01*
X9734596Y5810798D01*
X9709196D01*
Y5785398D01*
X9734596Y5759998D01*
X9709196Y5734598D01*
Y5709198D01*
Y5389198D02*
X9734596D01*
X9759996Y5414598D01*
X9785396Y5389198D01*
X9810796D01*
Y5414598D01*
X9785396Y5439998D01*
X9810796Y5465398D01*
Y5490798D01*
X9785396D01*
X9759996Y5465398D01*
X9734596Y5490798D01*
X9709196D01*
Y5465398D01*
X9734596Y5439998D01*
X9709196Y5414598D01*
Y5389198D01*
X9549196Y6029197D02*
X9574596D01*
X9599996Y6054597D01*
X9625396Y6029197D01*
X9650796D01*
Y6054597D01*
X9625396Y6079997D01*
X9650796Y6105397D01*
Y6130797D01*
X9625396D01*
X9599996Y6105397D01*
X9574596Y6130797D01*
X9549196D01*
Y6105397D01*
X9574596Y6079997D01*
X9549196Y6054597D01*
Y6029197D01*
X9629196Y5869198D02*
X9654596D01*
X9679996Y5894598D01*
X9705396Y5869198D01*
X9730796D01*
Y5894598D01*
X9705396Y5919998D01*
X9730796Y5945398D01*
Y5970798D01*
X9705396D01*
X9679996Y5945398D01*
X9654596Y5970798D01*
X9629196D01*
Y5945398D01*
X9654596Y5919998D01*
X9629196Y5894598D01*
Y5869198D01*
X10919200Y5090000D02*
X10970000Y5140800D01*
X11020800Y5090000D01*
X10970000Y5039200D01*
X10919200Y5090000D01*
X10659200D02*
X10710000Y5140800D01*
X10760800Y5090000D01*
X10710000Y5039200D01*
X10659200Y5090000D01*
X11049200Y5200000D02*
X11100000Y5250800D01*
X11150800Y5200000D01*
X11100000Y5149200D01*
X11049200Y5200000D01*
X10529200D02*
X10580000Y5250800D01*
X10630800Y5200000D01*
X10580000Y5149200D01*
X10529200Y5200000D01*
X10785200D02*
X10836000Y5250800D01*
X10886800Y5200000D01*
X10836000Y5149200D01*
X10785200Y5200000D01*
X10789200Y4980000D02*
X10840000Y5030800D01*
X10890800Y4980000D01*
X10840000Y4929200D01*
X10789200Y4980000D01*
X11049200D02*
X11100000Y5030800D01*
X11150800Y4980000D01*
X11100000Y4929200D01*
X11049200Y4980000D01*
X10529200D02*
X10580000Y5030800D01*
X10630800Y4980000D01*
X10580000Y4929200D01*
X10529200Y4980000D01*
X6359200Y7039200D02*
X6384600D01*
X6410000Y7064600D01*
X6435400Y7039200D01*
X6460800D01*
Y7064600D01*
X6435400Y7090000D01*
X6460800Y7115400D01*
Y7140800D01*
X6435400D01*
X6410000Y7115400D01*
X6384600Y7140800D01*
X6359200D01*
Y7115400D01*
X6384600Y7090000D01*
X6359200Y7064600D01*
Y7039200D01*
X5859200D02*
X5884600D01*
X5910000Y7064600D01*
X5935400Y7039200D01*
X5960800D01*
Y7064600D01*
X5935400Y7090000D01*
X5960800Y7115400D01*
Y7140800D01*
X5935400D01*
X5910000Y7115400D01*
X5884600Y7140800D01*
X5859200D01*
Y7115400D01*
X5884600Y7090000D01*
X5859200Y7064600D01*
Y7039200D01*
X6169200D02*
X6194600D01*
X6220000Y7064600D01*
X6245400Y7039200D01*
X6270800D01*
Y7064600D01*
X6245400Y7090000D01*
X6270800Y7115400D01*
Y7140800D01*
X6245400D01*
X6220000Y7115400D01*
X6194600Y7140800D01*
X6169200D01*
Y7115400D01*
X6194600Y7090000D01*
X6169200Y7064600D01*
Y7039200D01*
X3449200Y4899200D02*
X3474600D01*
X3500000Y4924600D01*
X3525400Y4899200D01*
X3550800D01*
Y4924600D01*
X3525400Y4950000D01*
X3550800Y4975400D01*
Y5000800D01*
X3525400D01*
X3500000Y4975400D01*
X3474600Y5000800D01*
X3449200D01*
Y4975400D01*
X3474600Y4950000D01*
X3449200Y4924600D01*
Y4899200D01*
X3139200Y4909200D02*
X3164600D01*
X3190000Y4934600D01*
X3215400Y4909200D01*
X3240800D01*
Y4934600D01*
X3215400Y4960000D01*
X3240800Y4985400D01*
Y5010800D01*
X3215400D01*
X3190000Y4985400D01*
X3164600Y5010800D01*
X3139200D01*
Y4985400D01*
X3164600Y4960000D01*
X3139200Y4934600D01*
Y4909200D01*
X10589200Y5419200D02*
X10614600D01*
X10640000Y5444600D01*
X10665400Y5419200D01*
X10690800D01*
Y5444600D01*
X10665400Y5470000D01*
X10690800Y5495400D01*
Y5520800D01*
X10665400D01*
X10640000Y5495400D01*
X10614600Y5520800D01*
X10589200D01*
Y5495400D01*
X10614600Y5470000D01*
X10589200Y5444600D01*
Y5419200D01*
X9649200Y5659200D02*
X9674600D01*
X9700000Y5684600D01*
X9725400Y5659200D01*
X9750800D01*
Y5684600D01*
X9725400Y5710000D01*
X9750800Y5735400D01*
Y5760800D01*
X9725400D01*
X9700000Y5735400D01*
X9674600Y5760800D01*
X9649200D01*
Y5735400D01*
X9674600Y5710000D01*
X9649200Y5684600D01*
Y5659200D01*
X9549200Y5429200D02*
X9574600D01*
X9600000Y5454600D01*
X9625400Y5429200D01*
X9650800D01*
Y5454600D01*
X9625400Y5480000D01*
X9650800Y5505400D01*
Y5530800D01*
X9625400D01*
X9600000Y5505400D01*
X9574600Y5530800D01*
X9549200D01*
Y5505400D01*
X9574600Y5480000D01*
X9549200Y5454600D01*
Y5429200D01*
X9529200Y5659200D02*
X9554600D01*
X9580000Y5684600D01*
X9605400Y5659200D01*
X9630800D01*
Y5684600D01*
X9605400Y5710000D01*
X9630800Y5735400D01*
Y5760800D01*
X9605400D01*
X9580000Y5735400D01*
X9554600Y5760800D01*
X9529200D01*
Y5735400D01*
X9554600Y5710000D01*
X9529200Y5684600D01*
Y5659200D01*
X9409200D02*
X9434600D01*
X9460000Y5684600D01*
X9485400Y5659200D01*
X9510800D01*
Y5684600D01*
X9485400Y5710000D01*
X9510800Y5735400D01*
Y5760800D01*
X9485400D01*
X9460000Y5735400D01*
X9434600Y5760800D01*
X9409200D01*
Y5735400D01*
X9434600Y5710000D01*
X9409200Y5684600D01*
Y5659200D01*
X10859200Y5409200D02*
X10884600D01*
X10910000Y5434600D01*
X10935400Y5409200D01*
X10960800D01*
Y5434600D01*
X10935400Y5460000D01*
X10960800Y5485400D01*
Y5510800D01*
X10935400D01*
X10910000Y5485400D01*
X10884600Y5510800D01*
X10859200D01*
Y5485400D01*
X10884600Y5460000D01*
X10859200Y5434600D01*
Y5409200D01*
X10739200Y5419200D02*
X10764600D01*
X10790000Y5444600D01*
X10815400Y5419200D01*
X10840800D01*
Y5444600D01*
X10815400Y5470000D01*
X10840800Y5495400D01*
Y5520800D01*
X10815400D01*
X10790000Y5495400D01*
X10764600Y5520800D01*
X10739200D01*
Y5495400D01*
X10764600Y5470000D01*
X10739200Y5444600D01*
Y5419200D01*
X10449200Y5429200D02*
X10474600D01*
X10500000Y5454600D01*
X10525400Y5429200D01*
X10550800D01*
Y5454600D01*
X10525400Y5480000D01*
X10550800Y5505400D01*
Y5530800D01*
X10525400D01*
X10500000Y5505400D01*
X10474600Y5530800D01*
X10449200D01*
Y5505400D01*
X10474600Y5480000D01*
X10449200Y5454600D01*
Y5429200D01*
X11029200Y5439200D02*
X11054600D01*
X11080000Y5464600D01*
X11105400Y5439200D01*
X11130800D01*
Y5464600D01*
X11105400Y5490000D01*
X11130800Y5515400D01*
Y5540800D01*
X11105400D01*
X11080000Y5515400D01*
X11054600Y5540800D01*
X11029200D01*
Y5515400D01*
X11054600Y5490000D01*
X11029200Y5464600D01*
Y5439200D01*
X11149200D02*
X11174600D01*
X11200000Y5464600D01*
X11225400Y5439200D01*
X11250800D01*
Y5464600D01*
X11225400Y5490000D01*
X11250800Y5515400D01*
Y5540800D01*
X11225400D01*
X11200000Y5515400D01*
X11174600Y5540800D01*
X11149200D01*
Y5515400D01*
X11174600Y5490000D01*
X11149200Y5464600D01*
Y5439200D01*
Y5649200D02*
X11174600D01*
X11200000Y5674600D01*
X11225400Y5649200D01*
X11250800D01*
Y5674600D01*
X11225400Y5700000D01*
X11250800Y5725400D01*
Y5750800D01*
X11225400D01*
X11200000Y5725400D01*
X11174600Y5750800D01*
X11149200D01*
Y5725400D01*
X11174600Y5700000D01*
X11149200Y5674600D01*
Y5649200D01*
X11029200D02*
X11054600D01*
X11080000Y5674600D01*
X11105400Y5649200D01*
X11130800D01*
Y5674600D01*
X11105400Y5700000D01*
X11130800Y5725400D01*
Y5750800D01*
X11105400D01*
X11080000Y5725400D01*
X11054600Y5750800D01*
X11029200D01*
Y5725400D01*
X11054600Y5700000D01*
X11029200Y5674600D01*
Y5649200D01*
X10149200Y5439200D02*
X10174600D01*
X10200000Y5464600D01*
X10225400Y5439200D01*
X10250800D01*
Y5464600D01*
X10225400Y5490000D01*
X10250800Y5515400D01*
Y5540800D01*
X10225400D01*
X10200000Y5515400D01*
X10174600Y5540800D01*
X10149200D01*
Y5515400D01*
X10174600Y5490000D01*
X10149200Y5464600D01*
Y5439200D01*
X10269200D02*
X10294600D01*
X10320000Y5464600D01*
X10345400Y5439200D01*
X10370800D01*
Y5464600D01*
X10345400Y5490000D01*
X10370800Y5515400D01*
Y5540800D01*
X10345400D01*
X10320000Y5515400D01*
X10294600Y5540800D01*
X10269200D01*
Y5515400D01*
X10294600Y5490000D01*
X10269200Y5464600D01*
Y5439200D01*
Y5649200D02*
X10294600D01*
X10320000Y5674600D01*
X10345400Y5649200D01*
X10370800D01*
Y5674600D01*
X10345400Y5700000D01*
X10370800Y5725400D01*
Y5750800D01*
X10345400D01*
X10320000Y5725400D01*
X10294600Y5750800D01*
X10269200D01*
Y5725400D01*
X10294600Y5700000D01*
X10269200Y5674600D01*
Y5649200D01*
X10149200D02*
X10174600D01*
X10200000Y5674600D01*
X10225400Y5649200D01*
X10250800D01*
Y5674600D01*
X10225400Y5700000D01*
X10250800Y5725400D01*
Y5750800D01*
X10225400D01*
X10200000Y5725400D01*
X10174600Y5750800D01*
X10149200D01*
Y5725400D01*
X10174600Y5700000D01*
X10149200Y5674600D01*
Y5649200D01*
X9789200D02*
X9814600D01*
X9840000Y5674600D01*
X9865400Y5649200D01*
X9890800D01*
Y5674600D01*
X9865400Y5700000D01*
X9890800Y5725400D01*
Y5750800D01*
X9865400D01*
X9840000Y5725400D01*
X9814600Y5750800D01*
X9789200D01*
Y5725400D01*
X9814600Y5700000D01*
X9789200Y5674600D01*
Y5649200D01*
X9909200D02*
X9934600D01*
X9960000Y5674600D01*
X9985400Y5649200D01*
X10010800D01*
Y5674600D01*
X9985400Y5700000D01*
X10010800Y5725400D01*
Y5750800D01*
X9985400D01*
X9960000Y5725400D01*
X9934600Y5750800D01*
X9909200D01*
Y5725400D01*
X9934600Y5700000D01*
X9909200Y5674600D01*
Y5649200D01*
Y5439200D02*
X9934600D01*
X9960000Y5464600D01*
X9985400Y5439200D01*
X10010800D01*
Y5464600D01*
X9985400Y5490000D01*
X10010800Y5515400D01*
Y5540800D01*
X9985400D01*
X9960000Y5515400D01*
X9934600Y5540800D01*
X9909200D01*
Y5515400D01*
X9934600Y5490000D01*
X9909200Y5464600D01*
Y5439200D01*
X9789200D02*
X9814600D01*
X9840000Y5464600D01*
X9865400Y5439200D01*
X9890800D01*
Y5464600D01*
X9865400Y5490000D01*
X9890800Y5515400D01*
Y5540800D01*
X9865400D01*
X9840000Y5515400D01*
X9814600Y5540800D01*
X9789200D01*
Y5515400D01*
X9814600Y5490000D01*
X9789200Y5464600D01*
Y5439200D01*
X9289200Y5619200D02*
X9314600D01*
X9340000Y5644600D01*
X9365400Y5619200D01*
X9390800D01*
Y5644600D01*
X9365400Y5670000D01*
X9390800Y5695400D01*
Y5720800D01*
X9365400D01*
X9340000Y5695400D01*
X9314600Y5720800D01*
X9289200D01*
Y5695400D01*
X9314600Y5670000D01*
X9289200Y5644600D01*
Y5619200D01*
X9466435Y5052322D02*
X9491835D01*
X9517235Y5077722D01*
X9542635Y5052322D01*
X9568035D01*
Y5077722D01*
X9542635Y5103122D01*
X9568035Y5128522D01*
Y5153922D01*
X9542635D01*
X9517235Y5128522D01*
X9491835Y5153922D01*
X9466435D01*
Y5128522D01*
X9491835Y5103122D01*
X9466435Y5077722D01*
Y5052322D01*
X8499200Y5550000D02*
X8550000Y5600800D01*
X8600800Y5550000D01*
X8550000Y5499200D01*
X8499200Y5550000D01*
Y5440000D02*
X8550000Y5490800D01*
X8600800Y5440000D01*
X8550000Y5389200D01*
X8499200Y5440000D01*
Y5340000D02*
X8550000Y5390800D01*
X8600800Y5340000D01*
X8550000Y5289200D01*
X8499200Y5340000D01*
Y5240000D02*
X8550000Y5290800D01*
X8600800Y5240000D01*
X8550000Y5189200D01*
X8499200Y5240000D01*
Y5130000D02*
X8550000Y5180800D01*
X8600800Y5130000D01*
X8550000Y5079200D01*
X8499200Y5130000D01*
X8609200Y5030000D02*
X8660000Y5080800D01*
X8710800Y5030000D01*
X8660000Y4979200D01*
X8609200Y5030000D01*
X8729200D02*
X8780000Y5080800D01*
X8830800Y5030000D01*
X8780000Y4979200D01*
X8729200Y5030000D01*
X8849200D02*
X8900000Y5080800D01*
X8950800Y5030000D01*
X8900000Y4979200D01*
X8849200Y5030000D01*
X8969200D02*
X9020000Y5080800D01*
X9070800Y5030000D01*
X9020000Y4979200D01*
X8969200Y5030000D01*
X8629200Y4669200D02*
X8654600D01*
X8680000Y4694600D01*
X8705400Y4669200D01*
X8730800D01*
Y4694600D01*
X8705400Y4720000D01*
X8730800Y4745400D01*
Y4770800D01*
X8705400D01*
X8680000Y4745400D01*
X8654600Y4770800D01*
X8629200D01*
Y4745400D01*
X8654600Y4720000D01*
X8629200Y4694600D01*
Y4669200D01*
X8529200Y4059200D02*
X8554600D01*
X8580000Y4084600D01*
X8605400Y4059200D01*
X8630800D01*
Y4084600D01*
X8605400Y4110000D01*
X8630800Y4135400D01*
Y4160800D01*
X8605400D01*
X8580000Y4135400D01*
X8554600Y4160800D01*
X8529200D01*
Y4135400D01*
X8554600Y4110000D01*
X8529200Y4084600D01*
Y4059200D01*
X8539200Y4189200D02*
X8564600D01*
X8590000Y4214600D01*
X8615400Y4189200D01*
X8640800D01*
Y4214600D01*
X8615400Y4240000D01*
X8640800Y4265400D01*
Y4290800D01*
X8615400D01*
X8590000Y4265400D01*
X8564600Y4290800D01*
X8539200D01*
Y4265400D01*
X8564600Y4240000D01*
X8539200Y4214600D01*
Y4189200D01*
X6209200Y5809200D02*
X6234600D01*
X6260000Y5834600D01*
X6285400Y5809200D01*
X6310800D01*
Y5834600D01*
X6285400Y5860000D01*
X6310800Y5885400D01*
Y5910800D01*
X6285400D01*
X6260000Y5885400D01*
X6234600Y5910800D01*
X6209200D01*
Y5885400D01*
X6234600Y5860000D01*
X6209200Y5834600D01*
Y5809200D01*
X6369200Y6280000D02*
X6420000Y6330800D01*
X6470800Y6280000D01*
X6420000Y6229200D01*
X6369200Y6280000D01*
X6509200D02*
X6560000Y6330800D01*
X6610800Y6280000D01*
X6560000Y6229200D01*
X6509200Y6280000D01*
X6649200D02*
X6700000Y6330800D01*
X6750800Y6280000D01*
X6700000Y6229200D01*
X6649200Y6280000D01*
X6789200D02*
X6840000Y6330800D01*
X6890800Y6280000D01*
X6840000Y6229200D01*
X6789200Y6280000D01*
X6939200D02*
X6990000Y6330800D01*
X7040800Y6280000D01*
X6990000Y6229200D01*
X6939200Y6280000D01*
X6369200Y6390000D02*
X6420000Y6440800D01*
X6470800Y6390000D01*
X6420000Y6339200D01*
X6369200Y6390000D01*
X6509200D02*
X6560000Y6440800D01*
X6610800Y6390000D01*
X6560000Y6339200D01*
X6509200Y6390000D01*
X6649200D02*
X6700000Y6440800D01*
X6750800Y6390000D01*
X6700000Y6339200D01*
X6649200Y6390000D01*
X6789200D02*
X6840000Y6440800D01*
X6890800Y6390000D01*
X6840000Y6339200D01*
X6789200Y6390000D01*
X6939200D02*
X6990000Y6440800D01*
X7040800Y6390000D01*
X6990000Y6339200D01*
X6939200Y6390000D01*
X6369200Y6510000D02*
X6420000Y6560800D01*
X6470800Y6510000D01*
X6420000Y6459200D01*
X6369200Y6510000D01*
X6509200D02*
X6560000Y6560800D01*
X6610800Y6510000D01*
X6560000Y6459200D01*
X6509200Y6510000D01*
X6649200D02*
X6700000Y6560800D01*
X6750800Y6510000D01*
X6700000Y6459200D01*
X6649200Y6510000D01*
Y6630000D02*
X6700000Y6680800D01*
X6750800Y6630000D01*
X6700000Y6579200D01*
X6649200Y6630000D01*
X6509200D02*
X6560000Y6680800D01*
X6610800Y6630000D01*
X6560000Y6579200D01*
X6509200Y6630000D01*
X6369200D02*
X6420000Y6680800D01*
X6470800Y6630000D01*
X6420000Y6579200D01*
X6369200Y6630000D01*
X5919200Y6399200D02*
X5944600D01*
X5970000Y6424600D01*
X5995400Y6399200D01*
X6020800D01*
Y6424600D01*
X5995400Y6450000D01*
X6020800Y6475400D01*
Y6500800D01*
X5995400D01*
X5970000Y6475400D01*
X5944600Y6500800D01*
X5919200D01*
Y6475400D01*
X5944600Y6450000D01*
X5919200Y6424600D01*
Y6399200D01*
X5949200Y6189200D02*
X5974600D01*
X6000000Y6214600D01*
X6025400Y6189200D01*
X6050800D01*
Y6214600D01*
X6025400Y6240000D01*
X6050800Y6265400D01*
Y6290800D01*
X6025400D01*
X6000000Y6265400D01*
X5974600Y6290800D01*
X5949200D01*
Y6265400D01*
X5974600Y6240000D01*
X5949200Y6214600D01*
Y6189200D01*
X5549200Y6219200D02*
X5574600D01*
X5600000Y6244600D01*
X5625400Y6219200D01*
X5650800D01*
Y6244600D01*
X5625400Y6270000D01*
X5650800Y6295400D01*
Y6320800D01*
X5625400D01*
X5600000Y6295400D01*
X5574600Y6320800D01*
X5549200D01*
Y6295400D01*
X5574600Y6270000D01*
X5549200Y6244600D01*
Y6219200D01*
X5769188Y6379187D02*
X5794588D01*
X5819988Y6404587D01*
X5845388Y6379187D01*
X5870788D01*
Y6404587D01*
X5845388Y6429987D01*
X5870788Y6455387D01*
Y6480787D01*
X5845388D01*
X5819988Y6455387D01*
X5794588Y6480787D01*
X5769188D01*
Y6455387D01*
X5794588Y6429987D01*
X5769188Y6404587D01*
Y6379187D01*
X3349200Y6689200D02*
Y6790800D01*
X3450800D01*
Y6689200D01*
X3349200D01*
X3369520Y6709520D02*
Y6770480D01*
X3430480D01*
Y6709520D01*
X3369520D01*
X4859200Y6689200D02*
Y6790800D01*
X4960800D01*
Y6689200D01*
X4859200D01*
X4879520Y6709520D02*
Y6770480D01*
X4940480D01*
Y6709520D01*
X4879520D01*
X2449200Y5890000D02*
X2500000Y5940800D01*
X2550800Y5890000D01*
X2500000Y5839200D01*
X2449200Y5890000D01*
X5759188Y6309187D02*
X5784588D01*
X5809988Y6334587D01*
X5835388Y6309187D01*
X5860788D01*
Y6334587D01*
X5835388Y6359987D01*
X5860788Y6385387D01*
Y6410787D01*
X5835388D01*
X5809988Y6385387D01*
X5784588Y6410787D01*
X5759188D01*
Y6385387D01*
X5784588Y6359987D01*
X5759188Y6334587D01*
Y6309187D01*
X2449200Y5290000D02*
X2500000Y5340800D01*
X2550800Y5290000D01*
X2500000Y5239200D01*
X2449200Y5290000D01*
X8859200Y4669200D02*
X8884600D01*
X8910000Y4694600D01*
X8935400Y4669200D01*
X8960800D01*
Y4694600D01*
X8935400Y4720000D01*
X8960800Y4745400D01*
Y4770800D01*
X8935400D01*
X8910000Y4745400D01*
X8884600Y4770800D01*
X8859200D01*
Y4745400D01*
X8884600Y4720000D01*
X8859200Y4694600D01*
Y4669200D01*
X8739200Y4589200D02*
X8764600D01*
X8790000Y4614600D01*
X8815400Y4589200D01*
X8840800D01*
Y4614600D01*
X8815400Y4640000D01*
X8840800Y4665400D01*
Y4690800D01*
X8815400D01*
X8790000Y4665400D01*
X8764600Y4690800D01*
X8739200D01*
Y4665400D01*
X8764600Y4640000D01*
X8739200Y4614600D01*
Y4589200D01*
X9399200Y5909200D02*
X9424600D01*
X9450000Y5934600D01*
X9475400Y5909200D01*
X9500800D01*
Y5934600D01*
X9475400Y5960000D01*
X9500800Y5985400D01*
Y6010800D01*
X9475400D01*
X9450000Y5985400D01*
X9424600Y6010800D01*
X9399200D01*
Y5985400D01*
X9424600Y5960000D01*
X9399200Y5934600D01*
Y5909200D01*
X9319200Y5359200D02*
X9344600D01*
X9370000Y5384600D01*
X9395400Y5359200D01*
X9420800D01*
Y5384600D01*
X9395400Y5410000D01*
X9420800Y5435400D01*
Y5460800D01*
X9395400D01*
X9370000Y5435400D01*
X9344600Y5460800D01*
X9319200D01*
Y5435400D01*
X9344600Y5410000D01*
X9319200Y5384600D01*
Y5359200D01*
X9389199Y5351900D02*
X9414599D01*
X9439999Y5377300D01*
X9465399Y5351900D01*
X9490799D01*
Y5377300D01*
X9465399Y5402700D01*
X9490799Y5428100D01*
Y5453500D01*
X9465399D01*
X9439999Y5428100D01*
X9414599Y5453500D01*
X9389199D01*
Y5428100D01*
X9414599Y5402700D01*
X9389199Y5377300D01*
Y5351900D01*
X9315526Y5015526D02*
X9340926D01*
X9366326Y5040926D01*
X9391726Y5015526D01*
X9417126D01*
Y5040926D01*
X9391726Y5066326D01*
X9417126Y5091726D01*
Y5117126D01*
X9391726D01*
X9366326Y5091726D01*
X9340926Y5117126D01*
X9315526D01*
Y5091726D01*
X9340926Y5066326D01*
X9315526Y5040926D01*
Y5015526D01*
X8129200Y6539200D02*
X8154600D01*
X8180000Y6564600D01*
X8205400Y6539200D01*
X8230800D01*
Y6564600D01*
X8205400Y6590000D01*
X8230800Y6615400D01*
Y6640800D01*
X8205400D01*
X8180000Y6615400D01*
X8154600Y6640800D01*
X8129200D01*
Y6615400D01*
X8154600Y6590000D01*
X8129200Y6564600D01*
Y6539200D01*
X8119200Y6169200D02*
X8144600D01*
X8170000Y6194600D01*
X8195400Y6169200D01*
X8220800D01*
Y6194600D01*
X8195400Y6220000D01*
X8220800Y6245400D01*
Y6270800D01*
X8195400D01*
X8170000Y6245400D01*
X8144600Y6270800D01*
X8119200D01*
Y6245400D01*
X8144600Y6220000D01*
X8119200Y6194600D01*
Y6169200D01*
X8499200Y6179200D02*
X8524600D01*
X8550000Y6204600D01*
X8575400Y6179200D01*
X8600800D01*
Y6204600D01*
X8575400Y6230000D01*
X8600800Y6255400D01*
Y6280800D01*
X8575400D01*
X8550000Y6255400D01*
X8524600Y6280800D01*
X8499200D01*
Y6255400D01*
X8524600Y6230000D01*
X8499200Y6204600D01*
Y6179200D01*
Y6359200D02*
X8524600D01*
X8550000Y6384600D01*
X8575400Y6359200D01*
X8600800D01*
Y6384600D01*
X8575400Y6410000D01*
X8600800Y6435400D01*
Y6460800D01*
X8575400D01*
X8550000Y6435400D01*
X8524600Y6460800D01*
X8499200D01*
Y6435400D01*
X8524600Y6410000D01*
X8499200Y6384600D01*
Y6359200D01*
Y6539200D02*
X8524600D01*
X8550000Y6564600D01*
X8575400Y6539200D01*
X8600800D01*
Y6564600D01*
X8575400Y6590000D01*
X8600800Y6615400D01*
Y6640800D01*
X8575400D01*
X8550000Y6615400D01*
X8524600Y6640800D01*
X8499200D01*
Y6615400D01*
X8524600Y6590000D01*
X8499200Y6564600D01*
Y6539200D01*
X8359200D02*
X8384600D01*
X8410000Y6564600D01*
X8435400Y6539200D01*
X8460800D01*
Y6564600D01*
X8435400Y6590000D01*
X8460800Y6615400D01*
Y6640800D01*
X8435400D01*
X8410000Y6615400D01*
X8384600Y6640800D01*
X8359200D01*
Y6615400D01*
X8384600Y6590000D01*
X8359200Y6564600D01*
Y6539200D01*
X8349200Y6169200D02*
X8374600D01*
X8400000Y6194600D01*
X8425400Y6169200D01*
X8450800D01*
Y6194600D01*
X8425400Y6220000D01*
X8450800Y6245400D01*
Y6270800D01*
X8425400D01*
X8400000Y6245400D01*
X8374600Y6270800D01*
X8349200D01*
Y6245400D01*
X8374600Y6220000D01*
X8349200Y6194600D01*
Y6169200D01*
Y6359200D02*
X8374600D01*
X8400000Y6384600D01*
X8425400Y6359200D01*
X8450800D01*
Y6384600D01*
X8425400Y6410000D01*
X8450800Y6435400D01*
Y6460800D01*
X8425400D01*
X8400000Y6435400D01*
X8374600Y6460800D01*
X8349200D01*
Y6435400D01*
X8374600Y6410000D01*
X8349200Y6384600D01*
Y6359200D01*
X9129200Y5809200D02*
X9154600D01*
X9180000Y5834600D01*
X9205400Y5809200D01*
X9230800D01*
Y5834600D01*
X9205400Y5860000D01*
X9230800Y5885400D01*
Y5910800D01*
X9205400D01*
X9180000Y5885400D01*
X9154600Y5910800D01*
X9129200D01*
Y5885400D01*
X9154600Y5860000D01*
X9129200Y5834600D01*
Y5809200D01*
X10249200Y4199200D02*
X10274600D01*
X10300000Y4224600D01*
X10325400Y4199200D01*
X10350800D01*
Y4224600D01*
X10325400Y4250000D01*
X10350800Y4275400D01*
Y4300800D01*
X10325400D01*
X10300000Y4275400D01*
X10274600Y4300800D01*
X10249200D01*
Y4275400D01*
X10274600Y4250000D01*
X10249200Y4224600D01*
Y4199200D01*
Y4699200D02*
X10274600D01*
X10300000Y4724600D01*
X10325400Y4699200D01*
X10350800D01*
Y4724600D01*
X10325400Y4750000D01*
X10350800Y4775400D01*
Y4800800D01*
X10325400D01*
X10300000Y4775400D01*
X10274600Y4800800D01*
X10249200D01*
Y4775400D01*
X10274600Y4750000D01*
X10249200Y4724600D01*
Y4699200D01*
X8929200Y5779200D02*
X8954600D01*
X8980000Y5804600D01*
X9005400Y5779200D01*
X9030800D01*
Y5804600D01*
X9005400Y5830000D01*
X9030800Y5855400D01*
Y5880800D01*
X9005400D01*
X8980000Y5855400D01*
X8954600Y5880800D01*
X8929200D01*
Y5855400D01*
X8954600Y5830000D01*
X8929200Y5804600D01*
Y5779200D01*
X8829200Y5789200D02*
X8854600D01*
X8880000Y5814600D01*
X8905400Y5789200D01*
X8930800D01*
Y5814600D01*
X8905400Y5840000D01*
X8930800Y5865400D01*
Y5890800D01*
X8905400D01*
X8880000Y5865400D01*
X8854600Y5890800D01*
X8829200D01*
Y5865400D01*
X8854600Y5840000D01*
X8829200Y5814600D01*
Y5789200D01*
X8739200D02*
X8764600D01*
X8790000Y5814600D01*
X8815400Y5789200D01*
X8840800D01*
Y5814600D01*
X8815400Y5840000D01*
X8840800Y5865400D01*
Y5890800D01*
X8815400D01*
X8790000Y5865400D01*
X8764600Y5890800D01*
X8739200D01*
Y5865400D01*
X8764600Y5840000D01*
X8739200Y5814600D01*
Y5789200D01*
X8372200Y5873200D02*
X8397600D01*
X8423000Y5898600D01*
X8448400Y5873200D01*
X8473800D01*
Y5898600D01*
X8448400Y5924000D01*
X8473800Y5949400D01*
Y5974800D01*
X8448400D01*
X8423000Y5949400D01*
X8397600Y5974800D01*
X8372200D01*
Y5949400D01*
X8397600Y5924000D01*
X8372200Y5898600D01*
Y5873200D01*
X8229200Y5869200D02*
X8254600D01*
X8280000Y5894600D01*
X8305400Y5869200D01*
X8330800D01*
Y5894600D01*
X8305400Y5920000D01*
X8330800Y5945400D01*
Y5970800D01*
X8305400D01*
X8280000Y5945400D01*
X8254600Y5970800D01*
X8229200D01*
Y5945400D01*
X8254600Y5920000D01*
X8229200Y5894600D01*
Y5869200D01*
X5719200Y5799200D02*
X5744600D01*
X5770000Y5824600D01*
X5795400Y5799200D01*
X5820800D01*
Y5824600D01*
X5795400Y5850000D01*
X5820800Y5875400D01*
Y5900800D01*
X5795400D01*
X5770000Y5875400D01*
X5744600Y5900800D01*
X5719200D01*
Y5875400D01*
X5744600Y5850000D01*
X5719200Y5824600D01*
Y5799200D01*
Y5599200D02*
X5744600D01*
X5770000Y5624600D01*
X5795400Y5599200D01*
X5820800D01*
Y5624600D01*
X5795400Y5650000D01*
X5820800Y5675400D01*
Y5700800D01*
X5795400D01*
X5770000Y5675400D01*
X5744600Y5700800D01*
X5719200D01*
Y5675400D01*
X5744600Y5650000D01*
X5719200Y5624600D01*
Y5599200D01*
X5419200Y5049200D02*
X5444600D01*
X5470000Y5074600D01*
X5495400Y5049200D01*
X5520800D01*
Y5074600D01*
X5495400Y5100000D01*
X5520800Y5125400D01*
Y5150800D01*
X5495400D01*
X5470000Y5125400D01*
X5444600Y5150800D01*
X5419200D01*
Y5125400D01*
X5444600Y5100000D01*
X5419200Y5074600D01*
Y5049200D01*
X8239200Y5379200D02*
X8264600D01*
X8290000Y5404600D01*
X8315400Y5379200D01*
X8340800D01*
Y5404600D01*
X8315400Y5430000D01*
X8340800Y5455400D01*
Y5480800D01*
X8315400D01*
X8290000Y5455400D01*
X8264600Y5480800D01*
X8239200D01*
Y5455400D01*
X8264600Y5430000D01*
X8239200Y5404600D01*
Y5379200D01*
X8209200Y5209200D02*
X8234600D01*
X8260000Y5234600D01*
X8285400Y5209200D01*
X8310800D01*
Y5234600D01*
X8285400Y5260000D01*
X8310800Y5285400D01*
Y5310800D01*
X8285400D01*
X8260000Y5285400D01*
X8234600Y5310800D01*
X8209200D01*
Y5285400D01*
X8234600Y5260000D01*
X8209200Y5234600D01*
Y5209200D01*
X7983200Y5263200D02*
X8008600D01*
X8034000Y5288600D01*
X8059400Y5263200D01*
X8084800D01*
Y5288600D01*
X8059400Y5314000D01*
X8084800Y5339400D01*
Y5364800D01*
X8059400D01*
X8034000Y5339400D01*
X8008600Y5364800D01*
X7983200D01*
Y5339400D01*
X8008600Y5314000D01*
X7983200Y5288600D01*
Y5263200D01*
X8126200Y5253200D02*
X8151600D01*
X8177000Y5278600D01*
X8202400Y5253200D01*
X8227800D01*
Y5278600D01*
X8202400Y5304000D01*
X8227800Y5329400D01*
Y5354800D01*
X8202400D01*
X8177000Y5329400D01*
X8151600Y5354800D01*
X8126200D01*
Y5329400D01*
X8151600Y5304000D01*
X8126200Y5278600D01*
Y5253200D01*
X7649200Y5249200D02*
X7674600D01*
X7700000Y5274600D01*
X7725400Y5249200D01*
X7750800D01*
Y5274600D01*
X7725400Y5300000D01*
X7750800Y5325400D01*
Y5350800D01*
X7725400D01*
X7700000Y5325400D01*
X7674600Y5350800D01*
X7649200D01*
Y5325400D01*
X7674600Y5300000D01*
X7649200Y5274600D01*
Y5249200D01*
X7699200Y5779200D02*
X7724600D01*
X7750000Y5804600D01*
X7775400Y5779200D01*
X7800800D01*
Y5804600D01*
X7775400Y5830000D01*
X7800800Y5855400D01*
Y5880800D01*
X7775400D01*
X7750000Y5855400D01*
X7724600Y5880800D01*
X7699200D01*
Y5855400D01*
X7724600Y5830000D01*
X7699200Y5804600D01*
Y5779200D01*
X8659200Y5749200D02*
X8684600D01*
X8710000Y5774600D01*
X8735400Y5749200D01*
X8760800D01*
Y5774600D01*
X8735400Y5800000D01*
X8760800Y5825400D01*
Y5850800D01*
X8735400D01*
X8710000Y5825400D01*
X8684600Y5850800D01*
X8659200D01*
Y5825400D01*
X8684600Y5800000D01*
X8659200Y5774600D01*
Y5749200D01*
X8025200Y5718800D02*
X8050600D01*
X8076000Y5744200D01*
X8101400Y5718800D01*
X8126800D01*
Y5744200D01*
X8101400Y5769600D01*
X8126800Y5795000D01*
Y5820400D01*
X8101400D01*
X8076000Y5795000D01*
X8050600Y5820400D01*
X8025200D01*
Y5795000D01*
X8050600Y5769600D01*
X8025200Y5744200D01*
Y5718800D01*
X8195200D02*
X8220600D01*
X8246000Y5744200D01*
X8271400Y5718800D01*
X8296800D01*
Y5744200D01*
X8271400Y5769600D01*
X8296800Y5795000D01*
Y5820400D01*
X8271400D01*
X8246000Y5795000D01*
X8220600Y5820400D01*
X8195200D01*
Y5795000D01*
X8220600Y5769600D01*
X8195200Y5744200D01*
Y5718800D01*
X3149200Y5159200D02*
Y5260800D01*
X3250800D01*
Y5159200D01*
X3149200D01*
X3169520Y5179520D02*
Y5240480D01*
X3230480D01*
Y5179520D01*
X3169520D01*
X2639200Y4939200D02*
Y5040800D01*
X2740800D01*
Y4939200D01*
X2639200D01*
X2659520Y4959520D02*
Y5020480D01*
X2720480D01*
Y4959520D01*
X2659520D01*
X2649200Y5359200D02*
Y5460800D01*
X2750800D01*
Y5359200D01*
X2649200D01*
X2669520Y5379520D02*
Y5440480D01*
X2730480D01*
Y5379520D01*
X2669520D01*
X6059200Y6089200D02*
X6084600D01*
X6110000Y6114600D01*
X6135400Y6089200D01*
X6160800D01*
Y6114600D01*
X6135400Y6140000D01*
X6160800Y6165400D01*
Y6190800D01*
X6135400D01*
X6110000Y6165400D01*
X6084600Y6190800D01*
X6059200D01*
Y6165400D01*
X6084600Y6140000D01*
X6059200Y6114600D01*
Y6089200D01*
X6047200Y5965200D02*
X6072600D01*
X6098000Y5990600D01*
X6123400Y5965200D01*
X6148800D01*
Y5990600D01*
X6123400Y6016000D01*
X6148800Y6041400D01*
Y6066800D01*
X6123400D01*
X6098000Y6041400D01*
X6072600Y6066800D01*
X6047200D01*
Y6041400D01*
X6072600Y6016000D01*
X6047200Y5990600D01*
Y5965200D01*
X5839300Y5799200D02*
X5864700D01*
X5890100Y5824600D01*
X5915500Y5799200D01*
X5940900D01*
Y5824600D01*
X5915500Y5850000D01*
X5940900Y5875400D01*
Y5900800D01*
X5915500D01*
X5890100Y5875400D01*
X5864700Y5900800D01*
X5839300D01*
Y5875400D01*
X5864700Y5850000D01*
X5839300Y5824600D01*
Y5799200D01*
X4889200Y5459200D02*
X4914600D01*
X4940000Y5484600D01*
X4965400Y5459200D01*
X4990800D01*
Y5484600D01*
X4965400Y5510000D01*
X4990800Y5535400D01*
Y5560800D01*
X4965400D01*
X4940000Y5535400D01*
X4914600Y5560800D01*
X4889200D01*
Y5535400D01*
X4914600Y5510000D01*
X4889200Y5484600D01*
Y5459200D01*
X9888800Y4809200D02*
X9914200D01*
X9939600Y4834600D01*
X9965000Y4809200D01*
X9990400D01*
Y4834600D01*
X9965000Y4860000D01*
X9990400Y4885400D01*
Y4910800D01*
X9965000D01*
X9939600Y4885400D01*
X9914200Y4910800D01*
X9888800D01*
Y4885400D01*
X9914200Y4860000D01*
X9888800Y4834600D01*
Y4809200D01*
X10769200Y4689200D02*
X10794600D01*
X10820000Y4714600D01*
X10845400Y4689200D01*
X10870800D01*
Y4714600D01*
X10845400Y4740000D01*
X10870800Y4765400D01*
Y4790800D01*
X10845400D01*
X10820000Y4765400D01*
X10794600Y4790800D01*
X10769200D01*
Y4765400D01*
X10794600Y4740000D01*
X10769200Y4714600D01*
Y4689200D01*
X9089200Y4569200D02*
X9114600D01*
X9140000Y4594600D01*
X9165400Y4569200D01*
X9190800D01*
Y4594600D01*
X9165400Y4620000D01*
X9190800Y4645400D01*
Y4670800D01*
X9165400D01*
X9140000Y4645400D01*
X9114600Y4670800D01*
X9089200D01*
Y4645400D01*
X9114600Y4620000D01*
X9089200Y4594600D01*
Y4569200D01*
X8609200Y5240000D02*
X8660000Y5290800D01*
X8710800Y5240000D01*
X8660000Y5189200D01*
X8609200Y5240000D01*
X8729200D02*
X8780000Y5290800D01*
X8830800Y5240000D01*
X8780000Y5189200D01*
X8729200Y5240000D01*
X8849200D02*
X8900000Y5290800D01*
X8950800Y5240000D01*
X8900000Y5189200D01*
X8849200Y5240000D01*
X8969200D02*
X9020000Y5290800D01*
X9070800Y5240000D01*
X9020000Y5189200D01*
X8969200Y5240000D01*
X9079200D02*
X9130000Y5290800D01*
X9180800Y5240000D01*
X9130000Y5189200D01*
X9079200Y5240000D01*
Y5130000D02*
X9130000Y5180800D01*
X9180800Y5130000D01*
X9130000Y5079200D01*
X9079200Y5130000D01*
X8969200D02*
X9020000Y5180800D01*
X9070800Y5130000D01*
X9020000Y5079200D01*
X8969200Y5130000D01*
X8849200D02*
X8900000Y5180800D01*
X8950800Y5130000D01*
X8900000Y5079200D01*
X8849200Y5130000D01*
X8729200D02*
X8780000Y5180800D01*
X8830800Y5130000D01*
X8780000Y5079200D01*
X8729200Y5130000D01*
X8609200D02*
X8660000Y5180800D01*
X8710800Y5130000D01*
X8660000Y5079200D01*
X8609200Y5130000D01*
X9079200Y5030000D02*
X9130000Y5080800D01*
X9180800Y5030000D01*
X9130000Y4979200D01*
X9079200Y5030000D01*
X8499200D02*
X8550000Y5080800D01*
X8600800Y5030000D01*
X8550000Y4979200D01*
X8499200Y5030000D01*
X8609200Y5340000D02*
X8660000Y5390800D01*
X8710800Y5340000D01*
X8660000Y5289200D01*
X8609200Y5340000D01*
X8729200D02*
X8780000Y5390800D01*
X8830800Y5340000D01*
X8780000Y5289200D01*
X8729200Y5340000D01*
X8849200D02*
X8900000Y5390800D01*
X8950800Y5340000D01*
X8900000Y5289200D01*
X8849200Y5340000D01*
X8969200D02*
X9020000Y5390800D01*
X9070800Y5340000D01*
X9020000Y5289200D01*
X8969200Y5340000D01*
X9079200D02*
X9130000Y5390800D01*
X9180800Y5340000D01*
X9130000Y5289200D01*
X9079200Y5340000D01*
X8609200Y5440000D02*
X8660000Y5490800D01*
X8710800Y5440000D01*
X8660000Y5389200D01*
X8609200Y5440000D01*
X8729200D02*
X8780000Y5490800D01*
X8830800Y5440000D01*
X8780000Y5389200D01*
X8729200Y5440000D01*
X8849200D02*
X8900000Y5490800D01*
X8950800Y5440000D01*
X8900000Y5389200D01*
X8849200Y5440000D01*
X8969200D02*
X9020000Y5490800D01*
X9070800Y5440000D01*
X9020000Y5389200D01*
X8969200Y5440000D01*
X9079200D02*
X9130000Y5490800D01*
X9180800Y5440000D01*
X9130000Y5389200D01*
X9079200Y5440000D01*
Y5550000D02*
X9130000Y5600800D01*
X9180800Y5550000D01*
X9130000Y5499200D01*
X9079200Y5550000D01*
X8969200D02*
X9020000Y5600800D01*
X9070800Y5550000D01*
X9020000Y5499200D01*
X8969200Y5550000D01*
X8849200D02*
X8900000Y5600800D01*
X8950800Y5550000D01*
X8900000Y5499200D01*
X8849200Y5550000D01*
X8729200D02*
X8780000Y5600800D01*
X8830800Y5550000D01*
X8780000Y5499200D01*
X8729200Y5550000D01*
X8609200D02*
X8660000Y5600800D01*
X8710800Y5550000D01*
X8660000Y5499200D01*
X8609200Y5550000D01*
X8604200Y5918200D02*
X8629600D01*
X8655000Y5943600D01*
X8680400Y5918200D01*
X8705800D01*
Y5943600D01*
X8680400Y5969000D01*
X8705800Y5994400D01*
Y6019800D01*
X8680400D01*
X8655000Y5994400D01*
X8629600Y6019800D01*
X8604200D01*
Y5994400D01*
X8629600Y5969000D01*
X8604200Y5943600D01*
Y5918200D01*
X8735200Y5953800D02*
X8760600D01*
X8786000Y5979200D01*
X8811400Y5953800D01*
X8836800D01*
Y5979200D01*
X8811400Y6004600D01*
X8836800Y6030000D01*
Y6055400D01*
X8811400D01*
X8786000Y6030000D01*
X8760600Y6055400D01*
X8735200D01*
Y6030000D01*
X8760600Y6004600D01*
X8735200Y5979200D01*
Y5953800D01*
X8269200Y5989200D02*
X8294600D01*
X8320000Y6014600D01*
X8345400Y5989200D01*
X8370800D01*
Y6014600D01*
X8345400Y6040000D01*
X8370800Y6065400D01*
Y6090800D01*
X8345400D01*
X8320000Y6065400D01*
X8294600Y6090800D01*
X8269200D01*
Y6065400D01*
X8294600Y6040000D01*
X8269200Y6014600D01*
Y5989200D01*
X8119200Y6359200D02*
X8144600D01*
X8170000Y6384600D01*
X8195400Y6359200D01*
X8220800D01*
Y6384600D01*
X8195400Y6410000D01*
X8220800Y6435400D01*
Y6460800D01*
X8195400D01*
X8170000Y6435400D01*
X8144600Y6460800D01*
X8119200D01*
Y6435400D01*
X8144600Y6410000D01*
X8119200Y6384600D01*
Y6359200D01*
X9219200Y4319200D02*
X9244600D01*
X9270000Y4344600D01*
X9295400Y4319200D01*
X9320800D01*
Y4344600D01*
X9295400Y4370000D01*
X9320800Y4395400D01*
Y4420800D01*
X9295400D01*
X9270000Y4395400D01*
X9244600Y4420800D01*
X9219200D01*
Y4395400D01*
X9244600Y4370000D01*
X9219200Y4344600D01*
Y4319200D01*
Y4449200D02*
X9244600D01*
X9270000Y4474600D01*
X9295400Y4449200D01*
X9320800D01*
Y4474600D01*
X9295400Y4500000D01*
X9320800Y4525400D01*
Y4550800D01*
X9295400D01*
X9270000Y4525400D01*
X9244600Y4550800D01*
X9219200D01*
Y4525400D01*
X9244600Y4500000D01*
X9219200Y4474600D01*
Y4449200D01*
X8189200Y4949200D02*
X8214600D01*
X8240000Y4974600D01*
X8265400Y4949200D01*
X8290800D01*
Y4974600D01*
X8265400Y5000000D01*
X8290800Y5025400D01*
Y5050800D01*
X8265400D01*
X8240000Y5025400D01*
X8214600Y5050800D01*
X8189200D01*
Y5025400D01*
X8214600Y5000000D01*
X8189200Y4974600D01*
Y4949200D01*
X10509200Y4689200D02*
X10534600D01*
X10560000Y4714600D01*
X10585400Y4689200D01*
X10610800D01*
Y4714600D01*
X10585400Y4740000D01*
X10610800Y4765400D01*
Y4790800D01*
X10585400D01*
X10560000Y4765400D01*
X10534600Y4790800D01*
X10509200D01*
Y4765400D01*
X10534600Y4740000D01*
X10509200Y4714600D01*
Y4689200D01*
X10639200D02*
X10664600D01*
X10690000Y4714600D01*
X10715400Y4689200D01*
X10740800D01*
Y4714600D01*
X10715400Y4740000D01*
X10740800Y4765400D01*
Y4790800D01*
X10715400D01*
X10690000Y4765400D01*
X10664600Y4790800D01*
X10639200D01*
Y4765400D01*
X10664600Y4740000D01*
X10639200Y4714600D01*
Y4689200D01*
X8949200Y4170000D02*
X9000000Y4220800D01*
X9050800Y4170000D01*
X9000000Y4119200D01*
X8949200Y4170000D01*
X8809200D02*
X8860000Y4220800D01*
X8910800Y4170000D01*
X8860000Y4119200D01*
X8809200Y4170000D01*
Y4290000D02*
X8860000Y4340800D01*
X8910800Y4290000D01*
X8860000Y4239200D01*
X8809200Y4290000D01*
X8949200D02*
X9000000Y4340800D01*
X9050800Y4290000D01*
X9000000Y4239200D01*
X8949200Y4290000D01*
Y4410000D02*
X9000000Y4460800D01*
X9050800Y4410000D01*
X9000000Y4359200D01*
X8949200Y4410000D01*
X8809200D02*
X8860000Y4460800D01*
X8910800Y4410000D01*
X8860000Y4359200D01*
X8809200Y4410000D01*
X8739200Y4120000D02*
X8790000Y4170800D01*
X8840800Y4120000D01*
X8790000Y4069200D01*
X8739200Y4120000D01*
X9019200D02*
X9070000Y4170800D01*
X9120800Y4120000D01*
X9070000Y4069200D01*
X9019200Y4120000D01*
X8879200D02*
X8930000Y4170800D01*
X8980800Y4120000D01*
X8930000Y4069200D01*
X8879200Y4120000D01*
X8739200Y4230000D02*
X8790000Y4280800D01*
X8840800Y4230000D01*
X8790000Y4179200D01*
X8739200Y4230000D01*
X9019200D02*
X9070000Y4280800D01*
X9120800Y4230000D01*
X9070000Y4179200D01*
X9019200Y4230000D01*
X8879200D02*
X8930000Y4280800D01*
X8980800Y4230000D01*
X8930000Y4179200D01*
X8879200Y4230000D01*
X8739200Y4350000D02*
X8790000Y4400800D01*
X8840800Y4350000D01*
X8790000Y4299200D01*
X8739200Y4350000D01*
X9019200D02*
X9070000Y4400800D01*
X9120800Y4350000D01*
X9070000Y4299200D01*
X9019200Y4350000D01*
X8879200D02*
X8930000Y4400800D01*
X8980800Y4350000D01*
X8930000Y4299200D01*
X8879200Y4350000D01*
X9019200Y4470000D02*
X9070000Y4520800D01*
X9120800Y4470000D01*
X9070000Y4419200D01*
X9019200Y4470000D01*
X8879200D02*
X8930000Y4520800D01*
X8980800Y4470000D01*
X8930000Y4419200D01*
X8879200Y4470000D01*
X8739200D02*
X8790000Y4520800D01*
X8840800Y4470000D01*
X8790000Y4419200D01*
X8739200Y4470000D01*
X9779200Y5239200D02*
X9804600D01*
X9830000Y5264600D01*
X9855400Y5239200D01*
X9880800D01*
Y5264600D01*
X9855400Y5290000D01*
X9880800Y5315400D01*
Y5340800D01*
X9855400D01*
X9830000Y5315400D01*
X9804600Y5340800D01*
X9779200D01*
Y5315400D01*
X9804600Y5290000D01*
X9779200Y5264600D01*
Y5239200D01*
X9678567Y5080607D02*
X9703967D01*
X9729367Y5106007D01*
X9754767Y5080607D01*
X9780167D01*
Y5106007D01*
X9754767Y5131407D01*
X9780167Y5156807D01*
Y5182207D01*
X9754767D01*
X9729367Y5156807D01*
X9703967Y5182207D01*
X9678567D01*
Y5156807D01*
X9703967Y5131407D01*
X9678567Y5106007D01*
Y5080607D01*
X9310200Y5950200D02*
X9335600D01*
X9361000Y5975600D01*
X9386400Y5950200D01*
X9411800D01*
Y5975600D01*
X9386400Y6001000D01*
X9411800Y6026400D01*
Y6051800D01*
X9386400D01*
X9361000Y6026400D01*
X9335600Y6051800D01*
X9310200D01*
Y6026400D01*
X9335600Y6001000D01*
X9310200Y5975600D01*
Y5950200D01*
X9171200Y5953200D02*
X9196600D01*
X9222000Y5978600D01*
X9247400Y5953200D01*
X9272800D01*
Y5978600D01*
X9247400Y6004000D01*
X9272800Y6029400D01*
Y6054800D01*
X9247400D01*
X9222000Y6029400D01*
X9196600Y6054800D01*
X9171200D01*
Y6029400D01*
X9196600Y6004000D01*
X9171200Y5978600D01*
Y5953200D01*
X8956200Y5915200D02*
X8981600D01*
X9007000Y5940600D01*
X9032400Y5915200D01*
X9057800D01*
Y5940600D01*
X9032400Y5966000D01*
X9057800Y5991400D01*
Y6016800D01*
X9032400D01*
X9007000Y5991400D01*
X8981600Y6016800D01*
X8956200D01*
Y5991400D01*
X8981600Y5966000D01*
X8956200Y5940600D01*
Y5915200D01*
X8851200Y5920200D02*
X8876600D01*
X8902000Y5945600D01*
X8927400Y5920200D01*
X8952800D01*
Y5945600D01*
X8927400Y5971000D01*
X8952800Y5996400D01*
Y6021800D01*
X8927400D01*
X8902000Y5996400D01*
X8876600Y6021800D01*
X8851200D01*
Y5996400D01*
X8876600Y5971000D01*
X8851200Y5945600D01*
Y5920200D01*
X8369200Y5989200D02*
X8394600D01*
X8420000Y6014600D01*
X8445400Y5989200D01*
X8470800D01*
Y6014600D01*
X8445400Y6040000D01*
X8470800Y6065400D01*
Y6090800D01*
X8445400D01*
X8420000Y6065400D01*
X8394600Y6090800D01*
X8369200D01*
Y6065400D01*
X8394600Y6040000D01*
X8369200Y6014600D01*
Y5989200D01*
X8072200Y5178200D02*
X8097600D01*
X8123000Y5203600D01*
X8148400Y5178200D01*
X8173800D01*
Y5203600D01*
X8148400Y5229000D01*
X8173800Y5254400D01*
Y5279800D01*
X8148400D01*
X8123000Y5254400D01*
X8097600Y5279800D01*
X8072200D01*
Y5254400D01*
X8097600Y5229000D01*
X8072200Y5203600D01*
Y5178200D01*
X8039200Y4869200D02*
X8064600D01*
X8090000Y4894600D01*
X8115400Y4869200D01*
X8140800D01*
Y4894600D01*
X8115400Y4920000D01*
X8140800Y4945400D01*
Y4970800D01*
X8115400D01*
X8090000Y4945400D01*
X8064600Y4970800D01*
X8039200D01*
Y4945400D01*
X8064600Y4920000D01*
X8039200Y4894600D01*
Y4869200D01*
X7187200Y4188200D02*
X7212600D01*
X7238000Y4213600D01*
X7263400Y4188200D01*
X7288800D01*
Y4213600D01*
X7263400Y4239000D01*
X7288800Y4264400D01*
Y4289800D01*
X7263400D01*
X7238000Y4264400D01*
X7212600Y4289800D01*
X7187200D01*
Y4264400D01*
X7212600Y4239000D01*
X7187200Y4213600D01*
Y4188200D01*
X7177200Y4753200D02*
X7202600D01*
X7228000Y4778600D01*
X7253400Y4753200D01*
X7278800D01*
Y4778600D01*
X7253400Y4804000D01*
X7278800Y4829400D01*
Y4854800D01*
X7253400D01*
X7228000Y4829400D01*
X7202600Y4854800D01*
X7177200D01*
Y4829400D01*
X7202600Y4804000D01*
X7177200Y4778600D01*
Y4753200D01*
X7174200Y4465200D02*
X7199600D01*
X7225000Y4490600D01*
X7250400Y4465200D01*
X7275800D01*
Y4490600D01*
X7250400Y4516000D01*
X7275800Y4541400D01*
Y4566800D01*
X7250400D01*
X7225000Y4541400D01*
X7199600Y4566800D01*
X7174200D01*
Y4541400D01*
X7199600Y4516000D01*
X7174200Y4490600D01*
Y4465200D01*
X5557200Y6003000D02*
X5608000Y6053800D01*
X5658800Y6003000D01*
X5608000Y5952200D01*
X5557200Y6003000D01*
X5430200Y6155000D02*
X5481000Y6205800D01*
X5531800Y6155000D01*
X5481000Y6104200D01*
X5430200Y6155000D01*
X6009200Y5613000D02*
X6060000Y5663800D01*
X6110800Y5613000D01*
X6060000Y5562200D01*
X6009200Y5613000D01*
X6374200Y5743000D02*
X6425000Y5793800D01*
X6475800Y5743000D01*
X6425000Y5692200D01*
X6374200Y5743000D01*
X6830200Y5869000D02*
X6881000Y5919800D01*
X6931800Y5869000D01*
X6881000Y5818200D01*
X6830200Y5869000D01*
X6935200Y5871000D02*
X6986000Y5921800D01*
X7036800Y5871000D01*
X6986000Y5820200D01*
X6935200Y5871000D01*
X5821200Y6095000D02*
X5872000Y6145800D01*
X5922800Y6095000D01*
X5872000Y6044200D01*
X5821200Y6095000D01*
X5762200Y6038000D02*
X5813000Y6088800D01*
X5863800Y6038000D01*
X5813000Y5987200D01*
X5762200Y6038000D01*
X5878200Y6037000D02*
X5929000Y6087800D01*
X5979800Y6037000D01*
X5929000Y5986200D01*
X5878200Y6037000D01*
Y6152000D02*
X5929000Y6202800D01*
X5979800Y6152000D01*
X5929000Y6101200D01*
X5878200Y6152000D01*
X5765200Y6151000D02*
X5816000Y6201800D01*
X5866800Y6151000D01*
X5816000Y6100200D01*
X5765200Y6151000D01*
X4849200Y5900000D02*
X4900000Y5950800D01*
X4950800Y5900000D01*
X4900000Y5849200D01*
X4849200Y5900000D01*
X3349200D02*
X3400000Y5950800D01*
X3450800Y5900000D01*
X3400000Y5849200D01*
X3349200Y5900000D01*
D205*
X4220800Y6000000D02*
G03*
X4220800Y6000000I-50800J0D01*
G01*
X9740800Y4400000D02*
G03*
X9740800Y4400000I-50800J0D01*
G01*
X2050800D02*
G03*
X2050800Y4400000I-50800J0D01*
G01*
X11650800D02*
G03*
X11650800Y4400000I-50800J0D01*
G01*
Y6800000D02*
G03*
X11650800Y6800000I-50800J0D01*
G01*
X2050800D02*
G03*
X2050800Y6800000I-50800J0D01*
G01*
D206*
X2030480Y4400000D02*
G03*
X2030480Y4400000I-30480J0D01*
G01*
X11630480D02*
G03*
X11630480Y4400000I-30480J0D01*
G01*
Y6800000D02*
G03*
X11630480Y6800000I-30480J0D01*
G01*
X2030480D02*
G03*
X2030480Y6800000I-30480J0D01*
G01*
%TF.MD5,83c430033f121d18b876b41a3c65525c*%
M02*
