%TF.GenerationSoftware,Altium Limited,Altium Designer,20.0.13 (296)*%
G04 Layer_Color=8388736*
%FSLAX45Y45*%
%MOMM*%
%TF.FileFunction,Soldermask,Top*%
%TF.Part,Single*%
G01*
G75*
%TA.AperFunction,SMDPad,CuDef*%
%ADD34R,0.66040X1.85420*%
%TA.AperFunction,ComponentPad*%
%ADD94C,3.78820*%
%ADD95C,5.37820*%
%ADD96C,0.75320*%
%ADD97C,0.60820*%
%ADD98C,2.76820*%
%ADD99C,2.00320*%
%ADD100C,2.30320*%
%TA.AperFunction,ViaPad*%
%ADD101C,0.60320*%
%ADD102C,0.80320*%
%ADD103C,1.20320*%
%ADD104C,1.47320*%
%ADD105C,6.20320*%
%TA.AperFunction,SMDPad,CuDef*%
%ADD149R,1.85320X3.45320*%
%ADD150R,3.70320X4.30320*%
%ADD151R,1.30320X0.65320*%
%ADD152R,1.15320X1.10320*%
%ADD153R,0.95320X0.95320*%
%ADD154R,0.95320X0.80320*%
%ADD155R,0.80320X0.90320*%
%ADD156R,6.60320X6.60320*%
%ADD157R,1.05320X0.50320*%
%ADD158R,0.50320X1.05320*%
%ADD159R,1.95320X1.95320*%
%ADD160R,0.40320X1.00320*%
%ADD161R,1.00320X0.40320*%
%ADD162R,0.60320X0.70320*%
%ADD163R,1.70320X0.90320*%
%ADD164R,0.55320X0.85320*%
%ADD165R,0.95320X0.85320*%
%ADD166R,2.40320X1.45320*%
%ADD167R,0.67820X0.70320*%
%ADD168R,0.85320X1.10320*%
G04:AMPARAMS|DCode=169|XSize=1.4032mm|YSize=1.2032mm|CornerRadius=0mm|HoleSize=0mm|Usage=FLASHONLY|Rotation=45.000|XOffset=0mm|YOffset=0mm|HoleType=Round|Shape=Rectangle|*
%AMROTATEDRECTD169*
4,1,4,-0.07071,-0.92150,-0.92150,-0.07071,0.07071,0.92150,0.92150,0.07071,-0.07071,-0.92150,0.0*
%
%ADD169ROTATEDRECTD169*%

%ADD170R,1.20320X0.65320*%
%ADD171R,0.55320X0.55320*%
%ADD172R,0.85320X2.96320*%
%ADD173R,1.67320X1.17320*%
%ADD174R,0.92320X0.89320*%
%ADD175R,0.88320X0.88320*%
%ADD176R,0.82320X0.80320*%
%ADD177R,0.70320X0.60320*%
%TA.AperFunction,ConnectorPad*%
%ADD178R,2.00320X1.30320*%
%TA.AperFunction,SMDPad,CuDef*%
%ADD179R,2.10320X1.30320*%
%TA.AperFunction,ConnectorPad*%
%ADD180R,1.10320X0.45720*%
%TA.AperFunction,SMDPad,CuDef*%
G04:AMPARAMS|DCode=181|XSize=0.8232mm|YSize=0.8032mm|CornerRadius=0mm|HoleSize=0mm|Usage=FLASHONLY|Rotation=135.000|XOffset=0mm|YOffset=0mm|HoleType=Round|Shape=Rectangle|*
%AMROTATEDRECTD181*
4,1,4,0.57502,-0.00707,0.00707,-0.57502,-0.57502,0.00707,-0.00707,0.57502,0.57502,-0.00707,0.0*
%
%ADD181ROTATEDRECTD181*%

G04:AMPARAMS|DCode=182|XSize=0.8232mm|YSize=0.8032mm|CornerRadius=0mm|HoleSize=0mm|Usage=FLASHONLY|Rotation=45.000|XOffset=0mm|YOffset=0mm|HoleType=Round|Shape=Rectangle|*
%AMROTATEDRECTD182*
4,1,4,-0.00707,-0.57502,-0.57502,-0.00707,0.00707,0.57502,0.57502,0.00707,-0.00707,-0.57502,0.0*
%
%ADD182ROTATEDRECTD182*%

%ADD183R,0.80320X0.82320*%
%ADD184R,1.45320X2.40320*%
%ADD185R,0.85320X0.95320*%
%ADD186R,0.80320X0.95320*%
%ADD187R,0.70320X0.67820*%
%TA.AperFunction,ViaPad*%
%ADD188C,0.40320*%
%ADD189C,0.50320*%
D34*
X6390045Y6070604D02*
D03*
X6235105D02*
D03*
D94*
X3337000Y4400000D02*
D03*
D95*
X4170000Y6000000D02*
D03*
X9690000Y4400000D02*
D03*
D96*
X2302500Y5240000D02*
D03*
D97*
Y5960000D02*
D03*
D98*
X1797500Y5020000D02*
D03*
Y6180000D02*
D03*
D99*
X2264500Y5090000D02*
D03*
D100*
Y6110000D02*
D03*
D101*
X11919995Y6559997D02*
D03*
X11839995Y6399997D02*
D03*
X11919995Y6239997D02*
D03*
X11839995Y5119998D02*
D03*
X11919995Y4959998D02*
D03*
X11839995Y4799998D02*
D03*
X11679995Y6399997D02*
D03*
X11759995Y6239997D02*
D03*
X11679995Y5119998D02*
D03*
X11759995Y4959998D02*
D03*
X11679995Y4799998D02*
D03*
X11519995Y6399997D02*
D03*
X11599995Y6239997D02*
D03*
X11519995Y5119998D02*
D03*
X11599995Y4959998D02*
D03*
X11519995Y4799998D02*
D03*
X11359995Y6399997D02*
D03*
X11439995Y6239997D02*
D03*
X11359995Y5119998D02*
D03*
X11439995Y4959998D02*
D03*
X11359995Y4799998D02*
D03*
X11279995Y6559997D02*
D03*
X11199995Y6399997D02*
D03*
X11279995Y6239997D02*
D03*
X11199995Y6079997D02*
D03*
Y5759998D02*
D03*
X11279995Y4959998D02*
D03*
X11119995Y6559997D02*
D03*
X11039995Y6399997D02*
D03*
X11119995Y6239997D02*
D03*
X11039995Y6079997D02*
D03*
X11119995Y5919998D02*
D03*
X11039995Y5759998D02*
D03*
X10959995Y6559997D02*
D03*
X10879996Y6399997D02*
D03*
X10959995Y6239997D02*
D03*
X10879996Y6079997D02*
D03*
X10959995Y5919998D02*
D03*
X10879996Y5759998D02*
D03*
X10799995Y6559997D02*
D03*
X10719996Y6399997D02*
D03*
X10799995Y6239997D02*
D03*
X10719996Y6079997D02*
D03*
X10799995Y5919998D02*
D03*
X10719996Y5759998D02*
D03*
X10639995Y6559997D02*
D03*
X10559996Y6399997D02*
D03*
X10639995Y6239997D02*
D03*
X10559996Y6079997D02*
D03*
X10639995Y5919998D02*
D03*
X10559996Y5759998D02*
D03*
X10479996Y6559997D02*
D03*
X10399996Y6399997D02*
D03*
X10479996Y6239997D02*
D03*
X10399996Y6079997D02*
D03*
X10479996Y5919998D02*
D03*
X10399996Y5759998D02*
D03*
Y5439998D02*
D03*
Y5119998D02*
D03*
X10319996Y6559997D02*
D03*
X10239996Y6399997D02*
D03*
X10319996Y6239997D02*
D03*
X10239996Y6079997D02*
D03*
X10319996Y5919998D02*
D03*
X10239996Y5759998D02*
D03*
X10319996Y5279998D02*
D03*
X10239996Y5119998D02*
D03*
X10079996Y6079997D02*
D03*
X10159996Y5919998D02*
D03*
X10079996Y5759998D02*
D03*
Y5439998D02*
D03*
X10159996Y5279998D02*
D03*
X10079996Y5119998D02*
D03*
X9919996Y6079997D02*
D03*
X9999996Y5919998D02*
D03*
X9919996Y5759998D02*
D03*
X9999996Y5279998D02*
D03*
X9759996Y6079997D02*
D03*
X9839996Y5919998D02*
D03*
X9759996Y5759998D02*
D03*
Y5439998D02*
D03*
X9599996Y6079997D02*
D03*
X9679996Y5919998D02*
D03*
X10640000Y5470000D02*
D03*
X10910000Y5460000D02*
D03*
X10790000Y5470000D02*
D03*
X10500000Y5480000D02*
D03*
X11080000Y5490000D02*
D03*
X11200000D02*
D03*
Y5700000D02*
D03*
X11080000D02*
D03*
X8680000Y4720000D02*
D03*
X8580000Y4110000D02*
D03*
X8590000Y4240000D02*
D03*
X6260000Y5860000D02*
D03*
X5970000Y6450000D02*
D03*
X6000000Y6240000D02*
D03*
X5600000Y6270000D02*
D03*
X5819988Y6429987D02*
D03*
X5809988Y6359987D02*
D03*
X8910000Y4720000D02*
D03*
X8790000Y4640000D02*
D03*
X9450000Y5960000D02*
D03*
X8180000Y6590000D02*
D03*
X8170000Y6220000D02*
D03*
X8550000Y6230000D02*
D03*
Y6410000D02*
D03*
Y6590000D02*
D03*
X8410000D02*
D03*
X8400000Y6220000D02*
D03*
Y6410000D02*
D03*
X9180000Y5860000D02*
D03*
X10300000Y4250000D02*
D03*
X8980000Y5830000D02*
D03*
X8880000Y5840000D02*
D03*
X8790000D02*
D03*
X8423000Y5924000D02*
D03*
X8280000Y5920000D02*
D03*
X5770000Y5850000D02*
D03*
X7750000Y5830000D02*
D03*
X8710000Y5800000D02*
D03*
X8076000Y5769600D02*
D03*
X8246000D02*
D03*
X6110000Y6140000D02*
D03*
X6098000Y6016000D02*
D03*
X5890100Y5850000D02*
D03*
X10820000Y4740000D02*
D03*
X9140000Y4620000D02*
D03*
X8655000Y5969000D02*
D03*
X8786000Y6004600D02*
D03*
X8320000Y6040000D02*
D03*
X8170000Y6410000D02*
D03*
X9270000Y4370000D02*
D03*
Y4500000D02*
D03*
X10560000Y4740000D02*
D03*
X10690000D02*
D03*
X9361000Y6001000D02*
D03*
X9222000Y6004000D02*
D03*
X9007000Y5966000D02*
D03*
X8902000Y5971000D02*
D03*
X8420000Y6040000D02*
D03*
X7238000Y4239000D02*
D03*
X7225000Y4516000D02*
D03*
D102*
X10970000Y5090000D02*
D03*
X10710000D02*
D03*
X11100000Y5200000D02*
D03*
X10580000D02*
D03*
X10836000D02*
D03*
X10840000Y4980000D02*
D03*
X11100000D02*
D03*
X10580000D02*
D03*
X6420000Y6280000D02*
D03*
X6560000D02*
D03*
X6700000D02*
D03*
X6840000D02*
D03*
X6990000D02*
D03*
X6420000Y6390000D02*
D03*
X6560000D02*
D03*
X6700000D02*
D03*
X6840000D02*
D03*
X6990000D02*
D03*
X6420000Y6510000D02*
D03*
X6560000D02*
D03*
X6700000D02*
D03*
Y6630000D02*
D03*
X6560000D02*
D03*
X6420000D02*
D03*
X2500000Y5890000D02*
D03*
Y5290000D02*
D03*
X9000000Y4170000D02*
D03*
X8860000D02*
D03*
Y4290000D02*
D03*
X9000000D02*
D03*
Y4410000D02*
D03*
X8860000D02*
D03*
X8790000Y4120000D02*
D03*
X9070000D02*
D03*
X8930000D02*
D03*
X8790000Y4230000D02*
D03*
X9070000D02*
D03*
X8930000D02*
D03*
X8790000Y4350000D02*
D03*
X9070000D02*
D03*
X8930000D02*
D03*
X9070000Y4470000D02*
D03*
X8930000D02*
D03*
X8790000D02*
D03*
X5608000Y6003000D02*
D03*
X5481000Y6155000D02*
D03*
X6881000Y5869000D02*
D03*
X6986000Y5871000D02*
D03*
X5872000Y6095000D02*
D03*
X5813000Y6038000D02*
D03*
X5929000Y6037000D02*
D03*
Y6152000D02*
D03*
X5816000Y6151000D02*
D03*
D103*
X6410000Y7090000D02*
D03*
X5910000D02*
D03*
X6220000D02*
D03*
X3190000Y4960000D02*
D03*
X4900000Y5900000D02*
D03*
X3400000D02*
D03*
D104*
Y6740000D02*
D03*
X4910000D02*
D03*
X3200000Y5210000D02*
D03*
X2690000Y4990000D02*
D03*
X2700000Y5410000D02*
D03*
D105*
X2000000Y4400000D02*
D03*
X11600000D02*
D03*
Y6800000D02*
D03*
X2000000D02*
D03*
D149*
X3400000Y6040000D02*
D03*
Y6560000D02*
D03*
X4900000Y6040000D02*
D03*
Y6560000D02*
D03*
D150*
X8928000Y4304000D02*
D03*
D151*
X8648000Y4113500D02*
D03*
Y4240500D02*
D03*
Y4367500D02*
D03*
Y4494500D02*
D03*
X9208000D02*
D03*
Y4367500D02*
D03*
Y4240500D02*
D03*
Y4113500D02*
D03*
D152*
X8090000Y5115000D02*
D03*
Y4965000D02*
D03*
D153*
X10910000Y5589000D02*
D03*
Y5479000D02*
D03*
D154*
X7672000Y4240000D02*
D03*
X7562000D02*
D03*
X5722045Y5756604D02*
D03*
X5832045D02*
D03*
X7685000Y4810000D02*
D03*
X7575000D02*
D03*
X7688000Y4520000D02*
D03*
X7578000D02*
D03*
D155*
X6615045Y6088604D02*
D03*
Y5978604D02*
D03*
D156*
X8827179Y5268743D02*
D03*
D157*
X8382179Y4893743D02*
D03*
Y4943743D02*
D03*
Y4993743D02*
D03*
Y5043743D02*
D03*
Y5093743D02*
D03*
Y5143743D02*
D03*
Y5193743D02*
D03*
Y5243743D02*
D03*
Y5293743D02*
D03*
Y5343743D02*
D03*
Y5393743D02*
D03*
Y5443743D02*
D03*
Y5493743D02*
D03*
Y5543743D02*
D03*
Y5593743D02*
D03*
Y5643743D02*
D03*
X9272179D02*
D03*
Y5593743D02*
D03*
Y5543743D02*
D03*
Y5493743D02*
D03*
Y5443743D02*
D03*
Y5393743D02*
D03*
Y5343743D02*
D03*
Y5293743D02*
D03*
Y5243743D02*
D03*
Y5193743D02*
D03*
Y5143743D02*
D03*
Y5093743D02*
D03*
Y5043743D02*
D03*
Y4993743D02*
D03*
Y4943743D02*
D03*
Y4893743D02*
D03*
D158*
X8452179Y5713743D02*
D03*
X8502179D02*
D03*
X8552179D02*
D03*
X8602179D02*
D03*
X8652179D02*
D03*
X8702179D02*
D03*
X8752179D02*
D03*
X8802179D02*
D03*
X8852179D02*
D03*
X8902179D02*
D03*
X8952179D02*
D03*
X9002179D02*
D03*
X9052179D02*
D03*
X9102179D02*
D03*
X9152179D02*
D03*
X9202179D02*
D03*
Y4823743D02*
D03*
X9152179D02*
D03*
X9102179D02*
D03*
X9052179D02*
D03*
X9002179D02*
D03*
X8952179D02*
D03*
X8902179D02*
D03*
X8852179D02*
D03*
X8802179D02*
D03*
X8752179D02*
D03*
X8702179D02*
D03*
X8652179D02*
D03*
X8602179D02*
D03*
X8552179D02*
D03*
X8502179D02*
D03*
X8452179D02*
D03*
D159*
X5872000Y6095000D02*
D03*
D160*
X5792000Y6245000D02*
D03*
X5832000D02*
D03*
X5872000D02*
D03*
X5912000D02*
D03*
X5952000D02*
D03*
Y5945000D02*
D03*
X5912000D02*
D03*
X5872000D02*
D03*
X5832000D02*
D03*
X5792000D02*
D03*
D161*
X6022000Y6175000D02*
D03*
Y6135000D02*
D03*
Y6095000D02*
D03*
Y6055000D02*
D03*
Y6015000D02*
D03*
X5722000D02*
D03*
Y6055000D02*
D03*
Y6095000D02*
D03*
Y6135000D02*
D03*
Y6175000D02*
D03*
D162*
X11285000Y5593000D02*
D03*
X11095000D02*
D03*
X10169044Y5588744D02*
D03*
X10359044D02*
D03*
X8259000Y5344000D02*
D03*
X8179000D02*
D03*
D163*
X11190000Y5673000D02*
D03*
Y5513000D02*
D03*
X10264044Y5508744D02*
D03*
Y5668744D02*
D03*
D164*
X10689500Y5592000D02*
D03*
X10604500D02*
D03*
D165*
X7289000Y4243000D02*
D03*
X7399000D02*
D03*
X7281000Y4807000D02*
D03*
X7391000D02*
D03*
X7276000Y4522000D02*
D03*
X7386000D02*
D03*
D166*
X7607000Y5504000D02*
D03*
Y5724000D02*
D03*
D167*
X9808750Y4860000D02*
D03*
X9911250D02*
D03*
X6490045Y5805604D02*
D03*
X6592446D02*
D03*
X8414750Y6589001D02*
D03*
X8517250D02*
D03*
X8517329Y6408000D02*
D03*
X8414828D02*
D03*
X8414750Y6226000D02*
D03*
X8517250D02*
D03*
X8302163Y6588541D02*
D03*
X8199663D02*
D03*
X8198578Y6410000D02*
D03*
X8301079D02*
D03*
X8300750Y6226000D02*
D03*
X8198250D02*
D03*
D168*
X7797500Y5120000D02*
D03*
X7942500D02*
D03*
D169*
X9517235Y5103122D02*
D03*
X9637443Y5223330D02*
D03*
X9729367Y5131407D02*
D03*
X9609159Y5011198D02*
D03*
D170*
X9899800Y5531694D02*
D03*
Y5661694D02*
D03*
D171*
X9932300Y5596694D02*
D03*
X9867300D02*
D03*
D172*
X10300000Y4600000D02*
D03*
X10427000D02*
D03*
X10808000D02*
D03*
X10681000D02*
D03*
X10554000D02*
D03*
X10300000Y4196000D02*
D03*
X10427000D02*
D03*
X10808000D02*
D03*
X10681000D02*
D03*
X10554000D02*
D03*
D173*
X6931045Y5922604D02*
D03*
Y6088604D02*
D03*
D174*
X9221000Y5957000D02*
D03*
Y5865000D02*
D03*
D175*
X8250000Y5125000D02*
D03*
Y5035000D02*
D03*
X8786000Y5968000D02*
D03*
Y5878000D02*
D03*
X9361000Y5955000D02*
D03*
Y5865000D02*
D03*
D176*
X6749045Y5995604D02*
D03*
Y6087604D02*
D03*
X8078770Y5784195D02*
D03*
Y5692195D02*
D03*
X8082000Y5326000D02*
D03*
Y5418000D02*
D03*
X10507000Y5499000D02*
D03*
Y5591000D02*
D03*
X10789000Y5499000D02*
D03*
Y5591000D02*
D03*
X6063046Y5713604D02*
D03*
Y5805604D02*
D03*
X8326000Y6016000D02*
D03*
Y5924000D02*
D03*
X8423000Y6016000D02*
D03*
Y5924000D02*
D03*
D177*
X8654000Y5858000D02*
D03*
Y5938000D02*
D03*
X8901000Y5937000D02*
D03*
Y5857000D02*
D03*
X8245000Y5772000D02*
D03*
Y5692000D02*
D03*
X8820000Y4720000D02*
D03*
Y4640000D02*
D03*
X9370000Y5390000D02*
D03*
Y5310000D02*
D03*
X9440000D02*
D03*
Y5390000D02*
D03*
X9006000Y5934000D02*
D03*
Y5854000D02*
D03*
D178*
X11890000Y5280000D02*
D03*
Y5580000D02*
D03*
D179*
X7891786Y5679808D02*
D03*
Y5429808D02*
D03*
D180*
X2292500Y5337500D02*
D03*
Y5387500D02*
D03*
Y5437500D02*
D03*
Y5487500D02*
D03*
Y5537500D02*
D03*
Y5587500D02*
D03*
Y5637500D02*
D03*
Y5687500D02*
D03*
Y5737500D02*
D03*
Y5787500D02*
D03*
Y5837500D02*
D03*
Y5887500D02*
D03*
X2482500Y5312500D02*
D03*
Y5362500D02*
D03*
Y5412500D02*
D03*
Y5462500D02*
D03*
Y5512500D02*
D03*
Y5562500D02*
D03*
Y5612500D02*
D03*
Y5662500D02*
D03*
Y5712500D02*
D03*
Y5762500D02*
D03*
Y5812500D02*
D03*
Y5862500D02*
D03*
D181*
X9782527Y5022527D02*
D03*
X9717473Y4957473D02*
D03*
D182*
X9812527Y5267473D02*
D03*
X9747473Y5332527D02*
D03*
D183*
X8169000Y5236000D02*
D03*
X8261000D02*
D03*
D184*
X8728000Y6202000D02*
D03*
X8948000D02*
D03*
D185*
X4500000Y5510000D02*
D03*
Y5400000D02*
D03*
D186*
X5580045Y6156604D02*
D03*
Y6266604D02*
D03*
D187*
X6071046Y6530854D02*
D03*
Y6428354D02*
D03*
X9104000Y4723000D02*
D03*
Y4620500D02*
D03*
X9490000Y5955250D02*
D03*
Y5852750D02*
D03*
D188*
X3500000Y4950000D02*
D03*
X9700000Y5710000D02*
D03*
X9600000Y5480000D02*
D03*
X9580000Y5710000D02*
D03*
X9460000D02*
D03*
X10200000Y5490000D02*
D03*
X10320000D02*
D03*
Y5700000D02*
D03*
X10200000D02*
D03*
X9840000D02*
D03*
X9960000D02*
D03*
Y5490000D02*
D03*
X9840000D02*
D03*
X9340000Y5670000D02*
D03*
X9517235Y5103122D02*
D03*
X9370000Y5410000D02*
D03*
X9439999Y5402700D02*
D03*
X9366326Y5066326D02*
D03*
X10300000Y4750000D02*
D03*
X5770000Y5650000D02*
D03*
X5470000Y5100000D02*
D03*
X8290000Y5430000D02*
D03*
X8260000Y5260000D02*
D03*
X8034000Y5314000D02*
D03*
X8177000Y5304000D02*
D03*
X7700000Y5300000D02*
D03*
X4940000Y5510000D02*
D03*
X9939600Y4860000D02*
D03*
X8240000Y5000000D02*
D03*
X9830000Y5290000D02*
D03*
X9729367Y5131407D02*
D03*
X8123000Y5229000D02*
D03*
X8090000Y4920000D02*
D03*
X7228000Y4804000D02*
D03*
D189*
X8550000Y5550000D02*
D03*
Y5440000D02*
D03*
Y5340000D02*
D03*
Y5240000D02*
D03*
Y5130000D02*
D03*
X8660000Y5030000D02*
D03*
X8780000D02*
D03*
X8900000D02*
D03*
X9020000D02*
D03*
X8660000Y5240000D02*
D03*
X8780000D02*
D03*
X8900000D02*
D03*
X9020000D02*
D03*
X9130000D02*
D03*
Y5130000D02*
D03*
X9020000D02*
D03*
X8900000D02*
D03*
X8780000D02*
D03*
X8660000D02*
D03*
X9130000Y5030000D02*
D03*
X8550000D02*
D03*
X8660000Y5340000D02*
D03*
X8780000D02*
D03*
X8900000D02*
D03*
X9020000D02*
D03*
X9130000D02*
D03*
X8660000Y5440000D02*
D03*
X8780000D02*
D03*
X8900000D02*
D03*
X9020000D02*
D03*
X9130000D02*
D03*
Y5550000D02*
D03*
X9020000D02*
D03*
X8900000D02*
D03*
X8780000D02*
D03*
X8660000D02*
D03*
X6060000Y5613000D02*
D03*
X6425000Y5743000D02*
D03*
%TF.MD5,5d625de9e513c0e4e73a79d6cd8a1b07*%
M02*
