%TF.GenerationSoftware,Altium Limited,Altium Designer,20.0.13 (296)*%
G04 Layer_Color=16711935*
%FSLAX45Y45*%
%MOMM*%
%TF.FileFunction,Soldermask,Bot*%
%TF.Part,Single*%
G01*
G75*
%TA.AperFunction,SMDPad,CuDef*%
%ADD92R,7.54320X6.55320*%
%ADD93R,1.20320X1.17320*%
%TA.AperFunction,ComponentPad*%
%ADD94C,3.78820*%
%ADD95C,5.37820*%
%ADD96C,0.75320*%
%ADD97C,0.60820*%
%ADD98C,2.76820*%
%ADD99C,2.00320*%
%ADD100C,2.30320*%
%TA.AperFunction,ViaPad*%
%ADD101C,0.60320*%
%ADD102C,0.80320*%
%ADD103C,1.20320*%
%ADD104C,1.47320*%
%ADD105C,6.20320*%
D92*
X2970000Y5200000D02*
D03*
X10836000D02*
D03*
D93*
X5673500Y5100000D02*
D03*
X5526500D02*
D03*
D94*
X3337000Y4400000D02*
D03*
D95*
X4170000Y6000000D02*
D03*
X9690000Y4400000D02*
D03*
D96*
X2302500Y5240000D02*
D03*
D97*
Y5960000D02*
D03*
D98*
X1797500Y5020000D02*
D03*
Y6180000D02*
D03*
D99*
X2264500Y5090000D02*
D03*
D100*
Y6110000D02*
D03*
D101*
X6070440Y6404824D02*
D03*
X6000000Y6240000D02*
D03*
X6260000Y5860000D02*
D03*
X11919995Y6559997D02*
D03*
X11839995Y6399997D02*
D03*
X11919995Y6239997D02*
D03*
X11839995Y5119998D02*
D03*
X11919995Y4959998D02*
D03*
X11839995Y4799998D02*
D03*
X11679995Y6399997D02*
D03*
X11759995Y6239997D02*
D03*
X11679995Y5119998D02*
D03*
X11759995Y4959998D02*
D03*
X11679995Y4799998D02*
D03*
X11519995Y6399997D02*
D03*
X11599995Y6239997D02*
D03*
X11519995Y5119998D02*
D03*
X11599995Y4959998D02*
D03*
X11519995Y4799998D02*
D03*
X11359995Y6399997D02*
D03*
X11439995Y6239997D02*
D03*
X11359995Y5119998D02*
D03*
X11439995Y4959998D02*
D03*
X11359995Y4799998D02*
D03*
X11279995Y6559997D02*
D03*
X11199995Y6399997D02*
D03*
X11279995Y6239997D02*
D03*
X11199995Y6079997D02*
D03*
Y5759998D02*
D03*
X11279995Y4959998D02*
D03*
X11119995Y6559997D02*
D03*
X11039995Y6399997D02*
D03*
X11119995Y6239997D02*
D03*
X11039995Y6079997D02*
D03*
X11119995Y5919998D02*
D03*
X11039995Y5759998D02*
D03*
X10959995Y6559997D02*
D03*
X10879996Y6399997D02*
D03*
X10959995Y6239997D02*
D03*
X10879996Y6079997D02*
D03*
X10959995Y5919998D02*
D03*
X10879996Y5759998D02*
D03*
X10799995Y6559997D02*
D03*
X10719996Y6399997D02*
D03*
X10799995Y6239997D02*
D03*
X10719996Y6079997D02*
D03*
X10799995Y5919998D02*
D03*
X10719996Y5759998D02*
D03*
X10639995Y6559997D02*
D03*
X10559996Y6399997D02*
D03*
X10639995Y6239997D02*
D03*
X10559996Y6079997D02*
D03*
X10639995Y5919998D02*
D03*
X10559996Y5759998D02*
D03*
X10479996Y6559997D02*
D03*
X10399996Y6399997D02*
D03*
X10479996Y6239997D02*
D03*
X10399996Y6079997D02*
D03*
X10479996Y5919998D02*
D03*
X10399996Y5759998D02*
D03*
Y5439998D02*
D03*
X10319996Y6559997D02*
D03*
X10239996Y6399997D02*
D03*
X10319996Y6239997D02*
D03*
X10239996Y6079997D02*
D03*
X10319996Y5919998D02*
D03*
X10239996Y5759998D02*
D03*
X10079996Y6079997D02*
D03*
X10159996Y5919998D02*
D03*
X10079996Y5759998D02*
D03*
X9919996Y6079997D02*
D03*
X9999996Y5919998D02*
D03*
X9919996Y5759998D02*
D03*
X9759996Y6079997D02*
D03*
X9839996Y5919998D02*
D03*
X9759996Y5759998D02*
D03*
X9599996Y6079997D02*
D03*
X9679996Y5919998D02*
D03*
X10640000Y5470000D02*
D03*
X10910000Y5460000D02*
D03*
X10790000Y5470000D02*
D03*
X10500000Y5480000D02*
D03*
X11080000Y5490000D02*
D03*
X11200000D02*
D03*
X8680000Y4720000D02*
D03*
X8580000Y4110000D02*
D03*
X8590000Y4240000D02*
D03*
X5970000Y6450000D02*
D03*
X5600000Y6270000D02*
D03*
X5819988Y6429987D02*
D03*
X5809988Y6359987D02*
D03*
X8910000Y4720000D02*
D03*
X8790000Y4640000D02*
D03*
X9450000Y5960000D02*
D03*
X8180000Y6590000D02*
D03*
X8170000Y6220000D02*
D03*
X8550000Y6230000D02*
D03*
Y6410000D02*
D03*
Y6590000D02*
D03*
X8410000D02*
D03*
X8400000Y6220000D02*
D03*
Y6410000D02*
D03*
X9180000Y5860000D02*
D03*
X10300000Y4250000D02*
D03*
X8980000Y5830000D02*
D03*
X8880000Y5840000D02*
D03*
X8790000D02*
D03*
X8423000Y5924000D02*
D03*
X8280000Y5920000D02*
D03*
X5770000Y5850000D02*
D03*
X7750000Y5830000D02*
D03*
X8710000Y5800000D02*
D03*
X8076000Y5769600D02*
D03*
X8246000D02*
D03*
X6110000Y6140000D02*
D03*
X6098000Y6016000D02*
D03*
X5890100Y5850000D02*
D03*
X10820000Y4740000D02*
D03*
X9140000Y4620000D02*
D03*
X8655000Y5969000D02*
D03*
X8786000Y6004600D02*
D03*
X8320000Y6040000D02*
D03*
X8170000Y6410000D02*
D03*
X9270000Y4370000D02*
D03*
Y4500000D02*
D03*
X10560000Y4740000D02*
D03*
X10690000D02*
D03*
X9361000Y6001000D02*
D03*
X9222000Y6004000D02*
D03*
X9007000Y5966000D02*
D03*
X8902000Y5971000D02*
D03*
X8420000Y6040000D02*
D03*
X7238000Y4239000D02*
D03*
X7225000Y4516000D02*
D03*
D102*
X5720000Y5100000D02*
D03*
X10970000Y5090000D02*
D03*
X10710000D02*
D03*
X11100000Y5200000D02*
D03*
X10580000D02*
D03*
X10836000D02*
D03*
X10840000Y4980000D02*
D03*
X11100000D02*
D03*
X10580000D02*
D03*
X6420000Y6280000D02*
D03*
X6560000D02*
D03*
X6700000D02*
D03*
X6840000D02*
D03*
X6990000D02*
D03*
X6420000Y6390000D02*
D03*
X6560000D02*
D03*
X6700000D02*
D03*
X6840000D02*
D03*
X6990000D02*
D03*
X6420000Y6510000D02*
D03*
X6560000D02*
D03*
X6700000D02*
D03*
Y6630000D02*
D03*
X6560000D02*
D03*
X6420000D02*
D03*
X2500000Y5890000D02*
D03*
Y5290000D02*
D03*
X9000000Y4170000D02*
D03*
X8860000D02*
D03*
Y4290000D02*
D03*
X9000000D02*
D03*
Y4410000D02*
D03*
X8860000D02*
D03*
X8790000Y4120000D02*
D03*
X9070000D02*
D03*
X8930000D02*
D03*
X8790000Y4230000D02*
D03*
X9070000D02*
D03*
X8930000D02*
D03*
X8790000Y4350000D02*
D03*
X9070000D02*
D03*
X8930000D02*
D03*
X9070000Y4470000D02*
D03*
X8930000D02*
D03*
X8790000D02*
D03*
X5608000Y6003000D02*
D03*
X5481000Y6155000D02*
D03*
X6881000Y5869000D02*
D03*
X6986000Y5871000D02*
D03*
X5872000Y6095000D02*
D03*
X5813000Y6038000D02*
D03*
X5929000Y6037000D02*
D03*
Y6152000D02*
D03*
X5816000Y6151000D02*
D03*
D103*
X6410000Y7090000D02*
D03*
X5910000D02*
D03*
X6220000D02*
D03*
X3190000Y4960000D02*
D03*
X4900000Y5900000D02*
D03*
X3400000D02*
D03*
D104*
Y6740000D02*
D03*
X4910000D02*
D03*
X3200000Y5210000D02*
D03*
X2690000Y4990000D02*
D03*
X2700000Y5410000D02*
D03*
D105*
X2000000Y4400000D02*
D03*
X11600000D02*
D03*
Y6800000D02*
D03*
X2000000D02*
D03*
%TF.MD5,4b6b019270c66f5bbafaebed580864cf*%
M02*
