%TF.GenerationSoftware,Altium Limited,Altium Designer,20.0.13 (296)*%
G04 Layer_Physical_Order=1*
G04 Layer_Color=255*
%FSLAX45Y45*%
%MOMM*%
%TF.FileFunction,Copper,L1,Top,Signal*%
%TF.Part,Single*%
G01*
G75*
%TA.AperFunction,Conductor*%
%ADD10C,0.20000*%
%ADD11C,0.10000*%
%ADD12C,0.25400*%
%ADD13C,0.50000*%
%ADD14C,0.40000*%
%ADD15C,0.30000*%
%TA.AperFunction,SMDPad,CuDef*%
%ADD16R,1.65000X3.25000*%
%ADD17R,3.50000X4.10000*%
%ADD18R,1.10000X0.45000*%
%ADD19R,0.95000X0.90000*%
%ADD20R,0.75000X0.75000*%
%ADD21R,0.75000X0.60000*%
%ADD22R,0.60000X0.70000*%
%ADD23R,6.40000X6.40000*%
%ADD24R,0.85000X0.30000*%
%ADD25R,0.30000X0.85000*%
%ADD26R,1.75000X1.75000*%
%ADD27R,0.20000X0.80000*%
%ADD28R,0.80000X0.20000*%
%ADD29R,0.40000X0.50000*%
%ADD30R,1.50000X0.70000*%
%ADD31R,0.35000X0.65000*%
%ADD32R,0.75000X0.65000*%
%ADD33R,2.20000X1.25000*%
%ADD34R,0.66040X1.85420*%
%ADD35R,0.47500X0.50000*%
%ADD36R,0.65000X0.90000*%
G04:AMPARAMS|DCode=37|XSize=1.2mm|YSize=1mm|CornerRadius=0mm|HoleSize=0mm|Usage=FLASHONLY|Rotation=45.000|XOffset=0mm|YOffset=0mm|HoleType=Round|Shape=Rectangle|*
%AMROTATEDRECTD37*
4,1,4,-0.07071,-0.77782,-0.77782,-0.07071,0.07071,0.77782,0.77782,0.07071,-0.07071,-0.77782,0.0*
%
%ADD37ROTATEDRECTD37*%

%ADD38R,1.00000X0.45000*%
%ADD39R,0.35000X0.35000*%
%ADD40R,0.65000X2.76000*%
%ADD41R,1.47000X0.97000*%
%ADD42R,0.72000X0.69000*%
%ADD43R,0.68000X0.68000*%
%ADD44R,0.62000X0.60000*%
%ADD45R,0.50000X0.40000*%
%TA.AperFunction,ConnectorPad*%
%ADD46R,1.80000X1.10000*%
%TA.AperFunction,SMDPad,CuDef*%
%ADD47R,1.90000X1.10000*%
%TA.AperFunction,ConnectorPad*%
%ADD48R,0.90000X0.25400*%
%TA.AperFunction,SMDPad,CuDef*%
G04:AMPARAMS|DCode=49|XSize=0.62mm|YSize=0.6mm|CornerRadius=0mm|HoleSize=0mm|Usage=FLASHONLY|Rotation=135.000|XOffset=0mm|YOffset=0mm|HoleType=Round|Shape=Rectangle|*
%AMROTATEDRECTD49*
4,1,4,0.43134,-0.00707,0.00707,-0.43134,-0.43134,0.00707,-0.00707,0.43134,0.43134,-0.00707,0.0*
%
%ADD49ROTATEDRECTD49*%

G04:AMPARAMS|DCode=50|XSize=0.62mm|YSize=0.6mm|CornerRadius=0mm|HoleSize=0mm|Usage=FLASHONLY|Rotation=45.000|XOffset=0mm|YOffset=0mm|HoleType=Round|Shape=Rectangle|*
%AMROTATEDRECTD50*
4,1,4,-0.00707,-0.43134,-0.43134,-0.00707,0.00707,0.43134,0.43134,0.00707,-0.00707,-0.43134,0.0*
%
%ADD50ROTATEDRECTD50*%

%ADD51R,0.60000X0.62000*%
%ADD52R,1.25000X2.20000*%
%ADD53R,0.65000X0.75000*%
%ADD54R,0.60000X0.75000*%
%ADD55R,0.50000X0.47500*%
%TA.AperFunction,Conductor*%
%ADD56C,0.15240*%
%ADD57C,0.45720*%
%ADD58C,1.00000*%
%TA.AperFunction,ComponentPad*%
%ADD59C,3.58500*%
%ADD60C,5.17500*%
%ADD61C,0.55000*%
%ADD62C,0.40500*%
%ADD63C,2.56500*%
%ADD64C,1.80000*%
%ADD65C,2.10000*%
%TA.AperFunction,ViaPad*%
%ADD66C,0.40000*%
%ADD67C,0.60000*%
%ADD68C,1.00000*%
%ADD69C,1.27000*%
%ADD70C,6.00000*%
G36*
X6051634Y7147376D02*
X6064061Y7142228D01*
X6070565Y7137882D01*
X6080000Y7129999D01*
X6080000Y7129999D01*
X6080000Y7129999D01*
X6091889Y7118111D01*
X6110571Y7090151D01*
X6123440Y7059084D01*
X6130000Y7026103D01*
Y7009290D01*
Y6589161D01*
X6121445Y6580004D01*
X6083746D01*
Y6530854D01*
X6071046D01*
Y6518154D01*
X6020646D01*
Y6500000D01*
X5804142Y6500000D01*
X5800796Y6499835D01*
X5794231Y6498530D01*
X5788048Y6495968D01*
X5782483Y6492250D01*
X5780000Y6490000D01*
X5774142Y6484142D01*
X5774142D01*
X5770960Y6480631D01*
X5765701Y6472761D01*
X5762079Y6464016D01*
X5760232Y6454733D01*
X5760000Y6450000D01*
Y6368285D01*
X5760329Y6361592D01*
X5762940Y6348463D01*
X5768063Y6336096D01*
X5775500Y6324965D01*
X5777190Y6323100D01*
X5773639Y6312696D01*
X5771639Y6310400D01*
X5756600D01*
Y6257700D01*
X5792000D01*
Y6232300D01*
X5756600D01*
Y6210400D01*
X5734700D01*
Y6175000D01*
X5709300D01*
Y6210400D01*
X5670000D01*
Y6305858D01*
X5669835Y6309204D01*
X5668530Y6315769D01*
X5665969Y6321952D01*
X5662250Y6327517D01*
X5660000Y6330000D01*
X5655356Y6334644D01*
X5655355D01*
X5646578Y6342600D01*
X5626903Y6355746D01*
X5605040Y6364802D01*
X5581832Y6369419D01*
X5570000Y6370000D01*
X4375210D01*
X4350314Y6368777D01*
X4301478Y6359063D01*
X4255475Y6340008D01*
X4214074Y6312344D01*
X4195605Y6295605D01*
X4159021Y6259021D01*
X4119256Y6255105D01*
X4070463Y6240303D01*
X4025495Y6216267D01*
X3986079Y6183920D01*
X3953732Y6144505D01*
X3929696Y6099537D01*
X3914895Y6050744D01*
X3910978Y6010978D01*
X3414395Y5514395D01*
X3414394D01*
X3396705Y5496705D01*
X3355104Y5468908D01*
X3308879Y5449761D01*
X3259806Y5440000D01*
X2783798D01*
X2777654Y5454834D01*
X2763404Y5473404D01*
X2744833Y5487654D01*
X2723207Y5496612D01*
X2700000Y5499667D01*
X2676792Y5496612D01*
X2655166Y5487654D01*
X2636596Y5473404D01*
X2622346Y5454834D01*
X2616202Y5440000D01*
X2552900D01*
Y5449800D01*
X2482500D01*
Y5475200D01*
X2552900D01*
Y5500600D01*
X2546480D01*
X2537500Y5509580D01*
X2537500Y5535200D01*
X2537500Y5547900D01*
X2537500Y5585200D01*
X2537500Y5597900D01*
X2537500Y5635200D01*
X2537500Y5647900D01*
Y5674400D01*
X2552900D01*
Y5699800D01*
X2482500D01*
Y5725200D01*
X2552900D01*
Y5730241D01*
X2560000Y5740000D01*
X2564500Y5744965D01*
X2567573Y5749563D01*
X2571937Y5756095D01*
X2577060Y5768462D01*
X2579671Y5781591D01*
X2580000Y5788284D01*
Y6933431D01*
Y6946882D01*
X2585248Y6973266D01*
X2595543Y6998121D01*
X2610489Y7020489D01*
X2620000Y7030000D01*
X2665605Y7075605D01*
X2665606Y7075605D01*
Y7075605D01*
X2683295Y7093294D01*
X2724896Y7121092D01*
X2771121Y7140239D01*
X2820193Y7150000D01*
X5844992D01*
X5851255Y7137300D01*
X5844138Y7128025D01*
X5836541Y7109684D01*
X5835621Y7102700D01*
X5984379D01*
X5983459Y7109684D01*
X5975862Y7128025D01*
X5968745Y7137300D01*
X5975008Y7150000D01*
X6038441D01*
X6051634Y7147376D01*
D02*
G37*
G36*
X11934600Y7196634D02*
X11942556Y7196634D01*
X11957258Y7190545D01*
X11968510Y7179293D01*
X11973068Y7168289D01*
X11974599Y7156637D01*
Y7156634D01*
X11974599D01*
X11974600Y7156634D01*
X11974600Y6587866D01*
X11972373Y6586185D01*
X11955153Y6589098D01*
X11952727Y6592729D01*
X11937709Y6602763D01*
X11932695Y6603761D01*
Y6559997D01*
Y6516234D01*
X11937709Y6517231D01*
X11952727Y6527266D01*
X11955153Y6530896D01*
X11972373Y6533809D01*
X11974600Y6532129D01*
X11974599Y6267867D01*
X11972373Y6266186D01*
X11955152Y6269099D01*
X11952727Y6272729D01*
X11937709Y6282763D01*
X11932695Y6283761D01*
Y6239997D01*
Y6196234D01*
X11937709Y6197231D01*
X11952727Y6207266D01*
X11955152Y6210896D01*
X11972373Y6213809D01*
X11974599Y6212128D01*
Y6146634D01*
X11974600Y6138678D01*
X11968510Y6123976D01*
X11957258Y6112724D01*
X11946606Y6108311D01*
X11934600Y6106635D01*
Y6106634D01*
X11254600Y6106634D01*
X11246796Y6105866D01*
X11239369Y6102789D01*
X11232727Y6112729D01*
X11217710Y6122763D01*
X11212695Y6123761D01*
Y6079997D01*
Y6028167D01*
X11214600Y6026603D01*
Y5813392D01*
X11212695Y5811829D01*
Y5759998D01*
X11199995D01*
Y5747298D01*
X11156232D01*
X11157229Y5742283D01*
X11165440Y5729995D01*
X11157234Y5717714D01*
X11156237Y5712700D01*
X11200000D01*
Y5687300D01*
X11156237D01*
X11157234Y5682286D01*
X11167268Y5667268D01*
X11174105Y5662700D01*
X11170253Y5650000D01*
X11122388D01*
X11120959Y5649715D01*
X11120854Y5649715D01*
X11113271Y5652377D01*
X11110659Y5662520D01*
X11111044Y5666141D01*
X11112732Y5667268D01*
X11122766Y5682286D01*
X11123763Y5687300D01*
X11036236D01*
X11037234Y5682286D01*
X11047268Y5667268D01*
X11050755Y5664938D01*
X11046903Y5652238D01*
X10914000D01*
Y5652317D01*
X10893496Y5648238D01*
X10813998D01*
X10810135Y5648374D01*
X10809026Y5648423D01*
X10798484Y5649998D01*
X10798480Y5650000D01*
X10790999Y5653097D01*
Y5652879D01*
X10789000Y5651238D01*
X10786706Y5651238D01*
X10689500D01*
X10666831Y5646729D01*
X10647613Y5633888D01*
X10646387D01*
X10627169Y5646729D01*
X10604500Y5651238D01*
X10507000D01*
X10504744Y5652820D01*
Y5652820D01*
X10493788Y5648610D01*
X10490631Y5647982D01*
X10359044D01*
X10346199Y5645427D01*
X10344492Y5646619D01*
X10344744Y5661931D01*
X10352732Y5667268D01*
X10362766Y5682286D01*
X10363763Y5687300D01*
X10320000D01*
Y5700000D01*
X10307300D01*
Y5743763D01*
X10302286Y5742766D01*
X10293677Y5737014D01*
X10291494Y5738068D01*
X10283384Y5745410D01*
X10283759Y5747298D01*
X10196232D01*
X10196569Y5745607D01*
X10182286Y5742766D01*
X10167268Y5732732D01*
X10157234Y5717714D01*
X10156236Y5712700D01*
X10200000D01*
Y5687300D01*
X10156236D01*
X10157234Y5682286D01*
X10166972Y5667712D01*
X10166491Y5665732D01*
X10161494Y5655853D01*
X10161094Y5655932D01*
X9998625D01*
X9995206Y5662509D01*
X9993643Y5668632D01*
X10002766Y5682286D01*
X10003763Y5687300D01*
X9960000D01*
Y5712700D01*
X10003763D01*
X10002766Y5717714D01*
X9992732Y5732732D01*
X9977714Y5742766D01*
X9963423Y5745609D01*
X9963759Y5747298D01*
X9876232D01*
X9876607Y5745417D01*
X9868477Y5738063D01*
X9866314Y5737020D01*
X9857714Y5742766D01*
X9852700Y5743763D01*
Y5700000D01*
X9827300D01*
Y5743763D01*
X9822286Y5742766D01*
X9813677Y5737014D01*
X9811494Y5738068D01*
X9803384Y5745411D01*
X9803759Y5747298D01*
X9759996D01*
Y5759998D01*
X9747296D01*
Y5803761D01*
X9742282Y5802764D01*
X9727264Y5792729D01*
X9717230Y5777712D01*
X9714612Y5764551D01*
X9712700Y5763156D01*
Y5710000D01*
X9700000D01*
Y5697300D01*
X9656236D01*
X9657234Y5692286D01*
X9667268Y5677268D01*
X9681567Y5667714D01*
X9681715Y5666778D01*
X9675676Y5655014D01*
X9604324D01*
X9598285Y5666778D01*
X9598433Y5667714D01*
X9612732Y5677268D01*
X9622766Y5692286D01*
X9623763Y5697300D01*
X9536236D01*
X9537234Y5692286D01*
X9547268Y5677268D01*
X9561567Y5667714D01*
X9561715Y5666778D01*
X9555676Y5655014D01*
X9484324D01*
X9478285Y5666778D01*
X9478433Y5667714D01*
X9492732Y5677268D01*
X9502766Y5692286D01*
X9503763Y5697300D01*
X9416236D01*
X9417234Y5692286D01*
X9427268Y5677268D01*
X9441567Y5667714D01*
X9441715Y5666778D01*
X9435676Y5655014D01*
X9396258D01*
X9385461Y5665834D01*
X9386290Y5670000D01*
X9382766Y5687714D01*
X9372732Y5702732D01*
X9357714Y5712766D01*
X9340000Y5716290D01*
X9325196Y5713345D01*
X9317765Y5719072D01*
X9314882Y5723093D01*
X9324421Y5754540D01*
X9344602Y5792296D01*
X9364547Y5816598D01*
X9365949Y5816319D01*
Y5816656D01*
X9490000D01*
X9501781Y5819000D01*
X9525000D01*
Y5847253D01*
X9526093Y5852750D01*
X9525000Y5858247D01*
Y5886500D01*
X9501781D01*
X9490000Y5888843D01*
X9430301D01*
X9420400Y5895600D01*
Y5911705D01*
X9430349Y5917023D01*
X9433100Y5917072D01*
X9450000Y5913711D01*
X9467714Y5917234D01*
X9474099Y5921500D01*
X9525000D01*
Y5989000D01*
X9485225D01*
X9482732Y5992732D01*
X9467714Y6002766D01*
X9450000Y6006289D01*
X9433100Y6002928D01*
X9430349Y6002977D01*
X9420400Y6008295D01*
Y6014400D01*
X9404624D01*
X9403766Y6018714D01*
X9393732Y6033732D01*
X9378714Y6043766D01*
X9373700Y6044763D01*
Y6001000D01*
X9348300D01*
Y6044763D01*
X9343286Y6043766D01*
X9328268Y6033732D01*
X9318234Y6018714D01*
X9317376Y6014400D01*
X9301600D01*
Y5967700D01*
X9361000D01*
Y5942300D01*
X9301600D01*
Y5895600D01*
X9317000D01*
Y5871661D01*
X9291326Y5841600D01*
X9279700Y5822629D01*
X9267000Y5826210D01*
Y5897100D01*
X9282400D01*
Y5944300D01*
X9221001D01*
Y5969700D01*
X9282400D01*
Y6016900D01*
X9265724D01*
X9264766Y6021714D01*
X9254732Y6036732D01*
X9239714Y6046766D01*
X9234700Y6047763D01*
Y6004000D01*
X9209300D01*
Y6047763D01*
X9204286Y6046766D01*
X9189268Y6036732D01*
X9185313Y6030812D01*
X9172881Y6035066D01*
X9182412Y6170342D01*
X9183459Y6182610D01*
X9183459D01*
X9179946Y6227238D01*
X9169496Y6270766D01*
X9152365Y6312124D01*
X9128975Y6350293D01*
X9099902Y6384333D01*
X9099702Y6384133D01*
X9099701Y6384133D01*
X9056312Y6427522D01*
X9056512Y6427723D01*
X9022472Y6456796D01*
X8984304Y6480186D01*
X8942946Y6497317D01*
X8899417Y6507767D01*
X8854790Y6511279D01*
Y6510996D01*
X8561046D01*
Y6511508D01*
X8516135Y6507085D01*
X8472950Y6493985D01*
X8433151Y6472712D01*
X8410576Y6454186D01*
X8400000Y6456289D01*
X8382286Y6452766D01*
X8367268Y6442732D01*
X8366108Y6440995D01*
X8334829D01*
Y6445000D01*
X8267329D01*
Y6375000D01*
X8334829D01*
Y6379004D01*
X8366108D01*
X8367268Y6377268D01*
X8382286Y6367234D01*
X8400000Y6363710D01*
X8417714Y6367234D01*
X8426344Y6373000D01*
X8448578D01*
Y6405077D01*
X8467801Y6420853D01*
X8472685Y6423464D01*
X8483579Y6416934D01*
Y6373000D01*
X8523656D01*
X8532286Y6367234D01*
X8550000Y6363710D01*
X8567714Y6367234D01*
X8582732Y6377268D01*
X8592766Y6392286D01*
X8596289Y6410000D01*
X8592766Y6427714D01*
X8587026Y6436304D01*
X8593815Y6449004D01*
X8854790D01*
X8856139Y6449273D01*
X8898374Y6445113D01*
X8940283Y6432400D01*
X8978907Y6411755D01*
X8991798Y6401176D01*
X8986719Y6388914D01*
X8963432Y6391208D01*
Y6390996D01*
X8730711D01*
Y6391373D01*
X8691286Y6387490D01*
X8653377Y6375990D01*
X8618439Y6357316D01*
X8587816Y6332184D01*
X8587750Y6332251D01*
X8585857Y6331467D01*
X8573351Y6330996D01*
X8450000D01*
X8438139Y6328636D01*
X8429183Y6322652D01*
X8428082Y6321918D01*
X8419898Y6314403D01*
X8419898Y6314403D01*
X8400030Y6288510D01*
X8390003Y6264301D01*
X8382286Y6262766D01*
X8373650Y6256996D01*
X8334500D01*
Y6261000D01*
X8267000D01*
Y6191000D01*
X8334500D01*
Y6195004D01*
X8362099D01*
X8367268Y6187268D01*
X8382286Y6177234D01*
X8400000Y6173711D01*
X8417714Y6177234D01*
X8432732Y6187268D01*
X8435225Y6191000D01*
X8448500D01*
Y6242552D01*
X8450011Y6250145D01*
X8461666Y6267588D01*
X8473958Y6268623D01*
X8483500Y6260107D01*
Y6191000D01*
X8526649D01*
X8532286Y6187234D01*
X8550000Y6183711D01*
X8567714Y6187234D01*
X8582732Y6197268D01*
X8592766Y6212286D01*
X8596289Y6230000D01*
X8592766Y6247714D01*
X8587153Y6256115D01*
X8593260Y6269808D01*
X8611041Y6273345D01*
X8632390Y6287610D01*
X8632390Y6287610D01*
X8641558Y6296137D01*
X8644110Y6298095D01*
X8655500Y6292478D01*
Y6180544D01*
X8548873Y6073917D01*
X8548731Y6074059D01*
X8519147Y6039421D01*
X8495345Y6000581D01*
X8491856Y5992156D01*
X8479400Y5994634D01*
Y6003300D01*
X8422999D01*
Y6028700D01*
X8479400D01*
Y6071400D01*
X8453622D01*
X8452732Y6072732D01*
X8437714Y6082766D01*
X8432700Y6083764D01*
Y6040000D01*
X8407300D01*
Y6083764D01*
X8402286Y6082766D01*
X8387268Y6072732D01*
X8386378Y6071400D01*
X8353622D01*
X8352732Y6072732D01*
X8337714Y6082766D01*
X8332700Y6083764D01*
Y6040000D01*
X8307300D01*
Y6083764D01*
X8302286Y6082766D01*
X8287268Y6072732D01*
X8286378Y6071400D01*
X8269600D01*
Y6028700D01*
X8326000D01*
Y6003300D01*
X8269600D01*
Y5964221D01*
X8262286Y5962766D01*
X8247268Y5952732D01*
X8237234Y5937714D01*
X8233710Y5920000D01*
X8237234Y5902286D01*
X8247268Y5887268D01*
X8262286Y5877234D01*
X8280000Y5873711D01*
X8280089Y5873728D01*
X8286559Y5868418D01*
X8289523Y5856946D01*
X8289523D01*
X8293057Y5830100D01*
X8285351Y5818940D01*
X8282952Y5817400D01*
X8257700D01*
Y5771999D01*
X8245000D01*
Y5759299D01*
X8194600D01*
Y5726600D01*
X8199205D01*
X8210000Y5722000D01*
Y5697497D01*
X8208907Y5692000D01*
X8210000Y5686503D01*
Y5662000D01*
X8226180D01*
X8231188Y5658654D01*
X8245000Y5655907D01*
X8265676D01*
X8267276Y5656225D01*
X8299114Y5652033D01*
X8329679Y5639373D01*
Y5589088D01*
X8320269Y5580559D01*
X8289829Y5583557D01*
X8248862Y5595984D01*
X8211107Y5616165D01*
X8179254Y5642306D01*
X8178350Y5643660D01*
X8119770Y5702239D01*
Y5728795D01*
X8135170D01*
Y5771495D01*
X8078771D01*
X8022371D01*
Y5728795D01*
X8009880Y5728288D01*
X7996786D01*
Y5744808D01*
X7786786D01*
Y5614808D01*
X7996786D01*
Y5656101D01*
X8037771D01*
Y5652195D01*
X8067727D01*
X8127306Y5592616D01*
X8127164Y5592473D01*
X8161802Y5562889D01*
X8200642Y5539088D01*
X8206176Y5536796D01*
X8205128Y5523483D01*
X8173248Y5515830D01*
X8131162Y5498397D01*
X8092322Y5474596D01*
X8072890Y5458000D01*
X8041000D01*
Y5454093D01*
X7996786D01*
Y5494808D01*
X7786786D01*
Y5364808D01*
X7996786D01*
Y5381906D01*
X8013110D01*
X8025600Y5381400D01*
Y5358619D01*
X8016286Y5356766D01*
X8001268Y5346732D01*
X7991234Y5331714D01*
X7990236Y5326700D01*
X8034000D01*
Y5314000D01*
X8046700D01*
Y5270237D01*
X8048527Y5270600D01*
X8082421D01*
X8087708Y5257900D01*
X8080234Y5246714D01*
X8079237Y5241700D01*
X8123000D01*
Y5216300D01*
X8079237D01*
X8080234Y5211286D01*
X8090268Y5196268D01*
X8103565Y5187384D01*
X8105902Y5183392D01*
X8106052Y5182700D01*
X8095816Y5170000D01*
X8032500D01*
Y5151094D01*
X7985000D01*
Y5175000D01*
X7900000D01*
Y5065000D01*
X7985000D01*
Y5078907D01*
X8032500D01*
Y5060000D01*
X8147500D01*
Y5088907D01*
X8190600D01*
Y5047701D01*
X8250000D01*
X8309400D01*
Y5094400D01*
X8294000D01*
Y5107359D01*
X8295249Y5107608D01*
Y5107649D01*
X8320699D01*
X8329679Y5098669D01*
X8329679Y5068743D01*
X8329679Y5056043D01*
Y5018743D01*
X8329679Y4968743D01*
X8329679Y4956043D01*
Y4868743D01*
X8414243D01*
X8419503Y4856043D01*
X8418199Y4854738D01*
X8178456D01*
X8177476Y4859665D01*
X8166336Y4876336D01*
X8158009Y4881900D01*
X8161862Y4894600D01*
X8162900D01*
Y4952300D01*
X8017100D01*
Y4894600D01*
X8005893Y4890996D01*
X7900711D01*
X7899121Y4890679D01*
X7864414Y4895249D01*
X7830590Y4909259D01*
X7802818Y4930570D01*
X7801917Y4931917D01*
X7326312Y5407522D01*
X7326513Y5407723D01*
X7292473Y5436796D01*
X7254304Y5460186D01*
X7212946Y5477317D01*
X7169417Y5487767D01*
X7124790Y5491279D01*
Y5490996D01*
X6055210D01*
X6053861Y5490727D01*
X6011626Y5494887D01*
X5969717Y5507600D01*
X5931093Y5528245D01*
X5898286Y5555168D01*
X5897522Y5556312D01*
X5814223Y5639611D01*
X5816289Y5650000D01*
X5812766Y5667714D01*
X5802732Y5682732D01*
X5787714Y5692766D01*
X5770000Y5696289D01*
X5752286Y5692766D01*
X5737268Y5682732D01*
X5727234Y5667714D01*
X5723710Y5650000D01*
X5727234Y5632286D01*
X5737268Y5617268D01*
X5752286Y5607234D01*
X5760582Y5605584D01*
X5853688Y5512478D01*
X5853487Y5512277D01*
X5887527Y5483204D01*
X5925696Y5459814D01*
X5967054Y5442683D01*
X6010583Y5432233D01*
X6055210Y5428721D01*
Y5429004D01*
X7124790D01*
X7126139Y5429273D01*
X7168374Y5425113D01*
X7210283Y5412400D01*
X7248907Y5391755D01*
X7281713Y5364832D01*
X7282478Y5363688D01*
X7758083Y4888083D01*
X7757816Y4887816D01*
X7788439Y4862684D01*
X7796430Y4858413D01*
X7793344Y4846093D01*
X7732500D01*
Y4850000D01*
X7637500D01*
Y4770000D01*
X7732500D01*
Y4773907D01*
X8051005D01*
X8052358Y4774176D01*
X8090667Y4770402D01*
X8128806Y4758833D01*
X8163955Y4740046D01*
X8166385Y4738051D01*
X8162107Y4726093D01*
X7924142D01*
X7924142Y4726344D01*
X7885899Y4722577D01*
X7849126Y4711422D01*
X7815236Y4693308D01*
X7785531Y4668930D01*
X7785708Y4668752D01*
X7785708Y4668752D01*
X7676956Y4560000D01*
X7640500D01*
Y4480000D01*
X7735500D01*
Y4516456D01*
X7836752Y4617709D01*
X7837584Y4618953D01*
X7862105Y4637769D01*
X7892029Y4650164D01*
X7911908Y4652781D01*
X7924142Y4653906D01*
Y4653907D01*
X8017374D01*
X8019472Y4651366D01*
X8016985Y4634430D01*
X8010553Y4630132D01*
X8010821Y4629865D01*
X8010820Y4629865D01*
X7660956Y4280000D01*
X7624500D01*
Y4200000D01*
X7719500D01*
Y4236456D01*
X8058439Y4575395D01*
X8059321Y4575761D01*
X8063812Y4576654D01*
X8075522Y4584478D01*
X8075528Y4584472D01*
X8089264Y4595012D01*
X8105261Y4601638D01*
X8122427Y4603898D01*
Y4603907D01*
X8537946D01*
X8542546Y4599115D01*
X8546223Y4592196D01*
X8544122Y4588087D01*
X8540820Y4584713D01*
X8538082Y4581917D01*
X8536319Y4579278D01*
X8531364Y4571862D01*
X8529004Y4560000D01*
Y4455500D01*
X8528578D01*
X8532647Y4424592D01*
X8544578Y4395789D01*
X8563556Y4371056D01*
X8583000Y4356136D01*
Y4335000D01*
X8713000D01*
Y4400000D01*
X8638280D01*
X8626021Y4402438D01*
X8607388Y4414888D01*
X8594938Y4433521D01*
X8591799Y4449300D01*
X8599828Y4462000D01*
X8713000D01*
Y4519004D01*
X8727600D01*
Y4316701D01*
X8928000D01*
X9128400D01*
Y4446600D01*
X9195300D01*
Y4494500D01*
X9220700D01*
Y4446600D01*
X9288400D01*
Y4457692D01*
X9302732Y4467268D01*
X9306304Y4472615D01*
X9319004Y4468763D01*
Y4401237D01*
X9306304Y4397385D01*
X9302732Y4402732D01*
X9287714Y4412766D01*
X9270000Y4416289D01*
X9252286Y4412766D01*
X9237268Y4402732D01*
X9235443Y4400000D01*
X9143000D01*
Y4335000D01*
X9240662D01*
X9252286Y4327234D01*
X9270000Y4323710D01*
X9287714Y4327234D01*
X9289640Y4328521D01*
X9298439Y4319126D01*
X9286688Y4303812D01*
X9263641Y4286127D01*
X9236802Y4275010D01*
X9221534Y4273000D01*
X9143000D01*
Y4208000D01*
X9273000D01*
Y4222060D01*
X9274294Y4222453D01*
X9304244Y4238461D01*
X9330495Y4260005D01*
X9334511Y4264899D01*
X9346163Y4259847D01*
X9344718Y4248867D01*
X9330578Y4214730D01*
X9308085Y4185416D01*
X9278770Y4162922D01*
X9244633Y4148782D01*
X9223500Y4146000D01*
X9143000D01*
Y4081000D01*
X9273000D01*
Y4093710D01*
X9285830Y4097602D01*
X9320992Y4116396D01*
X9351811Y4141689D01*
X9377104Y4172509D01*
X9395898Y4207670D01*
X9407472Y4245823D01*
X9411379Y4285500D01*
X9410996D01*
Y4600000D01*
X9411583D01*
X9406896Y4623567D01*
X9393546Y4643546D01*
X9374452Y4656304D01*
X9374334Y4657228D01*
X9381928Y4669004D01*
X9650810D01*
X9651434Y4656304D01*
X9639256Y4655105D01*
X9590463Y4640304D01*
X9545495Y4616268D01*
X9506080Y4583920D01*
X9473732Y4544505D01*
X9449696Y4499537D01*
X9434895Y4450744D01*
X9429897Y4400000D01*
X9434895Y4349256D01*
X9449696Y4300463D01*
X9473732Y4255495D01*
X9506080Y4216080D01*
X9545495Y4183733D01*
X9590463Y4159697D01*
X9639256Y4144895D01*
X9690000Y4139897D01*
X9740744Y4144895D01*
X9789537Y4159697D01*
X9834505Y4183733D01*
X9873920Y4216080D01*
X9906267Y4255495D01*
X9930303Y4300463D01*
X9945105Y4349256D01*
X9950103Y4400000D01*
X9945105Y4450744D01*
X9930303Y4499537D01*
X9906267Y4544505D01*
X9873920Y4583920D01*
X9834505Y4616268D01*
X9789537Y4640304D01*
X9743507Y4654267D01*
X9740814Y4662175D01*
X9740871Y4667854D01*
X9741829Y4668510D01*
X9769097Y4665824D01*
X9801742Y4655921D01*
X9831828Y4639840D01*
X9857771Y4618549D01*
X9858083Y4618083D01*
X10063688Y4412478D01*
X10063688Y4412477D01*
X10063488Y4412277D01*
X10097528Y4383204D01*
X10135697Y4359814D01*
X10177054Y4342683D01*
X10220583Y4332233D01*
X10257500Y4329327D01*
Y4268112D01*
X10257234Y4267714D01*
X10253711Y4250000D01*
X10257234Y4232286D01*
X10257500Y4231888D01*
Y4048000D01*
X10342500D01*
Y4231888D01*
X10342766Y4232286D01*
X10346289Y4250000D01*
X10342766Y4267714D01*
X10342500Y4268112D01*
Y4315705D01*
X10355200Y4320966D01*
X10365656Y4310509D01*
X10365681Y4310484D01*
X10366445Y4309974D01*
X10384012Y4287080D01*
X10384500Y4285902D01*
Y4048000D01*
X10469500D01*
Y4331464D01*
X10477095Y4336539D01*
X10482200Y4337393D01*
X10498718Y4324718D01*
X10511500Y4308061D01*
Y4048000D01*
X10596500D01*
Y4344000D01*
X10562161D01*
X10552719Y4356304D01*
X10558982Y4369004D01*
X10595387D01*
X10595858Y4368533D01*
X10604957Y4359844D01*
X10606154Y4358531D01*
X10620278Y4341320D01*
X10636677Y4310641D01*
X10638500Y4304631D01*
Y4048000D01*
X10723500D01*
Y4330695D01*
X10736200Y4335239D01*
X10739755Y4330907D01*
X10760400Y4292283D01*
X10765500Y4275471D01*
Y4048000D01*
X10850500D01*
Y4344000D01*
X10803470D01*
X10784796Y4374473D01*
X10760569Y4402839D01*
X10760538Y4402876D01*
X10760533Y4402881D01*
X10755724Y4408513D01*
Y4408513D01*
X10752067Y4412068D01*
X10752067D01*
X10746422Y4416700D01*
X10746416Y4416705D01*
X10746288Y4416810D01*
X10737649Y4423900D01*
X10738900Y4436600D01*
X10738901Y4436600D01*
X10738900Y4436600D01*
Y4587300D01*
X10680999D01*
Y4612700D01*
X10738900D01*
Y4763400D01*
X10728967D01*
X10722732Y4772732D01*
X10707714Y4782766D01*
X10702700Y4783763D01*
Y4740000D01*
X10677300D01*
Y4783763D01*
X10672286Y4782766D01*
X10657268Y4772732D01*
X10651033Y4763400D01*
X10623100D01*
Y4763400D01*
X10611900D01*
Y4763400D01*
X10598967D01*
X10592732Y4772732D01*
X10577714Y4782766D01*
X10572700Y4783763D01*
Y4740000D01*
X10547300D01*
Y4783763D01*
X10542286Y4782766D01*
X10527268Y4772732D01*
X10521033Y4763400D01*
X10496100D01*
Y4612700D01*
X10553999D01*
Y4587300D01*
X10496100D01*
Y4460996D01*
X10469500D01*
Y4748000D01*
X10384500D01*
Y4460996D01*
X10357900D01*
Y4587300D01*
X10299999D01*
X10242100D01*
Y4471940D01*
X10229400Y4465378D01*
X10216743Y4470621D01*
X10201962Y4481962D01*
X10201917Y4481917D01*
X10068486Y4615348D01*
X10068182Y4615552D01*
X10048233Y4639859D01*
X10033239Y4667910D01*
X10024006Y4698347D01*
X10020924Y4729640D01*
X10020996Y4730000D01*
Y4885858D01*
X10021664D01*
X10016655Y4911041D01*
X10002390Y4932390D01*
X9981041Y4946655D01*
X9955858Y4951664D01*
Y4950996D01*
X9808718D01*
X9803457Y4963696D01*
X9813427Y4973666D01*
X9773546Y5013547D01*
X9782527Y5022527D01*
X9773546Y5031508D01*
X9812720Y5070681D01*
X9793996Y5089404D01*
X9843070Y5138478D01*
X9798734Y5182813D01*
X9738348Y5122426D01*
X9720387Y5140387D01*
X9780774Y5200773D01*
X9736438Y5245109D01*
X9725549Y5234220D01*
X9708858Y5250911D01*
X9721926Y5263979D01*
X9738073Y5262165D01*
X9763666Y5236573D01*
X9803547Y5276454D01*
X9812527Y5267473D01*
X9821507Y5276454D01*
X9860681Y5237280D01*
X9891581Y5268180D01*
X9882462Y5277300D01*
X9830000D01*
Y5290000D01*
X9817300D01*
Y5342462D01*
X9813234Y5346528D01*
X9802344Y5335638D01*
X9756535Y5381448D01*
X9758403Y5388064D01*
X9761864Y5394080D01*
X9777710Y5397232D01*
X9792728Y5407266D01*
X9802762Y5422284D01*
X9806285Y5439998D01*
X9805677Y5443057D01*
X9817107Y5450694D01*
X9822286Y5447234D01*
X9827300Y5446237D01*
Y5490000D01*
X9840000D01*
Y5502700D01*
X9883763D01*
X9882766Y5507714D01*
X9874579Y5519967D01*
X9876883Y5530033D01*
X9879025Y5533801D01*
X9887251Y5535437D01*
X9903326Y5546178D01*
X9909630Y5541965D01*
X9927788Y5538353D01*
X9931019Y5525238D01*
X9927268Y5522732D01*
X9917234Y5507714D01*
X9916236Y5502700D01*
X10003763D01*
X10002766Y5507714D01*
X9992732Y5522732D01*
X9989702Y5524756D01*
X9993555Y5537456D01*
X10141225D01*
X10146375Y5534015D01*
X10159016Y5531500D01*
X10159301Y5531197D01*
X10163835Y5517593D01*
X10157234Y5507714D01*
X10156236Y5502700D01*
X10243763D01*
X10242766Y5507714D01*
X10233678Y5521315D01*
X10235300Y5527584D01*
X10238704Y5534015D01*
X10281296D01*
X10284700Y5527584D01*
X10286322Y5521315D01*
X10277234Y5507714D01*
X10276236Y5502700D01*
X10320000D01*
Y5490000D01*
X10332700D01*
Y5446237D01*
X10337714Y5447234D01*
X10342884Y5450688D01*
X10354314Y5443051D01*
X10353706Y5439998D01*
X10357230Y5422284D01*
X10367264Y5407266D01*
X10382281Y5397232D01*
X10387296Y5396234D01*
Y5439998D01*
Y5483761D01*
X10382281Y5482764D01*
X10377112Y5479310D01*
X10365682Y5486947D01*
X10366289Y5490000D01*
X10362766Y5507714D01*
X10356522Y5517059D01*
X10357151Y5520162D01*
X10363480Y5529506D01*
X10469513D01*
X10473365Y5516806D01*
X10467268Y5512732D01*
X10457234Y5497714D01*
X10456236Y5492700D01*
X10543763D01*
X10542766Y5497714D01*
X10532732Y5512732D01*
X10521951Y5519935D01*
X10521920Y5520584D01*
X10525614Y5532762D01*
X10604500D01*
X10627169Y5537271D01*
X10646387Y5550112D01*
X10647613D01*
X10666831Y5537271D01*
X10689500Y5532762D01*
X10775720D01*
X10791000Y5529722D01*
Y5529762D01*
X10910000D01*
X10914000Y5529067D01*
Y5529068D01*
X10925163Y5532778D01*
X10930109Y5533762D01*
X11040916D01*
X11044250Y5527973D01*
X11046152Y5521062D01*
X11037234Y5507714D01*
X11036236Y5502700D01*
X11123763D01*
X11122766Y5507714D01*
X11112732Y5522732D01*
X11110877Y5523971D01*
X11113558Y5537453D01*
X11117669Y5538271D01*
X11167665D01*
X11171518Y5525571D01*
X11167268Y5522732D01*
X11157234Y5507714D01*
X11156237Y5502700D01*
X11200000D01*
Y5490000D01*
X11212700D01*
Y5438164D01*
X11214600Y5436605D01*
Y5266634D01*
X11974600D01*
Y4987864D01*
X11972374Y4986185D01*
X11955153Y4989098D01*
X11952727Y4992730D01*
X11937709Y5002764D01*
X11932695Y5003761D01*
Y4959998D01*
Y4916235D01*
X11937709Y4917232D01*
X11952727Y4927266D01*
X11955153Y4930897D01*
X11972374Y4933811D01*
X11974600Y4932132D01*
Y3996634D01*
Y3989740D01*
X11971910Y3976216D01*
X11966633Y3963477D01*
X11958972Y3952012D01*
X11949222Y3942262D01*
X11937757Y3934601D01*
X11925018Y3929324D01*
X11911494Y3926635D01*
X1614600D01*
X1606643Y3926634D01*
X1591942Y3932724D01*
X1580689Y3943976D01*
X1574600Y3958678D01*
X1574600Y3966634D01*
Y5056635D01*
X1574600Y5065499D01*
X1578059Y5082886D01*
X1584843Y5099265D01*
X1592691Y5111010D01*
X1617369Y5127987D01*
X1648750Y5141486D01*
X1672919Y5146635D01*
X1690756D01*
X1695035Y5134677D01*
X1688328Y5129172D01*
X1669127Y5105776D01*
X1654859Y5079084D01*
X1646073Y5050120D01*
X1644358Y5032700D01*
X1797500D01*
X1950643D01*
X1948927Y5050120D01*
X1940141Y5079084D01*
X1925873Y5105776D01*
X1906673Y5129172D01*
X1899965Y5134677D01*
X1904244Y5146635D01*
X2104600D01*
X2111461Y5146972D01*
X2118158Y5148304D01*
X2152276Y5148182D01*
X2159313Y5137610D01*
X2152071Y5120125D01*
X2149776Y5102700D01*
X2264500D01*
X2379224D01*
X2376930Y5120125D01*
X2365302Y5148198D01*
X2346804Y5172304D01*
X2333837Y5182254D01*
X2334252Y5194948D01*
X2342225Y5200275D01*
X2354403Y5218501D01*
X2358680Y5240000D01*
X2354403Y5261499D01*
X2342225Y5279725D01*
X2331786Y5286700D01*
X2335639Y5299400D01*
X2362900D01*
Y5324800D01*
X2292500D01*
Y5350200D01*
X2362900D01*
Y5375600D01*
X2356480D01*
X2347500Y5384580D01*
X2347500Y5410200D01*
X2347500Y5427731D01*
X2360200Y5433994D01*
X2364819Y5430450D01*
X2380876Y5423799D01*
X2394807Y5421965D01*
X2398107Y5421308D01*
X2418520D01*
X2427500Y5412328D01*
X2427500Y5389800D01*
X2427500Y5377100D01*
Y5350600D01*
X2412100D01*
Y5325200D01*
X2552900D01*
Y5350600D01*
X2546480D01*
X2537500Y5359580D01*
X2537500Y5385200D01*
X2537500Y5405630D01*
X2550200Y5414639D01*
X2552900Y5414102D01*
X2606735D01*
X2610333Y5410000D01*
X2613388Y5386793D01*
X2622346Y5365167D01*
X2636596Y5346596D01*
X2655166Y5332346D01*
X2676792Y5323388D01*
X2700000Y5320333D01*
X2723207Y5323388D01*
X2744833Y5332346D01*
X2763404Y5346596D01*
X2777654Y5365167D01*
X2786612Y5386793D01*
X2789667Y5410000D01*
X2793265Y5414102D01*
X3259806D01*
X3262308Y5414600D01*
X3264859D01*
X3313931Y5424361D01*
X3316287Y5425337D01*
X3318789Y5425835D01*
X3365014Y5444982D01*
X3367135Y5446399D01*
X3369491Y5447375D01*
X3411093Y5475172D01*
X3412897Y5476976D01*
X3415017Y5478393D01*
X3432706Y5496082D01*
X3432707Y5496082D01*
X3901792Y5965167D01*
X3913749Y5960888D01*
X3914895Y5949256D01*
X3929696Y5900463D01*
X3953732Y5855495D01*
X3986079Y5816080D01*
X4025495Y5783732D01*
X4070463Y5759696D01*
X4119256Y5744895D01*
X4170000Y5739897D01*
X4220743Y5744895D01*
X4269537Y5759696D01*
X4314505Y5783732D01*
X4353920Y5816080D01*
X4386267Y5855495D01*
X4410303Y5900463D01*
X4425105Y5949256D01*
X4430102Y6000000D01*
X4425105Y6050744D01*
X4410303Y6099537D01*
X4386267Y6144505D01*
X4353920Y6183920D01*
X4314505Y6216267D01*
X4269537Y6240303D01*
X4220743Y6255105D01*
X4209112Y6256250D01*
X4204833Y6268208D01*
X4213469Y6276844D01*
X4230050Y6291873D01*
X4267742Y6317058D01*
X4309032Y6334160D01*
X4353493Y6343004D01*
X4375845Y6344102D01*
X5569365D01*
X5578652Y6343646D01*
X5597486Y6339900D01*
X5614636Y6332796D01*
X5630602Y6322128D01*
X5633687Y6319332D01*
X5633886Y6317235D01*
X5621813Y6310027D01*
X5620045Y6311208D01*
Y6314104D01*
X5610987D01*
X5600000Y6316289D01*
X5589013Y6314104D01*
X5540046D01*
Y6219504D01*
X5524646D01*
Y6207740D01*
X5511946Y6200952D01*
X5502616Y6207185D01*
X5493700Y6208959D01*
Y6155000D01*
Y6101041D01*
X5502616Y6102814D01*
X5511946Y6109048D01*
X5524646Y6102260D01*
Y6093704D01*
X5567345D01*
Y6156605D01*
X5580045D01*
Y6169305D01*
X5635445D01*
Y6193779D01*
X5648145Y6197389D01*
X5651688Y6192088D01*
X5660090Y6186474D01*
X5670000Y6184502D01*
X5672000D01*
Y6170400D01*
X5656600D01*
Y6147700D01*
X5722000D01*
Y6122300D01*
X5656600D01*
Y6099600D01*
X5656600D01*
Y6090400D01*
X5656600D01*
Y6051267D01*
X5655886Y6050580D01*
X5654625Y6049660D01*
X5643900Y6045641D01*
X5629616Y6055186D01*
X5620700Y6056959D01*
Y6003000D01*
Y5949041D01*
X5629616Y5950814D01*
X5647941Y5963059D01*
X5658994Y5979600D01*
X5709300D01*
Y6015000D01*
X5734700D01*
Y5979600D01*
X5767974D01*
X5769676Y5966900D01*
X5752947Y5945099D01*
X5742316Y5919432D01*
X5738689Y5891888D01*
X5738689Y5891887D01*
X5735721Y5880417D01*
X5727234Y5867714D01*
X5723710Y5850000D01*
X5727234Y5832286D01*
X5737268Y5817268D01*
X5749187Y5809304D01*
X5745583Y5796604D01*
X5674545D01*
Y5752938D01*
X5417919Y5496312D01*
X5417155Y5495168D01*
X5384349Y5468245D01*
X5345725Y5447600D01*
X5303815Y5434887D01*
X5261581Y5430727D01*
X5260231Y5430996D01*
X4542500D01*
Y5447500D01*
X4457500D01*
Y5352500D01*
X4542500D01*
Y5369005D01*
X5260231D01*
Y5368721D01*
X5304859Y5372233D01*
X5348387Y5382683D01*
X5389745Y5399814D01*
X5427914Y5423204D01*
X5461954Y5452277D01*
X5461753Y5452478D01*
X5725880Y5716604D01*
X5769545D01*
Y5791657D01*
X5769549Y5791757D01*
X5771845Y5792545D01*
X5784545Y5783477D01*
Y5716604D01*
X5879545D01*
Y5717758D01*
X5956604D01*
Y5717339D01*
X5979818Y5721956D01*
X5993946Y5731395D01*
X6003578Y5726304D01*
X6119445D01*
Y5769004D01*
X6104045D01*
Y5845604D01*
X6101892D01*
Y5970485D01*
X6115714Y5973234D01*
X6130732Y5983268D01*
X6140766Y5998286D01*
X6144289Y6016000D01*
X6140766Y6033714D01*
X6137245Y6038984D01*
X6143211Y6052915D01*
X6163703Y6056485D01*
X6176208Y6056956D01*
X6179173Y6058184D01*
X6179572Y6058574D01*
X6192085Y6056085D01*
Y5967894D01*
X6278125D01*
Y6173314D01*
X6192085D01*
Y6138965D01*
X6187483Y6134929D01*
X6176209Y6131486D01*
X6176208D01*
X6163510Y6131483D01*
X6156104Y6139068D01*
X6156289Y6140000D01*
X6152766Y6157714D01*
X6142732Y6172732D01*
X6127714Y6182766D01*
X6118220Y6184654D01*
X6108468Y6192920D01*
X6107139Y6198669D01*
Y6378030D01*
X6113206Y6387110D01*
X6116729Y6404824D01*
X6113206Y6422538D01*
X6106045Y6433255D01*
Y6462104D01*
X6036046D01*
Y6435067D01*
X6027674Y6422538D01*
X6024151Y6404824D01*
X6027674Y6387110D01*
X6034952Y6376217D01*
Y6286522D01*
X6022252Y6279734D01*
X6017714Y6282766D01*
X6000000Y6286289D01*
X5984700Y6283246D01*
X5976085Y6287831D01*
X5972000Y6291168D01*
Y6295000D01*
X5953191D01*
Y6392000D01*
X5953350D01*
X5954617Y6398372D01*
X5958227Y6403773D01*
X5960855Y6405529D01*
X5970000Y6403711D01*
X5987714Y6407234D01*
X6002732Y6417268D01*
X6012766Y6432286D01*
X6016289Y6450000D01*
X6014022Y6461402D01*
X6019670Y6472231D01*
X6023352Y6474640D01*
X6030556Y6476073D01*
X6038958Y6481687D01*
X6044572Y6490089D01*
X6045003Y6492257D01*
X6071046D01*
X6080956Y6494228D01*
X6085261Y6497104D01*
X6106045D01*
Y6518510D01*
X6107672Y6520944D01*
X6109643Y6530854D01*
Y6554107D01*
X6121445D01*
X6121884Y6554194D01*
X6122325Y6554122D01*
X6126822Y6555176D01*
X6131356Y6556078D01*
X6131728Y6556326D01*
X6132163Y6556429D01*
X6135913Y6559123D01*
X6139758Y6561692D01*
X6140006Y6562064D01*
X6140369Y6562325D01*
X6148924Y6571481D01*
X6151358Y6575407D01*
X6153926Y6579250D01*
X6154013Y6579689D01*
X6154249Y6580069D01*
X6154996Y6584629D01*
X6155898Y6589161D01*
Y7009290D01*
Y7026103D01*
X6155400Y7028604D01*
Y7029468D01*
X6160672Y7033237D01*
X6167542Y7035213D01*
X6181975Y7024138D01*
X6200317Y7016541D01*
X6207300Y7015621D01*
Y7090000D01*
Y7164379D01*
X6200317Y7163459D01*
X6181975Y7155862D01*
X6166224Y7143776D01*
X6154138Y7128025D01*
X6146541Y7109684D01*
X6145951Y7105202D01*
X6144813Y7104691D01*
X6132104Y7104539D01*
X6113422Y7132499D01*
X6111618Y7134303D01*
X6110201Y7136424D01*
X6098312Y7148312D01*
X6097538Y7148829D01*
X6096968Y7149564D01*
X6096757Y7149684D01*
X6096604Y7149873D01*
X6087169Y7157756D01*
X6085942Y7158426D01*
X6084953Y7159415D01*
X6078448Y7163761D01*
X6076092Y7164738D01*
X6073971Y7166155D01*
X6061544Y7171302D01*
X6059043Y7171799D01*
X6056686Y7172776D01*
X6043494Y7175400D01*
X6040943D01*
X6038441Y7175898D01*
X5975008D01*
X5970870Y7175074D01*
X5966684Y7174523D01*
X5965940Y7174094D01*
X5965098Y7173926D01*
X5961589Y7171582D01*
X5957933Y7169471D01*
X5957410Y7168790D01*
X5956696Y7168312D01*
X5955208Y7166085D01*
X5953830Y7164124D01*
X5951782Y7161455D01*
X5951374Y7160629D01*
X5948025Y7155862D01*
X5929684Y7163459D01*
X5910000Y7166051D01*
X5890317Y7163459D01*
X5871975Y7155862D01*
X5868626Y7160629D01*
X5868219Y7161454D01*
X5866172Y7164122D01*
X5864793Y7166085D01*
X5863304Y7168312D01*
X5862590Y7168790D01*
X5862067Y7169471D01*
X5858411Y7171582D01*
X5854902Y7173926D01*
X5854060Y7174094D01*
X5853316Y7174523D01*
X5849130Y7175075D01*
X5844992Y7175898D01*
X2820193D01*
X2817692Y7175400D01*
X2815141D01*
X2766069Y7165639D01*
X2763712Y7164663D01*
X2761211Y7164165D01*
X2714986Y7145018D01*
X2712865Y7143601D01*
X2710508Y7142625D01*
X2668907Y7114828D01*
X2667103Y7113024D01*
X2664982Y7111607D01*
X2647293Y7093918D01*
X2647293Y7093917D01*
X2601688Y7048312D01*
X2592177Y7038801D01*
X2590759Y7036680D01*
X2588956Y7034877D01*
X2574010Y7012509D01*
X2573034Y7010152D01*
X2571617Y7008031D01*
X2561322Y6983177D01*
X2560824Y6980675D01*
X2559848Y6978319D01*
X2554600Y6951934D01*
Y6949383D01*
X2554102Y6946882D01*
Y6933431D01*
Y5931607D01*
X2541402Y5927755D01*
X2539941Y5929941D01*
X2521616Y5942185D01*
X2512700Y5943959D01*
Y5890000D01*
X2487300D01*
Y5943959D01*
X2478384Y5942185D01*
X2460059Y5929941D01*
X2447815Y5911616D01*
X2445623Y5900600D01*
X2412100D01*
Y5875200D01*
X2482500D01*
Y5849800D01*
X2412100D01*
Y5824400D01*
X2427500D01*
Y5789800D01*
X2427500D01*
Y5785200D01*
X2427500D01*
Y5751191D01*
X2406555D01*
X2388258Y5765231D01*
X2363895Y5775322D01*
X2347500Y5777481D01*
X2347500Y5810200D01*
X2347500Y5822900D01*
Y5849400D01*
X2362900D01*
Y5874800D01*
X2292500D01*
Y5900200D01*
X2362900D01*
Y5925600D01*
X2343619D01*
X2336830Y5938300D01*
X2340745Y5944159D01*
X2343896Y5960000D01*
X2340745Y5975841D01*
X2335067Y5984339D01*
X2332426Y5990802D01*
X2336851Y6001151D01*
X2357503Y6016998D01*
X2378404Y6044237D01*
X2391544Y6075959D01*
X2394353Y6097300D01*
X2264500D01*
X2134647D01*
X2137456Y6075959D01*
X2145811Y6055790D01*
X2137320Y6043101D01*
X2117971Y6043128D01*
X2117823Y6043190D01*
X2106282Y6045485D01*
X2102441Y6046249D01*
X2094605Y6046634D01*
X2094600Y6046634D01*
X2094600Y6046635D01*
X2094600Y6046635D01*
X1897213D01*
X1892669Y6059335D01*
X1906673Y6070828D01*
X1925873Y6094224D01*
X1940141Y6120916D01*
X1948927Y6149879D01*
X1950643Y6167300D01*
X1797500D01*
X1644358D01*
X1646073Y6149879D01*
X1654859Y6120916D01*
X1669127Y6094224D01*
X1688328Y6070828D01*
X1702332Y6059335D01*
X1697788Y6046635D01*
X1679379D01*
X1657743Y6050635D01*
X1626008Y6063279D01*
X1597350Y6081872D01*
X1574600Y6104015D01*
Y7196635D01*
X11934600Y7196634D01*
D02*
G37*
G36*
X9346050Y5548910D02*
X9366215Y5535437D01*
X9390000Y5530706D01*
X9571309D01*
X9575161Y5518006D01*
X9567268Y5512732D01*
X9557234Y5497714D01*
X9556237Y5492700D01*
X9643764D01*
X9642766Y5497714D01*
X9632732Y5512732D01*
X9624839Y5518006D01*
X9628691Y5530706D01*
X9798083D01*
X9804110Y5518006D01*
X9797234Y5507714D01*
X9793710Y5490000D01*
X9794319Y5486941D01*
X9782889Y5479303D01*
X9777710Y5482764D01*
X9772696Y5483761D01*
Y5439998D01*
X9759996D01*
Y5427298D01*
X9716233D01*
X9717230Y5422284D01*
X9727264Y5407266D01*
X9739670Y5398977D01*
X9742494Y5388482D01*
X9742598Y5384220D01*
X9690198Y5331820D01*
X9696148Y5325869D01*
X9665024Y5294745D01*
X9644514Y5315254D01*
X9555846Y5226586D01*
X9519588Y5232264D01*
X9516261Y5232127D01*
X9506934Y5233355D01*
X9504690Y5233060D01*
X9503852Y5233195D01*
X9469093Y5231929D01*
X9462141Y5244384D01*
X9463346Y5246188D01*
X9466093Y5260000D01*
Y5280000D01*
X9475000D01*
Y5304503D01*
X9476093Y5310000D01*
X9475000Y5315497D01*
Y5340000D01*
X9485795Y5344600D01*
X9490400D01*
Y5377300D01*
X9439999D01*
Y5402700D01*
X9439999D01*
X9427299D01*
Y5446463D01*
X9422285Y5445466D01*
X9407504Y5435590D01*
X9402732Y5442732D01*
X9387714Y5452766D01*
X9382700Y5453764D01*
Y5410000D01*
X9357300D01*
Y5453764D01*
X9352286Y5452766D01*
X9337269Y5442732D01*
X9324679Y5446751D01*
X9324680Y5468742D01*
X9324680D01*
Y5468743D01*
X9324679D01*
Y5559193D01*
X9339180D01*
X9346050Y5548910D01*
D02*
G37*
%LPC*%
G36*
X5984379Y7077300D02*
X5922700D01*
Y7015621D01*
X5929684Y7016541D01*
X5948025Y7024138D01*
X5963776Y7036224D01*
X5975862Y7051975D01*
X5983459Y7070317D01*
X5984379Y7077300D01*
D02*
G37*
G36*
X5897300D02*
X5835621D01*
X5836541Y7070317D01*
X5844138Y7051975D01*
X5856224Y7036224D01*
X5871975Y7024138D01*
X5890317Y7016541D01*
X5897300Y7015621D01*
Y7077300D01*
D02*
G37*
G36*
X6058346Y6580004D02*
X6020646D01*
Y6543554D01*
X6058346D01*
Y6580004D01*
D02*
G37*
G36*
X4910000Y6829667D02*
X4886793Y6826612D01*
X4865167Y6817654D01*
X4846596Y6803404D01*
X4832346Y6784834D01*
X4823388Y6763207D01*
X4820333Y6740000D01*
X4813756Y6732500D01*
X4807500D01*
Y6387500D01*
X4992500D01*
Y6706866D01*
X4996612Y6716793D01*
X4999667Y6740000D01*
X4996612Y6763207D01*
X4987654Y6784834D01*
X4973404Y6803404D01*
X4954834Y6817654D01*
X4933208Y6826612D01*
X4910000Y6829667D01*
D02*
G37*
G36*
X3400000D02*
X3376793Y6826612D01*
X3355167Y6817654D01*
X3336596Y6803404D01*
X3322346Y6784834D01*
X3313388Y6763207D01*
X3311885Y6751788D01*
X3310835Y6743819D01*
X3307500Y6732500D01*
X3307500Y6720761D01*
Y6387500D01*
X3492500D01*
Y6720761D01*
X3492501Y6732500D01*
X3492499Y6732503D01*
X3489165Y6743819D01*
X3488115Y6751788D01*
X3486612Y6763207D01*
X3477654Y6784834D01*
X3463404Y6803404D01*
X3444834Y6817654D01*
X3423208Y6826612D01*
X3400000Y6829667D01*
D02*
G37*
G36*
X3492500Y6212500D02*
X3307500D01*
Y5867500D01*
X3331850D01*
X3334138Y5861975D01*
X3346224Y5846224D01*
X3361975Y5834138D01*
X3380317Y5826541D01*
X3400000Y5823949D01*
X3419684Y5826541D01*
X3438025Y5834138D01*
X3453776Y5846224D01*
X3465862Y5861975D01*
X3468151Y5867500D01*
X3492500D01*
Y6212500D01*
D02*
G37*
G36*
X6232700Y7164379D02*
Y7102700D01*
X6294379D01*
X6293459Y7109684D01*
X6285862Y7128025D01*
X6273776Y7143776D01*
X6258025Y7155862D01*
X6239683Y7163459D01*
X6232700Y7164379D01*
D02*
G37*
G36*
X6294379Y7077300D02*
X6232700D01*
Y7015621D01*
X6239683Y7016541D01*
X6258025Y7024138D01*
X6273776Y7036224D01*
X6285862Y7051975D01*
X6293459Y7070317D01*
X6294379Y7077300D01*
D02*
G37*
G36*
X6410000Y7166051D02*
X6390317Y7163459D01*
X6371975Y7155862D01*
X6356224Y7143776D01*
X6344138Y7128025D01*
X6336541Y7109684D01*
X6333949Y7090000D01*
X6336541Y7070317D01*
X6344138Y7051975D01*
X6356224Y7036224D01*
X6371975Y7024138D01*
X6390317Y7016541D01*
X6410000Y7013949D01*
X6429684Y7016541D01*
X6448025Y7024138D01*
X6463776Y7036224D01*
X6475862Y7051975D01*
X6483459Y7070317D01*
X6486051Y7090000D01*
X6483459Y7109684D01*
X6475862Y7128025D01*
X6463776Y7143776D01*
X6448025Y7155862D01*
X6429684Y7163459D01*
X6410000Y7166051D01*
D02*
G37*
G36*
X8410000Y6636289D02*
X8392286Y6632766D01*
X8377268Y6622732D01*
X8375440Y6619996D01*
X8335913D01*
Y6623541D01*
X8268413D01*
Y6553541D01*
X8335913D01*
Y6558005D01*
X8376776D01*
X8377268Y6557268D01*
X8381000Y6554775D01*
Y6554001D01*
X8382159D01*
X8392286Y6547234D01*
X8410000Y6543711D01*
X8427714Y6547234D01*
X8437841Y6554001D01*
X8448500D01*
Y6565901D01*
X8452766Y6572286D01*
X8456289Y6590000D01*
X8452766Y6607714D01*
X8448500Y6614099D01*
Y6624000D01*
X8440833D01*
X8427714Y6632766D01*
X8410000Y6636289D01*
D02*
G37*
G36*
X8248813Y6638941D02*
X8212363D01*
Y6601240D01*
X8248813D01*
Y6638941D01*
D02*
G37*
G36*
X11907295Y6603761D02*
X11902281Y6602763D01*
X11887263Y6592729D01*
X11877229Y6577712D01*
X11876232Y6572697D01*
X11907295D01*
Y6603761D01*
D02*
G37*
G36*
X11292695D02*
Y6572697D01*
X11323759D01*
X11322761Y6577712D01*
X11312727Y6592729D01*
X11297709Y6602763D01*
X11292695Y6603761D01*
D02*
G37*
G36*
X11267295D02*
X11262281Y6602763D01*
X11247264Y6592729D01*
X11237229Y6577712D01*
X11236232Y6572697D01*
X11267295D01*
Y6603761D01*
D02*
G37*
G36*
X11132695D02*
Y6572697D01*
X11163759D01*
X11162761Y6577712D01*
X11152727Y6592729D01*
X11137709Y6602763D01*
X11132695Y6603761D01*
D02*
G37*
G36*
X11107295D02*
X11102281Y6602763D01*
X11087264Y6592729D01*
X11077229Y6577712D01*
X11076232Y6572697D01*
X11107295D01*
Y6603761D01*
D02*
G37*
G36*
X10972695D02*
Y6572697D01*
X11003759D01*
X11002761Y6577712D01*
X10992727Y6592729D01*
X10977710Y6602763D01*
X10972695Y6603761D01*
D02*
G37*
G36*
X10947295D02*
X10942281Y6602763D01*
X10927264Y6592729D01*
X10917229Y6577712D01*
X10916232Y6572697D01*
X10947295D01*
Y6603761D01*
D02*
G37*
G36*
X10812695D02*
Y6572697D01*
X10843759D01*
X10842761Y6577712D01*
X10832727Y6592729D01*
X10817710Y6602763D01*
X10812695Y6603761D01*
D02*
G37*
G36*
X10787295D02*
X10782281Y6602763D01*
X10767264Y6592729D01*
X10757229Y6577712D01*
X10756232Y6572697D01*
X10787295D01*
Y6603761D01*
D02*
G37*
G36*
X10652695D02*
Y6572697D01*
X10683759D01*
X10682761Y6577712D01*
X10672727Y6592729D01*
X10657710Y6602763D01*
X10652695Y6603761D01*
D02*
G37*
G36*
X10627295D02*
X10622281Y6602763D01*
X10607264Y6592729D01*
X10597230Y6577712D01*
X10596232Y6572697D01*
X10627295D01*
Y6603761D01*
D02*
G37*
G36*
X10492696D02*
Y6572697D01*
X10523759D01*
X10522762Y6577712D01*
X10512727Y6592729D01*
X10497710Y6602763D01*
X10492696Y6603761D01*
D02*
G37*
G36*
X10467296D02*
X10462281Y6602763D01*
X10447264Y6592729D01*
X10437230Y6577712D01*
X10436232Y6572697D01*
X10467296D01*
Y6603761D01*
D02*
G37*
G36*
X10332696D02*
Y6572697D01*
X10363759D01*
X10362762Y6577712D01*
X10352727Y6592729D01*
X10337710Y6602763D01*
X10332696Y6603761D01*
D02*
G37*
G36*
X10307296D02*
X10302281Y6602763D01*
X10287264Y6592729D01*
X10277230Y6577712D01*
X10276232Y6572697D01*
X10307296D01*
Y6603761D01*
D02*
G37*
G36*
X8550000Y6636289D02*
X8532286Y6632766D01*
X8519167Y6624000D01*
X8483500D01*
Y6554001D01*
X8522159D01*
X8532286Y6547234D01*
X8550000Y6543711D01*
X8567714Y6547234D01*
X8582732Y6557268D01*
X8592766Y6572286D01*
X8596289Y6590000D01*
X8592766Y6607714D01*
X8582732Y6622732D01*
X8567714Y6632766D01*
X8550000Y6636289D01*
D02*
G37*
G36*
X8248813Y6575840D02*
X8212363D01*
Y6538141D01*
X8248813D01*
Y6575840D01*
D02*
G37*
G36*
X8186963Y6638941D02*
X8150513D01*
Y6624900D01*
X8147268Y6622732D01*
X8137234Y6607714D01*
X8136236Y6602700D01*
X8180000D01*
Y6577300D01*
X8136236D01*
X8137234Y6572286D01*
X8147268Y6557268D01*
X8150513Y6555100D01*
Y6538141D01*
X8186963D01*
Y6588540D01*
Y6638941D01*
D02*
G37*
G36*
X11907295Y6547297D02*
X11876232D01*
X11877229Y6542283D01*
X11887263Y6527266D01*
X11902281Y6517231D01*
X11907295Y6516234D01*
Y6547297D01*
D02*
G37*
G36*
X11323759D02*
X11292695D01*
Y6516234D01*
X11297709Y6517231D01*
X11312727Y6527266D01*
X11322761Y6542283D01*
X11323759Y6547297D01*
D02*
G37*
G36*
X11267295D02*
X11236232D01*
X11237229Y6542283D01*
X11247264Y6527266D01*
X11262281Y6517231D01*
X11267295Y6516234D01*
Y6547297D01*
D02*
G37*
G36*
X11163759D02*
X11132695D01*
Y6516234D01*
X11137709Y6517231D01*
X11152727Y6527266D01*
X11162761Y6542283D01*
X11163759Y6547297D01*
D02*
G37*
G36*
X11107295D02*
X11076232D01*
X11077229Y6542283D01*
X11087264Y6527266D01*
X11102281Y6517231D01*
X11107295Y6516234D01*
Y6547297D01*
D02*
G37*
G36*
X11003759D02*
X10972695D01*
Y6516234D01*
X10977710Y6517231D01*
X10992727Y6527266D01*
X11002761Y6542283D01*
X11003759Y6547297D01*
D02*
G37*
G36*
X10947295D02*
X10916232D01*
X10917229Y6542283D01*
X10927264Y6527266D01*
X10942281Y6517231D01*
X10947295Y6516234D01*
Y6547297D01*
D02*
G37*
G36*
X10843759D02*
X10812695D01*
Y6516234D01*
X10817710Y6517231D01*
X10832727Y6527266D01*
X10842761Y6542283D01*
X10843759Y6547297D01*
D02*
G37*
G36*
X10787295D02*
X10756232D01*
X10757229Y6542283D01*
X10767264Y6527266D01*
X10782281Y6517231D01*
X10787295Y6516234D01*
Y6547297D01*
D02*
G37*
G36*
X10683759D02*
X10652695D01*
Y6516234D01*
X10657710Y6517231D01*
X10672727Y6527266D01*
X10682761Y6542283D01*
X10683759Y6547297D01*
D02*
G37*
G36*
X10627295D02*
X10596232D01*
X10597230Y6542283D01*
X10607264Y6527266D01*
X10622281Y6517231D01*
X10627295Y6516234D01*
Y6547297D01*
D02*
G37*
G36*
X10523759D02*
X10492696D01*
Y6516234D01*
X10497710Y6517231D01*
X10512727Y6527266D01*
X10522762Y6542283D01*
X10523759Y6547297D01*
D02*
G37*
G36*
X10467296D02*
X10436232D01*
X10437230Y6542283D01*
X10447264Y6527266D01*
X10462281Y6517231D01*
X10467296Y6516234D01*
Y6547297D01*
D02*
G37*
G36*
X10363759D02*
X10332696D01*
Y6516234D01*
X10337710Y6517231D01*
X10352727Y6527266D01*
X10362762Y6542283D01*
X10363759Y6547297D01*
D02*
G37*
G36*
X10307296D02*
X10276232D01*
X10277230Y6542283D01*
X10287264Y6527266D01*
X10302281Y6517231D01*
X10307296Y6516234D01*
Y6547297D01*
D02*
G37*
G36*
X11600000Y7126406D02*
X11548939Y7122388D01*
X11499135Y7110431D01*
X11451815Y7090830D01*
X11408143Y7064068D01*
X11369196Y7030804D01*
X11335932Y6991857D01*
X11309170Y6948185D01*
X11289569Y6900865D01*
X11277612Y6851061D01*
X11273594Y6800000D01*
X11277612Y6748939D01*
X11289569Y6699135D01*
X11309170Y6651815D01*
X11335932Y6608144D01*
X11369196Y6569196D01*
X11408143Y6535932D01*
X11451815Y6509170D01*
X11499135Y6489569D01*
X11548939Y6477613D01*
X11600000Y6473594D01*
X11651061Y6477613D01*
X11700865Y6489569D01*
X11748185Y6509170D01*
X11791857Y6535932D01*
X11830804Y6569196D01*
X11864068Y6608144D01*
X11890830Y6651815D01*
X11910431Y6699135D01*
X11922387Y6748939D01*
X11926406Y6800000D01*
X11922387Y6851061D01*
X11910431Y6900865D01*
X11890830Y6948185D01*
X11864068Y6991857D01*
X11830804Y7030804D01*
X11791857Y7064068D01*
X11748185Y7090830D01*
X11700865Y7110431D01*
X11651061Y7122388D01*
X11600000Y7126406D01*
D02*
G37*
G36*
X2000000D02*
X1948939Y7122388D01*
X1899135Y7110431D01*
X1851815Y7090830D01*
X1808143Y7064068D01*
X1769196Y7030804D01*
X1735932Y6991857D01*
X1709170Y6948185D01*
X1689569Y6900865D01*
X1677613Y6851061D01*
X1673594Y6800000D01*
X1677613Y6748939D01*
X1689569Y6699135D01*
X1709170Y6651815D01*
X1735932Y6608144D01*
X1769196Y6569196D01*
X1808143Y6535932D01*
X1851815Y6509170D01*
X1899135Y6489569D01*
X1948939Y6477613D01*
X2000000Y6473594D01*
X2051061Y6477613D01*
X2100865Y6489569D01*
X2148185Y6509170D01*
X2191857Y6535932D01*
X2230804Y6569196D01*
X2264068Y6608144D01*
X2290830Y6651815D01*
X2310431Y6699135D01*
X2322388Y6748939D01*
X2326406Y6800000D01*
X2322388Y6851061D01*
X2310431Y6900865D01*
X2290830Y6948185D01*
X2264068Y6991857D01*
X2230804Y7030804D01*
X2191857Y7064068D01*
X2148185Y7090830D01*
X2100865Y7110431D01*
X2051061Y7122388D01*
X2000000Y7126406D01*
D02*
G37*
G36*
X8247728Y6460400D02*
X8211278D01*
Y6422700D01*
X8247728D01*
Y6460400D01*
D02*
G37*
G36*
X11852695Y6443761D02*
Y6412697D01*
X11883759D01*
X11882761Y6417712D01*
X11872727Y6432729D01*
X11857709Y6442763D01*
X11852695Y6443761D01*
D02*
G37*
G36*
X11827295D02*
X11822281Y6442763D01*
X11807263Y6432729D01*
X11797229Y6417712D01*
X11796232Y6412697D01*
X11827295D01*
Y6443761D01*
D02*
G37*
G36*
X11692695D02*
Y6412697D01*
X11723759D01*
X11722761Y6417712D01*
X11712727Y6432729D01*
X11697709Y6442763D01*
X11692695Y6443761D01*
D02*
G37*
G36*
X11667295D02*
X11662281Y6442763D01*
X11647263Y6432729D01*
X11637229Y6417712D01*
X11636232Y6412697D01*
X11667295D01*
Y6443761D01*
D02*
G37*
G36*
X11532695D02*
Y6412697D01*
X11563759D01*
X11562761Y6417712D01*
X11552727Y6432729D01*
X11537709Y6442763D01*
X11532695Y6443761D01*
D02*
G37*
G36*
X11507295D02*
X11502281Y6442763D01*
X11487264Y6432729D01*
X11477229Y6417712D01*
X11476232Y6412697D01*
X11507295D01*
Y6443761D01*
D02*
G37*
G36*
X11372695D02*
Y6412697D01*
X11403759D01*
X11402761Y6417712D01*
X11392727Y6432729D01*
X11377710Y6442763D01*
X11372695Y6443761D01*
D02*
G37*
G36*
X11347295D02*
X11342281Y6442763D01*
X11327264Y6432729D01*
X11317229Y6417712D01*
X11316232Y6412697D01*
X11347295D01*
Y6443761D01*
D02*
G37*
G36*
X11212695D02*
Y6412697D01*
X11243759D01*
X11242761Y6417712D01*
X11232727Y6432729D01*
X11217710Y6442763D01*
X11212695Y6443761D01*
D02*
G37*
G36*
X11187295D02*
X11182281Y6442763D01*
X11167264Y6432729D01*
X11157229Y6417712D01*
X11156232Y6412697D01*
X11187295D01*
Y6443761D01*
D02*
G37*
G36*
X11052695D02*
Y6412697D01*
X11083759D01*
X11082761Y6417712D01*
X11072727Y6432729D01*
X11057710Y6442763D01*
X11052695Y6443761D01*
D02*
G37*
G36*
X11027295D02*
X11022281Y6442763D01*
X11007264Y6432729D01*
X10997229Y6417712D01*
X10996232Y6412697D01*
X11027295D01*
Y6443761D01*
D02*
G37*
G36*
X10892696D02*
Y6412697D01*
X10923759D01*
X10922761Y6417712D01*
X10912727Y6432729D01*
X10897710Y6442763D01*
X10892696Y6443761D01*
D02*
G37*
G36*
X10867296D02*
X10862281Y6442763D01*
X10847264Y6432729D01*
X10837230Y6417712D01*
X10836232Y6412697D01*
X10867296D01*
Y6443761D01*
D02*
G37*
G36*
X10732696D02*
Y6412697D01*
X10763759D01*
X10762762Y6417712D01*
X10752727Y6432729D01*
X10737710Y6442763D01*
X10732696Y6443761D01*
D02*
G37*
G36*
X10707296D02*
X10702281Y6442763D01*
X10687264Y6432729D01*
X10677230Y6417712D01*
X10676232Y6412697D01*
X10707296D01*
Y6443761D01*
D02*
G37*
G36*
X10572696D02*
Y6412697D01*
X10603759D01*
X10602762Y6417712D01*
X10592727Y6432729D01*
X10577710Y6442763D01*
X10572696Y6443761D01*
D02*
G37*
G36*
X10547296D02*
X10542281Y6442763D01*
X10527264Y6432729D01*
X10517230Y6417712D01*
X10516232Y6412697D01*
X10547296D01*
Y6443761D01*
D02*
G37*
G36*
X10412696D02*
Y6412697D01*
X10443759D01*
X10442762Y6417712D01*
X10432727Y6432729D01*
X10417710Y6442763D01*
X10412696Y6443761D01*
D02*
G37*
G36*
X10387296D02*
X10382281Y6442763D01*
X10367264Y6432729D01*
X10357230Y6417712D01*
X10356232Y6412697D01*
X10387296D01*
Y6443761D01*
D02*
G37*
G36*
X10252696D02*
Y6412697D01*
X10283759D01*
X10282762Y6417712D01*
X10272727Y6432729D01*
X10257710Y6442763D01*
X10252696Y6443761D01*
D02*
G37*
G36*
X10227296D02*
X10222282Y6442763D01*
X10207264Y6432729D01*
X10197230Y6417712D01*
X10196232Y6412697D01*
X10227296D01*
Y6443761D01*
D02*
G37*
G36*
X8247728Y6397300D02*
X8211278D01*
Y6359600D01*
X8247728D01*
Y6397300D01*
D02*
G37*
G36*
X8185878Y6460400D02*
X8149428D01*
Y6450857D01*
X8137268Y6442732D01*
X8127234Y6427714D01*
X8126236Y6422700D01*
X8170000D01*
Y6397300D01*
X8126236D01*
X8127234Y6392286D01*
X8137268Y6377268D01*
X8149428Y6369143D01*
Y6359600D01*
X8185878D01*
Y6410000D01*
Y6460400D01*
D02*
G37*
G36*
X11883759Y6387297D02*
X11852695D01*
Y6356234D01*
X11857709Y6357231D01*
X11872727Y6367266D01*
X11882761Y6382283D01*
X11883759Y6387297D01*
D02*
G37*
G36*
X11827295D02*
X11796232D01*
X11797229Y6382283D01*
X11807263Y6367266D01*
X11822281Y6357231D01*
X11827295Y6356234D01*
Y6387297D01*
D02*
G37*
G36*
X11723759D02*
X11692695D01*
Y6356234D01*
X11697709Y6357231D01*
X11712727Y6367266D01*
X11722761Y6382283D01*
X11723759Y6387297D01*
D02*
G37*
G36*
X11667295D02*
X11636232D01*
X11637229Y6382283D01*
X11647263Y6367266D01*
X11662281Y6357231D01*
X11667295Y6356234D01*
Y6387297D01*
D02*
G37*
G36*
X11563759D02*
X11532695D01*
Y6356234D01*
X11537709Y6357231D01*
X11552727Y6367266D01*
X11562761Y6382283D01*
X11563759Y6387297D01*
D02*
G37*
G36*
X11507295D02*
X11476232D01*
X11477229Y6382283D01*
X11487264Y6367266D01*
X11502281Y6357231D01*
X11507295Y6356234D01*
Y6387297D01*
D02*
G37*
G36*
X11403759D02*
X11372695D01*
Y6356234D01*
X11377710Y6357231D01*
X11392727Y6367266D01*
X11402761Y6382283D01*
X11403759Y6387297D01*
D02*
G37*
G36*
X11347295D02*
X11316232D01*
X11317229Y6382283D01*
X11327264Y6367266D01*
X11342281Y6357231D01*
X11347295Y6356234D01*
Y6387297D01*
D02*
G37*
G36*
X11243759D02*
X11212695D01*
Y6356234D01*
X11217710Y6357231D01*
X11232727Y6367266D01*
X11242761Y6382283D01*
X11243759Y6387297D01*
D02*
G37*
G36*
X11187295D02*
X11156232D01*
X11157229Y6382283D01*
X11167264Y6367266D01*
X11182281Y6357231D01*
X11187295Y6356234D01*
Y6387297D01*
D02*
G37*
G36*
X11083759D02*
X11052695D01*
Y6356234D01*
X11057710Y6357231D01*
X11072727Y6367266D01*
X11082761Y6382283D01*
X11083759Y6387297D01*
D02*
G37*
G36*
X11027295D02*
X10996232D01*
X10997229Y6382283D01*
X11007264Y6367266D01*
X11022281Y6357231D01*
X11027295Y6356234D01*
Y6387297D01*
D02*
G37*
G36*
X10923759D02*
X10892696D01*
Y6356234D01*
X10897710Y6357231D01*
X10912727Y6367266D01*
X10922761Y6382283D01*
X10923759Y6387297D01*
D02*
G37*
G36*
X10867296D02*
X10836232D01*
X10837230Y6382283D01*
X10847264Y6367266D01*
X10862281Y6357231D01*
X10867296Y6356234D01*
Y6387297D01*
D02*
G37*
G36*
X10763759D02*
X10732696D01*
Y6356234D01*
X10737710Y6357231D01*
X10752727Y6367266D01*
X10762762Y6382283D01*
X10763759Y6387297D01*
D02*
G37*
G36*
X10707296D02*
X10676232D01*
X10677230Y6382283D01*
X10687264Y6367266D01*
X10702281Y6357231D01*
X10707296Y6356234D01*
Y6387297D01*
D02*
G37*
G36*
X10603759D02*
X10572696D01*
Y6356234D01*
X10577710Y6357231D01*
X10592727Y6367266D01*
X10602762Y6382283D01*
X10603759Y6387297D01*
D02*
G37*
G36*
X10547296D02*
X10516232D01*
X10517230Y6382283D01*
X10527264Y6367266D01*
X10542281Y6357231D01*
X10547296Y6356234D01*
Y6387297D01*
D02*
G37*
G36*
X10443759D02*
X10412696D01*
Y6356234D01*
X10417710Y6357231D01*
X10432727Y6367266D01*
X10442762Y6382283D01*
X10443759Y6387297D01*
D02*
G37*
G36*
X10387296D02*
X10356232D01*
X10357230Y6382283D01*
X10367264Y6367266D01*
X10382281Y6357231D01*
X10387296Y6356234D01*
Y6387297D01*
D02*
G37*
G36*
X10283759D02*
X10252696D01*
Y6356234D01*
X10257710Y6357231D01*
X10272727Y6367266D01*
X10282762Y6382283D01*
X10283759Y6387297D01*
D02*
G37*
G36*
X10227296D02*
X10196232D01*
X10197230Y6382283D01*
X10207264Y6367266D01*
X10222282Y6357231D01*
X10227296Y6356234D01*
Y6387297D01*
D02*
G37*
G36*
X11907295Y6283761D02*
X11902281Y6282763D01*
X11887263Y6272729D01*
X11877229Y6257712D01*
X11876232Y6252697D01*
X11907295D01*
Y6283761D01*
D02*
G37*
G36*
X11772695D02*
Y6252697D01*
X11803758D01*
X11802761Y6257712D01*
X11792727Y6272729D01*
X11777709Y6282763D01*
X11772695Y6283761D01*
D02*
G37*
G36*
X11747295D02*
X11742281Y6282763D01*
X11727263Y6272729D01*
X11717229Y6257712D01*
X11716232Y6252697D01*
X11747295D01*
Y6283761D01*
D02*
G37*
G36*
X11612695D02*
Y6252697D01*
X11643759D01*
X11642761Y6257712D01*
X11632727Y6272729D01*
X11617709Y6282763D01*
X11612695Y6283761D01*
D02*
G37*
G36*
X11587295D02*
X11582281Y6282763D01*
X11567263Y6272729D01*
X11557229Y6257712D01*
X11556232Y6252697D01*
X11587295D01*
Y6283761D01*
D02*
G37*
G36*
X11452695D02*
Y6252697D01*
X11483759D01*
X11482761Y6257712D01*
X11472727Y6272729D01*
X11457709Y6282763D01*
X11452695Y6283761D01*
D02*
G37*
G36*
X11427295D02*
X11422281Y6282763D01*
X11407263Y6272729D01*
X11397229Y6257712D01*
X11396232Y6252697D01*
X11427295D01*
Y6283761D01*
D02*
G37*
G36*
X11292695D02*
Y6252697D01*
X11323759D01*
X11322761Y6257712D01*
X11312727Y6272729D01*
X11297709Y6282763D01*
X11292695Y6283761D01*
D02*
G37*
G36*
X11267295D02*
X11262281Y6282763D01*
X11247264Y6272729D01*
X11237229Y6257712D01*
X11236232Y6252697D01*
X11267295D01*
Y6283761D01*
D02*
G37*
G36*
X11132695D02*
Y6252697D01*
X11163759D01*
X11162761Y6257712D01*
X11152727Y6272729D01*
X11137709Y6282763D01*
X11132695Y6283761D01*
D02*
G37*
G36*
X11107295D02*
X11102281Y6282763D01*
X11087264Y6272729D01*
X11077229Y6257712D01*
X11076232Y6252697D01*
X11107295D01*
Y6283761D01*
D02*
G37*
G36*
X10972695D02*
Y6252697D01*
X11003759D01*
X11002761Y6257712D01*
X10992727Y6272729D01*
X10977710Y6282763D01*
X10972695Y6283761D01*
D02*
G37*
G36*
X10947295D02*
X10942281Y6282763D01*
X10927264Y6272729D01*
X10917229Y6257712D01*
X10916232Y6252697D01*
X10947295D01*
Y6283761D01*
D02*
G37*
G36*
X10812695D02*
Y6252697D01*
X10843759D01*
X10842761Y6257712D01*
X10832727Y6272729D01*
X10817710Y6282763D01*
X10812695Y6283761D01*
D02*
G37*
G36*
X10787295D02*
X10782281Y6282763D01*
X10767264Y6272729D01*
X10757229Y6257712D01*
X10756232Y6252697D01*
X10787295D01*
Y6283761D01*
D02*
G37*
G36*
X10652695D02*
Y6252697D01*
X10683759D01*
X10682761Y6257712D01*
X10672727Y6272729D01*
X10657710Y6282763D01*
X10652695Y6283761D01*
D02*
G37*
G36*
X10627295D02*
X10622281Y6282763D01*
X10607264Y6272729D01*
X10597230Y6257712D01*
X10596232Y6252697D01*
X10627295D01*
Y6283761D01*
D02*
G37*
G36*
X10492696D02*
Y6252697D01*
X10523759D01*
X10522762Y6257712D01*
X10512727Y6272729D01*
X10497710Y6282763D01*
X10492696Y6283761D01*
D02*
G37*
G36*
X10467296D02*
X10462281Y6282763D01*
X10447264Y6272729D01*
X10437230Y6257712D01*
X10436232Y6252697D01*
X10467296D01*
Y6283761D01*
D02*
G37*
G36*
X10332696D02*
Y6252697D01*
X10363759D01*
X10362762Y6257712D01*
X10352727Y6272729D01*
X10337710Y6282763D01*
X10332696Y6283761D01*
D02*
G37*
G36*
X10307296D02*
X10302281Y6282763D01*
X10287264Y6272729D01*
X10277230Y6257712D01*
X10276232Y6252697D01*
X10307296D01*
Y6283761D01*
D02*
G37*
G36*
X8247400Y6276400D02*
X8210950D01*
Y6238701D01*
X8247400D01*
Y6276400D01*
D02*
G37*
G36*
X11907295Y6227297D02*
X11876232D01*
X11877229Y6222283D01*
X11887263Y6207266D01*
X11902281Y6197231D01*
X11907295Y6196234D01*
Y6227297D01*
D02*
G37*
G36*
X11803758D02*
X11772695D01*
Y6196234D01*
X11777709Y6197231D01*
X11792727Y6207266D01*
X11802761Y6222283D01*
X11803758Y6227297D01*
D02*
G37*
G36*
X11747295D02*
X11716232D01*
X11717229Y6222283D01*
X11727263Y6207266D01*
X11742281Y6197231D01*
X11747295Y6196234D01*
Y6227297D01*
D02*
G37*
G36*
X11643759D02*
X11612695D01*
Y6196234D01*
X11617709Y6197231D01*
X11632727Y6207266D01*
X11642761Y6222283D01*
X11643759Y6227297D01*
D02*
G37*
G36*
X11587295D02*
X11556232D01*
X11557229Y6222283D01*
X11567263Y6207266D01*
X11582281Y6197231D01*
X11587295Y6196234D01*
Y6227297D01*
D02*
G37*
G36*
X11483759D02*
X11452695D01*
Y6196234D01*
X11457709Y6197231D01*
X11472727Y6207266D01*
X11482761Y6222283D01*
X11483759Y6227297D01*
D02*
G37*
G36*
X11427295D02*
X11396232D01*
X11397229Y6222283D01*
X11407263Y6207266D01*
X11422281Y6197231D01*
X11427295Y6196234D01*
Y6227297D01*
D02*
G37*
G36*
X11323759D02*
X11292695D01*
Y6196234D01*
X11297709Y6197231D01*
X11312727Y6207266D01*
X11322761Y6222283D01*
X11323759Y6227297D01*
D02*
G37*
G36*
X11267295D02*
X11236232D01*
X11237229Y6222283D01*
X11247264Y6207266D01*
X11262281Y6197231D01*
X11267295Y6196234D01*
Y6227297D01*
D02*
G37*
G36*
X11163759D02*
X11132695D01*
Y6196234D01*
X11137709Y6197231D01*
X11152727Y6207266D01*
X11162761Y6222283D01*
X11163759Y6227297D01*
D02*
G37*
G36*
X11107295D02*
X11076232D01*
X11077229Y6222283D01*
X11087264Y6207266D01*
X11102281Y6197231D01*
X11107295Y6196234D01*
Y6227297D01*
D02*
G37*
G36*
X11003759D02*
X10972695D01*
Y6196234D01*
X10977710Y6197231D01*
X10992727Y6207266D01*
X11002761Y6222283D01*
X11003759Y6227297D01*
D02*
G37*
G36*
X10947295D02*
X10916232D01*
X10917229Y6222283D01*
X10927264Y6207266D01*
X10942281Y6197231D01*
X10947295Y6196234D01*
Y6227297D01*
D02*
G37*
G36*
X10843759D02*
X10812695D01*
Y6196234D01*
X10817710Y6197231D01*
X10832727Y6207266D01*
X10842761Y6222283D01*
X10843759Y6227297D01*
D02*
G37*
G36*
X10787295D02*
X10756232D01*
X10757229Y6222283D01*
X10767264Y6207266D01*
X10782281Y6197231D01*
X10787295Y6196234D01*
Y6227297D01*
D02*
G37*
G36*
X10683759D02*
X10652695D01*
Y6196234D01*
X10657710Y6197231D01*
X10672727Y6207266D01*
X10682761Y6222283D01*
X10683759Y6227297D01*
D02*
G37*
G36*
X10627295D02*
X10596232D01*
X10597230Y6222283D01*
X10607264Y6207266D01*
X10622281Y6197231D01*
X10627295Y6196234D01*
Y6227297D01*
D02*
G37*
G36*
X10523759D02*
X10492696D01*
Y6196234D01*
X10497710Y6197231D01*
X10512727Y6207266D01*
X10522762Y6222283D01*
X10523759Y6227297D01*
D02*
G37*
G36*
X10467296D02*
X10436232D01*
X10437230Y6222283D01*
X10447264Y6207266D01*
X10462281Y6197231D01*
X10467296Y6196234D01*
Y6227297D01*
D02*
G37*
G36*
X10363759D02*
X10332696D01*
Y6196234D01*
X10337710Y6197231D01*
X10352727Y6207266D01*
X10362762Y6222283D01*
X10363759Y6227297D01*
D02*
G37*
G36*
X10307296D02*
X10276232D01*
X10277230Y6222283D01*
X10287264Y6207266D01*
X10302281Y6197231D01*
X10307296Y6196234D01*
Y6227297D01*
D02*
G37*
G36*
X1810200Y6333143D02*
Y6192700D01*
X1950643D01*
X1948927Y6210121D01*
X1940141Y6239084D01*
X1925873Y6265776D01*
X1906673Y6289173D01*
X1883276Y6308373D01*
X1856584Y6322641D01*
X1827621Y6331427D01*
X1810200Y6333143D01*
D02*
G37*
G36*
X1784800D02*
X1767379Y6331427D01*
X1738416Y6322641D01*
X1711724Y6308373D01*
X1688328Y6289173D01*
X1669127Y6265776D01*
X1654859Y6239084D01*
X1646073Y6210121D01*
X1644358Y6192700D01*
X1784800D01*
Y6333143D01*
D02*
G37*
G36*
X8247400Y6213301D02*
X8210950D01*
Y6175600D01*
X8247400D01*
Y6213301D01*
D02*
G37*
G36*
X8185550Y6276400D02*
X8149100D01*
Y6260637D01*
X8137268Y6252732D01*
X8127234Y6237714D01*
X8126236Y6232700D01*
X8170000D01*
Y6220000D01*
X8182700D01*
Y6175600D01*
X8185550D01*
Y6226001D01*
Y6276400D01*
D02*
G37*
G36*
X8157300Y6207300D02*
X8126236D01*
X8127234Y6202286D01*
X8137268Y6187268D01*
X8149100Y6179363D01*
Y6175600D01*
X8157300D01*
Y6207300D01*
D02*
G37*
G36*
X5468300Y6208959D02*
X5459384Y6207185D01*
X5441059Y6194941D01*
X5428814Y6176616D01*
X5427041Y6167700D01*
X5468300D01*
Y6208959D01*
D02*
G37*
G36*
X2277200Y6239853D02*
Y6122700D01*
X2394353D01*
X2391544Y6144041D01*
X2378404Y6175763D01*
X2357503Y6203002D01*
X2330263Y6223904D01*
X2298542Y6237044D01*
X2277200Y6239853D01*
D02*
G37*
G36*
X2251800D02*
X2230459Y6237044D01*
X2198738Y6223904D01*
X2171498Y6203002D01*
X2150596Y6175763D01*
X2137456Y6144041D01*
X2134647Y6122700D01*
X2251800D01*
Y6239853D01*
D02*
G37*
G36*
X5468300Y6142300D02*
X5427041D01*
X5428814Y6133384D01*
X5441059Y6115059D01*
X5459384Y6102814D01*
X5468300Y6101041D01*
Y6142300D01*
D02*
G37*
G36*
X5635445Y6143905D02*
X5592745D01*
Y6093704D01*
X5635445D01*
Y6143905D01*
D02*
G37*
G36*
X11187295Y6123761D02*
X11182281Y6122763D01*
X11167264Y6112729D01*
X11157229Y6097712D01*
X11156232Y6092697D01*
X11187295D01*
Y6123761D01*
D02*
G37*
G36*
X11052695D02*
Y6092697D01*
X11083759D01*
X11082761Y6097712D01*
X11072727Y6112729D01*
X11057710Y6122763D01*
X11052695Y6123761D01*
D02*
G37*
G36*
X11027295D02*
X11022281Y6122763D01*
X11007264Y6112729D01*
X10997229Y6097712D01*
X10996232Y6092697D01*
X11027295D01*
Y6123761D01*
D02*
G37*
G36*
X10892696D02*
Y6092697D01*
X10923759D01*
X10922761Y6097712D01*
X10912727Y6112729D01*
X10897710Y6122763D01*
X10892696Y6123761D01*
D02*
G37*
G36*
X10867296D02*
X10862281Y6122763D01*
X10847264Y6112729D01*
X10837230Y6097712D01*
X10836232Y6092697D01*
X10867296D01*
Y6123761D01*
D02*
G37*
G36*
X10732696D02*
Y6092697D01*
X10763759D01*
X10762762Y6097712D01*
X10752727Y6112729D01*
X10737710Y6122763D01*
X10732696Y6123761D01*
D02*
G37*
G36*
X10707296D02*
X10702281Y6122763D01*
X10687264Y6112729D01*
X10677230Y6097712D01*
X10676232Y6092697D01*
X10707296D01*
Y6123761D01*
D02*
G37*
G36*
X10572696D02*
Y6092697D01*
X10603759D01*
X10602762Y6097712D01*
X10592727Y6112729D01*
X10577710Y6122763D01*
X10572696Y6123761D01*
D02*
G37*
G36*
X10547296D02*
X10542281Y6122763D01*
X10527264Y6112729D01*
X10517230Y6097712D01*
X10516232Y6092697D01*
X10547296D01*
Y6123761D01*
D02*
G37*
G36*
X10412696D02*
Y6092697D01*
X10443759D01*
X10442762Y6097712D01*
X10432727Y6112729D01*
X10417710Y6122763D01*
X10412696Y6123761D01*
D02*
G37*
G36*
X10387296D02*
X10382281Y6122763D01*
X10367264Y6112729D01*
X10357230Y6097712D01*
X10356232Y6092697D01*
X10387296D01*
Y6123761D01*
D02*
G37*
G36*
X10252696D02*
Y6092697D01*
X10283759D01*
X10282762Y6097712D01*
X10272727Y6112729D01*
X10257710Y6122763D01*
X10252696Y6123761D01*
D02*
G37*
G36*
X10227296D02*
X10222282Y6122763D01*
X10207264Y6112729D01*
X10197230Y6097712D01*
X10196232Y6092697D01*
X10227296D01*
Y6123761D01*
D02*
G37*
G36*
X10092696D02*
Y6092697D01*
X10123759D01*
X10122762Y6097712D01*
X10112728Y6112729D01*
X10097710Y6122763D01*
X10092696Y6123761D01*
D02*
G37*
G36*
X10067296D02*
X10062282Y6122763D01*
X10047264Y6112729D01*
X10037230Y6097712D01*
X10036232Y6092697D01*
X10067296D01*
Y6123761D01*
D02*
G37*
G36*
X9932696D02*
Y6092697D01*
X9963759D01*
X9962762Y6097712D01*
X9952728Y6112729D01*
X9937710Y6122763D01*
X9932696Y6123761D01*
D02*
G37*
G36*
X9907296D02*
X9902282Y6122763D01*
X9887264Y6112729D01*
X9877230Y6097712D01*
X9876232Y6092697D01*
X9907296D01*
Y6123761D01*
D02*
G37*
G36*
X9772696D02*
Y6092697D01*
X9803759D01*
X9802762Y6097712D01*
X9792728Y6112729D01*
X9777710Y6122763D01*
X9772696Y6123761D01*
D02*
G37*
G36*
X9747296D02*
X9742282Y6122763D01*
X9727264Y6112729D01*
X9717230Y6097712D01*
X9716233Y6092697D01*
X9747296D01*
Y6123761D01*
D02*
G37*
G36*
X9612696D02*
Y6092697D01*
X9643759D01*
X9642762Y6097712D01*
X9632728Y6112729D01*
X9617710Y6122763D01*
X9612696Y6123761D01*
D02*
G37*
G36*
X9587296D02*
X9582282Y6122763D01*
X9567264Y6112729D01*
X9557230Y6097712D01*
X9556233Y6092697D01*
X9587296D01*
Y6123761D01*
D02*
G37*
G36*
X5007900Y6227900D02*
X4912700D01*
Y6052700D01*
X5007900D01*
Y6227900D01*
D02*
G37*
G36*
X4887300D02*
X4792100D01*
Y6052700D01*
X4887300D01*
Y6227900D01*
D02*
G37*
G36*
X11187295Y6067297D02*
X11156232D01*
X11157229Y6062283D01*
X11167264Y6047266D01*
X11182281Y6037232D01*
X11187295Y6036234D01*
Y6067297D01*
D02*
G37*
G36*
X11083759D02*
X11052695D01*
Y6036234D01*
X11057710Y6037232D01*
X11072727Y6047266D01*
X11082761Y6062283D01*
X11083759Y6067297D01*
D02*
G37*
G36*
X11027295D02*
X10996232D01*
X10997229Y6062283D01*
X11007264Y6047266D01*
X11022281Y6037232D01*
X11027295Y6036234D01*
Y6067297D01*
D02*
G37*
G36*
X10923759D02*
X10892696D01*
Y6036234D01*
X10897710Y6037232D01*
X10912727Y6047266D01*
X10922761Y6062283D01*
X10923759Y6067297D01*
D02*
G37*
G36*
X10867296D02*
X10836232D01*
X10837230Y6062283D01*
X10847264Y6047266D01*
X10862281Y6037232D01*
X10867296Y6036234D01*
Y6067297D01*
D02*
G37*
G36*
X10763759D02*
X10732696D01*
Y6036234D01*
X10737710Y6037232D01*
X10752727Y6047266D01*
X10762762Y6062283D01*
X10763759Y6067297D01*
D02*
G37*
G36*
X10707296D02*
X10676232D01*
X10677230Y6062283D01*
X10687264Y6047266D01*
X10702281Y6037232D01*
X10707296Y6036234D01*
Y6067297D01*
D02*
G37*
G36*
X10603759D02*
X10572696D01*
Y6036234D01*
X10577710Y6037232D01*
X10592727Y6047266D01*
X10602762Y6062283D01*
X10603759Y6067297D01*
D02*
G37*
G36*
X10547296D02*
X10516232D01*
X10517230Y6062283D01*
X10527264Y6047266D01*
X10542281Y6037232D01*
X10547296Y6036234D01*
Y6067297D01*
D02*
G37*
G36*
X10443759D02*
X10412696D01*
Y6036234D01*
X10417710Y6037232D01*
X10432727Y6047266D01*
X10442762Y6062283D01*
X10443759Y6067297D01*
D02*
G37*
G36*
X10387296D02*
X10356232D01*
X10357230Y6062283D01*
X10367264Y6047266D01*
X10382281Y6037232D01*
X10387296Y6036234D01*
Y6067297D01*
D02*
G37*
G36*
X10283759D02*
X10252696D01*
Y6036234D01*
X10257710Y6037232D01*
X10272727Y6047266D01*
X10282762Y6062283D01*
X10283759Y6067297D01*
D02*
G37*
G36*
X10227296D02*
X10196232D01*
X10197230Y6062283D01*
X10207264Y6047266D01*
X10222282Y6037232D01*
X10227296Y6036234D01*
Y6067297D01*
D02*
G37*
G36*
X10123759D02*
X10092696D01*
Y6036234D01*
X10097710Y6037232D01*
X10112728Y6047266D01*
X10122762Y6062283D01*
X10123759Y6067297D01*
D02*
G37*
G36*
X10067296D02*
X10036232D01*
X10037230Y6062283D01*
X10047264Y6047266D01*
X10062282Y6037232D01*
X10067296Y6036234D01*
Y6067297D01*
D02*
G37*
G36*
X9963759D02*
X9932696D01*
Y6036234D01*
X9937710Y6037232D01*
X9952728Y6047266D01*
X9962762Y6062283D01*
X9963759Y6067297D01*
D02*
G37*
G36*
X9907296D02*
X9876232D01*
X9877230Y6062283D01*
X9887264Y6047266D01*
X9902282Y6037232D01*
X9907296Y6036234D01*
Y6067297D01*
D02*
G37*
G36*
X9803759D02*
X9772696D01*
Y6036234D01*
X9777710Y6037232D01*
X9792728Y6047266D01*
X9802762Y6062283D01*
X9803759Y6067297D01*
D02*
G37*
G36*
X9747296D02*
X9716233D01*
X9717230Y6062283D01*
X9727264Y6047266D01*
X9742282Y6037232D01*
X9747296Y6036234D01*
Y6067297D01*
D02*
G37*
G36*
X9643759D02*
X9612696D01*
Y6036234D01*
X9617710Y6037232D01*
X9632728Y6047266D01*
X9642762Y6062283D01*
X9643759Y6067297D01*
D02*
G37*
G36*
X9587296D02*
X9556233D01*
X9557230Y6062283D01*
X9567264Y6047266D01*
X9582282Y6037232D01*
X9587296Y6036234D01*
Y6067297D01*
D02*
G37*
G36*
X5595300Y6056959D02*
X5586384Y6055186D01*
X5568059Y6042941D01*
X5555814Y6024616D01*
X5554041Y6015700D01*
X5595300D01*
Y6056959D01*
D02*
G37*
G36*
Y5990300D02*
X5554041D01*
X5555814Y5981384D01*
X5568059Y5963059D01*
X5586384Y5950814D01*
X5595300Y5949041D01*
Y5990300D01*
D02*
G37*
G36*
X7028357Y6726898D02*
X6384038D01*
X6374127Y6724926D01*
X6374127Y6724926D01*
X6361264Y6719598D01*
X6361263Y6719598D01*
X6352862Y6713984D01*
X6343016Y6704138D01*
X6337402Y6695736D01*
X6332074Y6682872D01*
X6330102Y6672962D01*
Y6666037D01*
X6329429Y6197738D01*
X6329430Y6197729D01*
X6329429Y6197719D01*
X6330425Y6192690D01*
X6331386Y6187825D01*
X6331391Y6187817D01*
X6331393Y6187807D01*
X6334217Y6183573D01*
X6336987Y6179415D01*
X6336995Y6179410D01*
X6337001Y6179401D01*
X6345975Y6170415D01*
X6345983Y6170410D01*
X6345988Y6170402D01*
X6347025Y6169708D01*
Y5967894D01*
X6433065D01*
Y6023333D01*
X6445765Y6029488D01*
X6448775Y6027848D01*
X6450101Y6027434D01*
X6451256Y6026663D01*
X6454887Y6025941D01*
X6458421Y6024838D01*
X6459804Y6024963D01*
X6461166Y6024692D01*
X6464798Y6025414D01*
X6468485Y6025748D01*
X6469715Y6026392D01*
X6471077Y6026663D01*
X6472094Y6027085D01*
X6472273Y6027103D01*
X6558428D01*
X6569985Y6022989D01*
X6569985D01*
X6569986Y6022989D01*
D01*
X6574663Y6018959D01*
X6575045Y6018203D01*
X6575046Y6015116D01*
Y5986268D01*
X6573521Y5978604D01*
X6573854D01*
Y5926331D01*
X6563294Y5919275D01*
X6548858Y5925254D01*
X6520000Y5929054D01*
Y5928846D01*
X6290000D01*
X6287640Y5928377D01*
X6272222Y5926347D01*
X6255656Y5919485D01*
X6241430Y5908570D01*
X6231392Y5895487D01*
X6227268Y5892732D01*
X6217234Y5877714D01*
X6213710Y5860000D01*
X6217234Y5842286D01*
X6227268Y5827268D01*
X6242286Y5817234D01*
X6260000Y5813710D01*
X6277714Y5817234D01*
X6292732Y5827268D01*
X6302766Y5842286D01*
X6304530Y5851153D01*
X6440895D01*
Y5806333D01*
X6437700Y5803711D01*
Y5743000D01*
Y5689041D01*
X6446616Y5690814D01*
X6464941Y5703059D01*
X6477186Y5721384D01*
X6481485Y5743000D01*
X6481011Y5745387D01*
X6489068Y5755204D01*
X6539195D01*
Y5797318D01*
X6539801Y5798083D01*
X6550526Y5797119D01*
X6553145Y5796098D01*
X6554390Y5789841D01*
X6558696Y5783397D01*
Y5770604D01*
X6572109D01*
X6576682Y5767548D01*
X6592446Y5764413D01*
Y5763970D01*
X6617027Y5768859D01*
X6619638Y5770604D01*
X6626196D01*
Y5774986D01*
X6637866Y5782784D01*
X6651790Y5803623D01*
X6656680Y5828204D01*
X6656237D01*
Y5954413D01*
X6749045D01*
X6755035Y5955604D01*
X6790045D01*
Y5994641D01*
X6790237Y5995604D01*
X6790045Y5996567D01*
Y6018630D01*
X6802746Y6027639D01*
X6805445Y6027103D01*
X6832145D01*
X6835788Y6027827D01*
X6847545Y6030104D01*
X6847546Y6030104D01*
X6847546Y6030104D01*
X7004823D01*
X7006019Y6024090D01*
X7011633Y6015688D01*
X7020035Y6010074D01*
X7024407Y6009204D01*
X7023156Y5996505D01*
X7017701Y5996504D01*
X7017246Y5996504D01*
X6943745D01*
Y5935304D01*
X7029945D01*
Y5986302D01*
X7029946Y5995403D01*
X7029946Y5996504D01*
X7032605Y6008102D01*
X7037002Y6008103D01*
X7073945D01*
X7083856Y6010074D01*
X7102233Y6017686D01*
X7110635Y6023299D01*
X7124700Y6037365D01*
X7130314Y6045767D01*
X7137926Y6064144D01*
X7139898Y6074054D01*
Y6084000D01*
Y6606000D01*
Y6615357D01*
X7139400Y6617858D01*
Y6620409D01*
X7135749Y6638763D01*
X7134773Y6641119D01*
X7134275Y6643621D01*
X7127114Y6660910D01*
X7125697Y6663031D01*
X7124721Y6665387D01*
X7114324Y6680947D01*
X7112521Y6682750D01*
X7111104Y6684871D01*
X7097871Y6698104D01*
X7095750Y6699521D01*
X7093947Y6701324D01*
X7078387Y6711721D01*
X7076031Y6712697D01*
X7073910Y6714114D01*
X7056621Y6721275D01*
X7054119Y6721773D01*
X7051763Y6722749D01*
X7033409Y6726400D01*
X7030858D01*
X7028357Y6726898D01*
D02*
G37*
G36*
X6918345Y5996504D02*
X6832145D01*
Y5935304D01*
X6918345D01*
Y5996504D01*
D02*
G37*
G36*
X11132695Y5963761D02*
Y5932698D01*
X11163759D01*
X11162761Y5937712D01*
X11152727Y5952729D01*
X11137709Y5962764D01*
X11132695Y5963761D01*
D02*
G37*
G36*
X11107295D02*
X11102281Y5962764D01*
X11087264Y5952729D01*
X11077229Y5937712D01*
X11076232Y5932698D01*
X11107295D01*
Y5963761D01*
D02*
G37*
G36*
X10972695D02*
Y5932698D01*
X11003759D01*
X11002761Y5937712D01*
X10992727Y5952729D01*
X10977710Y5962764D01*
X10972695Y5963761D01*
D02*
G37*
G36*
X10947295D02*
X10942281Y5962764D01*
X10927264Y5952729D01*
X10917229Y5937712D01*
X10916232Y5932698D01*
X10947295D01*
Y5963761D01*
D02*
G37*
G36*
X10812695D02*
Y5932698D01*
X10843759D01*
X10842761Y5937712D01*
X10832727Y5952729D01*
X10817710Y5962764D01*
X10812695Y5963761D01*
D02*
G37*
G36*
X10787295D02*
X10782281Y5962764D01*
X10767264Y5952729D01*
X10757229Y5937712D01*
X10756232Y5932698D01*
X10787295D01*
Y5963761D01*
D02*
G37*
G36*
X10652695D02*
Y5932698D01*
X10683759D01*
X10682761Y5937712D01*
X10672727Y5952729D01*
X10657710Y5962764D01*
X10652695Y5963761D01*
D02*
G37*
G36*
X10627295D02*
X10622281Y5962764D01*
X10607264Y5952729D01*
X10597230Y5937712D01*
X10596232Y5932698D01*
X10627295D01*
Y5963761D01*
D02*
G37*
G36*
X10492696D02*
Y5932698D01*
X10523759D01*
X10522762Y5937712D01*
X10512727Y5952729D01*
X10497710Y5962764D01*
X10492696Y5963761D01*
D02*
G37*
G36*
X10467296D02*
X10462281Y5962764D01*
X10447264Y5952729D01*
X10437230Y5937712D01*
X10436232Y5932698D01*
X10467296D01*
Y5963761D01*
D02*
G37*
G36*
X10332696D02*
Y5932698D01*
X10363759D01*
X10362762Y5937712D01*
X10352727Y5952729D01*
X10337710Y5962764D01*
X10332696Y5963761D01*
D02*
G37*
G36*
X10307296D02*
X10302281Y5962764D01*
X10287264Y5952729D01*
X10277230Y5937712D01*
X10276232Y5932698D01*
X10307296D01*
Y5963761D01*
D02*
G37*
G36*
X10172696D02*
Y5932698D01*
X10203759D01*
X10202762Y5937712D01*
X10192727Y5952729D01*
X10177710Y5962764D01*
X10172696Y5963761D01*
D02*
G37*
G36*
X10147296D02*
X10142281Y5962764D01*
X10127264Y5952729D01*
X10117230Y5937712D01*
X10116232Y5932698D01*
X10147296D01*
Y5963761D01*
D02*
G37*
G36*
X10012696D02*
Y5932698D01*
X10043759D01*
X10042762Y5937712D01*
X10032727Y5952729D01*
X10017710Y5962764D01*
X10012696Y5963761D01*
D02*
G37*
G36*
X9987296D02*
X9982282Y5962764D01*
X9967264Y5952729D01*
X9957230Y5937712D01*
X9956232Y5932698D01*
X9987296D01*
Y5963761D01*
D02*
G37*
G36*
X9852696D02*
Y5932698D01*
X9883759D01*
X9882762Y5937712D01*
X9872728Y5952729D01*
X9857710Y5962764D01*
X9852696Y5963761D01*
D02*
G37*
G36*
X9827296D02*
X9822282Y5962764D01*
X9807264Y5952729D01*
X9797230Y5937712D01*
X9796232Y5932698D01*
X9827296D01*
Y5963761D01*
D02*
G37*
G36*
X9692696D02*
Y5932698D01*
X9723759D01*
X9722762Y5937712D01*
X9712728Y5952729D01*
X9697710Y5962764D01*
X9692696Y5963761D01*
D02*
G37*
G36*
X9667296D02*
X9662282Y5962764D01*
X9647264Y5952729D01*
X9637230Y5937712D01*
X9636232Y5932698D01*
X9667296D01*
Y5963761D01*
D02*
G37*
G36*
X11163759Y5907298D02*
X11132695D01*
Y5876234D01*
X11137709Y5877232D01*
X11152727Y5887266D01*
X11162761Y5902283D01*
X11163759Y5907298D01*
D02*
G37*
G36*
X11107295D02*
X11076232D01*
X11077229Y5902283D01*
X11087264Y5887266D01*
X11102281Y5877232D01*
X11107295Y5876234D01*
Y5907298D01*
D02*
G37*
G36*
X11003759D02*
X10972695D01*
Y5876234D01*
X10977710Y5877232D01*
X10992727Y5887266D01*
X11002761Y5902283D01*
X11003759Y5907298D01*
D02*
G37*
G36*
X10947295D02*
X10916232D01*
X10917229Y5902283D01*
X10927264Y5887266D01*
X10942281Y5877232D01*
X10947295Y5876234D01*
Y5907298D01*
D02*
G37*
G36*
X10843759D02*
X10812695D01*
Y5876234D01*
X10817710Y5877232D01*
X10832727Y5887266D01*
X10842761Y5902283D01*
X10843759Y5907298D01*
D02*
G37*
G36*
X10787295D02*
X10756232D01*
X10757229Y5902283D01*
X10767264Y5887266D01*
X10782281Y5877232D01*
X10787295Y5876234D01*
Y5907298D01*
D02*
G37*
G36*
X10683759D02*
X10652695D01*
Y5876234D01*
X10657710Y5877232D01*
X10672727Y5887266D01*
X10682761Y5902283D01*
X10683759Y5907298D01*
D02*
G37*
G36*
X10627295D02*
X10596232D01*
X10597230Y5902283D01*
X10607264Y5887266D01*
X10622281Y5877232D01*
X10627295Y5876234D01*
Y5907298D01*
D02*
G37*
G36*
X10523759D02*
X10492696D01*
Y5876234D01*
X10497710Y5877232D01*
X10512727Y5887266D01*
X10522762Y5902283D01*
X10523759Y5907298D01*
D02*
G37*
G36*
X10467296D02*
X10436232D01*
X10437230Y5902283D01*
X10447264Y5887266D01*
X10462281Y5877232D01*
X10467296Y5876234D01*
Y5907298D01*
D02*
G37*
G36*
X10363759D02*
X10332696D01*
Y5876234D01*
X10337710Y5877232D01*
X10352727Y5887266D01*
X10362762Y5902283D01*
X10363759Y5907298D01*
D02*
G37*
G36*
X10307296D02*
X10276232D01*
X10277230Y5902283D01*
X10287264Y5887266D01*
X10302281Y5877232D01*
X10307296Y5876234D01*
Y5907298D01*
D02*
G37*
G36*
X10203759D02*
X10172696D01*
Y5876234D01*
X10177710Y5877232D01*
X10192727Y5887266D01*
X10202762Y5902283D01*
X10203759Y5907298D01*
D02*
G37*
G36*
X10147296D02*
X10116232D01*
X10117230Y5902283D01*
X10127264Y5887266D01*
X10142281Y5877232D01*
X10147296Y5876234D01*
Y5907298D01*
D02*
G37*
G36*
X10043759D02*
X10012696D01*
Y5876234D01*
X10017710Y5877232D01*
X10032727Y5887266D01*
X10042762Y5902283D01*
X10043759Y5907298D01*
D02*
G37*
G36*
X9987296D02*
X9956232D01*
X9957230Y5902283D01*
X9967264Y5887266D01*
X9982282Y5877232D01*
X9987296Y5876234D01*
Y5907298D01*
D02*
G37*
G36*
X9883759D02*
X9852696D01*
Y5876234D01*
X9857710Y5877232D01*
X9872728Y5887266D01*
X9882762Y5902283D01*
X9883759Y5907298D01*
D02*
G37*
G36*
X9827296D02*
X9796232D01*
X9797230Y5902283D01*
X9807264Y5887266D01*
X9822282Y5877232D01*
X9827296Y5876234D01*
Y5907298D01*
D02*
G37*
G36*
X9723759D02*
X9692696D01*
Y5876234D01*
X9697710Y5877232D01*
X9712728Y5887266D01*
X9722762Y5902283D01*
X9723759Y5907298D01*
D02*
G37*
G36*
X9667296D02*
X9636232D01*
X9637230Y5902283D01*
X9647264Y5887266D01*
X9662282Y5877232D01*
X9667296Y5876234D01*
Y5907298D01*
D02*
G37*
G36*
X7750000Y5876289D02*
X7732286Y5872766D01*
X7729929Y5871191D01*
X7713000D01*
Y5871663D01*
X7674782Y5866632D01*
X7639168Y5851880D01*
X7608586Y5828414D01*
X7585120Y5797832D01*
X7584568Y5796500D01*
X7487000D01*
Y5651500D01*
X7727000D01*
Y5776322D01*
X7727246Y5776831D01*
X7739700Y5785759D01*
X7750000Y5783711D01*
X7767714Y5787234D01*
X7782732Y5797268D01*
X7792766Y5812286D01*
X7796289Y5830000D01*
X7792766Y5847714D01*
X7782732Y5862732D01*
X7767714Y5872766D01*
X7750000Y5876289D01*
D02*
G37*
G36*
X5007900Y6027300D02*
X4900000D01*
X4792100D01*
Y5852100D01*
X4841715D01*
X4846224Y5846224D01*
X4861975Y5834138D01*
X4880317Y5826541D01*
X4887300Y5825621D01*
Y5900000D01*
X4912700D01*
Y5825621D01*
X4919684Y5826541D01*
X4938025Y5834138D01*
X4953776Y5846224D01*
X4958285Y5852100D01*
X5007900D01*
Y6027300D01*
D02*
G37*
G36*
X7039959Y5858300D02*
X6998700D01*
Y5817041D01*
X7007616Y5818814D01*
X7025941Y5831059D01*
X7038186Y5849384D01*
X7039959Y5858300D01*
D02*
G37*
G36*
X7029945Y5909904D02*
X6832145D01*
Y5895601D01*
X6828814Y5890616D01*
X6827041Y5881700D01*
X6881000D01*
Y5869000D01*
X6893700D01*
Y5815041D01*
X6902616Y5816814D01*
X6920941Y5829059D01*
X6926531Y5837425D01*
X6941805D01*
X6946059Y5831059D01*
X6964384Y5818814D01*
X6973300Y5817041D01*
Y5871000D01*
X6986000D01*
Y5883700D01*
X7039959D01*
X7038186Y5892616D01*
X7029945Y5904949D01*
Y5909904D01*
D02*
G37*
G36*
X6868300Y5856300D02*
X6827041D01*
X6828814Y5847384D01*
X6841059Y5829059D01*
X6859384Y5816814D01*
X6868300Y5815041D01*
Y5856300D01*
D02*
G37*
G36*
X8135170Y5839595D02*
X8091471D01*
Y5796895D01*
X8135170D01*
Y5839595D01*
D02*
G37*
G36*
X8066071D02*
X8022371D01*
Y5796895D01*
X8066071D01*
Y5839595D01*
D02*
G37*
G36*
X8232300Y5817400D02*
X8194600D01*
Y5784699D01*
X8232300D01*
Y5817400D01*
D02*
G37*
G36*
X11187295Y5803761D02*
X11182281Y5802764D01*
X11167264Y5792729D01*
X11157229Y5777712D01*
X11156232Y5772698D01*
X11187295D01*
Y5803761D01*
D02*
G37*
G36*
X11052695D02*
Y5772698D01*
X11083759D01*
X11082761Y5777712D01*
X11072727Y5792729D01*
X11057710Y5802764D01*
X11052695Y5803761D01*
D02*
G37*
G36*
X11027295D02*
X11022281Y5802764D01*
X11007264Y5792729D01*
X10997229Y5777712D01*
X10996232Y5772698D01*
X11027295D01*
Y5803761D01*
D02*
G37*
G36*
X10892696D02*
Y5772698D01*
X10923759D01*
X10922761Y5777712D01*
X10912727Y5792729D01*
X10897710Y5802764D01*
X10892696Y5803761D01*
D02*
G37*
G36*
X10867296D02*
X10862281Y5802764D01*
X10847264Y5792729D01*
X10837230Y5777712D01*
X10836232Y5772698D01*
X10867296D01*
Y5803761D01*
D02*
G37*
G36*
X10732696D02*
Y5772698D01*
X10763759D01*
X10762762Y5777712D01*
X10752727Y5792729D01*
X10737710Y5802764D01*
X10732696Y5803761D01*
D02*
G37*
G36*
X10707296D02*
X10702281Y5802764D01*
X10687264Y5792729D01*
X10677230Y5777712D01*
X10676232Y5772698D01*
X10707296D01*
Y5803761D01*
D02*
G37*
G36*
X10572696D02*
Y5772698D01*
X10603759D01*
X10602762Y5777712D01*
X10592727Y5792729D01*
X10577710Y5802764D01*
X10572696Y5803761D01*
D02*
G37*
G36*
X10547296D02*
X10542281Y5802764D01*
X10527264Y5792729D01*
X10517230Y5777712D01*
X10516232Y5772698D01*
X10547296D01*
Y5803761D01*
D02*
G37*
G36*
X10412696D02*
Y5772698D01*
X10443759D01*
X10442762Y5777712D01*
X10432727Y5792729D01*
X10417710Y5802764D01*
X10412696Y5803761D01*
D02*
G37*
G36*
X10387296D02*
X10382281Y5802764D01*
X10367264Y5792729D01*
X10357230Y5777712D01*
X10356232Y5772698D01*
X10387296D01*
Y5803761D01*
D02*
G37*
G36*
X10252696D02*
Y5772698D01*
X10283759D01*
X10282762Y5777712D01*
X10272727Y5792729D01*
X10257710Y5802764D01*
X10252696Y5803761D01*
D02*
G37*
G36*
X10227296D02*
X10222282Y5802764D01*
X10207264Y5792729D01*
X10197230Y5777712D01*
X10196232Y5772698D01*
X10227296D01*
Y5803761D01*
D02*
G37*
G36*
X10092696D02*
Y5772698D01*
X10123759D01*
X10122762Y5777712D01*
X10112728Y5792729D01*
X10097710Y5802764D01*
X10092696Y5803761D01*
D02*
G37*
G36*
X10067296D02*
X10062282Y5802764D01*
X10047264Y5792729D01*
X10037230Y5777712D01*
X10036232Y5772698D01*
X10067296D01*
Y5803761D01*
D02*
G37*
G36*
X9932696D02*
Y5772698D01*
X9963759D01*
X9962762Y5777712D01*
X9952728Y5792729D01*
X9937710Y5802764D01*
X9932696Y5803761D01*
D02*
G37*
G36*
X9907296D02*
X9902282Y5802764D01*
X9887264Y5792729D01*
X9877230Y5777712D01*
X9876232Y5772698D01*
X9907296D01*
Y5803761D01*
D02*
G37*
G36*
X9772696D02*
Y5772698D01*
X9803759D01*
X9802762Y5777712D01*
X9792728Y5792729D01*
X9777710Y5802764D01*
X9772696Y5803761D01*
D02*
G37*
G36*
X6412300Y5796959D02*
X6403384Y5795186D01*
X6385059Y5782941D01*
X6372815Y5764616D01*
X6371041Y5755700D01*
X6412300D01*
Y5796959D01*
D02*
G37*
G36*
X10387296Y5747298D02*
X10356232D01*
X10356606Y5745417D01*
X10348476Y5738063D01*
X10346313Y5737020D01*
X10337714Y5742766D01*
X10332700Y5743763D01*
Y5712700D01*
X10363763D01*
X10363389Y5714581D01*
X10371519Y5721934D01*
X10373682Y5722977D01*
X10382281Y5717232D01*
X10387296Y5716234D01*
Y5747298D01*
D02*
G37*
G36*
X9687300Y5753763D02*
X9682286Y5752766D01*
X9667268Y5742732D01*
X9657234Y5727714D01*
X9656236Y5722700D01*
X9687300D01*
Y5753763D01*
D02*
G37*
G36*
X9592700D02*
Y5722700D01*
X9623763D01*
X9622766Y5727714D01*
X9612732Y5742732D01*
X9597714Y5752766D01*
X9592700Y5753763D01*
D02*
G37*
G36*
X9567300D02*
X9562286Y5752766D01*
X9547268Y5742732D01*
X9537234Y5727714D01*
X9536236Y5722700D01*
X9567300D01*
Y5753763D01*
D02*
G37*
G36*
X9472700D02*
Y5722700D01*
X9503763D01*
X9502766Y5727714D01*
X9492732Y5742732D01*
X9477714Y5752766D01*
X9472700Y5753763D01*
D02*
G37*
G36*
X9447300D02*
X9442286Y5752766D01*
X9427268Y5742732D01*
X9417234Y5727714D01*
X9416236Y5722700D01*
X9447300D01*
Y5753763D01*
D02*
G37*
G36*
X10923759Y5747298D02*
X10892696D01*
Y5716234D01*
X10897710Y5717232D01*
X10912727Y5727266D01*
X10922761Y5742283D01*
X10923759Y5747298D01*
D02*
G37*
G36*
X10867296D02*
X10836232D01*
X10837230Y5742283D01*
X10847264Y5727266D01*
X10862281Y5717232D01*
X10867296Y5716234D01*
Y5747298D01*
D02*
G37*
G36*
X10763759D02*
X10732696D01*
Y5716234D01*
X10737710Y5717232D01*
X10752727Y5727266D01*
X10762762Y5742283D01*
X10763759Y5747298D01*
D02*
G37*
G36*
X10707296D02*
X10676232D01*
X10677230Y5742283D01*
X10687264Y5727266D01*
X10702281Y5717232D01*
X10707296Y5716234D01*
Y5747298D01*
D02*
G37*
G36*
X10603759D02*
X10572696D01*
Y5716234D01*
X10577710Y5717232D01*
X10592727Y5727266D01*
X10602762Y5742283D01*
X10603759Y5747298D01*
D02*
G37*
G36*
X10547296D02*
X10516232D01*
X10517230Y5742283D01*
X10527264Y5727266D01*
X10542281Y5717232D01*
X10547296Y5716234D01*
Y5747298D01*
D02*
G37*
G36*
X10443759D02*
X10412696D01*
Y5716234D01*
X10417710Y5717232D01*
X10432727Y5727266D01*
X10442762Y5742283D01*
X10443759Y5747298D01*
D02*
G37*
G36*
X10123759D02*
X10092696D01*
Y5716234D01*
X10097710Y5717232D01*
X10112728Y5727266D01*
X10122762Y5742283D01*
X10123759Y5747298D01*
D02*
G37*
G36*
X10067296D02*
X10036232D01*
X10037230Y5742283D01*
X10047264Y5727266D01*
X10062282Y5717232D01*
X10067296Y5716234D01*
Y5747298D01*
D02*
G37*
G36*
X11083759D02*
X10996232D01*
X10997229Y5742283D01*
X11007264Y5727266D01*
X11022281Y5717232D01*
X11036573Y5714389D01*
X11036236Y5712700D01*
X11123763D01*
X11122766Y5717714D01*
X11112732Y5732732D01*
X11097714Y5742766D01*
X11083423Y5745609D01*
X11083759Y5747298D01*
D02*
G37*
G36*
X6412300Y5730300D02*
X6371041D01*
X6372815Y5721384D01*
X6385059Y5703059D01*
X6403384Y5690814D01*
X6412300Y5689041D01*
Y5730300D01*
D02*
G37*
G36*
X6119445Y5700904D02*
X6006646D01*
Y5658204D01*
X6008301D01*
X6015090Y5645504D01*
X6007815Y5634616D01*
X6006041Y5625700D01*
X6113959D01*
X6112186Y5634616D01*
X6104910Y5645504D01*
X6111699Y5658204D01*
X6119445D01*
Y5700904D01*
D02*
G37*
G36*
X6113959Y5600300D02*
X6072700D01*
Y5559041D01*
X6081616Y5560814D01*
X6099941Y5573059D01*
X6112186Y5591384D01*
X6113959Y5600300D01*
D02*
G37*
G36*
X6047300D02*
X6006041D01*
X6007815Y5591384D01*
X6020059Y5573059D01*
X6038384Y5560814D01*
X6047300Y5559041D01*
Y5600300D01*
D02*
G37*
G36*
X10802700Y5513763D02*
Y5482700D01*
X10833763D01*
X10832766Y5487714D01*
X10822732Y5502732D01*
X10807714Y5512766D01*
X10802700Y5513763D01*
D02*
G37*
G36*
X10777300D02*
X10772286Y5512766D01*
X10757268Y5502732D01*
X10747234Y5487714D01*
X10746237Y5482700D01*
X10777300D01*
Y5513763D01*
D02*
G37*
G36*
X10652700D02*
Y5482700D01*
X10683763D01*
X10682766Y5487714D01*
X10672732Y5502732D01*
X10657714Y5512766D01*
X10652700Y5513763D01*
D02*
G37*
G36*
X10627300D02*
X10622286Y5512766D01*
X10607268Y5502732D01*
X10597234Y5487714D01*
X10596237Y5482700D01*
X10627300D01*
Y5513763D01*
D02*
G37*
G36*
X10922700Y5503763D02*
Y5472700D01*
X10953763D01*
X10952766Y5477714D01*
X10942732Y5492732D01*
X10927714Y5502766D01*
X10922700Y5503763D01*
D02*
G37*
G36*
X10897300D02*
X10892286Y5502766D01*
X10877268Y5492732D01*
X10867234Y5477714D01*
X10866237Y5472700D01*
X10897300D01*
Y5503763D01*
D02*
G37*
G36*
X4542500Y5557500D02*
X4457500D01*
Y5462500D01*
X4542500D01*
Y5479004D01*
X4906108D01*
X4907268Y5477268D01*
X4922286Y5467234D01*
X4940000Y5463710D01*
X4957714Y5467234D01*
X4972732Y5477268D01*
X4982766Y5492286D01*
X4986289Y5510000D01*
X4982766Y5527714D01*
X4972732Y5542732D01*
X4957714Y5552766D01*
X4940000Y5556289D01*
X4922286Y5552766D01*
X4907268Y5542732D01*
X4906108Y5540996D01*
X4542500D01*
Y5557500D01*
D02*
G37*
G36*
X10412696Y5483761D02*
Y5452698D01*
X10443759D01*
X10442762Y5457712D01*
X10432727Y5472729D01*
X10417710Y5482764D01*
X10412696Y5483761D01*
D02*
G37*
G36*
X10092696D02*
Y5452698D01*
X10123759D01*
X10122762Y5457712D01*
X10112728Y5472729D01*
X10097710Y5482764D01*
X10092696Y5483761D01*
D02*
G37*
G36*
X10067296D02*
X10062282Y5482764D01*
X10047264Y5472729D01*
X10037230Y5457712D01*
X10036232Y5452698D01*
X10067296D01*
Y5483761D01*
D02*
G37*
G36*
X11187300Y5477300D02*
X11156237D01*
X11157234Y5472286D01*
X11167268Y5457268D01*
X11182286Y5447234D01*
X11187300Y5446237D01*
Y5477300D01*
D02*
G37*
G36*
X11123763D02*
X11092700D01*
Y5446237D01*
X11097714Y5447234D01*
X11112732Y5457268D01*
X11122766Y5472286D01*
X11123763Y5477300D01*
D02*
G37*
G36*
X11067300D02*
X11036236D01*
X11037234Y5472286D01*
X11047268Y5457268D01*
X11062286Y5447234D01*
X11067300Y5446237D01*
Y5477300D01*
D02*
G37*
G36*
X10307300D02*
X10276236D01*
X10277234Y5472286D01*
X10287268Y5457268D01*
X10302286Y5447234D01*
X10307300Y5446237D01*
Y5477300D01*
D02*
G37*
G36*
X10243763D02*
X10212700D01*
Y5446237D01*
X10217714Y5447234D01*
X10232732Y5457268D01*
X10242766Y5472286D01*
X10243763Y5477300D01*
D02*
G37*
G36*
X10187300D02*
X10156236D01*
X10157234Y5472286D01*
X10167268Y5457268D01*
X10182286Y5447234D01*
X10187300Y5446237D01*
Y5477300D01*
D02*
G37*
G36*
X10003763D02*
X9972700D01*
Y5446237D01*
X9977714Y5447234D01*
X9992732Y5457268D01*
X10002766Y5472286D01*
X10003763Y5477300D01*
D02*
G37*
G36*
X9947300D02*
X9916236D01*
X9917234Y5472286D01*
X9927268Y5457268D01*
X9942286Y5447234D01*
X9947300Y5446237D01*
Y5477300D01*
D02*
G37*
G36*
X9883763D02*
X9852700D01*
Y5446237D01*
X9857714Y5447234D01*
X9872732Y5457268D01*
X9882766Y5472286D01*
X9883763Y5477300D01*
D02*
G37*
G36*
X10543763Y5467300D02*
X10512700D01*
Y5436237D01*
X10517714Y5437234D01*
X10532732Y5447268D01*
X10542766Y5462286D01*
X10543763Y5467300D01*
D02*
G37*
G36*
X10487300D02*
X10456236D01*
X10457234Y5462286D01*
X10467268Y5447268D01*
X10482286Y5437234D01*
X10487300Y5436237D01*
Y5467300D01*
D02*
G37*
G36*
X10833763Y5457300D02*
X10802700D01*
Y5426237D01*
X10807714Y5427234D01*
X10822732Y5437268D01*
X10832766Y5452286D01*
X10833763Y5457300D01*
D02*
G37*
G36*
X10777300D02*
X10746237D01*
X10747234Y5452286D01*
X10757268Y5437268D01*
X10772286Y5427234D01*
X10777300Y5426237D01*
Y5457300D01*
D02*
G37*
G36*
X10683763D02*
X10652700D01*
Y5426237D01*
X10657714Y5427234D01*
X10672732Y5437268D01*
X10682766Y5452286D01*
X10683763Y5457300D01*
D02*
G37*
G36*
X10627300D02*
X10596237D01*
X10597234Y5452286D01*
X10607268Y5437268D01*
X10622286Y5427234D01*
X10627300Y5426237D01*
Y5457300D01*
D02*
G37*
G36*
X10953763Y5447300D02*
X10922700D01*
Y5416237D01*
X10927714Y5417234D01*
X10942732Y5427268D01*
X10952766Y5442286D01*
X10953763Y5447300D01*
D02*
G37*
G36*
X10897300D02*
X10866237D01*
X10867234Y5442286D01*
X10877268Y5427268D01*
X10892286Y5417234D01*
X10897300Y5416237D01*
Y5447300D01*
D02*
G37*
G36*
X10443759Y5427298D02*
X10412696D01*
Y5396234D01*
X10417710Y5397232D01*
X10432727Y5407266D01*
X10442762Y5422284D01*
X10443759Y5427298D01*
D02*
G37*
G36*
X10123759D02*
X10092696D01*
Y5396234D01*
X10097710Y5397232D01*
X10112728Y5407266D01*
X10122762Y5422284D01*
X10123759Y5427298D01*
D02*
G37*
G36*
X10067296D02*
X10036232D01*
X10037230Y5422284D01*
X10047264Y5407266D01*
X10062282Y5397232D01*
X10067296Y5396234D01*
Y5427298D01*
D02*
G37*
G36*
X9842700Y5333764D02*
Y5302700D01*
X9873763D01*
X9872766Y5307714D01*
X9862732Y5322732D01*
X9847714Y5332766D01*
X9842700Y5333764D01*
D02*
G37*
G36*
X10332696Y5323761D02*
Y5292698D01*
X10363759D01*
X10362762Y5297712D01*
X10352727Y5312730D01*
X10337710Y5322764D01*
X10332696Y5323761D01*
D02*
G37*
G36*
X10307296D02*
X10302281Y5322764D01*
X10287264Y5312730D01*
X10277230Y5297712D01*
X10276232Y5292698D01*
X10307296D01*
Y5323761D01*
D02*
G37*
G36*
X10172696D02*
Y5292698D01*
X10203759D01*
X10202762Y5297712D01*
X10192727Y5312730D01*
X10177710Y5322764D01*
X10172696Y5323761D01*
D02*
G37*
G36*
X10147296D02*
X10142281Y5322764D01*
X10127264Y5312730D01*
X10117230Y5297712D01*
X10116232Y5292698D01*
X10147296D01*
Y5323761D01*
D02*
G37*
G36*
X10012696D02*
Y5292698D01*
X10043759D01*
X10042762Y5297712D01*
X10032727Y5312730D01*
X10017710Y5322764D01*
X10012696Y5323761D01*
D02*
G37*
G36*
X9987296D02*
X9982282Y5322764D01*
X9967264Y5312730D01*
X9957230Y5297712D01*
X9956232Y5292698D01*
X9987296D01*
Y5323761D01*
D02*
G37*
G36*
X8021300Y5301300D02*
X7990236D01*
X7991234Y5296286D01*
X8001268Y5281268D01*
X8016286Y5271234D01*
X8021300Y5270237D01*
Y5301300D01*
D02*
G37*
G36*
X7727000Y5576500D02*
X7487000D01*
Y5431500D01*
X7565809D01*
Y5383000D01*
X7565535D01*
X7569776Y5350786D01*
X7582210Y5320768D01*
X7601990Y5294990D01*
X7627768Y5275210D01*
X7657786Y5262776D01*
X7677968Y5260120D01*
X7682286Y5257234D01*
X7700000Y5253711D01*
X7717714Y5257234D01*
X7732732Y5267268D01*
X7742766Y5282286D01*
X7746290Y5300000D01*
X7742766Y5317714D01*
X7732732Y5332732D01*
X7717714Y5342766D01*
X7700000Y5346290D01*
X7682286Y5342766D01*
X7681858Y5342480D01*
X7673874Y5344068D01*
X7660203Y5353203D01*
X7651068Y5366874D01*
X7648026Y5382168D01*
X7648191Y5383000D01*
Y5431500D01*
X7727000D01*
Y5576500D01*
D02*
G37*
G36*
X10363759Y5267298D02*
X10332696D01*
Y5236234D01*
X10337710Y5237232D01*
X10352727Y5247266D01*
X10362762Y5262284D01*
X10363759Y5267298D01*
D02*
G37*
G36*
X10307296D02*
X10276232D01*
X10277230Y5262284D01*
X10287264Y5247266D01*
X10302281Y5237232D01*
X10307296Y5236234D01*
Y5267298D01*
D02*
G37*
G36*
X10203759D02*
X10172696D01*
Y5236234D01*
X10177710Y5237232D01*
X10192727Y5247266D01*
X10202762Y5262284D01*
X10203759Y5267298D01*
D02*
G37*
G36*
X10147296D02*
X10116232D01*
X10117230Y5262284D01*
X10127264Y5247266D01*
X10142281Y5237232D01*
X10147296Y5236234D01*
Y5267298D01*
D02*
G37*
G36*
X10043759D02*
X10012696D01*
Y5236234D01*
X10017710Y5237232D01*
X10032727Y5247266D01*
X10042762Y5262284D01*
X10043759Y5267298D01*
D02*
G37*
G36*
X9987296D02*
X9956232D01*
X9957230Y5262284D01*
X9967264Y5247266D01*
X9982282Y5237232D01*
X9987296Y5236234D01*
Y5267298D01*
D02*
G37*
G36*
X2553959Y5277300D02*
X2512700D01*
Y5236041D01*
X2521616Y5237815D01*
X2539941Y5250059D01*
X2552186Y5268384D01*
X2553959Y5277300D01*
D02*
G37*
G36*
X2500000Y5299800D02*
X2412100D01*
Y5274400D01*
X2446618D01*
X2447815Y5268384D01*
X2460059Y5250059D01*
X2478384Y5237815D01*
X2487300Y5236041D01*
Y5290000D01*
X2500000D01*
Y5299800D01*
D02*
G37*
G36*
X11112700Y5253959D02*
Y5212700D01*
X11153959D01*
X11152185Y5221616D01*
X11139941Y5239941D01*
X11121616Y5252186D01*
X11112700Y5253959D01*
D02*
G37*
G36*
X11087300D02*
X11078384Y5252186D01*
X11060059Y5239941D01*
X11047814Y5221616D01*
X11046041Y5212700D01*
X11087300D01*
Y5253959D01*
D02*
G37*
G36*
X10848700D02*
Y5212700D01*
X10889959D01*
X10888185Y5221616D01*
X10875941Y5239941D01*
X10857616Y5252186D01*
X10848700Y5253959D01*
D02*
G37*
G36*
X10823300D02*
X10814384Y5252186D01*
X10796059Y5239941D01*
X10783814Y5221616D01*
X10782041Y5212700D01*
X10823300D01*
Y5253959D01*
D02*
G37*
G36*
X10592700D02*
Y5212700D01*
X10633959D01*
X10632185Y5221616D01*
X10619941Y5239941D01*
X10601616Y5252186D01*
X10592700Y5253959D01*
D02*
G37*
G36*
X10567300D02*
X10558384Y5252186D01*
X10540059Y5239941D01*
X10527814Y5221616D01*
X10526041Y5212700D01*
X10567300D01*
Y5253959D01*
D02*
G37*
G36*
X9812527Y5249513D02*
X9781626Y5218612D01*
X9811820Y5188419D01*
X9842720Y5219319D01*
X9812527Y5249513D01*
D02*
G37*
G36*
X11153959Y5187300D02*
X11112700D01*
Y5146041D01*
X11121616Y5147814D01*
X11139941Y5160059D01*
X11152185Y5178384D01*
X11153959Y5187300D01*
D02*
G37*
G36*
X11087300D02*
X11046041D01*
X11047814Y5178384D01*
X11060059Y5160059D01*
X11078384Y5147814D01*
X11087300Y5146041D01*
Y5187300D01*
D02*
G37*
G36*
X10889959D02*
X10848700D01*
Y5146041D01*
X10857616Y5147814D01*
X10875941Y5160059D01*
X10888185Y5178384D01*
X10889959Y5187300D01*
D02*
G37*
G36*
X10823300D02*
X10782041D01*
X10783814Y5178384D01*
X10796059Y5160059D01*
X10814384Y5147814D01*
X10823300Y5146041D01*
Y5187300D01*
D02*
G37*
G36*
X10633959D02*
X10592700D01*
Y5146041D01*
X10601616Y5147814D01*
X10619941Y5160059D01*
X10632185Y5178384D01*
X10633959Y5187300D01*
D02*
G37*
G36*
X10567300D02*
X10526041D01*
X10527814Y5178384D01*
X10540059Y5160059D01*
X10558384Y5147814D01*
X10567300Y5146041D01*
Y5187300D01*
D02*
G37*
G36*
X11852695Y5163761D02*
Y5132698D01*
X11883759D01*
X11882761Y5137712D01*
X11872727Y5152730D01*
X11857709Y5162764D01*
X11852695Y5163761D01*
D02*
G37*
G36*
X11827295D02*
X11822281Y5162764D01*
X11807263Y5152730D01*
X11797229Y5137712D01*
X11796232Y5132698D01*
X11827295D01*
Y5163761D01*
D02*
G37*
G36*
X11692695D02*
Y5132698D01*
X11723759D01*
X11722761Y5137712D01*
X11712727Y5152730D01*
X11697709Y5162764D01*
X11692695Y5163761D01*
D02*
G37*
G36*
X11667295D02*
X11662281Y5162764D01*
X11647263Y5152730D01*
X11637229Y5137712D01*
X11636232Y5132698D01*
X11667295D01*
Y5163761D01*
D02*
G37*
G36*
X11532695D02*
Y5132698D01*
X11563759D01*
X11562761Y5137712D01*
X11552727Y5152730D01*
X11537709Y5162764D01*
X11532695Y5163761D01*
D02*
G37*
G36*
X11507295D02*
X11502281Y5162764D01*
X11487264Y5152730D01*
X11477229Y5137712D01*
X11476232Y5132698D01*
X11507295D01*
Y5163761D01*
D02*
G37*
G36*
X11372695D02*
Y5132698D01*
X11403759D01*
X11402761Y5137712D01*
X11392727Y5152730D01*
X11377710Y5162764D01*
X11372695Y5163761D01*
D02*
G37*
G36*
X11347295D02*
X11342281Y5162764D01*
X11327264Y5152730D01*
X11317229Y5137712D01*
X11316232Y5132698D01*
X11347295D01*
Y5163761D01*
D02*
G37*
G36*
X10412696D02*
Y5132698D01*
X10443759D01*
X10442762Y5137712D01*
X10432727Y5152730D01*
X10417710Y5162764D01*
X10412696Y5163761D01*
D02*
G37*
G36*
X10387296D02*
X10382281Y5162764D01*
X10367264Y5152730D01*
X10357230Y5137712D01*
X10356232Y5132698D01*
X10387296D01*
Y5163761D01*
D02*
G37*
G36*
X10252696D02*
Y5132698D01*
X10283759D01*
X10282762Y5137712D01*
X10272727Y5152730D01*
X10257710Y5162764D01*
X10252696Y5163761D01*
D02*
G37*
G36*
X10227296D02*
X10222282Y5162764D01*
X10207264Y5152730D01*
X10197230Y5137712D01*
X10196232Y5132698D01*
X10227296D01*
Y5163761D01*
D02*
G37*
G36*
X10092696D02*
Y5132698D01*
X10123759D01*
X10122762Y5137712D01*
X10112728Y5152730D01*
X10097710Y5162764D01*
X10092696Y5163761D01*
D02*
G37*
G36*
X10067296D02*
X10062282Y5162764D01*
X10047264Y5152730D01*
X10037230Y5137712D01*
X10036232Y5132698D01*
X10067296D01*
Y5163761D01*
D02*
G37*
G36*
X3200000Y5299667D02*
X3176792Y5296612D01*
X3155166Y5287654D01*
X3136596Y5273404D01*
X3122346Y5254834D01*
X3113388Y5233207D01*
X3110333Y5210000D01*
X3113388Y5186793D01*
X3122346Y5165166D01*
X3136596Y5146596D01*
X3155166Y5132346D01*
X3176792Y5123388D01*
X3200000Y5120333D01*
X3223207Y5123388D01*
X3244833Y5132346D01*
X3263404Y5146596D01*
X3277654Y5165166D01*
X3286612Y5186793D01*
X3289667Y5210000D01*
X3286612Y5233207D01*
X3277654Y5254834D01*
X3263404Y5273404D01*
X3244833Y5287654D01*
X3223207Y5296612D01*
X3200000Y5299667D01*
D02*
G37*
G36*
X5482700Y5143763D02*
Y5112700D01*
X5513763D01*
X5512766Y5117714D01*
X5502732Y5132732D01*
X5487714Y5142766D01*
X5482700Y5143763D01*
D02*
G37*
G36*
X5457300D02*
X5452286Y5142766D01*
X5437268Y5132732D01*
X5427234Y5117714D01*
X5426237Y5112700D01*
X5457300D01*
Y5143763D01*
D02*
G37*
G36*
X10982700Y5143959D02*
Y5102700D01*
X11023959D01*
X11022185Y5111616D01*
X11009941Y5129941D01*
X10991616Y5142186D01*
X10982700Y5143959D01*
D02*
G37*
G36*
X10957300D02*
X10948384Y5142186D01*
X10930059Y5129941D01*
X10917814Y5111616D01*
X10916041Y5102700D01*
X10957300D01*
Y5143959D01*
D02*
G37*
G36*
X10722700D02*
Y5102700D01*
X10763959D01*
X10762185Y5111616D01*
X10749941Y5129941D01*
X10731616Y5142186D01*
X10722700Y5143959D01*
D02*
G37*
G36*
X10697300D02*
X10688384Y5142186D01*
X10670059Y5129941D01*
X10657814Y5111616D01*
X10656041Y5102700D01*
X10697300D01*
Y5143959D01*
D02*
G37*
G36*
X11883759Y5107298D02*
X11852695D01*
Y5076234D01*
X11857709Y5077232D01*
X11872727Y5087266D01*
X11882761Y5102284D01*
X11883759Y5107298D01*
D02*
G37*
G36*
X11827295D02*
X11796232D01*
X11797229Y5102284D01*
X11807263Y5087266D01*
X11822281Y5077232D01*
X11827295Y5076234D01*
Y5107298D01*
D02*
G37*
G36*
X11723759D02*
X11692695D01*
Y5076234D01*
X11697709Y5077232D01*
X11712727Y5087266D01*
X11722761Y5102284D01*
X11723759Y5107298D01*
D02*
G37*
G36*
X11667295D02*
X11636232D01*
X11637229Y5102284D01*
X11647263Y5087266D01*
X11662281Y5077232D01*
X11667295Y5076234D01*
Y5107298D01*
D02*
G37*
G36*
X11563759D02*
X11532695D01*
Y5076234D01*
X11537709Y5077232D01*
X11552727Y5087266D01*
X11562761Y5102284D01*
X11563759Y5107298D01*
D02*
G37*
G36*
X11507295D02*
X11476232D01*
X11477229Y5102284D01*
X11487264Y5087266D01*
X11502281Y5077232D01*
X11507295Y5076234D01*
Y5107298D01*
D02*
G37*
G36*
X11403759D02*
X11372695D01*
Y5076234D01*
X11377710Y5077232D01*
X11392727Y5087266D01*
X11402761Y5102284D01*
X11403759Y5107298D01*
D02*
G37*
G36*
X11347295D02*
X11316232D01*
X11317229Y5102284D01*
X11327264Y5087266D01*
X11342281Y5077232D01*
X11347295Y5076234D01*
Y5107298D01*
D02*
G37*
G36*
X10443759D02*
X10412696D01*
Y5076234D01*
X10417710Y5077232D01*
X10432727Y5087266D01*
X10442762Y5102284D01*
X10443759Y5107298D01*
D02*
G37*
G36*
X10387296D02*
X10356232D01*
X10357230Y5102284D01*
X10367264Y5087266D01*
X10382281Y5077232D01*
X10387296Y5076234D01*
Y5107298D01*
D02*
G37*
G36*
X10283759D02*
X10252696D01*
Y5076234D01*
X10257710Y5077232D01*
X10272727Y5087266D01*
X10282762Y5102284D01*
X10283759Y5107298D01*
D02*
G37*
G36*
X10227296D02*
X10196232D01*
X10197230Y5102284D01*
X10207264Y5087266D01*
X10222282Y5077232D01*
X10227296Y5076234D01*
Y5107298D01*
D02*
G37*
G36*
X10123759D02*
X10092696D01*
Y5076234D01*
X10097710Y5077232D01*
X10112728Y5087266D01*
X10122762Y5102284D01*
X10123759Y5107298D01*
D02*
G37*
G36*
X10067296D02*
X10036232D01*
X10037230Y5102284D01*
X10047264Y5087266D01*
X10062282Y5077232D01*
X10067296Y5076234D01*
Y5107298D01*
D02*
G37*
G36*
X7840000Y5175000D02*
X7755000D01*
Y5065000D01*
X7840000D01*
Y5175000D01*
D02*
G37*
G36*
X5513763Y5087300D02*
X5482700D01*
Y5056237D01*
X5487714Y5057234D01*
X5502732Y5067268D01*
X5512766Y5082286D01*
X5513763Y5087300D01*
D02*
G37*
G36*
X5457300D02*
X5426237D01*
X5427234Y5082286D01*
X5437268Y5067268D01*
X5452286Y5057234D01*
X5457300Y5056237D01*
Y5087300D01*
D02*
G37*
G36*
X5720000Y5156485D02*
X5698384Y5152186D01*
X5680059Y5139941D01*
X5667814Y5121616D01*
X5663515Y5100000D01*
X5667814Y5078384D01*
X5680059Y5060059D01*
X5698384Y5047814D01*
X5720000Y5043515D01*
X5741616Y5047814D01*
X5759941Y5060059D01*
X5772186Y5078384D01*
X5776485Y5100000D01*
X5772186Y5121616D01*
X5759941Y5139941D01*
X5741616Y5152186D01*
X5720000Y5156485D01*
D02*
G37*
G36*
X11023959Y5077300D02*
X10982700D01*
Y5036041D01*
X10991616Y5037814D01*
X11009941Y5050059D01*
X11022185Y5068384D01*
X11023959Y5077300D01*
D02*
G37*
G36*
X10957300D02*
X10916041D01*
X10917814Y5068384D01*
X10930059Y5050059D01*
X10948384Y5037814D01*
X10957300Y5036041D01*
Y5077300D01*
D02*
G37*
G36*
X10763959D02*
X10722700D01*
Y5036041D01*
X10731616Y5037814D01*
X10749941Y5050059D01*
X10762185Y5068384D01*
X10763959Y5077300D01*
D02*
G37*
G36*
X10697300D02*
X10656041D01*
X10657814Y5068384D01*
X10670059Y5050059D01*
X10688384Y5037814D01*
X10697300Y5036041D01*
Y5077300D01*
D02*
G37*
G36*
X11112700Y5033959D02*
Y4992700D01*
X11153959D01*
X11152185Y5001616D01*
X11139941Y5019941D01*
X11121616Y5032186D01*
X11112700Y5033959D01*
D02*
G37*
G36*
X11087300D02*
X11078384Y5032186D01*
X11060059Y5019941D01*
X11047814Y5001616D01*
X11046041Y4992700D01*
X11087300D01*
Y5033959D01*
D02*
G37*
G36*
X10852700D02*
Y4992700D01*
X10893959D01*
X10892185Y5001616D01*
X10879941Y5019941D01*
X10861616Y5032186D01*
X10852700Y5033959D01*
D02*
G37*
G36*
X10827300D02*
X10818384Y5032186D01*
X10800059Y5019941D01*
X10787814Y5001616D01*
X10786041Y4992700D01*
X10827300D01*
Y5033959D01*
D02*
G37*
G36*
X10592700D02*
Y4992700D01*
X10633959D01*
X10632185Y5001616D01*
X10619941Y5019941D01*
X10601616Y5032186D01*
X10592700Y5033959D01*
D02*
G37*
G36*
X10567300D02*
X10558384Y5032186D01*
X10540059Y5019941D01*
X10527814Y5001616D01*
X10526041Y4992700D01*
X10567300D01*
Y5033959D01*
D02*
G37*
G36*
X9830680Y5052720D02*
X9800487Y5022527D01*
X9831388Y4991626D01*
X9861581Y5021820D01*
X9830680Y5052720D01*
D02*
G37*
G36*
X8162900Y5035400D02*
X8102700D01*
Y4977700D01*
X8162900D01*
Y5035400D01*
D02*
G37*
G36*
X8077300D02*
X8017100D01*
Y4977700D01*
X8077300D01*
Y5035400D01*
D02*
G37*
G36*
X2379224Y5077300D02*
X2277200D01*
Y4975276D01*
X2294626Y4977570D01*
X2322698Y4989199D01*
X2346804Y5007696D01*
X2365302Y5031802D01*
X2376930Y5059875D01*
X2379224Y5077300D01*
D02*
G37*
G36*
X2251800D02*
X2149776D01*
X2152071Y5059875D01*
X2163699Y5031802D01*
X2182196Y5007696D01*
X2206302Y4989199D01*
X2234375Y4977570D01*
X2251800Y4975276D01*
Y5077300D01*
D02*
G37*
G36*
X11907295Y5003761D02*
X11902281Y5002764D01*
X11887263Y4992730D01*
X11877229Y4977712D01*
X11876232Y4972698D01*
X11907295D01*
Y5003761D01*
D02*
G37*
G36*
X11772695D02*
Y4972698D01*
X11803758D01*
X11802761Y4977712D01*
X11792727Y4992730D01*
X11777709Y5002764D01*
X11772695Y5003761D01*
D02*
G37*
G36*
X11747295D02*
X11742281Y5002764D01*
X11727263Y4992730D01*
X11717229Y4977712D01*
X11716232Y4972698D01*
X11747295D01*
Y5003761D01*
D02*
G37*
G36*
X11612695D02*
Y4972698D01*
X11643759D01*
X11642761Y4977712D01*
X11632727Y4992730D01*
X11617709Y5002764D01*
X11612695Y5003761D01*
D02*
G37*
G36*
X11587295D02*
X11582281Y5002764D01*
X11567263Y4992730D01*
X11557229Y4977712D01*
X11556232Y4972698D01*
X11587295D01*
Y5003761D01*
D02*
G37*
G36*
X11452695D02*
Y4972698D01*
X11483759D01*
X11482761Y4977712D01*
X11472727Y4992730D01*
X11457709Y5002764D01*
X11452695Y5003761D01*
D02*
G37*
G36*
X11427295D02*
X11422281Y5002764D01*
X11407263Y4992730D01*
X11397229Y4977712D01*
X11396232Y4972698D01*
X11427295D01*
Y5003761D01*
D02*
G37*
G36*
X11292695D02*
Y4972698D01*
X11323759D01*
X11322761Y4977712D01*
X11312727Y4992730D01*
X11297709Y5002764D01*
X11292695Y5003761D01*
D02*
G37*
G36*
X11267295D02*
X11262281Y5002764D01*
X11247264Y4992730D01*
X11237229Y4977712D01*
X11236232Y4972698D01*
X11267295D01*
Y5003761D01*
D02*
G37*
G36*
X3512700Y5024379D02*
Y4962700D01*
X3574379D01*
X3573459Y4969683D01*
X3565862Y4988025D01*
X3553776Y5003776D01*
X3538025Y5015862D01*
X3519683Y5023459D01*
X3512700Y5024379D01*
D02*
G37*
G36*
X3487300D02*
X3480316Y5023459D01*
X3461975Y5015862D01*
X3446224Y5003776D01*
X3434138Y4988025D01*
X3426541Y4969683D01*
X3425621Y4962700D01*
X3487300D01*
Y5024379D01*
D02*
G37*
G36*
X8309400Y5022301D02*
X8250000D01*
X8190600D01*
Y4975600D01*
X8201701D01*
X8207268Y4967268D01*
X8222286Y4957234D01*
X8227300Y4956236D01*
Y5000000D01*
X8252700D01*
Y4956236D01*
X8257714Y4957234D01*
X8272732Y4967268D01*
X8278299Y4975600D01*
X8309400D01*
Y5022301D01*
D02*
G37*
G36*
X11153959Y4967300D02*
X11112700D01*
Y4926041D01*
X11121616Y4927814D01*
X11139941Y4940059D01*
X11152185Y4958384D01*
X11153959Y4967300D01*
D02*
G37*
G36*
X11087300D02*
X11046041D01*
X11047814Y4958384D01*
X11060059Y4940059D01*
X11078384Y4927814D01*
X11087300Y4926041D01*
Y4967300D01*
D02*
G37*
G36*
X10893959D02*
X10852700D01*
Y4926041D01*
X10861616Y4927814D01*
X10879941Y4940059D01*
X10892185Y4958384D01*
X10893959Y4967300D01*
D02*
G37*
G36*
X10827300D02*
X10786041D01*
X10787814Y4958384D01*
X10800059Y4940059D01*
X10818384Y4927814D01*
X10827300Y4926041D01*
Y4967300D01*
D02*
G37*
G36*
X10633959D02*
X10592700D01*
Y4926041D01*
X10601616Y4927814D01*
X10619941Y4940059D01*
X10632185Y4958384D01*
X10633959Y4967300D01*
D02*
G37*
G36*
X10567300D02*
X10526041D01*
X10527814Y4958384D01*
X10540059Y4940059D01*
X10558384Y4927814D01*
X10567300Y4926041D01*
Y4967300D01*
D02*
G37*
G36*
X11907295Y4947298D02*
X11876232D01*
X11877229Y4942284D01*
X11887263Y4927266D01*
X11902281Y4917232D01*
X11907295Y4916235D01*
Y4947298D01*
D02*
G37*
G36*
X11803758D02*
X11772695D01*
Y4916235D01*
X11777709Y4917232D01*
X11792727Y4927266D01*
X11802761Y4942284D01*
X11803758Y4947298D01*
D02*
G37*
G36*
X11747295D02*
X11716232D01*
X11717229Y4942284D01*
X11727263Y4927266D01*
X11742281Y4917232D01*
X11747295Y4916235D01*
Y4947298D01*
D02*
G37*
G36*
X11643759D02*
X11612695D01*
Y4916235D01*
X11617709Y4917232D01*
X11632727Y4927266D01*
X11642761Y4942284D01*
X11643759Y4947298D01*
D02*
G37*
G36*
X11587295D02*
X11556232D01*
X11557229Y4942284D01*
X11567263Y4927266D01*
X11582281Y4917232D01*
X11587295Y4916235D01*
Y4947298D01*
D02*
G37*
G36*
X11483759D02*
X11452695D01*
Y4916235D01*
X11457709Y4917232D01*
X11472727Y4927266D01*
X11482761Y4942284D01*
X11483759Y4947298D01*
D02*
G37*
G36*
X11427295D02*
X11396232D01*
X11397229Y4942284D01*
X11407263Y4927266D01*
X11422281Y4917232D01*
X11427295Y4916235D01*
Y4947298D01*
D02*
G37*
G36*
X11323759D02*
X11292695D01*
Y4916235D01*
X11297709Y4917232D01*
X11312727Y4927266D01*
X11322761Y4942284D01*
X11323759Y4947298D01*
D02*
G37*
G36*
X11267295D02*
X11236232D01*
X11237229Y4942284D01*
X11247264Y4927266D01*
X11262281Y4917232D01*
X11267295Y4916235D01*
Y4947298D01*
D02*
G37*
G36*
X2690000Y5079667D02*
X2666792Y5076612D01*
X2645166Y5067654D01*
X2626596Y5053404D01*
X2612346Y5034833D01*
X2603388Y5013207D01*
X2600333Y4990000D01*
X2603388Y4966792D01*
X2612346Y4945166D01*
X2626596Y4926596D01*
X2645166Y4912346D01*
X2666792Y4903388D01*
X2690000Y4900333D01*
X2713207Y4903388D01*
X2734833Y4912346D01*
X2753404Y4926596D01*
X2767654Y4945166D01*
X2776612Y4966792D01*
X2779667Y4990000D01*
X2776612Y5013207D01*
X2767654Y5034833D01*
X2753404Y5053404D01*
X2734833Y5067654D01*
X2713207Y5076612D01*
X2690000Y5079667D01*
D02*
G37*
G36*
X3190000Y5036051D02*
X3170316Y5033459D01*
X3151975Y5025862D01*
X3136224Y5013776D01*
X3124138Y4998025D01*
X3116541Y4979683D01*
X3113949Y4960000D01*
X3116541Y4940317D01*
X3124138Y4921975D01*
X3136224Y4906224D01*
X3151975Y4894138D01*
X3170316Y4886541D01*
X3190000Y4883949D01*
X3209683Y4886541D01*
X3228025Y4894138D01*
X3243776Y4906224D01*
X3255862Y4921975D01*
X3263459Y4940317D01*
X3266051Y4960000D01*
X3263459Y4979683D01*
X3255862Y4998025D01*
X3243776Y5013776D01*
X3228025Y5025862D01*
X3209683Y5033459D01*
X3190000Y5036051D01*
D02*
G37*
G36*
X3574379Y4937300D02*
X3512700D01*
Y4875621D01*
X3519683Y4876541D01*
X3538025Y4884138D01*
X3553776Y4896224D01*
X3565862Y4911975D01*
X3573459Y4930317D01*
X3574379Y4937300D01*
D02*
G37*
G36*
X3487300D02*
X3425621D01*
X3426541Y4930317D01*
X3434138Y4911975D01*
X3446224Y4896224D01*
X3461975Y4884138D01*
X3480316Y4876541D01*
X3487300Y4875621D01*
Y4937300D01*
D02*
G37*
G36*
X1784800Y5007300D02*
X1644358D01*
X1646073Y4989879D01*
X1654859Y4960916D01*
X1669127Y4934224D01*
X1688328Y4910827D01*
X1711724Y4891626D01*
X1738416Y4877359D01*
X1767379Y4868573D01*
X1784800Y4866857D01*
Y5007300D01*
D02*
G37*
G36*
X1950643D02*
X1810200D01*
Y4866857D01*
X1827621Y4868573D01*
X1856584Y4877359D01*
X1883276Y4891626D01*
X1906673Y4910827D01*
X1925873Y4934224D01*
X1940141Y4960916D01*
X1948927Y4989879D01*
X1950643Y5007300D01*
D02*
G37*
G36*
X11852695Y4843761D02*
Y4812698D01*
X11883759D01*
X11882761Y4817712D01*
X11872727Y4832730D01*
X11857709Y4842764D01*
X11852695Y4843761D01*
D02*
G37*
G36*
X11827295D02*
X11822281Y4842764D01*
X11807263Y4832730D01*
X11797229Y4817712D01*
X11796232Y4812698D01*
X11827295D01*
Y4843761D01*
D02*
G37*
G36*
X11692695D02*
Y4812698D01*
X11723759D01*
X11722761Y4817712D01*
X11712727Y4832730D01*
X11697709Y4842764D01*
X11692695Y4843761D01*
D02*
G37*
G36*
X11667295D02*
X11662281Y4842764D01*
X11647263Y4832730D01*
X11637229Y4817712D01*
X11636232Y4812698D01*
X11667295D01*
Y4843761D01*
D02*
G37*
G36*
X11532695D02*
Y4812698D01*
X11563759D01*
X11562761Y4817712D01*
X11552727Y4832730D01*
X11537709Y4842764D01*
X11532695Y4843761D01*
D02*
G37*
G36*
X11507295D02*
X11502281Y4842764D01*
X11487264Y4832730D01*
X11477229Y4817712D01*
X11476232Y4812698D01*
X11507295D01*
Y4843761D01*
D02*
G37*
G36*
X11372695D02*
Y4812698D01*
X11403759D01*
X11402761Y4817712D01*
X11392727Y4832730D01*
X11377710Y4842764D01*
X11372695Y4843761D01*
D02*
G37*
G36*
X11347295D02*
X11342281Y4842764D01*
X11327264Y4832730D01*
X11317229Y4817712D01*
X11316232Y4812698D01*
X11347295D01*
Y4843761D01*
D02*
G37*
G36*
X7343900Y4864900D02*
X7293700D01*
Y4807000D01*
Y4749100D01*
X7343900D01*
Y4764500D01*
X7438500D01*
Y4773907D01*
X7527500D01*
Y4770000D01*
X7622500D01*
Y4850000D01*
X7527500D01*
Y4846093D01*
X7438500D01*
Y4849500D01*
X7343900D01*
Y4864900D01*
D02*
G37*
G36*
X11883759Y4787298D02*
X11852695D01*
Y4756235D01*
X11857709Y4757232D01*
X11872727Y4767266D01*
X11882761Y4782284D01*
X11883759Y4787298D01*
D02*
G37*
G36*
X11827295D02*
X11796232D01*
X11797229Y4782284D01*
X11807263Y4767266D01*
X11822281Y4757232D01*
X11827295Y4756235D01*
Y4787298D01*
D02*
G37*
G36*
X11723759D02*
X11692695D01*
Y4756235D01*
X11697709Y4757232D01*
X11712727Y4767266D01*
X11722761Y4782284D01*
X11723759Y4787298D01*
D02*
G37*
G36*
X11667295D02*
X11636232D01*
X11637229Y4782284D01*
X11647263Y4767266D01*
X11662281Y4757232D01*
X11667295Y4756235D01*
Y4787298D01*
D02*
G37*
G36*
X11563759D02*
X11532695D01*
Y4756235D01*
X11537709Y4757232D01*
X11552727Y4767266D01*
X11562761Y4782284D01*
X11563759Y4787298D01*
D02*
G37*
G36*
X11507295D02*
X11476232D01*
X11477229Y4782284D01*
X11487264Y4767266D01*
X11502281Y4757232D01*
X11507295Y4756235D01*
Y4787298D01*
D02*
G37*
G36*
X11403759D02*
X11372695D01*
Y4756235D01*
X11377710Y4757232D01*
X11392727Y4767266D01*
X11402761Y4782284D01*
X11403759Y4787298D01*
D02*
G37*
G36*
X11347295D02*
X11316232D01*
X11317229Y4782284D01*
X11327264Y4767266D01*
X11342281Y4757232D01*
X11347295Y4756235D01*
Y4787298D01*
D02*
G37*
G36*
X10312700Y4793763D02*
Y4750000D01*
X10287300D01*
Y4793763D01*
X10282286Y4792766D01*
X10267268Y4782732D01*
X10257234Y4767714D01*
X10256376Y4763400D01*
X10242100D01*
Y4612700D01*
X10299999D01*
X10357900D01*
Y4763400D01*
X10343624D01*
X10342766Y4767714D01*
X10332732Y4782732D01*
X10317714Y4792766D01*
X10312700Y4793763D01*
D02*
G37*
G36*
X7268300Y4864900D02*
X7218100D01*
Y4848320D01*
X7210286Y4846766D01*
X7195268Y4836732D01*
X7185234Y4821714D01*
X7184237Y4816700D01*
X7228000D01*
Y4791300D01*
X7184237D01*
X7185234Y4786286D01*
X7195268Y4771268D01*
X7210286Y4761234D01*
X7218100Y4759680D01*
Y4749100D01*
X7268300D01*
Y4807000D01*
Y4864900D01*
D02*
G37*
G36*
X7338900Y4579900D02*
X7288700D01*
Y4522000D01*
Y4464100D01*
X7338900D01*
Y4479500D01*
X7433500D01*
Y4483906D01*
X7530500D01*
Y4480000D01*
X7625500D01*
Y4560000D01*
X7530500D01*
Y4556093D01*
X7433500D01*
Y4564500D01*
X7338900D01*
Y4579900D01*
D02*
G37*
G36*
X7263300D02*
X7213100D01*
Y4559923D01*
X7207286Y4558766D01*
X7192268Y4548732D01*
X7182234Y4533714D01*
X7181237Y4528700D01*
X7225000D01*
Y4503300D01*
X7181237D01*
X7182234Y4498286D01*
X7192268Y4483268D01*
X7207286Y4473234D01*
X7213100Y4472078D01*
Y4464100D01*
X7263300D01*
Y4522000D01*
Y4579900D01*
D02*
G37*
G36*
X10820000Y4786289D02*
X10802286Y4782766D01*
X10787268Y4772732D01*
X10777234Y4757714D01*
X10775302Y4748000D01*
X10765500D01*
Y4452000D01*
X10850500D01*
Y4705777D01*
X10852732Y4707268D01*
X10862766Y4722286D01*
X10866289Y4740000D01*
X10862766Y4757714D01*
X10852732Y4772732D01*
X10837714Y4782766D01*
X10820000Y4786289D01*
D02*
G37*
G36*
X3337000Y4580218D02*
X3301841Y4576755D01*
X3268034Y4566500D01*
X3236876Y4549846D01*
X3209567Y4527433D01*
X3187154Y4500124D01*
X3170500Y4468966D01*
X3160245Y4435159D01*
X3156782Y4400000D01*
X3160245Y4364841D01*
X3170500Y4331034D01*
X3187154Y4299876D01*
X3209567Y4272567D01*
X3236876Y4250155D01*
X3268034Y4233501D01*
X3301841Y4223245D01*
X3337000Y4219782D01*
X3372159Y4223245D01*
X3405966Y4233501D01*
X3437124Y4250155D01*
X3464433Y4272567D01*
X3486845Y4299876D01*
X3503499Y4331034D01*
X3513755Y4364841D01*
X3517218Y4400000D01*
X3513755Y4435159D01*
X3503499Y4468966D01*
X3486845Y4500124D01*
X3464433Y4527433D01*
X3437124Y4549846D01*
X3405966Y4566500D01*
X3372159Y4576755D01*
X3337000Y4580218D01*
D02*
G37*
G36*
X7351900Y4300900D02*
X7301700D01*
Y4243000D01*
Y4185100D01*
X7351900D01*
Y4200500D01*
X7446500D01*
Y4203907D01*
X7514500D01*
Y4200000D01*
X7609500D01*
Y4280000D01*
X7514500D01*
Y4276093D01*
X7446500D01*
Y4285500D01*
X7351900D01*
Y4300900D01*
D02*
G37*
G36*
X8590000Y4286289D02*
X8572286Y4282766D01*
X8557268Y4272732D01*
X8547234Y4257714D01*
X8543711Y4240000D01*
X8547234Y4222286D01*
X8557268Y4207268D01*
X8572286Y4197234D01*
X8590000Y4193710D01*
X8607714Y4197234D01*
X8622732Y4207268D01*
X8623221Y4208000D01*
X8713000D01*
Y4273000D01*
X8622330D01*
X8607714Y4282766D01*
X8590000Y4286289D01*
D02*
G37*
G36*
X7276300Y4300900D02*
X7226100D01*
Y4282922D01*
X7220286Y4281766D01*
X7205268Y4271732D01*
X7195234Y4256714D01*
X7194237Y4251700D01*
X7238000D01*
Y4226300D01*
X7194237D01*
X7195234Y4221286D01*
X7205268Y4206268D01*
X7220286Y4196234D01*
X7226100Y4195077D01*
Y4185100D01*
X7276300D01*
Y4243000D01*
Y4300900D01*
D02*
G37*
G36*
X11600000Y4726406D02*
X11548939Y4722388D01*
X11499135Y4710431D01*
X11451815Y4690830D01*
X11408143Y4664068D01*
X11369196Y4630804D01*
X11335932Y4591857D01*
X11309170Y4548185D01*
X11289569Y4500865D01*
X11277612Y4451061D01*
X11273594Y4400000D01*
X11277612Y4348939D01*
X11289569Y4299135D01*
X11309170Y4251815D01*
X11335932Y4208143D01*
X11369196Y4169196D01*
X11408143Y4135932D01*
X11451815Y4109170D01*
X11499135Y4089569D01*
X11548939Y4077613D01*
X11600000Y4073594D01*
X11651061Y4077613D01*
X11700865Y4089569D01*
X11748185Y4109170D01*
X11791857Y4135932D01*
X11830804Y4169196D01*
X11864068Y4208143D01*
X11890830Y4251815D01*
X11910431Y4299135D01*
X11922387Y4348939D01*
X11926406Y4400000D01*
X11922387Y4451061D01*
X11910431Y4500865D01*
X11890830Y4548185D01*
X11864068Y4591857D01*
X11830804Y4630804D01*
X11791857Y4664068D01*
X11748185Y4690830D01*
X11700865Y4710431D01*
X11651061Y4722388D01*
X11600000Y4726406D01*
D02*
G37*
G36*
X2000000D02*
X1948939Y4722388D01*
X1899135Y4710431D01*
X1851815Y4690830D01*
X1808143Y4664068D01*
X1769196Y4630804D01*
X1735932Y4591857D01*
X1709170Y4548185D01*
X1689569Y4500865D01*
X1677613Y4451061D01*
X1673594Y4400000D01*
X1677613Y4348939D01*
X1689569Y4299135D01*
X1709170Y4251815D01*
X1735932Y4208143D01*
X1769196Y4169196D01*
X1808143Y4135932D01*
X1851815Y4109170D01*
X1899135Y4089569D01*
X1948939Y4077613D01*
X2000000Y4073594D01*
X2051061Y4077613D01*
X2100865Y4089569D01*
X2148185Y4109170D01*
X2191857Y4135932D01*
X2230804Y4169196D01*
X2264068Y4208143D01*
X2290830Y4251815D01*
X2310431Y4299135D01*
X2322388Y4348939D01*
X2326406Y4400000D01*
X2322388Y4451061D01*
X2310431Y4500865D01*
X2290830Y4548185D01*
X2264068Y4591857D01*
X2230804Y4630804D01*
X2191857Y4664068D01*
X2148185Y4690830D01*
X2100865Y4710431D01*
X2051061Y4722388D01*
X2000000Y4726406D01*
D02*
G37*
G36*
X9128400Y4291301D02*
X8928000D01*
X8727600D01*
Y4073600D01*
X8759725D01*
X8768384Y4067814D01*
X8777300Y4066041D01*
Y4120000D01*
X8802700D01*
Y4066041D01*
X8811616Y4067814D01*
X8820275Y4073600D01*
X8899725D01*
X8908384Y4067814D01*
X8917300Y4066041D01*
Y4120000D01*
X8942700D01*
Y4066041D01*
X8951616Y4067814D01*
X8960275Y4073600D01*
X9039725D01*
X9048384Y4067814D01*
X9057300Y4066041D01*
Y4120000D01*
X9082700D01*
Y4066041D01*
X9091616Y4067814D01*
X9100275Y4073600D01*
X9128400D01*
Y4291301D01*
D02*
G37*
G36*
X8580000Y4156289D02*
X8562286Y4152766D01*
X8547268Y4142732D01*
X8537234Y4127714D01*
X8533711Y4110000D01*
X8537234Y4092286D01*
X8547268Y4077268D01*
X8562286Y4067234D01*
X8580000Y4063710D01*
X8597714Y4067234D01*
X8612732Y4077268D01*
X8615225Y4081000D01*
X8713000D01*
Y4146000D01*
X8607841D01*
X8597714Y4152766D01*
X8580000Y4156289D01*
D02*
G37*
%LPD*%
G36*
X7046710Y6697349D02*
X7063999Y6690188D01*
X7079559Y6679791D01*
X7092791Y6666559D01*
X7103188Y6650999D01*
X7110349Y6633710D01*
X7114000Y6615357D01*
Y6606000D01*
Y6084000D01*
Y6074054D01*
X7106388Y6055677D01*
X7092323Y6041612D01*
X7073945Y6034000D01*
X7029945D01*
Y6075904D01*
X6832145D01*
Y6053000D01*
X6805445D01*
Y6074904D01*
X6692645D01*
Y6053000D01*
X6670445D01*
Y6075904D01*
X6615045D01*
X6559646D01*
Y6053000D01*
X6471000D01*
X6465733Y6052481D01*
X6461166Y6050589D01*
X6449181Y6057119D01*
X6448564Y6057904D01*
X6390046D01*
Y6070604D01*
X6377346D01*
Y6188714D01*
X6364300D01*
X6355326Y6197701D01*
X6356000Y6666000D01*
Y6672962D01*
X6361328Y6685826D01*
X6371174Y6695671D01*
X6384038Y6701000D01*
X7028357D01*
X7046710Y6697349D01*
D02*
G37*
%LPC*%
G36*
X7029945Y6162504D02*
X6943745D01*
Y6101304D01*
X7029945D01*
Y6162504D01*
D02*
G37*
G36*
X6918345D02*
X6832145D01*
Y6101304D01*
X6918345D01*
Y6162504D01*
D02*
G37*
G36*
X6670445Y6149004D02*
X6627745D01*
Y6101304D01*
X6670445D01*
Y6149004D01*
D02*
G37*
G36*
X6602345D02*
X6559646D01*
Y6101304D01*
X6602345D01*
Y6149004D01*
D02*
G37*
G36*
X6805445Y6143004D02*
X6761745D01*
Y6100304D01*
X6805445D01*
Y6143004D01*
D02*
G37*
G36*
X6736345D02*
X6692645D01*
Y6100304D01*
X6736345D01*
Y6143004D01*
D02*
G37*
G36*
X6448465Y6188714D02*
X6402746D01*
Y6083304D01*
X6448465D01*
Y6188714D01*
D02*
G37*
G36*
X9747296Y5483761D02*
X9742282Y5482764D01*
X9727264Y5472729D01*
X9717230Y5457712D01*
X9716233Y5452698D01*
X9747296D01*
Y5483761D01*
D02*
G37*
G36*
X9643764Y5467300D02*
X9612700D01*
Y5436237D01*
X9617714Y5437234D01*
X9632732Y5447268D01*
X9642766Y5462286D01*
X9643764Y5467300D01*
D02*
G37*
G36*
X9587300D02*
X9556237D01*
X9557234Y5462286D01*
X9567268Y5447268D01*
X9582286Y5437234D01*
X9587300Y5436237D01*
Y5467300D01*
D02*
G37*
G36*
X9452699Y5446463D02*
Y5402700D01*
X9490400D01*
Y5435400D01*
X9472752D01*
X9472731Y5435432D01*
X9457713Y5445466D01*
X9452699Y5446463D01*
D02*
G37*
%LPD*%
D10*
X8380332Y5293743D02*
G03*
X8275193Y5250193I0J-148689D01*
G01*
X9320000Y5670000D02*
G03*
X9283189Y5654752I0J-52059D01*
G01*
X9440000Y5310000D02*
G03*
X9430000Y5285858I24142J-24142D01*
G01*
X9390752Y5243743D02*
G03*
X9430000Y5260000I0J55505D01*
G01*
X9330751Y5293743D02*
G03*
X9370000Y5310000I0J55506D01*
G01*
X7924142Y4690000D02*
G03*
X7811230Y4643230I-0J-159682D01*
G01*
X8259000Y5344000D02*
G03*
X8380332Y5293743I121332J121332D01*
G01*
X8540000Y4640000D02*
G03*
X8602179Y4790114I-150114J150114D01*
G01*
X8510000Y4700000D02*
G03*
X8552179Y4801830I-101830J101830D01*
G01*
X8920000Y4725858D02*
G03*
X8910000Y4750000I-34142J0D01*
G01*
X8902179Y4768881D02*
G03*
X8910000Y4750000I26701J0D01*
G01*
X9346574Y5850574D02*
G03*
X9272179Y5670969I179605J-179605D01*
G01*
X8737715Y5858000D02*
G03*
X8786000Y5878000I0J68285D01*
G01*
X8290000Y5430000D02*
G03*
X8326257Y5393743I36257J0D01*
G01*
X6176208Y6095000D02*
G03*
X6172735Y6094696I0J-20001D01*
G01*
X6103241Y6085014D02*
G03*
X6119509Y6085422I6759J54986D01*
G01*
X6235105Y6070604D02*
G03*
X6176208Y6095000I-58897J-58897D01*
G01*
X8916887Y6126888D02*
G03*
X8948000Y6202000I-75112J75112D01*
G01*
X8688284Y6060000D02*
G03*
X8640000Y6040000I0J-68284D01*
G01*
X8626568Y6026569D02*
G03*
X8570000Y5890000I136569J-136569D01*
G01*
Y5838285D02*
G03*
X8590000Y5790000I68285J0D01*
G01*
X8602179Y5760597D02*
G03*
X8590000Y5790000I-41582J0D01*
G01*
X8574395Y6048395D02*
G03*
X8500000Y5868790I179605J-179605D01*
G01*
X8552179Y5724028D02*
G03*
X8500000Y5850000I-178151J0D01*
G01*
X8423000Y5924000D02*
G03*
X8477447Y5792553I185894J0D01*
G01*
X8500000Y5719004D02*
G03*
X8502179Y5713743I7440J0D01*
G01*
X8326000Y5856946D02*
G03*
X8352179Y5793743I89383J0D01*
G01*
X8418037Y5727885D02*
G03*
X8452179Y5713743I34143J34143D01*
G01*
X8122427Y4640000D02*
G03*
X8050000Y4610000I0J-102427D01*
G01*
X8050000D02*
G03*
X8036343Y4604343I0J-19314D01*
G01*
X8475858Y4740000D02*
G03*
X8500000Y4750000I0J34142D01*
G01*
X8502179Y4823743D02*
G03*
X8500000Y4818482I5261J-5261D01*
G01*
X8220000Y4740000D02*
G03*
X8051005Y4810000I-168995J-168995D01*
G01*
X7399000Y4243000D02*
G03*
X7406242Y4240000I7243J7243D01*
G01*
X7386000Y4522000D02*
G03*
X7390828Y4520000I4829J4829D01*
G01*
X7398242Y4810000D02*
G03*
X7391000Y4807000I0J-10243D01*
G01*
X8114142Y5125000D02*
G03*
X8090000Y5115000I0J-34141D01*
G01*
X7942500Y5120000D02*
G03*
X7954570Y5115000I12070J12070D01*
G01*
X8295249Y5143743D02*
G03*
X8250000Y5125000I0J-63992D01*
G01*
X7921691Y5692195D02*
G03*
X7891786Y5679808I0J-42292D01*
G01*
X8152828Y5618138D02*
G03*
X8332433Y5543743I179605J179605D01*
G01*
X8382179Y5643743D02*
G03*
X8265676Y5692000I-116503J-116503D01*
G01*
X8262954Y5493743D02*
G03*
X8083348Y5419348I0J-254000D01*
G01*
X7891786Y5429808D02*
G03*
X7920293Y5418000I28507J28507D01*
G01*
X9353787Y5857787D02*
G03*
X9365949Y5852750I12162J12162D01*
G01*
X9202179Y5713743D02*
G03*
X9221000Y5759181I-45438J45438D01*
G01*
X9052179Y5742514D02*
G03*
X9006000Y5854000I-157666J0D01*
G01*
X8901027Y5856973D02*
G03*
X8908243Y5854000I7215J7270D01*
G01*
X8901000Y5857000D02*
G03*
X8901027Y5856973I7243J7243D01*
G01*
X8902179Y5854153D02*
G03*
X8901027Y5856973I-4026J0D01*
G01*
X8901000Y5857000D02*
G03*
X8850301Y5878000I-50699J-50699D01*
G01*
X9002179Y5713743D02*
G03*
X9006000Y5722967I-9225J9225D01*
G01*
X8652179Y5713743D02*
G03*
X8654000Y5718138I-4395J4395D01*
G01*
X8849000Y4723000D02*
G03*
X8852179Y4730675I-7675J7675D01*
G01*
X9104000Y4819347D02*
G03*
X9102179Y4823743I-6217J0D01*
G01*
X6071046Y6194046D02*
Y6404824D01*
X6052000Y6175000D02*
X6071046Y6194046D01*
X6022000Y6175000D02*
X6052000D01*
X9272179Y5643743D02*
X9283189Y5654752D01*
X9320000Y5670000D02*
X9340000D01*
X9430000Y5260000D02*
Y5285858D01*
X9272179Y5243743D02*
X9390752D01*
X9272179Y5293743D02*
X9330751D01*
X7924142Y4690000D02*
X8500000D01*
X8510000Y4700000D01*
X8122427Y4640000D02*
X8540000D01*
X7688000Y4520000D02*
X7811230Y4643230D01*
X8602179Y4790114D02*
Y4823743D01*
X8910000Y4720000D02*
X8914142D01*
X8920000Y4725858D01*
X8902179Y4768881D02*
Y4823743D01*
X9272179Y5643743D02*
Y5670969D01*
X8786000Y5878000D02*
X8850301D01*
X8654000Y5858000D02*
X8737715D01*
X8326257Y5393743D02*
X8382179D01*
X6119509Y6085422D02*
X6172735Y6094696D01*
X6022000Y6095000D02*
X6103241Y6085014D01*
X9609159Y5011198D02*
X9651912Y4968445D01*
X8850000Y6060000D02*
X8916887Y6126887D01*
X8688284Y6060000D02*
X8850000D01*
X8626568Y6026569D02*
X8640000Y6040000D01*
X8570000Y5838285D02*
Y5890000D01*
X8602179Y5713743D02*
Y5760597D01*
X8574395Y6048395D02*
X8728000Y6202000D01*
X8552179Y5713743D02*
Y5724028D01*
X8500000Y5850000D02*
Y5868790D01*
X8477447Y5792553D02*
X8500000Y5770000D01*
X8352179Y5793743D02*
X8418037Y5727885D01*
X8500000Y5719004D02*
Y5770000D01*
X9104000Y4723000D02*
Y4819347D01*
X7672000Y4240000D02*
X8036343Y4604343D01*
X8552179Y4801830D02*
Y4823743D01*
X8500000Y4750000D02*
Y4818482D01*
X8220000Y4740000D02*
X8475858D01*
X7685000Y4810000D02*
X8051005D01*
X7406242Y4240000D02*
X7562000D01*
X7390828Y4520000D02*
X7578000D01*
X7398242Y4810000D02*
X7575000D01*
X8114142Y5125000D02*
X8250000D01*
X7954570Y5115000D02*
X8090000D01*
X8295249Y5143743D02*
X8382179D01*
X8078770Y5692195D02*
X8152828Y5618138D01*
X7921691Y5692195D02*
X8078770D01*
X8332433Y5543743D02*
X8382179D01*
X8245000Y5692000D02*
X8265676D01*
X8082000Y5418000D02*
X8083348Y5419348D01*
X7920293Y5418000D02*
X8082000D01*
X8262954Y5493743D02*
X8382179D01*
X9346574Y5850574D02*
X9353787Y5857787D01*
X9365949Y5852750D02*
X9490000D01*
X9221000Y5759181D02*
Y5865000D01*
X9006000Y5722967D02*
Y5854000D01*
X8902179Y5713743D02*
Y5854153D01*
X8908243Y5854000D02*
X9006000D01*
X9052179Y5713743D02*
Y5742514D01*
X8654000Y5718138D02*
Y5858000D01*
X8326000Y5856946D02*
Y5924000D01*
X8852179Y4730675D02*
Y4823743D01*
D11*
X6000000Y6240000D02*
G03*
X5987929Y6245000I-12071J-12071D01*
G01*
X9566012Y5193743D02*
G03*
X9637443Y5223330I0J101019D01*
G01*
X9980000Y4910000D02*
G03*
X9955858Y4920000I-24142J-24142D01*
G01*
X9798284D02*
G03*
X9750000Y4900000I0J-68284D01*
G01*
X9323933Y5039068D02*
G03*
X9315469Y5043743I-8464J-5326D01*
G01*
X9323933Y5039068D02*
G03*
X9335488Y5026462I42393J27258D01*
G01*
X9415655Y4964345D02*
G03*
X9595210Y4890000I179555J179655D01*
G01*
X9384841Y4977109D02*
G03*
X9415655Y4964345I30814J30814D01*
G01*
X9340000Y4948284D02*
G03*
X9360000Y4900000I68284J0D01*
G01*
X9340000Y4970000D02*
G03*
X9282680Y4993743I-57320J-57320D01*
G01*
X9564465Y5193863D02*
G03*
X9566012Y5193743I1547J9880D01*
G01*
X9514793Y5201641D02*
G03*
X9504980Y5202220I-7859J-49783D01*
G01*
X9399985Y5120015D02*
G03*
X9342680Y5143743I-57305J-57336D01*
G01*
X9400000Y5120000D02*
G03*
X9399985Y5120015I-57320J-57320D01*
G01*
X9490000Y5020000D02*
G03*
X9511250Y5011198I21250J21250D01*
G01*
X9490000Y5020000D02*
G03*
X9482929Y5037071I-24141J0D01*
G01*
X8600000Y4580000D02*
G03*
X8596162Y4579234I0J-10001D01*
G01*
X8569005Y4567913D02*
G03*
X8565825Y4565824I3800J-9251D01*
G01*
X8865858Y4580000D02*
G03*
X8889952Y4589952I0J34142D01*
G01*
X8961197Y4690967D02*
G03*
X8969558Y4729176I-41198J29033D01*
G01*
X8889952Y4589952D02*
G03*
X8891122Y4591332I-7010J7133D01*
G01*
X9366326Y5066326D02*
G03*
X9300136Y5093743I-66190J-66190D01*
G01*
X8561046Y6480000D02*
G03*
X8420546Y6421803I0J-198697D01*
G01*
X9152179Y6182610D02*
G03*
X9077784Y6362215I-254000J0D01*
G01*
X9152151Y6181854D02*
G03*
X9152179Y6182610I-9972J757D01*
G01*
X9129725Y5863542D02*
G03*
X9130223Y5852101I50275J-3542D01*
G01*
X8414828Y6408000D02*
G03*
X8410000Y6410000I-4829J-4829D01*
G01*
X9034395Y6405605D02*
G03*
X8854790Y6480000I-179605J-179605D01*
G01*
X9060000Y6320000D02*
G03*
X8963432Y6360000I-96568J-96568D01*
G01*
X9102179Y6218170D02*
G03*
X9060000Y6320000I-144009J0D01*
G01*
X8730711Y6360000D02*
G03*
X8610000Y6310000I0J-170710D01*
G01*
X8585858Y6300000D02*
G03*
X8610000Y6310000I0J34142D01*
G01*
X8442151Y6292151D02*
G03*
X8414750Y6226000I66151J-66151D01*
G01*
X7780000Y4910000D02*
G03*
X7900711Y4860000I120711J120711D01*
G01*
X7304395Y5385605D02*
G03*
X7124790Y5460000I-179605J-179605D01*
G01*
X8150000Y4840000D02*
G03*
X8166257Y4823743I16257J0D01*
G01*
X8150000Y4840000D02*
G03*
X8130000Y4860000I-20000J0D01*
G01*
X5792000Y5945000D02*
G03*
X5770000Y5891887I53113J-53113D01*
G01*
X5875605Y5534395D02*
G03*
X6055210Y5460000I179605J179605D01*
G01*
X6034071Y6140000D02*
G03*
X6022000Y6135000I0J-17071D01*
G01*
X5260231Y5400000D02*
G03*
X5439836Y5474395I0J254000D01*
G01*
X9990000Y4730000D02*
G03*
X10046569Y4593431I193137J0D01*
G01*
X9990000Y4885858D02*
G03*
X9980000Y4910000I-34142J0D01*
G01*
X10180000Y4460000D02*
G03*
X10252426Y4430000I72426J72426D01*
G01*
X10808000Y4206790D02*
G03*
X10733605Y4386395I-254000J0D01*
G01*
X10730000Y4390000D02*
G03*
X10633432Y4430000I-96568J-96568D01*
G01*
X9725858Y4890000D02*
G03*
X9750000Y4900000I0J34142D01*
G01*
X9808750Y4820244D02*
G03*
X9836322Y4753678I94139J0D01*
G01*
X10150000Y4440000D02*
G03*
X10246568Y4400000I96568J96568D01*
G01*
X10681000Y4242733D02*
G03*
X10620000Y4390000I-208267J0D01*
G01*
D02*
G03*
X10595858Y4400000I-24142J-24142D01*
G01*
X10085605Y4434395D02*
G03*
X10265211Y4360000I179605J179605D01*
G01*
X10387598Y4332402D02*
G03*
X10387574Y4332427I-102452J-102402D01*
G01*
X10430000Y4230000D02*
G03*
X10387598Y4332402I-144853J0D01*
G01*
X10106361Y4443639D02*
G03*
X10260000Y4380000I153639J153639D01*
G01*
X10430000Y4230000D02*
G03*
X10427000Y4222757I7243J-7243D01*
G01*
X10554000Y4266000D02*
G03*
X10440000Y4380000I-114000J0D01*
G01*
X9360000Y4900000D02*
G03*
X9456569Y4860000I96569J96569D01*
G01*
X9780000Y4770000D02*
G03*
X9683432Y4810000I-96568J-96568D01*
G01*
X9317683Y4848239D02*
G03*
X9410000Y4810000I92317J92317D01*
G01*
X10370000Y4350000D02*
G03*
X10345858Y4360000I-24142J-24142D01*
G01*
X9202179Y4777821D02*
G03*
X9280000Y4700000I77821J0D01*
G01*
X9880000Y4640000D02*
G03*
X9735147Y4700000I-144853J-144853D01*
G01*
X9380000Y4600000D02*
G03*
X9350000Y4630000I-30000J0D01*
G01*
X9124168Y4702832D02*
G03*
X9300000Y4630000I175831J175831D01*
G01*
X9208000Y4113500D02*
G03*
X9380000Y4285500I0J172000D01*
G01*
X9350000Y4510000D02*
G03*
X9300000Y4560000I-50000J0D01*
G01*
X9052179Y4577821D02*
G03*
X9070000Y4560000I17821J0D01*
G01*
X9208000Y4240500D02*
G03*
X9350000Y4382500I0J142000D01*
G01*
X9002179Y4823743D02*
G03*
X9000000Y4821564I0J-2179D01*
G01*
X8840000Y4550000D02*
G03*
X9000000Y4710000I0J160000D01*
G01*
X8703500Y4550000D02*
G03*
X8648000Y4494500I0J-55500D01*
G01*
X8560000Y4455500D02*
G03*
X8648000Y4367500I88000J0D01*
G01*
X5952000Y6245000D02*
X5987929D01*
X9637443Y5223330D02*
X9746640Y5332527D01*
X9747473D01*
X9798284Y4920000D02*
X9955858D01*
X9315469Y5043743D02*
X9315469Y5043743D01*
X9323933Y5039068D02*
X9323933Y5039068D01*
X9335488Y5026462D02*
X9384841Y4977109D01*
X9335488Y5026462D02*
X9335488Y5026462D01*
X9340000Y4948284D02*
Y4970000D01*
X9514793Y5201641D02*
X9564465Y5193863D01*
X9272179Y5193743D02*
X9504980Y5202220D01*
X9272179Y5143743D02*
X9342680D01*
X9400000Y5120000D02*
X9482929Y5037071D01*
X9511250Y5011198D02*
X9609159D01*
X8560000Y4560000D02*
X8565797Y4565798D01*
X8569005Y4567913D02*
X8596162Y4579234D01*
X8565797Y4565798D02*
X8565825Y4565824D01*
X8560000Y4455500D02*
Y4560000D01*
X8891122Y4591332D02*
X8961197Y4690967D01*
X8952179Y4823743D02*
X8969557Y4729176D01*
X8302623Y6589001D02*
X8414750D01*
X9272179Y5093743D02*
X9300136D01*
X9272179Y5043743D02*
X9315469D01*
X8561046Y6480000D02*
X8854790D01*
X8419774Y6419940D02*
X8420546Y6421803D01*
X8414828Y6408000D02*
X8419774Y6419940D01*
X9034395Y6405605D02*
X9077784Y6362215D01*
X9152151Y6181853D02*
Y6181854D01*
X9129724Y5863542D02*
X9152151Y6181853D01*
X9130223Y5852101D02*
X9152179Y5713743D01*
X8400000Y6410000D02*
X8410000D01*
X8301079D02*
X8400000D01*
X8730711Y6360000D02*
X8963432D01*
X9102179Y5713743D02*
Y6218170D01*
X8450000Y6300000D02*
X8585858D01*
X8300750Y6226000D02*
X8414750D01*
X8442151Y6292151D02*
X8450000Y6300000D01*
X6055210Y5460000D02*
X7124790D01*
X7304395Y5385605D02*
X7780000Y4910000D01*
X8166257Y4823743D02*
X8452179D01*
X7900711Y4860000D02*
X8130000D01*
X5770000Y5850000D02*
Y5891887D01*
Y5640000D02*
X5875605Y5534395D01*
X5770000Y5640000D02*
Y5650000D01*
X6034071Y6140000D02*
X6110000D01*
X4500000Y5510000D02*
X4940000D01*
X5439836Y5474395D02*
X5722045Y5756604D01*
X4500000Y5400000D02*
X5260231D01*
X9990000Y4730000D02*
Y4885858D01*
X10808000Y4196000D02*
Y4206790D01*
X10252426Y4430000D02*
X10633432D01*
X10046569Y4593431D02*
X10180000Y4460000D01*
X10730000Y4390000D02*
X10733605Y4386395D01*
X9595210Y4890000D02*
X9725858D01*
X9808750Y4820244D02*
Y4860000D01*
X9836322Y4753678D02*
X10150000Y4440000D01*
X10246568Y4400000D02*
X10595858D01*
X9780000Y4770000D02*
X10106361Y4443639D01*
X10387574Y4332426D02*
X10387598Y4332402D01*
X9880000Y4640000D02*
X10085605Y4434395D01*
X10370000Y4350000D02*
X10387574Y4332426D01*
X10260000Y4380000D02*
X10440000D01*
X9272179Y4993743D02*
X9282680D01*
X9456569Y4860000D02*
X9808750D01*
X10681000Y4196000D02*
Y4242733D01*
X9272179Y4893743D02*
X9317683Y4848239D01*
X10554000Y4196000D02*
Y4266000D01*
X9410000Y4810000D02*
X9683432D01*
X10427000Y4196000D02*
Y4222757D01*
X9202179Y4777821D02*
Y4823743D01*
X10265211Y4360000D02*
X10345858D01*
X9280000Y4700000D02*
X9735147D01*
X8302163Y6588541D02*
X8302623Y6589001D01*
X9300000Y4630000D02*
X9350000D01*
X9380000Y4285500D02*
Y4600000D01*
X9104000Y4723000D02*
X9124168Y4702832D01*
X9350000Y4382500D02*
Y4510000D01*
X9070000Y4560000D02*
X9300000D01*
X9052179Y4577821D02*
Y4823743D01*
X9000000Y4710000D02*
Y4821564D01*
X8703500Y4550000D02*
X8840000D01*
X8600000Y4580000D02*
X8865858D01*
D12*
X6290000Y5890000D02*
G03*
X6260000Y5860000I0J-30000D01*
G01*
X6592446Y5817554D02*
G03*
X6520000Y5890000I-72446J0D01*
G01*
X5872000Y5874328D02*
G03*
X5890100Y5850000I25401J1D01*
G01*
X5832000Y6332546D02*
G03*
X5818175Y6355155I-25401J-1D01*
G01*
X6098000Y6016000D02*
G03*
X6090929Y6033071I-24143J0D01*
G01*
X6024414Y6016000D02*
G03*
X6022000Y6015000I0J-3414D01*
G01*
X6063046Y5971954D02*
G03*
X6022000Y6013000I-41046J0D01*
G01*
X6005604Y5805604D02*
G03*
X5978000Y5778000I0J-27604D01*
G01*
X5956604Y5756604D02*
G03*
X5978000Y5778000I0J21396D01*
G01*
X6592446Y5805604D02*
Y5817554D01*
X6290000Y5890000D02*
X6520000D01*
X5890100Y5850000D02*
X5890100Y5850000D01*
X5832000Y6245000D02*
Y6332546D01*
X5832000D02*
X5832000Y6332546D01*
X5809988Y6359987D02*
X5813343D01*
X5872000Y6245000D02*
Y6384070D01*
X5813343Y6359987D02*
X5818175Y6355155D01*
X6022000Y6015000D02*
X6061000D01*
X6063046Y5805604D02*
Y5973954D01*
X6069000Y6055000D02*
X6090929Y6033072D01*
X6024414Y6016000D02*
X6098000D01*
X6022000Y6055000D02*
X6069000D01*
X6005604Y5805604D02*
X6063046D01*
X5832000Y5756604D02*
Y5945000D01*
X5832045Y5756604D02*
X5956604D01*
X5872000Y5874328D02*
Y5945000D01*
X5832000Y5756604D02*
X5832045D01*
X5608000Y6003000D02*
X5611000Y6006000D01*
Y6039000D01*
X5627000Y6055000D02*
X5722000D01*
X5611000Y6039000D02*
X5627000Y6055000D01*
X5629363Y6015000D02*
X5722000D01*
X5617363Y6003000D02*
X5629363Y6015000D01*
X5608000Y6003000D02*
X5617363D01*
X5597345Y6135000D02*
X5722000D01*
X5580045Y6152300D02*
X5597345Y6135000D01*
X5580045Y6152300D02*
Y6156604D01*
X5579243Y6155802D02*
X5580045Y6156604D01*
X5481802Y6155802D02*
X5579243D01*
X5481000Y6155000D02*
X5481802Y6155802D01*
X6061523Y5712082D02*
X6063046Y5713604D01*
X6061523Y5614523D02*
Y5712082D01*
X6060000Y5613000D02*
X6061523Y5614523D01*
X6490045Y5804354D02*
Y5805604D01*
X6428691Y5743000D02*
X6490045Y5804354D01*
X6425000Y5743000D02*
X6428691D01*
D13*
X11890000Y5580000D02*
G03*
X11858615Y5593000I-31385J-31385D01*
G01*
X11285000D02*
X11858615D01*
D14*
X10914000D02*
G03*
X10910000Y5589000I0J-4000D01*
G01*
X10789000Y5591000D02*
G03*
X10791000Y5589000I2000J0D01*
G01*
X10504744Y5588744D02*
G03*
X10507000Y5591000I0J2256D01*
G01*
X10169044Y5588744D02*
G03*
X10161094Y5596694I-7950J0D01*
G01*
X10914000Y5593000D02*
X11095000D01*
X10791000Y5589000D02*
X10910000D01*
X10689500Y5592000D02*
X10789000D01*
Y5591000D02*
Y5592000D01*
X10507000D02*
X10604500D01*
X10359044Y5588744D02*
X10504744D01*
X10507000Y5591000D02*
Y5592000D01*
X9932300Y5596694D02*
X10161094D01*
X8680000Y4720000D02*
X8820000D01*
D15*
X6592446Y5805604D02*
G03*
X6615045Y5828204I0J22600D01*
G01*
X6632045Y5995604D02*
G03*
X6615045Y5978604I0J-17000D01*
G01*
X5970000Y6450000D02*
G03*
X5912000Y6392000I0J-58000D01*
G01*
X2547751Y5462500D02*
G03*
X2590000Y5480000I0J59749D01*
G01*
X2620000Y5710000D02*
G03*
X2613965Y5712500I-6035J-6035D01*
G01*
X2476465Y5710000D02*
G03*
X2482500Y5712500I0J8535D01*
G01*
X7607000Y5383000D02*
G03*
X7690000Y5300000I83000J0D01*
G01*
X7713000Y5830000D02*
G03*
X7607000Y5724000I0J-106000D01*
G01*
X2380000Y5470000D02*
G03*
X2398107Y5462500I18107J18107D01*
G01*
X2380000Y5470000D02*
G03*
X2337751Y5487500I-42249J-42249D01*
G01*
X2482499Y5862500D02*
G03*
X2464392Y5870000I-18107J-18107D01*
G01*
X2360000D02*
G03*
X2317751Y5887500I-42249J-42249D01*
G01*
X2390000Y5330000D02*
G03*
X2432249Y5312500I42249J42249D01*
G01*
X2380000Y5720000D02*
G03*
X2337751Y5737500I-42249J-42249D01*
G01*
X6615045Y5828204D02*
Y5978604D01*
X6632045Y5995604D02*
X6749045D01*
X5912000Y6245000D02*
Y6392000D01*
X2398107Y5462500D02*
X2482500D01*
X2547751D01*
X2390000Y5710000D02*
X2476465D01*
X2482500Y5712500D02*
X2613965D01*
X8702179Y5713743D02*
Y5789473D01*
X8710000Y5797294D01*
Y5800000D01*
X7607000Y5383000D02*
Y5504000D01*
X7690000Y5300000D02*
X7700000D01*
X7713000Y5830000D02*
X7750000D01*
X2292500Y5487500D02*
X2337751D01*
X2360000Y5870000D02*
X2464392D01*
X2292500Y5887500D02*
X2317751D01*
X2432249Y5312500D02*
X2482500D01*
X2292500Y5337500D02*
X2390000Y5330000D01*
X2292500Y5737500D02*
X2337751D01*
X2380000Y5720000D02*
X2390000Y5710000D01*
D16*
X3400000Y6040000D02*
D03*
Y6560000D02*
D03*
X4900000Y6040000D02*
D03*
Y6560000D02*
D03*
D17*
X8928000Y4304000D02*
D03*
D18*
X8648000Y4113500D02*
D03*
Y4240500D02*
D03*
Y4367500D02*
D03*
Y4494500D02*
D03*
X9208000D02*
D03*
Y4367500D02*
D03*
Y4240500D02*
D03*
Y4113500D02*
D03*
D19*
X8090000Y5115000D02*
D03*
Y4965000D02*
D03*
D20*
X10910000Y5589000D02*
D03*
Y5479000D02*
D03*
D21*
X7672000Y4240000D02*
D03*
X7562000D02*
D03*
X5722045Y5756604D02*
D03*
X5832045D02*
D03*
X7685000Y4810000D02*
D03*
X7575000D02*
D03*
X7688000Y4520000D02*
D03*
X7578000D02*
D03*
D22*
X6615045Y6088604D02*
D03*
Y5978604D02*
D03*
D23*
X8827179Y5268743D02*
D03*
D24*
X8382179Y4893743D02*
D03*
Y4943743D02*
D03*
Y4993743D02*
D03*
Y5043743D02*
D03*
Y5093743D02*
D03*
Y5143743D02*
D03*
Y5193743D02*
D03*
Y5243743D02*
D03*
Y5293743D02*
D03*
Y5343743D02*
D03*
Y5393743D02*
D03*
Y5443743D02*
D03*
Y5493743D02*
D03*
Y5543743D02*
D03*
Y5593743D02*
D03*
Y5643743D02*
D03*
X9272179D02*
D03*
Y5593743D02*
D03*
Y5543743D02*
D03*
Y5493743D02*
D03*
Y5443743D02*
D03*
Y5393743D02*
D03*
Y5343743D02*
D03*
Y5293743D02*
D03*
Y5243743D02*
D03*
Y5193743D02*
D03*
Y5143743D02*
D03*
Y5093743D02*
D03*
Y5043743D02*
D03*
Y4993743D02*
D03*
Y4943743D02*
D03*
Y4893743D02*
D03*
D25*
X8452179Y5713743D02*
D03*
X8502179D02*
D03*
X8552179D02*
D03*
X8602179D02*
D03*
X8652179D02*
D03*
X8702179D02*
D03*
X8752179D02*
D03*
X8802179D02*
D03*
X8852179D02*
D03*
X8902179D02*
D03*
X8952179D02*
D03*
X9002179D02*
D03*
X9052179D02*
D03*
X9102179D02*
D03*
X9152179D02*
D03*
X9202179D02*
D03*
Y4823743D02*
D03*
X9152179D02*
D03*
X9102179D02*
D03*
X9052179D02*
D03*
X9002179D02*
D03*
X8952179D02*
D03*
X8902179D02*
D03*
X8852179D02*
D03*
X8802179D02*
D03*
X8752179D02*
D03*
X8702179D02*
D03*
X8652179D02*
D03*
X8602179D02*
D03*
X8552179D02*
D03*
X8502179D02*
D03*
X8452179D02*
D03*
D26*
X5872000Y6095000D02*
D03*
D27*
X5792000Y6245000D02*
D03*
X5832000D02*
D03*
X5872000D02*
D03*
X5912000D02*
D03*
X5952000D02*
D03*
Y5945000D02*
D03*
X5912000D02*
D03*
X5872000D02*
D03*
X5832000D02*
D03*
X5792000D02*
D03*
D28*
X6022000Y6175000D02*
D03*
Y6135000D02*
D03*
Y6095000D02*
D03*
Y6055000D02*
D03*
Y6015000D02*
D03*
X5722000D02*
D03*
Y6055000D02*
D03*
Y6095000D02*
D03*
Y6135000D02*
D03*
Y6175000D02*
D03*
D29*
X11285000Y5593000D02*
D03*
X11095000D02*
D03*
X10169044Y5588744D02*
D03*
X10359044D02*
D03*
X8259000Y5344000D02*
D03*
X8179000D02*
D03*
D30*
X11190000Y5673000D02*
D03*
Y5513000D02*
D03*
X10264044Y5508744D02*
D03*
Y5668744D02*
D03*
D31*
X10689500Y5592000D02*
D03*
X10604500D02*
D03*
D32*
X7289000Y4243000D02*
D03*
X7399000D02*
D03*
X7281000Y4807000D02*
D03*
X7391000D02*
D03*
X7276000Y4522000D02*
D03*
X7386000D02*
D03*
D33*
X7607000Y5504000D02*
D03*
Y5724000D02*
D03*
D34*
X6390045Y6070604D02*
D03*
X6235105D02*
D03*
D35*
X9808750Y4860000D02*
D03*
X9911250D02*
D03*
X6490045Y5805604D02*
D03*
X6592446D02*
D03*
X8414750Y6589001D02*
D03*
X8517250D02*
D03*
X8517329Y6408000D02*
D03*
X8414828D02*
D03*
X8414750Y6226000D02*
D03*
X8517250D02*
D03*
X8302163Y6588541D02*
D03*
X8199663D02*
D03*
X8198578Y6410000D02*
D03*
X8301079D02*
D03*
X8300750Y6226000D02*
D03*
X8198250D02*
D03*
D36*
X7797500Y5120000D02*
D03*
X7942500D02*
D03*
D37*
X9517235Y5103122D02*
D03*
X9637443Y5223330D02*
D03*
X9729367Y5131407D02*
D03*
X9609159Y5011198D02*
D03*
D38*
X9899800Y5531694D02*
D03*
Y5661694D02*
D03*
D39*
X9932300Y5596694D02*
D03*
X9867300D02*
D03*
D40*
X10300000Y4600000D02*
D03*
X10427000D02*
D03*
X10808000D02*
D03*
X10681000D02*
D03*
X10554000D02*
D03*
X10300000Y4196000D02*
D03*
X10427000D02*
D03*
X10808000D02*
D03*
X10681000D02*
D03*
X10554000D02*
D03*
D41*
X6931045Y5922604D02*
D03*
Y6088604D02*
D03*
D42*
X9221000Y5957000D02*
D03*
Y5865000D02*
D03*
D43*
X8250000Y5125000D02*
D03*
Y5035000D02*
D03*
X8786000Y5968000D02*
D03*
Y5878000D02*
D03*
X9361000Y5955000D02*
D03*
Y5865000D02*
D03*
D44*
X6749045Y5995604D02*
D03*
Y6087604D02*
D03*
X8078770Y5784195D02*
D03*
Y5692195D02*
D03*
X8082000Y5326000D02*
D03*
Y5418000D02*
D03*
X10507000Y5499000D02*
D03*
Y5591000D02*
D03*
X10789000Y5499000D02*
D03*
Y5591000D02*
D03*
X6063046Y5713604D02*
D03*
Y5805604D02*
D03*
X8326000Y6016000D02*
D03*
Y5924000D02*
D03*
X8423000Y6016000D02*
D03*
Y5924000D02*
D03*
D45*
X8654000Y5858000D02*
D03*
Y5938000D02*
D03*
X8901000Y5937000D02*
D03*
Y5857000D02*
D03*
X8245000Y5772000D02*
D03*
Y5692000D02*
D03*
X8820000Y4720000D02*
D03*
Y4640000D02*
D03*
X9370000Y5390000D02*
D03*
Y5310000D02*
D03*
X9440000D02*
D03*
Y5390000D02*
D03*
X9006000Y5934000D02*
D03*
Y5854000D02*
D03*
D46*
X11890000Y5280000D02*
D03*
Y5580000D02*
D03*
D47*
X7891786Y5679808D02*
D03*
Y5429808D02*
D03*
D48*
X2292500Y5337500D02*
D03*
Y5387500D02*
D03*
Y5437500D02*
D03*
Y5487500D02*
D03*
Y5537500D02*
D03*
Y5587500D02*
D03*
Y5637500D02*
D03*
Y5687500D02*
D03*
Y5737500D02*
D03*
Y5787500D02*
D03*
Y5837500D02*
D03*
Y5887500D02*
D03*
X2482500Y5312500D02*
D03*
Y5362500D02*
D03*
Y5412500D02*
D03*
Y5462500D02*
D03*
Y5512500D02*
D03*
Y5562500D02*
D03*
Y5612500D02*
D03*
Y5662500D02*
D03*
Y5712500D02*
D03*
Y5762500D02*
D03*
Y5812500D02*
D03*
Y5862500D02*
D03*
D49*
X9782527Y5022527D02*
D03*
X9717473Y4957473D02*
D03*
D50*
X9812527Y5267473D02*
D03*
X9747473Y5332527D02*
D03*
D51*
X8169000Y5236000D02*
D03*
X8261000D02*
D03*
D52*
X8728000Y6202000D02*
D03*
X8948000D02*
D03*
D53*
X4500000Y5510000D02*
D03*
Y5400000D02*
D03*
D54*
X5580045Y6156604D02*
D03*
Y6266604D02*
D03*
D55*
X6071046Y6530854D02*
D03*
Y6428354D02*
D03*
X9104000Y4723000D02*
D03*
Y4620500D02*
D03*
X9490000Y5955250D02*
D03*
Y5852750D02*
D03*
D56*
X9272179Y5593743D02*
X9273062Y5592860D01*
X9390000D01*
D57*
X9863466D01*
X9867300Y5596694D01*
D58*
X11890000Y5580000D02*
Y6170000D01*
D59*
X3337000Y4400000D02*
D03*
D60*
X4170000Y6000000D02*
D03*
X9690000Y4400000D02*
D03*
D61*
X2302500Y5240000D02*
D03*
D62*
Y5960000D02*
D03*
D63*
X1797500Y5020000D02*
D03*
Y6180000D02*
D03*
D64*
X2264500Y5090000D02*
D03*
D65*
Y6110000D02*
D03*
D66*
X6070440Y6404824D02*
D03*
X6000000Y6240000D02*
D03*
X6260000Y5860000D02*
D03*
X5770000Y5650000D02*
D03*
X11919995Y6559997D02*
D03*
X11839995Y6399997D02*
D03*
X11919995Y6239997D02*
D03*
X11839995Y5119998D02*
D03*
X11919995Y4959998D02*
D03*
X11839995Y4799998D02*
D03*
X11679995Y6399997D02*
D03*
X11759995Y6239997D02*
D03*
X11679995Y5119998D02*
D03*
X11759995Y4959998D02*
D03*
X11679995Y4799998D02*
D03*
X11519995Y6399997D02*
D03*
X11599995Y6239997D02*
D03*
X11519995Y5119998D02*
D03*
X11599995Y4959998D02*
D03*
X11519995Y4799998D02*
D03*
X11359995Y6399997D02*
D03*
X11439995Y6239997D02*
D03*
X11359995Y5119998D02*
D03*
X11439995Y4959998D02*
D03*
X11359995Y4799998D02*
D03*
X11279995Y6559997D02*
D03*
X11199995Y6399997D02*
D03*
X11279995Y6239997D02*
D03*
X11199995Y6079997D02*
D03*
Y5759998D02*
D03*
X11279995Y4959998D02*
D03*
X11119995Y6559997D02*
D03*
X11039995Y6399997D02*
D03*
X11119995Y6239997D02*
D03*
X11039995Y6079997D02*
D03*
X11119995Y5919998D02*
D03*
X11039995Y5759998D02*
D03*
X10959995Y6559997D02*
D03*
X10879996Y6399997D02*
D03*
X10959995Y6239997D02*
D03*
X10879996Y6079997D02*
D03*
X10959995Y5919998D02*
D03*
X10879996Y5759998D02*
D03*
X10799995Y6559997D02*
D03*
X10719996Y6399997D02*
D03*
X10799995Y6239997D02*
D03*
X10719996Y6079997D02*
D03*
X10799995Y5919998D02*
D03*
X10719996Y5759998D02*
D03*
X10639995Y6559997D02*
D03*
X10559996Y6399997D02*
D03*
X10639995Y6239997D02*
D03*
X10559996Y6079997D02*
D03*
X10639995Y5919998D02*
D03*
X10559996Y5759998D02*
D03*
X10479996Y6559997D02*
D03*
X10399996Y6399997D02*
D03*
X10479996Y6239997D02*
D03*
X10399996Y6079997D02*
D03*
X10479996Y5919998D02*
D03*
X10399996Y5759998D02*
D03*
Y5439998D02*
D03*
Y5119998D02*
D03*
X10319996Y6559997D02*
D03*
X10239996Y6399997D02*
D03*
X10319996Y6239997D02*
D03*
X10239996Y6079997D02*
D03*
X10319996Y5919998D02*
D03*
X10239996Y5759998D02*
D03*
X10319996Y5279998D02*
D03*
X10239996Y5119998D02*
D03*
X10079996Y6079997D02*
D03*
X10159996Y5919998D02*
D03*
X10079996Y5759998D02*
D03*
Y5439998D02*
D03*
X10159996Y5279998D02*
D03*
X10079996Y5119998D02*
D03*
X9919996Y6079997D02*
D03*
X9999996Y5919998D02*
D03*
X9919996Y5759998D02*
D03*
X9999996Y5279998D02*
D03*
X9759996Y6079997D02*
D03*
X9839996Y5919998D02*
D03*
X9759996Y5759998D02*
D03*
Y5439998D02*
D03*
X9599996Y6079997D02*
D03*
X9679996Y5919998D02*
D03*
X10640000Y5470000D02*
D03*
X9700000Y5710000D02*
D03*
X9600000Y5480000D02*
D03*
X9580000Y5710000D02*
D03*
X9460000D02*
D03*
X10910000Y5460000D02*
D03*
X10790000Y5470000D02*
D03*
X10500000Y5480000D02*
D03*
X11080000Y5490000D02*
D03*
X11200000D02*
D03*
Y5700000D02*
D03*
X11080000D02*
D03*
X10200000Y5490000D02*
D03*
X10320000D02*
D03*
Y5700000D02*
D03*
X10200000D02*
D03*
X9840000D02*
D03*
X9960000D02*
D03*
Y5490000D02*
D03*
X9840000D02*
D03*
X9340000Y5670000D02*
D03*
X9517235Y5103122D02*
D03*
X8680000Y4720000D02*
D03*
X8580000Y4110000D02*
D03*
X8590000Y4240000D02*
D03*
X5970000Y6450000D02*
D03*
X5600000Y6270000D02*
D03*
X5819988Y6429987D02*
D03*
X5809988Y6359987D02*
D03*
X8910000Y4720000D02*
D03*
X8790000Y4640000D02*
D03*
X9450000Y5960000D02*
D03*
X9370000Y5410000D02*
D03*
X9439999Y5402700D02*
D03*
X9366326Y5066326D02*
D03*
X8180000Y6590000D02*
D03*
X8170000Y6220000D02*
D03*
X8550000Y6230000D02*
D03*
Y6410000D02*
D03*
Y6590000D02*
D03*
X8410000D02*
D03*
X8400000Y6220000D02*
D03*
Y6410000D02*
D03*
X9180000Y5860000D02*
D03*
X10300000Y4250000D02*
D03*
Y4750000D02*
D03*
X8980000Y5830000D02*
D03*
X8880000Y5840000D02*
D03*
X8790000D02*
D03*
X8423000Y5924000D02*
D03*
X8280000Y5920000D02*
D03*
X5770000Y5850000D02*
D03*
X5470000Y5100000D02*
D03*
X8290000Y5430000D02*
D03*
X8260000Y5260000D02*
D03*
X8034000Y5314000D02*
D03*
X8177000Y5304000D02*
D03*
X7700000Y5300000D02*
D03*
X7750000Y5830000D02*
D03*
X8710000Y5800000D02*
D03*
X8076000Y5769600D02*
D03*
X8246000D02*
D03*
X6110000Y6140000D02*
D03*
X6098000Y6016000D02*
D03*
X5890100Y5850000D02*
D03*
X4940000Y5510000D02*
D03*
X9939600Y4860000D02*
D03*
X10820000Y4740000D02*
D03*
X9140000Y4620000D02*
D03*
X8655000Y5969000D02*
D03*
X8786000Y6004600D02*
D03*
X8320000Y6040000D02*
D03*
X8170000Y6410000D02*
D03*
X9270000Y4370000D02*
D03*
Y4500000D02*
D03*
X8240000Y5000000D02*
D03*
X10560000Y4740000D02*
D03*
X10690000D02*
D03*
X9830000Y5290000D02*
D03*
X9729367Y5131407D02*
D03*
X9361000Y6001000D02*
D03*
X9222000Y6004000D02*
D03*
X9007000Y5966000D02*
D03*
X8902000Y5971000D02*
D03*
X8420000Y6040000D02*
D03*
X8123000Y5229000D02*
D03*
X8090000Y4920000D02*
D03*
X7238000Y4239000D02*
D03*
X7228000Y4804000D02*
D03*
X7225000Y4516000D02*
D03*
D67*
X5720000Y5100000D02*
D03*
X10970000Y5090000D02*
D03*
X10710000D02*
D03*
X11100000Y5200000D02*
D03*
X10580000D02*
D03*
X10836000D02*
D03*
X10840000Y4980000D02*
D03*
X11100000D02*
D03*
X10580000D02*
D03*
X8550000Y5550000D02*
D03*
Y5440000D02*
D03*
Y5340000D02*
D03*
Y5240000D02*
D03*
Y5130000D02*
D03*
X8660000Y5030000D02*
D03*
X8780000D02*
D03*
X8900000D02*
D03*
X9020000D02*
D03*
X6420000Y6280000D02*
D03*
X6560000D02*
D03*
X6700000D02*
D03*
X6840000D02*
D03*
X6990000D02*
D03*
X6420000Y6390000D02*
D03*
X6560000D02*
D03*
X6700000D02*
D03*
X6840000D02*
D03*
X6990000D02*
D03*
X6420000Y6510000D02*
D03*
X6560000D02*
D03*
X6700000D02*
D03*
Y6630000D02*
D03*
X6560000D02*
D03*
X6420000D02*
D03*
X2500000Y5890000D02*
D03*
Y5290000D02*
D03*
X8660000Y5240000D02*
D03*
X8780000D02*
D03*
X8900000D02*
D03*
X9020000D02*
D03*
X9130000D02*
D03*
Y5130000D02*
D03*
X9020000D02*
D03*
X8900000D02*
D03*
X8780000D02*
D03*
X8660000D02*
D03*
X9130000Y5030000D02*
D03*
X8550000D02*
D03*
X8660000Y5340000D02*
D03*
X8780000D02*
D03*
X8900000D02*
D03*
X9020000D02*
D03*
X9130000D02*
D03*
X8660000Y5440000D02*
D03*
X8780000D02*
D03*
X8900000D02*
D03*
X9020000D02*
D03*
X9130000D02*
D03*
Y5550000D02*
D03*
X9020000D02*
D03*
X8900000D02*
D03*
X8780000D02*
D03*
X8660000D02*
D03*
X9000000Y4170000D02*
D03*
X8860000D02*
D03*
Y4290000D02*
D03*
X9000000D02*
D03*
Y4410000D02*
D03*
X8860000D02*
D03*
X8790000Y4120000D02*
D03*
X9070000D02*
D03*
X8930000D02*
D03*
X8790000Y4230000D02*
D03*
X9070000D02*
D03*
X8930000D02*
D03*
X8790000Y4350000D02*
D03*
X9070000D02*
D03*
X8930000D02*
D03*
X9070000Y4470000D02*
D03*
X8930000D02*
D03*
X8790000D02*
D03*
X5608000Y6003000D02*
D03*
X5481000Y6155000D02*
D03*
X6060000Y5613000D02*
D03*
X6425000Y5743000D02*
D03*
X6881000Y5869000D02*
D03*
X6986000Y5871000D02*
D03*
X5872000Y6095000D02*
D03*
X5813000Y6038000D02*
D03*
X5929000Y6037000D02*
D03*
Y6152000D02*
D03*
X5816000Y6151000D02*
D03*
D68*
X6410000Y7090000D02*
D03*
X5910000D02*
D03*
X6220000D02*
D03*
X3500000Y4950000D02*
D03*
X3190000Y4960000D02*
D03*
X4900000Y5900000D02*
D03*
X3400000D02*
D03*
D69*
Y6740000D02*
D03*
X4910000D02*
D03*
X3200000Y5210000D02*
D03*
X2690000Y4990000D02*
D03*
X2700000Y5410000D02*
D03*
D70*
X2000000Y4400000D02*
D03*
X11600000D02*
D03*
Y6800000D02*
D03*
X2000000D02*
D03*
%TF.MD5,9fd73bc7a4987294115c541fccf2990a*%
M02*
