%TF.GenerationSoftware,Altium Limited,Altium Designer,20.0.13 (296)*%
G04 Layer_Physical_Order=3*
G04 Layer_Color=36540*
%FSLAX45Y45*%
%MOMM*%
%TF.FileFunction,Copper,L3,Inr,Signal*%
%TF.Part,Single*%
G01*
G75*
%TA.AperFunction,Conductor*%
%ADD10C,0.20000*%
%ADD11C,0.10000*%
%ADD12C,0.25400*%
%ADD14C,0.40000*%
%ADD15C,0.30000*%
%TA.AperFunction,ComponentPad*%
%ADD59C,3.58500*%
%ADD60C,5.17500*%
%ADD61C,0.55000*%
%ADD62C,0.40500*%
%ADD63C,2.56500*%
%ADD64C,1.80000*%
%ADD65C,2.10000*%
%TA.AperFunction,ViaPad*%
%ADD66C,0.40000*%
%ADD67C,0.60000*%
%ADD68C,1.00000*%
%ADD69C,1.27000*%
%ADD70C,6.00000*%
G36*
X6140836Y7174620D02*
X6166315Y7164066D01*
X6171336Y7160711D01*
X6171752Y7148018D01*
X6166224Y7143776D01*
X6154138Y7128025D01*
X6146541Y7109684D01*
X6143949Y7090000D01*
X6146541Y7070317D01*
X6154138Y7051975D01*
X6166224Y7036224D01*
X6181975Y7024138D01*
X6200317Y7016541D01*
X6220000Y7013949D01*
X6227300Y7014911D01*
X6240000Y7003773D01*
Y6520710D01*
X6239999Y6520710D01*
X6240000Y6503897D01*
X6233439Y6470916D01*
X6220571Y6439848D01*
X6201889Y6411889D01*
X6178111Y6388111D01*
X6163018Y6378026D01*
X6095522Y6445522D01*
X6083812Y6453346D01*
X6070000Y6456094D01*
X6056188Y6453346D01*
X6044478Y6445522D01*
X6040322Y6439302D01*
X6037708Y6437556D01*
X6027674Y6422538D01*
X6024151Y6404824D01*
X6026791Y6391547D01*
X6019084Y6378847D01*
X5946090D01*
X5867481Y6457456D01*
X5854879Y6465877D01*
X5845076Y6467827D01*
X5837703Y6472753D01*
X5819988Y6476277D01*
X5802274Y6472753D01*
X5787257Y6462719D01*
X5777222Y6447701D01*
X5773699Y6429987D01*
X5777222Y6412273D01*
X5786266Y6398739D01*
X5777257Y6392719D01*
X5767222Y6377701D01*
X5763699Y6359987D01*
X5763733Y6359817D01*
X5755676Y6350000D01*
X5119707D01*
X5119706Y6349999D01*
X5118361Y6349933D01*
X5115722Y6349409D01*
X5113235Y6348379D01*
X5110998Y6346884D01*
X5110000Y6345979D01*
X3352132Y6345979D01*
X3340370Y6345402D01*
X3317298Y6340812D01*
X3295565Y6331810D01*
X3276005Y6318740D01*
X3259371Y6302107D01*
X3246302Y6282547D01*
X3237300Y6260813D01*
X3232710Y6237741D01*
X3232132Y6225979D01*
Y5615980D01*
X3232517Y5612078D01*
X3235503Y5604868D01*
X3241021Y5599350D01*
X3248231Y5596363D01*
X3252133Y5595979D01*
X3265921D01*
X3292969Y5590599D01*
X3318448Y5580046D01*
X3341377Y5564724D01*
X3360878Y5545224D01*
X3376199Y5522294D01*
X3386752Y5496816D01*
X3392133Y5469768D01*
Y5455979D01*
Y4925979D01*
X3392132D01*
Y4917115D01*
X3388674Y4899727D01*
X3381889Y4883348D01*
X3372040Y4868608D01*
X3359504Y4856072D01*
X3344763Y4846222D01*
X3328385Y4839438D01*
X3310997Y4835980D01*
X3302133D01*
X2682133Y4835979D01*
Y4835980D01*
X2673268D01*
X2655880Y4839438D01*
X2639501Y4846222D01*
X2624761Y4856072D01*
X2612225Y4868608D01*
X2602376Y4883348D01*
X2595591Y4899727D01*
X2592133Y4917115D01*
Y4960779D01*
X2604833Y4963305D01*
X2612346Y4945166D01*
X2626596Y4926596D01*
X2645166Y4912346D01*
X2666792Y4903388D01*
X2677300Y4902005D01*
Y4990000D01*
Y5077995D01*
X2666792Y5076612D01*
X2645166Y5067654D01*
X2626596Y5053404D01*
X2612346Y5034833D01*
X2604833Y5016695D01*
X2592133Y5019221D01*
X2592132Y5595979D01*
X2602132Y6815980D01*
Y6946996D01*
X2611893Y6996069D01*
X2631040Y7042294D01*
X2658838Y7083895D01*
X2694217Y7119274D01*
X2735818Y7147071D01*
X2782043Y7166218D01*
X2831115Y7175980D01*
X5130000D01*
X6030000Y7180000D01*
X6113788D01*
X6140836Y7174620D01*
D02*
G37*
G36*
X8384789Y7109999D02*
X8384790Y7109999D01*
X8409806Y7110000D01*
X8458879Y7100239D01*
X8505104Y7081092D01*
X8546705Y7053295D01*
X8564395Y7035605D01*
X8900244Y6699756D01*
X8893050Y6688990D01*
X8872946Y6697317D01*
X8829417Y6707767D01*
X8784790Y6711279D01*
Y6710996D01*
X8490000D01*
X8478138Y6708636D01*
X8468083Y6701917D01*
X8400582Y6634416D01*
X8392286Y6632766D01*
X8377268Y6622732D01*
X8367234Y6607714D01*
X8363710Y6590000D01*
X8367234Y6572286D01*
X8377268Y6557268D01*
X8392286Y6547234D01*
X8410000Y6543711D01*
X8427714Y6547234D01*
X8442732Y6557268D01*
X8452766Y6572286D01*
X8456289Y6590000D01*
X8454223Y6600389D01*
X8502839Y6649004D01*
X8784790D01*
X8786139Y6649273D01*
X8828374Y6645113D01*
X8870283Y6632400D01*
X8908907Y6611755D01*
X8941713Y6584832D01*
X8942478Y6583688D01*
X9463688Y6062478D01*
X9464832Y6061714D01*
X9468527Y6057211D01*
X9470000Y6049806D01*
X9470000Y6015260D01*
X9462700Y6009270D01*
Y5960000D01*
Y5910731D01*
X9470000Y5904740D01*
X9470000Y5830996D01*
X9398284D01*
Y5831252D01*
X9372523Y5827860D01*
X9348516Y5817916D01*
X9327902Y5802098D01*
X9328083Y5801917D01*
X9290510Y5764344D01*
X9290331Y5764523D01*
X9290303Y5764489D01*
X9282488Y5754966D01*
X9268431Y5737836D01*
X9252157Y5707391D01*
X9242136Y5674355D01*
X9238752Y5640000D01*
X9239004D01*
X9241364Y5628138D01*
X9248083Y5618083D01*
X9351637Y5514528D01*
X9351619Y5514435D01*
X9353010Y5507443D01*
X9354452Y5498865D01*
X9354922Y5497830D01*
X9354964Y5497618D01*
X9355132Y5497367D01*
X9357305Y5492580D01*
X9361851Y5481721D01*
X9361851Y5481720D01*
X9372511Y5476817D01*
X9379079Y5472429D01*
X9381316Y5470078D01*
X9377976Y5455669D01*
X9376819Y5454933D01*
X9370000Y5456290D01*
X9352286Y5452766D01*
X9337268Y5442732D01*
X9327234Y5427714D01*
X9323711Y5410000D01*
X9327234Y5392286D01*
X9337268Y5377268D01*
X9352286Y5367234D01*
X9370000Y5363711D01*
X9387714Y5367234D01*
X9391084Y5369486D01*
X9402444Y5363806D01*
X9408349Y5255605D01*
X9408840Y5246615D01*
X9406544Y5244190D01*
X9407111Y5242822D01*
X9408011Y5230153D01*
X9405149Y5201089D01*
X9392576Y5159643D01*
X9372160Y5121447D01*
X9364636Y5112280D01*
X9348612Y5109092D01*
X9333594Y5099058D01*
X9323560Y5084040D01*
X9320037Y5066326D01*
X9323560Y5048612D01*
X9333594Y5033594D01*
X9348612Y5023560D01*
X9366326Y5020037D01*
X9384040Y5023560D01*
X9399058Y5033594D01*
X9409092Y5048612D01*
X9412616Y5066326D01*
X9411616Y5071351D01*
X9417260Y5077959D01*
X9440447Y5115797D01*
X9457430Y5156797D01*
X9467790Y5199949D01*
X9468160Y5204652D01*
X9481060Y5206695D01*
X9489042Y5187424D01*
X9506607Y5161138D01*
X9508583Y5158957D01*
X9504599Y5146898D01*
X9499521Y5145888D01*
X9484503Y5135854D01*
X9474469Y5120836D01*
X9470945Y5103122D01*
X9474469Y5085408D01*
X9484503Y5070390D01*
X9499521Y5060356D01*
X9517235Y5056833D01*
X9534949Y5060356D01*
X9549967Y5070390D01*
X9560001Y5085408D01*
X9562475Y5097845D01*
X9575189Y5104625D01*
X9582122Y5099992D01*
X9628125Y5080937D01*
X9676960Y5071223D01*
X9701857Y5070000D01*
X9888301D01*
X9900416Y5058545D01*
X9900684Y5058377D01*
X9950458Y5008603D01*
X9950459Y5008602D01*
X10144583Y4814478D01*
X10156292Y4806654D01*
X10170105Y4803907D01*
X10277839D01*
X10278322Y4802697D01*
X10279952Y4791207D01*
X10267268Y4782732D01*
X10257234Y4767714D01*
X10253711Y4750000D01*
X10257234Y4732286D01*
X10267268Y4717268D01*
X10282286Y4707234D01*
X10300000Y4703710D01*
X10317714Y4707234D01*
X10332732Y4717268D01*
X10342766Y4732286D01*
X10346289Y4750000D01*
X10342766Y4767714D01*
X10332732Y4782732D01*
X10320048Y4791207D01*
X10321678Y4802697D01*
X10322160Y4803907D01*
X10880408D01*
X10900369Y4780536D01*
X10923780Y4742332D01*
X10940927Y4700936D01*
X10951387Y4657367D01*
X10953933Y4625018D01*
X10954601Y4612599D01*
X10954599Y4612586D01*
X10954601Y4612574D01*
X10953694Y4600284D01*
X10951338Y4576365D01*
X10940728Y4541388D01*
X10923498Y4509154D01*
X10901000Y4481740D01*
X10900083Y4481127D01*
X10844478Y4425522D01*
X10844417Y4425431D01*
X10834051Y4418504D01*
X10821822Y4416072D01*
X10821715Y4416093D01*
X10515210D01*
Y4416295D01*
X10469798Y4412721D01*
X10425504Y4402087D01*
X10383419Y4384654D01*
X10344579Y4360853D01*
X10309941Y4331269D01*
X10310083Y4331127D01*
X10274478Y4295522D01*
X10266654Y4283812D01*
X10266088Y4280965D01*
X10257234Y4267714D01*
X10253711Y4250000D01*
X10257234Y4232286D01*
X10267268Y4217268D01*
X10282286Y4207234D01*
X10300000Y4203710D01*
X10317714Y4207234D01*
X10332732Y4217268D01*
X10342766Y4232286D01*
X10346289Y4250000D01*
X10343760Y4262716D01*
X10361127Y4280083D01*
X10362031Y4281437D01*
X10393884Y4307578D01*
X10431639Y4327758D01*
X10472606Y4340185D01*
X10513613Y4344224D01*
X10515210Y4343906D01*
X10821715D01*
Y4343705D01*
X10848782Y4347269D01*
X10874005Y4357716D01*
X10895664Y4374336D01*
X10895522Y4374478D01*
X10951127Y4430083D01*
X10951518Y4429692D01*
X10983712Y4468920D01*
X11007634Y4513675D01*
X11022365Y4562237D01*
X11027321Y4612561D01*
X11027322D01*
X11027196Y4612699D01*
X11026224Y4625042D01*
X11022790Y4668676D01*
X11009682Y4723276D01*
X10988194Y4775152D01*
X10958855Y4823029D01*
X10930422Y4856319D01*
X10922389Y4865727D01*
X10922285Y4865814D01*
X10922001Y4865530D01*
X10910303Y4873346D01*
X10896491Y4876093D01*
X10185055D01*
X10003848Y5057300D01*
X10007165Y5070000D01*
X10657493D01*
X10657814Y5068384D01*
X10670059Y5050059D01*
X10688384Y5037814D01*
X10710000Y5033515D01*
X10731616Y5037814D01*
X10749941Y5050059D01*
X10762185Y5068384D01*
X10762507Y5070000D01*
X10917493D01*
X10917814Y5068384D01*
X10930059Y5050059D01*
X10948384Y5037814D01*
X10970000Y5033515D01*
X10991616Y5037814D01*
X11009941Y5050059D01*
X11013133Y5054836D01*
X11046315Y5041091D01*
X11060059Y5031908D01*
Y5019941D01*
X11047814Y5001616D01*
X11043515Y4980000D01*
X11047814Y4958384D01*
X11060059Y4940059D01*
X11078384Y4927814D01*
X11100000Y4923515D01*
X11121616Y4927814D01*
X11139359Y4939670D01*
X11144424Y4938062D01*
X11151712Y4934816D01*
X11170239Y4890089D01*
X11180000Y4841017D01*
Y4816000D01*
Y4190000D01*
X11179999Y4190000D01*
X11180000Y4169317D01*
X11171929Y4128745D01*
X11156099Y4090528D01*
X11133117Y4056133D01*
X11103867Y4026882D01*
X11069472Y4003900D01*
X11031254Y3988070D01*
X10990683Y3980000D01*
X10970000Y3980000D01*
X6513256D01*
X6480413Y3986533D01*
X6449475Y3999348D01*
X6421631Y4017952D01*
X6397952Y4041631D01*
X6379348Y4069474D01*
X6366533Y4100413D01*
X6360000Y4133256D01*
Y4150000D01*
Y5720709D01*
X6372700Y5721960D01*
X6372815Y5721384D01*
X6385059Y5703059D01*
X6403384Y5690814D01*
X6425000Y5686515D01*
X6446616Y5690814D01*
X6464941Y5703059D01*
X6477186Y5721384D01*
X6481485Y5743000D01*
X6477186Y5764616D01*
X6464941Y5782941D01*
X6446616Y5795186D01*
X6425000Y5799485D01*
X6403384Y5795186D01*
X6385059Y5782941D01*
X6372815Y5764616D01*
X6372700Y5764040D01*
X6360000Y5765291D01*
Y7018970D01*
X6371390Y7024587D01*
X6371975Y7024138D01*
X6390317Y7016541D01*
X6397300Y7015621D01*
Y7090000D01*
X6410000D01*
Y7102700D01*
X6489826D01*
X6496228Y7110000D01*
X8384789D01*
X8384789Y7109999D01*
D02*
G37*
%LPC*%
G36*
X5910000Y7166051D02*
X5890317Y7163459D01*
X5871975Y7155862D01*
X5856224Y7143776D01*
X5844138Y7128025D01*
X5836541Y7109684D01*
X5833949Y7090000D01*
X5836541Y7070317D01*
X5844138Y7051975D01*
X5856224Y7036224D01*
X5871975Y7024138D01*
X5890317Y7016541D01*
X5910000Y7013949D01*
X5929684Y7016541D01*
X5948025Y7024138D01*
X5963776Y7036224D01*
X5975862Y7051975D01*
X5983459Y7070317D01*
X5986051Y7090000D01*
X5983459Y7109684D01*
X5975862Y7128025D01*
X5963776Y7143776D01*
X5948025Y7155862D01*
X5929684Y7163459D01*
X5910000Y7166051D01*
D02*
G37*
G36*
X4922700Y6827995D02*
Y6752700D01*
X4997995D01*
X4996612Y6763207D01*
X4987654Y6784834D01*
X4973404Y6803404D01*
X4954834Y6817654D01*
X4933208Y6826612D01*
X4922700Y6827995D01*
D02*
G37*
G36*
X4897300D02*
X4886793Y6826612D01*
X4865167Y6817654D01*
X4846596Y6803404D01*
X4832346Y6784834D01*
X4823388Y6763207D01*
X4822005Y6752700D01*
X4897300D01*
Y6827995D01*
D02*
G37*
G36*
X3412700D02*
Y6752700D01*
X3487995D01*
X3486612Y6763207D01*
X3477654Y6784834D01*
X3463404Y6803404D01*
X3444834Y6817654D01*
X3423208Y6826612D01*
X3412700Y6827995D01*
D02*
G37*
G36*
X3387300D02*
X3376793Y6826612D01*
X3355167Y6817654D01*
X3336596Y6803404D01*
X3322346Y6784834D01*
X3313388Y6763207D01*
X3312005Y6752700D01*
X3387300D01*
Y6827995D01*
D02*
G37*
G36*
X4997995Y6727300D02*
X4922700D01*
Y6652005D01*
X4933208Y6653388D01*
X4954834Y6662346D01*
X4973404Y6676596D01*
X4987654Y6695166D01*
X4996612Y6716793D01*
X4997995Y6727300D01*
D02*
G37*
G36*
X4897300D02*
X4822005D01*
X4823388Y6716793D01*
X4832346Y6695166D01*
X4846596Y6676596D01*
X4865167Y6662346D01*
X4886793Y6653388D01*
X4897300Y6652005D01*
Y6727300D01*
D02*
G37*
G36*
X3487995D02*
X3412700D01*
Y6652005D01*
X3423208Y6653388D01*
X3444834Y6662346D01*
X3463404Y6676596D01*
X3477654Y6695166D01*
X3486612Y6716793D01*
X3487995Y6727300D01*
D02*
G37*
G36*
X3387300D02*
X3312005D01*
X3313388Y6716793D01*
X3322346Y6695166D01*
X3336596Y6676596D01*
X3355167Y6662346D01*
X3376793Y6653388D01*
X3387300Y6652005D01*
Y6727300D01*
D02*
G37*
G36*
X5982700Y6493763D02*
Y6462700D01*
X6013763D01*
X6012766Y6467714D01*
X6002732Y6482732D01*
X5987714Y6492766D01*
X5982700Y6493763D01*
D02*
G37*
G36*
X5957300D02*
X5952286Y6492766D01*
X5937268Y6482732D01*
X5927234Y6467714D01*
X5926237Y6462700D01*
X5957300D01*
Y6493763D01*
D02*
G37*
G36*
X6013763Y6437300D02*
X5982700D01*
Y6406237D01*
X5987714Y6407234D01*
X6002732Y6417268D01*
X6012766Y6432286D01*
X6013763Y6437300D01*
D02*
G37*
G36*
X5957300D02*
X5926237D01*
X5927234Y6432286D01*
X5937268Y6417268D01*
X5952286Y6407234D01*
X5957300Y6406237D01*
Y6437300D01*
D02*
G37*
G36*
X2712700Y5497995D02*
Y5422700D01*
X2787995D01*
X2786612Y5433208D01*
X2777654Y5454834D01*
X2763404Y5473404D01*
X2744833Y5487654D01*
X2723207Y5496612D01*
X2712700Y5497995D01*
D02*
G37*
G36*
X2687300D02*
X2676792Y5496612D01*
X2655166Y5487654D01*
X2636596Y5473404D01*
X2622346Y5454834D01*
X2613388Y5433208D01*
X2612005Y5422700D01*
X2687300D01*
Y5497995D01*
D02*
G37*
G36*
X2787995Y5397300D02*
X2712700D01*
Y5322005D01*
X2723207Y5323388D01*
X2744833Y5332346D01*
X2763404Y5346596D01*
X2777654Y5365167D01*
X2786612Y5386793D01*
X2787995Y5397300D01*
D02*
G37*
G36*
X2687300D02*
X2612005D01*
X2613388Y5386793D01*
X2622346Y5365167D01*
X2636596Y5346596D01*
X2655166Y5332346D01*
X2676792Y5323388D01*
X2687300Y5322005D01*
Y5397300D01*
D02*
G37*
G36*
X3212700Y5297995D02*
Y5222700D01*
X3287995D01*
X3286612Y5233207D01*
X3277654Y5254834D01*
X3263404Y5273404D01*
X3244833Y5287654D01*
X3223207Y5296612D01*
X3212700Y5297995D01*
D02*
G37*
G36*
X3187300D02*
X3176792Y5296612D01*
X3155166Y5287654D01*
X3136596Y5273404D01*
X3122346Y5254834D01*
X3113388Y5233207D01*
X3112005Y5222700D01*
X3187300D01*
Y5297995D01*
D02*
G37*
G36*
X3287995Y5197300D02*
X3212700D01*
Y5122005D01*
X3223207Y5123388D01*
X3244833Y5132346D01*
X3263404Y5146596D01*
X3277654Y5165166D01*
X3286612Y5186793D01*
X3287995Y5197300D01*
D02*
G37*
G36*
X3187300D02*
X3112005D01*
X3113388Y5186793D01*
X3122346Y5165166D01*
X3136596Y5146596D01*
X3155166Y5132346D01*
X3176792Y5123388D01*
X3187300Y5122005D01*
Y5197300D01*
D02*
G37*
G36*
X2702700Y5077995D02*
Y5002700D01*
X2777995D01*
X2776612Y5013207D01*
X2767654Y5034833D01*
X2753404Y5053404D01*
X2734833Y5067654D01*
X2713207Y5076612D01*
X2702700Y5077995D01*
D02*
G37*
G36*
X3202700Y5034379D02*
Y4972700D01*
X3264379D01*
X3263459Y4979683D01*
X3255862Y4998025D01*
X3243776Y5013776D01*
X3228025Y5025862D01*
X3209683Y5033459D01*
X3202700Y5034379D01*
D02*
G37*
G36*
X3177300D02*
X3170316Y5033459D01*
X3151975Y5025862D01*
X3136224Y5013776D01*
X3124138Y4998025D01*
X3116541Y4979683D01*
X3115621Y4972700D01*
X3177300D01*
Y5034379D01*
D02*
G37*
G36*
X2777995Y4977300D02*
X2702700D01*
Y4902005D01*
X2713207Y4903388D01*
X2734833Y4912346D01*
X2753404Y4926596D01*
X2767654Y4945166D01*
X2776612Y4966792D01*
X2777995Y4977300D01*
D02*
G37*
G36*
X3264379Y4947300D02*
X3202700D01*
Y4885621D01*
X3209683Y4886541D01*
X3228025Y4894138D01*
X3243776Y4906224D01*
X3255862Y4921975D01*
X3263459Y4940317D01*
X3264379Y4947300D01*
D02*
G37*
G36*
X3177300D02*
X3115621D01*
X3116541Y4940317D01*
X3124138Y4921975D01*
X3136224Y4906224D01*
X3151975Y4894138D01*
X3170316Y4886541D01*
X3177300Y4885621D01*
Y4947300D01*
D02*
G37*
G36*
X6484379Y7077300D02*
X6422700D01*
Y7015621D01*
X6429684Y7016541D01*
X6448025Y7024138D01*
X6463776Y7036224D01*
X6475862Y7051975D01*
X6483459Y7070317D01*
X6484379Y7077300D01*
D02*
G37*
G36*
X8562700Y6633763D02*
Y6602700D01*
X8593763D01*
X8592766Y6607714D01*
X8582732Y6622732D01*
X8567714Y6632766D01*
X8562700Y6633763D01*
D02*
G37*
G36*
X8537300D02*
X8532286Y6632766D01*
X8517268Y6622732D01*
X8507234Y6607714D01*
X8506236Y6602700D01*
X8537300D01*
Y6633763D01*
D02*
G37*
G36*
X8593763Y6577300D02*
X8562700D01*
Y6546237D01*
X8567714Y6547234D01*
X8582732Y6557268D01*
X8592766Y6572286D01*
X8593763Y6577300D01*
D02*
G37*
G36*
X8537300D02*
X8506236D01*
X8507234Y6572286D01*
X8517268Y6557268D01*
X8532286Y6547234D01*
X8537300Y6546237D01*
Y6577300D01*
D02*
G37*
G36*
X8180000Y6636289D02*
X8162286Y6632766D01*
X8147268Y6622732D01*
X8137234Y6607714D01*
X8133710Y6590000D01*
X8137234Y6572286D01*
X8147268Y6557268D01*
X8162286Y6547234D01*
X8180000Y6543711D01*
X8197714Y6547234D01*
X8212732Y6557268D01*
X8222766Y6572286D01*
X8226289Y6590000D01*
X8222766Y6607714D01*
X8212732Y6622732D01*
X8197714Y6632766D01*
X8180000Y6636289D01*
D02*
G37*
G36*
X8562700Y6453763D02*
Y6422700D01*
X8593763D01*
X8592766Y6427714D01*
X8582732Y6442732D01*
X8567714Y6452766D01*
X8562700Y6453763D01*
D02*
G37*
G36*
X8537300D02*
X8532286Y6452766D01*
X8517268Y6442732D01*
X8507234Y6427714D01*
X8506236Y6422700D01*
X8537300D01*
Y6453763D01*
D02*
G37*
G36*
X8593763Y6397300D02*
X8562700D01*
Y6366236D01*
X8567714Y6367234D01*
X8582732Y6377268D01*
X8592766Y6392286D01*
X8593763Y6397300D01*
D02*
G37*
G36*
X8537300D02*
X8506236D01*
X8507234Y6392286D01*
X8517268Y6377268D01*
X8532286Y6367234D01*
X8537300Y6366236D01*
Y6397300D01*
D02*
G37*
G36*
X8400000Y6456289D02*
X8382286Y6452766D01*
X8367268Y6442732D01*
X8357234Y6427714D01*
X8353710Y6410000D01*
X8357234Y6392286D01*
X8367268Y6377268D01*
X8382286Y6367234D01*
X8400000Y6363710D01*
X8417714Y6367234D01*
X8432732Y6377268D01*
X8442766Y6392286D01*
X8446289Y6410000D01*
X8442766Y6427714D01*
X8432732Y6442732D01*
X8417714Y6452766D01*
X8400000Y6456289D01*
D02*
G37*
G36*
X8170000D02*
X8152286Y6452766D01*
X8137268Y6442732D01*
X8127234Y6427714D01*
X8123710Y6410000D01*
X8127234Y6392286D01*
X8137268Y6377268D01*
X8152286Y6367234D01*
X8170000Y6363710D01*
X8187714Y6367234D01*
X8202732Y6377268D01*
X8212766Y6392286D01*
X8216289Y6410000D01*
X8212766Y6427714D01*
X8202732Y6442732D01*
X8187714Y6452766D01*
X8170000Y6456289D01*
D02*
G37*
G36*
X8562700Y6273763D02*
Y6242700D01*
X8593763D01*
X8592766Y6247714D01*
X8582732Y6262732D01*
X8567714Y6272766D01*
X8562700Y6273763D01*
D02*
G37*
G36*
X8537300D02*
X8532286Y6272766D01*
X8517268Y6262732D01*
X8507234Y6247714D01*
X8506236Y6242700D01*
X8537300D01*
Y6273763D01*
D02*
G37*
G36*
X8593763Y6217300D02*
X8562700D01*
Y6186237D01*
X8567714Y6187234D01*
X8582732Y6197268D01*
X8592766Y6212286D01*
X8593763Y6217300D01*
D02*
G37*
G36*
X8537300D02*
X8506236D01*
X8507234Y6212286D01*
X8517268Y6197268D01*
X8532286Y6187234D01*
X8537300Y6186237D01*
Y6217300D01*
D02*
G37*
G36*
X8400000Y6266289D02*
X8382286Y6262766D01*
X8367268Y6252732D01*
X8357234Y6237714D01*
X8353710Y6220000D01*
X8357234Y6202286D01*
X8367268Y6187268D01*
X8382286Y6177234D01*
X8400000Y6173711D01*
X8417714Y6177234D01*
X8432732Y6187268D01*
X8442766Y6202286D01*
X8446289Y6220000D01*
X8442766Y6237714D01*
X8432732Y6252732D01*
X8417714Y6262766D01*
X8400000Y6266289D01*
D02*
G37*
G36*
X8170000D02*
X8152286Y6262766D01*
X8137268Y6252732D01*
X8127234Y6237714D01*
X8123710Y6220000D01*
X8127234Y6202286D01*
X8137268Y6187268D01*
X8152286Y6177234D01*
X8170000Y6173711D01*
X8187714Y6177234D01*
X8202732Y6187268D01*
X8212766Y6202286D01*
X8216289Y6220000D01*
X8212766Y6237714D01*
X8202732Y6252732D01*
X8187714Y6262766D01*
X8170000Y6266289D01*
D02*
G37*
G36*
X8420000Y6086290D02*
X8402286Y6082766D01*
X8387268Y6072732D01*
X8377234Y6057714D01*
X8376474Y6053896D01*
X8363526D01*
X8362766Y6057714D01*
X8352732Y6072732D01*
X8337714Y6082766D01*
X8320000Y6086290D01*
X8302286Y6082766D01*
X8287268Y6072732D01*
X8277234Y6057714D01*
X8273711Y6040000D01*
X8277234Y6022286D01*
X8287268Y6007268D01*
X8302286Y5997234D01*
X8320000Y5993711D01*
X8337714Y5997234D01*
X8352732Y6007268D01*
X8362766Y6022286D01*
X8363526Y6026104D01*
X8376474D01*
X8377234Y6022286D01*
X8387268Y6007268D01*
X8402286Y5997234D01*
X8420000Y5993711D01*
X8437714Y5997234D01*
X8452732Y6007268D01*
X8462766Y6022286D01*
X8466289Y6040000D01*
X8462766Y6057714D01*
X8452732Y6072732D01*
X8437714Y6082766D01*
X8420000Y6086290D01*
D02*
G37*
G36*
X8786000Y6050890D02*
X8768286Y6047366D01*
X8753268Y6037332D01*
X8743234Y6022314D01*
X8739710Y6004600D01*
X8743234Y5986886D01*
X8753268Y5971868D01*
X8768286Y5961834D01*
X8786000Y5958311D01*
X8803714Y5961834D01*
X8818732Y5971868D01*
X8828766Y5986886D01*
X8832289Y6004600D01*
X8828766Y6022314D01*
X8818732Y6037332D01*
X8803714Y6047366D01*
X8786000Y6050890D01*
D02*
G37*
G36*
X9222000Y6050289D02*
X9204286Y6046766D01*
X9189268Y6036732D01*
X9179234Y6021714D01*
X9175711Y6004000D01*
X9179234Y5986286D01*
X9189268Y5971268D01*
X9204286Y5961234D01*
X9222000Y5957710D01*
X9239714Y5961234D01*
X9254732Y5971268D01*
X9264766Y5986286D01*
X9268290Y6004000D01*
X9264766Y6021714D01*
X9254732Y6036732D01*
X9239714Y6046766D01*
X9222000Y6050289D01*
D02*
G37*
G36*
X8435700Y5967763D02*
Y5936700D01*
X8466763D01*
X8465766Y5941714D01*
X8455732Y5956732D01*
X8440714Y5966766D01*
X8435700Y5967763D01*
D02*
G37*
G36*
X8410300D02*
X8405286Y5966766D01*
X8390268Y5956732D01*
X8380234Y5941714D01*
X8379236Y5936700D01*
X8410300D01*
Y5967763D01*
D02*
G37*
G36*
X8292700Y5963764D02*
Y5932700D01*
X8323763D01*
X8322766Y5937714D01*
X8312732Y5952732D01*
X8297714Y5962766D01*
X8292700Y5963764D01*
D02*
G37*
G36*
X8267300D02*
X8262286Y5962766D01*
X8247268Y5952732D01*
X8237234Y5937714D01*
X8236237Y5932700D01*
X8267300D01*
Y5963764D01*
D02*
G37*
G36*
X8902000Y6017289D02*
X8884286Y6013766D01*
X8869268Y6003732D01*
X8859234Y5988714D01*
X8855711Y5971000D01*
X8859234Y5953286D01*
X8869268Y5938268D01*
X8884286Y5928234D01*
X8902000Y5924711D01*
X8919714Y5928234D01*
X8934732Y5938268D01*
X8944766Y5953286D01*
X8948289Y5971000D01*
X8944766Y5988714D01*
X8934732Y6003732D01*
X8919714Y6013766D01*
X8902000Y6017289D01*
D02*
G37*
G36*
X8655000Y6015289D02*
X8637286Y6011766D01*
X8622268Y6001732D01*
X8612234Y5986714D01*
X8608710Y5969000D01*
X8612234Y5951286D01*
X8622268Y5936268D01*
X8637286Y5926234D01*
X8655000Y5922711D01*
X8672714Y5926234D01*
X8687732Y5936268D01*
X8697766Y5951286D01*
X8701289Y5969000D01*
X8697766Y5986714D01*
X8687732Y6001732D01*
X8672714Y6011766D01*
X8655000Y6015289D01*
D02*
G37*
G36*
X9007000Y6012289D02*
X8989286Y6008766D01*
X8974268Y5998732D01*
X8964234Y5983714D01*
X8960711Y5966000D01*
X8964234Y5948286D01*
X8974268Y5933268D01*
X8989286Y5923234D01*
X9007000Y5919711D01*
X9024714Y5923234D01*
X9039732Y5933268D01*
X9049766Y5948286D01*
X9053289Y5966000D01*
X9049766Y5983714D01*
X9039732Y5998732D01*
X9024714Y6008766D01*
X9007000Y6012289D01*
D02*
G37*
G36*
X9361000Y6047289D02*
X9343286Y6043766D01*
X9328268Y6033732D01*
X9318234Y6018714D01*
X9314711Y6001000D01*
X9318234Y5983286D01*
X9328268Y5968268D01*
X9343286Y5958234D01*
X9361000Y5954710D01*
X9378714Y5958234D01*
X9392203Y5967247D01*
X9398003Y5965194D01*
X9403899Y5960950D01*
X9403710Y5960000D01*
X9407234Y5942286D01*
X9417268Y5927268D01*
X9432286Y5917234D01*
X9437300Y5916237D01*
Y5960000D01*
Y6003763D01*
X9432286Y6002766D01*
X9418797Y5993753D01*
X9412997Y5995806D01*
X9407101Y6000049D01*
X9407290Y6001000D01*
X9403766Y6018714D01*
X9393732Y6033732D01*
X9378714Y6043766D01*
X9361000Y6047289D01*
D02*
G37*
G36*
X6986000Y5927485D02*
X6964384Y5923186D01*
X6946059Y5910941D01*
X6940469Y5902575D01*
X6925195D01*
X6920941Y5908941D01*
X6902616Y5921186D01*
X6881000Y5925485D01*
X6859384Y5921186D01*
X6841059Y5908941D01*
X6828814Y5890616D01*
X6824515Y5869000D01*
X6828814Y5847384D01*
X6841059Y5829059D01*
X6859384Y5816814D01*
X6881000Y5812515D01*
X6902616Y5816814D01*
X6920941Y5829059D01*
X6926531Y5837425D01*
X6941805D01*
X6946059Y5831059D01*
X6964384Y5818814D01*
X6986000Y5814515D01*
X7007616Y5818814D01*
X7025941Y5831059D01*
X7038186Y5849384D01*
X7042485Y5871000D01*
X7038186Y5892616D01*
X7025941Y5910941D01*
X7007616Y5923186D01*
X6986000Y5927485D01*
D02*
G37*
G36*
X9192700Y5903763D02*
Y5872700D01*
X9223763D01*
X9222766Y5877714D01*
X9212732Y5892732D01*
X9197714Y5902766D01*
X9192700Y5903763D01*
D02*
G37*
G36*
X9167300D02*
X9162286Y5902766D01*
X9147268Y5892732D01*
X9137234Y5877714D01*
X9136236Y5872700D01*
X9167300D01*
Y5903763D01*
D02*
G37*
G36*
X8466763Y5911300D02*
X8379236D01*
X8380234Y5906286D01*
X8390268Y5891268D01*
X8401308Y5883891D01*
X8397456Y5871191D01*
X8311530D01*
X8307678Y5883891D01*
X8312732Y5887268D01*
X8322766Y5902286D01*
X8323763Y5907300D01*
X8236237D01*
X8237234Y5902286D01*
X8247268Y5887268D01*
X8252322Y5883891D01*
X8248470Y5871191D01*
X7770071D01*
X7767714Y5872766D01*
X7750000Y5876289D01*
X7732286Y5872766D01*
X7717268Y5862732D01*
X7707234Y5847714D01*
X7703711Y5830000D01*
X7707234Y5812286D01*
X7717268Y5797268D01*
X7732286Y5787234D01*
X7750000Y5783711D01*
X7767714Y5787234D01*
X7770071Y5788809D01*
X8020582D01*
X8031005Y5776108D01*
X8029711Y5769600D01*
X8033234Y5751886D01*
X8043268Y5736868D01*
X8058286Y5726834D01*
X8076000Y5723311D01*
X8093714Y5726834D01*
X8108732Y5736868D01*
X8118766Y5751886D01*
X8122290Y5769600D01*
X8120995Y5776108D01*
X8131418Y5788809D01*
X8190582D01*
X8201005Y5776108D01*
X8199711Y5769600D01*
X8203234Y5751886D01*
X8213268Y5736868D01*
X8228286Y5726834D01*
X8246000Y5723311D01*
X8263714Y5726834D01*
X8278732Y5736868D01*
X8288766Y5751886D01*
X8292289Y5769600D01*
X8290995Y5776108D01*
X8301418Y5788809D01*
X8665937D01*
X8667234Y5782286D01*
X8677268Y5767268D01*
X8692286Y5757234D01*
X8710000Y5753711D01*
X8727714Y5757234D01*
X8742732Y5767268D01*
X8752766Y5782286D01*
X8754999Y5793510D01*
X8768269Y5799918D01*
X8772286Y5797234D01*
X8777300Y5796237D01*
Y5840000D01*
Y5883763D01*
X8772286Y5882766D01*
X8757268Y5872732D01*
X8747234Y5857714D01*
X8745840Y5850704D01*
X8732261Y5847537D01*
X8730210Y5850210D01*
X8715504Y5861494D01*
X8698378Y5868588D01*
X8682734Y5870648D01*
X8680000Y5871191D01*
X8448544D01*
X8444692Y5883891D01*
X8455732Y5891268D01*
X8465766Y5906286D01*
X8466763Y5911300D01*
D02*
G37*
G36*
X8867300Y5883763D02*
X8862286Y5882766D01*
X8847268Y5872732D01*
X8842637Y5865801D01*
X8827363D01*
X8822732Y5872732D01*
X8807714Y5882766D01*
X8802700Y5883763D01*
Y5840000D01*
Y5796237D01*
X8807714Y5797234D01*
X8822732Y5807268D01*
X8827363Y5814199D01*
X8842637D01*
X8847268Y5807268D01*
X8862286Y5797234D01*
X8867300Y5796237D01*
Y5840000D01*
Y5883763D01*
D02*
G37*
G36*
X8992700Y5873763D02*
Y5842700D01*
X9023764D01*
X9022766Y5847714D01*
X9012732Y5862732D01*
X8997714Y5872766D01*
X8992700Y5873763D01*
D02*
G37*
G36*
X9223763Y5847300D02*
X9192700D01*
Y5816237D01*
X9197714Y5817234D01*
X9212732Y5827268D01*
X9222766Y5842286D01*
X9223763Y5847300D01*
D02*
G37*
G36*
X9167300D02*
X9136236D01*
X9137234Y5842286D01*
X9147268Y5827268D01*
X9162286Y5817234D01*
X9167300Y5816237D01*
Y5847300D01*
D02*
G37*
G36*
X9023764Y5817300D02*
X8992700D01*
Y5786237D01*
X8997714Y5787234D01*
X9012732Y5797268D01*
X9022766Y5812286D01*
X9023764Y5817300D01*
D02*
G37*
G36*
X8892700Y5883763D02*
Y5840000D01*
Y5796237D01*
X8897714Y5797234D01*
X8912732Y5807268D01*
X8922404Y5821744D01*
X8924811Y5822096D01*
X8935480Y5821105D01*
X8937234Y5812286D01*
X8947268Y5797268D01*
X8962286Y5787234D01*
X8967300Y5786237D01*
Y5830000D01*
Y5873763D01*
X8962286Y5872766D01*
X8947268Y5862732D01*
X8937596Y5848256D01*
X8935189Y5847904D01*
X8924520Y5848895D01*
X8922766Y5857714D01*
X8912732Y5872732D01*
X8897714Y5882766D01*
X8892700Y5883763D01*
D02*
G37*
G36*
X9130000Y5606485D02*
X9108384Y5602186D01*
X9090059Y5589941D01*
X9082637Y5578834D01*
X9067363D01*
X9059941Y5589941D01*
X9041616Y5602186D01*
X9020000Y5606485D01*
X8998384Y5602186D01*
X8980059Y5589941D01*
X8967814Y5571616D01*
X8966474Y5564879D01*
X8953526D01*
X8952186Y5571616D01*
X8939941Y5589941D01*
X8921616Y5602186D01*
X8900000Y5606485D01*
X8878384Y5602186D01*
X8860059Y5589941D01*
X8847814Y5571616D01*
X8846474Y5564879D01*
X8833526D01*
X8832186Y5571616D01*
X8819941Y5589941D01*
X8801616Y5602186D01*
X8780000Y5606485D01*
X8758384Y5602186D01*
X8740059Y5589941D01*
X8727814Y5571616D01*
X8726474Y5564879D01*
X8713526D01*
X8712186Y5571616D01*
X8699941Y5589941D01*
X8681616Y5602186D01*
X8660000Y5606485D01*
X8638384Y5602186D01*
X8620059Y5589941D01*
X8612637Y5578834D01*
X8597363D01*
X8589941Y5589941D01*
X8571616Y5602186D01*
X8550000Y5606485D01*
X8528384Y5602186D01*
X8510059Y5589941D01*
X8497814Y5571616D01*
X8493515Y5550000D01*
X8497814Y5528384D01*
X8510059Y5510059D01*
X8521166Y5502637D01*
Y5487363D01*
X8510059Y5479941D01*
X8497814Y5461616D01*
X8493515Y5440000D01*
X8497814Y5418384D01*
X8510059Y5400059D01*
X8515609Y5396350D01*
Y5383650D01*
X8510059Y5379941D01*
X8497814Y5361616D01*
X8493515Y5340000D01*
X8497814Y5318384D01*
X8510059Y5300059D01*
X8515609Y5296350D01*
Y5283650D01*
X8510059Y5279941D01*
X8497814Y5261616D01*
X8493515Y5240000D01*
X8497814Y5218384D01*
X8510059Y5200059D01*
X8521166Y5192637D01*
Y5177363D01*
X8510059Y5169941D01*
X8497814Y5151616D01*
X8493515Y5130000D01*
X8497814Y5108384D01*
X8510059Y5090059D01*
X8515609Y5086350D01*
Y5073650D01*
X8510059Y5069941D01*
X8497814Y5051616D01*
X8493515Y5030000D01*
X8497814Y5008384D01*
X8510059Y4990059D01*
X8528384Y4977814D01*
X8550000Y4973515D01*
X8571616Y4977814D01*
X8589941Y4990059D01*
X8597363Y5001166D01*
X8612637D01*
X8620059Y4990059D01*
X8638384Y4977814D01*
X8660000Y4973515D01*
X8681616Y4977814D01*
X8699941Y4990059D01*
X8712186Y5008384D01*
X8713526Y5015121D01*
X8726474D01*
X8727814Y5008384D01*
X8740059Y4990059D01*
X8758384Y4977814D01*
X8780000Y4973515D01*
X8801616Y4977814D01*
X8819941Y4990059D01*
X8832186Y5008384D01*
X8833526Y5015121D01*
X8846474D01*
X8847814Y5008384D01*
X8860059Y4990059D01*
X8878384Y4977814D01*
X8900000Y4973515D01*
X8921616Y4977814D01*
X8939941Y4990059D01*
X8952186Y5008384D01*
X8953526Y5015121D01*
X8966474D01*
X8967814Y5008384D01*
X8980059Y4990059D01*
X8998384Y4977814D01*
X9020000Y4973515D01*
X9041616Y4977814D01*
X9059941Y4990059D01*
X9067363Y5001166D01*
X9082637D01*
X9090059Y4990059D01*
X9108384Y4977814D01*
X9130000Y4973515D01*
X9151616Y4977814D01*
X9169941Y4990059D01*
X9182186Y5008384D01*
X9186485Y5030000D01*
X9182186Y5051616D01*
X9169941Y5069941D01*
X9164391Y5073650D01*
Y5086350D01*
X9169941Y5090059D01*
X9182186Y5108384D01*
X9186485Y5130000D01*
X9182186Y5151616D01*
X9169941Y5169941D01*
X9158834Y5177363D01*
Y5192637D01*
X9169941Y5200059D01*
X9182186Y5218384D01*
X9186485Y5240000D01*
X9182186Y5261616D01*
X9169941Y5279941D01*
X9164391Y5283650D01*
Y5296350D01*
X9169941Y5300059D01*
X9182186Y5318384D01*
X9186485Y5340000D01*
X9182186Y5361616D01*
X9169941Y5379941D01*
X9164391Y5383650D01*
Y5396350D01*
X9169941Y5400059D01*
X9182186Y5418384D01*
X9186485Y5440000D01*
X9182186Y5461616D01*
X9169941Y5479941D01*
X9158834Y5487363D01*
Y5502637D01*
X9169941Y5510059D01*
X9182186Y5528384D01*
X9186485Y5550000D01*
X9182186Y5571616D01*
X9169941Y5589941D01*
X9151616Y5602186D01*
X9130000Y5606485D01*
D02*
G37*
G36*
X8277300Y5473763D02*
X8272286Y5472766D01*
X8257268Y5462732D01*
X8247234Y5447715D01*
X8238162Y5442865D01*
X8226210Y5447816D01*
X8200000Y5451266D01*
Y5451192D01*
X8010000D01*
X8008546Y5450902D01*
X7989012Y5448330D01*
X7969453Y5440229D01*
X7952658Y5427342D01*
X7939771Y5410547D01*
X7931670Y5390988D01*
X7929098Y5371454D01*
X7928809Y5370000D01*
X7928847Y5369808D01*
X7926686Y5358946D01*
X7920425Y5349575D01*
X7911054Y5343314D01*
X7900192Y5341153D01*
X7900000Y5341192D01*
X7720071D01*
X7717714Y5342766D01*
X7700000Y5346290D01*
X7682286Y5342766D01*
X7667268Y5332732D01*
X7657234Y5317714D01*
X7653711Y5300000D01*
X7657234Y5282286D01*
X7667268Y5267268D01*
X7682286Y5257234D01*
X7700000Y5253711D01*
X7717714Y5257234D01*
X7720071Y5258809D01*
X7900000D01*
Y5258647D01*
X7928820Y5262442D01*
X7955676Y5273566D01*
X7978738Y5291262D01*
X7979955Y5292847D01*
X7994663Y5291153D01*
X8001268Y5281268D01*
X8016286Y5271234D01*
X8034000Y5267711D01*
X8051714Y5271234D01*
X8066732Y5281268D01*
X8076766Y5296286D01*
X8080289Y5314000D01*
X8076766Y5331714D01*
X8066732Y5346732D01*
X8062529Y5349540D01*
X8059147Y5366789D01*
X8060501Y5368809D01*
X8200000D01*
Y5368689D01*
X8207152Y5367267D01*
X8213215Y5363215D01*
X8217267Y5357152D01*
X8218689Y5350000D01*
X8210220Y5340808D01*
X8206109Y5339153D01*
X8194714Y5346766D01*
X8177000Y5350290D01*
X8159286Y5346766D01*
X8144268Y5336732D01*
X8134234Y5321714D01*
X8130710Y5304000D01*
X8134234Y5286286D01*
X8134451Y5285960D01*
X8126814Y5274531D01*
X8123000Y5275289D01*
X8105286Y5271766D01*
X8090268Y5261732D01*
X8080234Y5246714D01*
X8076711Y5229000D01*
X8080234Y5211286D01*
X8090268Y5196268D01*
X8105286Y5186234D01*
X8123000Y5182710D01*
X8140714Y5186234D01*
X8155732Y5196268D01*
X8165766Y5211286D01*
X8169289Y5229000D01*
X8165766Y5246714D01*
X8165549Y5247040D01*
X8173186Y5258469D01*
X8177000Y5257711D01*
X8194714Y5261234D01*
X8201971Y5266083D01*
X8209160Y5262358D01*
X8213947Y5258811D01*
X8217234Y5242286D01*
X8227268Y5227268D01*
X8383710Y5070826D01*
Y4860001D01*
X8383710Y4860000D01*
X8387234Y4842286D01*
X8397268Y4827268D01*
X8527268Y4697268D01*
X8542286Y4687234D01*
X8560000Y4683710D01*
X8560001Y4683710D01*
X8652593D01*
X8662286Y4677234D01*
X8680000Y4673710D01*
X8697714Y4677234D01*
X8712732Y4687268D01*
X8722766Y4702285D01*
X8726290Y4720000D01*
X8722766Y4737714D01*
X8712732Y4752732D01*
X8712731Y4752732D01*
X8702732Y4762732D01*
X8687714Y4772766D01*
X8670000Y4776290D01*
X8669999Y4776289D01*
X8579174D01*
X8476289Y4879174D01*
Y5090000D01*
X8472766Y5107714D01*
X8462732Y5122732D01*
X8462731Y5122732D01*
X8301191Y5284272D01*
Y5350000D01*
X8301266D01*
X8297816Y5376209D01*
X8303232Y5386343D01*
X8307714Y5387234D01*
X8322732Y5397268D01*
X8332766Y5412286D01*
X8333763Y5417300D01*
X8290000D01*
Y5430000D01*
X8277300D01*
Y5473763D01*
D02*
G37*
G36*
X8302700D02*
Y5442700D01*
X8333763D01*
X8332766Y5447714D01*
X8322732Y5462732D01*
X8307714Y5472766D01*
X8302700Y5473763D01*
D02*
G37*
G36*
X8240000Y5046289D02*
X8222286Y5042766D01*
X8207268Y5032732D01*
X8197234Y5017714D01*
X8193711Y5000000D01*
X8197234Y4982286D01*
X8207268Y4967268D01*
X8222286Y4957234D01*
X8240000Y4953710D01*
X8257714Y4957234D01*
X8272732Y4967268D01*
X8282766Y4982286D01*
X8286289Y5000000D01*
X8282766Y5017714D01*
X8272732Y5032732D01*
X8257714Y5042766D01*
X8240000Y5046289D01*
D02*
G37*
G36*
X10840000Y5036485D02*
X10818384Y5032186D01*
X10800059Y5019941D01*
X10787814Y5001616D01*
X10783515Y4980000D01*
X10787814Y4958384D01*
X10800059Y4940059D01*
X10818384Y4927814D01*
X10840000Y4923515D01*
X10861616Y4927814D01*
X10879941Y4940059D01*
X10892185Y4958384D01*
X10896485Y4980000D01*
X10892185Y5001616D01*
X10879941Y5019941D01*
X10861616Y5032186D01*
X10840000Y5036485D01*
D02*
G37*
G36*
X10580000D02*
X10558384Y5032186D01*
X10540059Y5019941D01*
X10527814Y5001616D01*
X10523515Y4980000D01*
X10527814Y4958384D01*
X10540059Y4940059D01*
X10558384Y4927814D01*
X10580000Y4923515D01*
X10601616Y4927814D01*
X10619941Y4940059D01*
X10632185Y4958384D01*
X10636485Y4980000D01*
X10632185Y5001616D01*
X10619941Y5019941D01*
X10601616Y5032186D01*
X10580000Y5036485D01*
D02*
G37*
G36*
X8090000Y4966290D02*
X8072286Y4962766D01*
X8057268Y4952732D01*
X8047234Y4937714D01*
X8043711Y4920000D01*
X8047234Y4902286D01*
X8057268Y4887268D01*
X8072286Y4877234D01*
X8090000Y4873711D01*
X8107714Y4877234D01*
X8122732Y4887268D01*
X8132766Y4902286D01*
X8136290Y4920000D01*
X8132766Y4937714D01*
X8122732Y4952732D01*
X8107714Y4962766D01*
X8090000Y4966290D01*
D02*
G37*
G36*
X9939600Y4906289D02*
X9921886Y4902766D01*
X9906868Y4892732D01*
X9896834Y4877714D01*
X9893311Y4860000D01*
X9896834Y4842286D01*
X9906868Y4827268D01*
X9921886Y4817234D01*
X9939600Y4813710D01*
X9957314Y4817234D01*
X9972332Y4827268D01*
X9982366Y4842286D01*
X9985890Y4860000D01*
X9982366Y4877714D01*
X9972332Y4892732D01*
X9957314Y4902766D01*
X9939600Y4906289D01*
D02*
G37*
G36*
X7228000Y4850290D02*
X7210286Y4846766D01*
X7195268Y4836732D01*
X7185234Y4821714D01*
X7181711Y4804000D01*
X7185234Y4786286D01*
X7195268Y4771268D01*
X7210286Y4761234D01*
X7228000Y4757711D01*
X7245714Y4761234D01*
X7260732Y4771268D01*
X7270766Y4786286D01*
X7274289Y4804000D01*
X7270766Y4821714D01*
X7260732Y4836732D01*
X7245714Y4846766D01*
X7228000Y4850290D01*
D02*
G37*
G36*
X10832700Y4783763D02*
Y4752700D01*
X10863763D01*
X10862766Y4757714D01*
X10852732Y4772732D01*
X10837714Y4782766D01*
X10832700Y4783763D01*
D02*
G37*
G36*
X10807300D02*
X10802286Y4782766D01*
X10787268Y4772732D01*
X10777234Y4757714D01*
X10776237Y4752700D01*
X10807300D01*
Y4783763D01*
D02*
G37*
G36*
X8922700Y4763763D02*
Y4732700D01*
X8953763D01*
X8952766Y4737714D01*
X8942732Y4752732D01*
X8927714Y4762766D01*
X8922700Y4763763D01*
D02*
G37*
G36*
X8897300D02*
X8892286Y4762766D01*
X8877268Y4752732D01*
X8867234Y4737714D01*
X8866237Y4732700D01*
X8897300D01*
Y4763763D01*
D02*
G37*
G36*
X10863763Y4727300D02*
X10832700D01*
Y4696236D01*
X10837714Y4697234D01*
X10852732Y4707268D01*
X10862766Y4722286D01*
X10863763Y4727300D01*
D02*
G37*
G36*
X10807300D02*
X10776237D01*
X10777234Y4722286D01*
X10787268Y4707268D01*
X10802286Y4697234D01*
X10807300Y4696236D01*
Y4727300D01*
D02*
G37*
G36*
X10690000Y4786289D02*
X10672286Y4782766D01*
X10657268Y4772732D01*
X10647234Y4757714D01*
X10643710Y4740000D01*
X10647234Y4722286D01*
X10657268Y4707268D01*
X10672286Y4697234D01*
X10690000Y4693710D01*
X10707714Y4697234D01*
X10722732Y4707268D01*
X10732766Y4722286D01*
X10736289Y4740000D01*
X10732766Y4757714D01*
X10722732Y4772732D01*
X10707714Y4782766D01*
X10690000Y4786289D01*
D02*
G37*
G36*
X10560000D02*
X10542286Y4782766D01*
X10527268Y4772732D01*
X10517234Y4757714D01*
X10513710Y4740000D01*
X10517234Y4722286D01*
X10527268Y4707268D01*
X10542286Y4697234D01*
X10560000Y4693710D01*
X10577714Y4697234D01*
X10592732Y4707268D01*
X10602766Y4722286D01*
X10606289Y4740000D01*
X10602766Y4757714D01*
X10592732Y4772732D01*
X10577714Y4782766D01*
X10560000Y4786289D01*
D02*
G37*
G36*
X8953763Y4707300D02*
X8922700D01*
Y4676237D01*
X8927714Y4677234D01*
X8942732Y4687268D01*
X8952766Y4702286D01*
X8953763Y4707300D01*
D02*
G37*
G36*
X8897300D02*
X8866237D01*
X8867234Y4702286D01*
X8877268Y4687268D01*
X8892286Y4677234D01*
X8897300Y4676237D01*
Y4707300D01*
D02*
G37*
G36*
X9152700Y4663763D02*
Y4632700D01*
X9183763D01*
X9182766Y4637714D01*
X9172732Y4652732D01*
X9157714Y4662766D01*
X9152700Y4663763D01*
D02*
G37*
G36*
X9127300D02*
X9122286Y4662766D01*
X9107268Y4652732D01*
X9097234Y4637714D01*
X9096237Y4632700D01*
X9127300D01*
Y4663763D01*
D02*
G37*
G36*
X8790000Y4686290D02*
X8772286Y4682766D01*
X8757268Y4672732D01*
X8747234Y4657714D01*
X8743710Y4640000D01*
X8747234Y4622286D01*
X8757268Y4607268D01*
X8772286Y4597234D01*
X8790000Y4593711D01*
X8807714Y4597234D01*
X8822732Y4607268D01*
X8832766Y4622286D01*
X8836289Y4640000D01*
X8832766Y4657714D01*
X8822732Y4672732D01*
X8807714Y4682766D01*
X8790000Y4686290D01*
D02*
G37*
G36*
X9183763Y4607300D02*
X9152700D01*
Y4576236D01*
X9157714Y4577234D01*
X9172732Y4587268D01*
X9182766Y4602286D01*
X9183763Y4607300D01*
D02*
G37*
G36*
X9127300D02*
X9096237D01*
X9097234Y4602286D01*
X9107268Y4587268D01*
X9122286Y4577234D01*
X9127300Y4576236D01*
Y4607300D01*
D02*
G37*
G36*
X7225000Y4562290D02*
X7207286Y4558766D01*
X7192268Y4548732D01*
X7182234Y4533714D01*
X7178711Y4516000D01*
X7182234Y4498286D01*
X7192268Y4483268D01*
X7207286Y4473234D01*
X7225000Y4469711D01*
X7242714Y4473234D01*
X7257732Y4483268D01*
X7267766Y4498286D01*
X7271289Y4516000D01*
X7267766Y4533714D01*
X7257732Y4548732D01*
X7242714Y4558766D01*
X7225000Y4562290D01*
D02*
G37*
G36*
X9070000Y4526485D02*
X9048384Y4522186D01*
X9030059Y4509941D01*
X9017814Y4491616D01*
X9013515Y4470000D01*
X9008341Y4464826D01*
X9000000Y4466485D01*
X8991659Y4464826D01*
X8986485Y4470000D01*
X8982185Y4491616D01*
X8969941Y4509941D01*
X8951616Y4522186D01*
X8930000Y4526485D01*
X8908384Y4522186D01*
X8890059Y4509941D01*
X8877814Y4491616D01*
X8873515Y4470000D01*
X8868341Y4464826D01*
X8860000Y4466485D01*
X8851659Y4464826D01*
X8846485Y4470000D01*
X8842186Y4491616D01*
X8829941Y4509941D01*
X8811616Y4522186D01*
X8790000Y4526485D01*
X8768384Y4522186D01*
X8750059Y4509941D01*
X8737814Y4491616D01*
X8733515Y4470000D01*
X8737814Y4448384D01*
X8750059Y4430059D01*
X8768384Y4417814D01*
X8775121Y4416474D01*
Y4403526D01*
X8768384Y4402186D01*
X8750059Y4389941D01*
X8737814Y4371616D01*
X8733515Y4350000D01*
X8737814Y4328384D01*
X8750059Y4310059D01*
X8768384Y4297814D01*
X8775121Y4296474D01*
Y4283526D01*
X8768384Y4282185D01*
X8750059Y4269941D01*
X8737814Y4251616D01*
X8733515Y4230000D01*
X8737814Y4208384D01*
X8750059Y4190059D01*
X8761166Y4182637D01*
Y4167363D01*
X8750059Y4159941D01*
X8737814Y4141616D01*
X8733515Y4120000D01*
X8737814Y4098384D01*
X8750059Y4080059D01*
X8768384Y4067814D01*
X8790000Y4063515D01*
X8811616Y4067814D01*
X8829941Y4080059D01*
X8842186Y4098384D01*
X8845759Y4116348D01*
X8860000Y4113515D01*
X8874241Y4116348D01*
X8877814Y4098384D01*
X8890059Y4080059D01*
X8908384Y4067814D01*
X8930000Y4063515D01*
X8951616Y4067814D01*
X8969941Y4080059D01*
X8982185Y4098384D01*
X8985759Y4116348D01*
X9000000Y4113515D01*
X9014241Y4116348D01*
X9017814Y4098384D01*
X9030059Y4080059D01*
X9048384Y4067814D01*
X9070000Y4063515D01*
X9091616Y4067814D01*
X9109941Y4080059D01*
X9122185Y4098384D01*
X9126485Y4120000D01*
X9122185Y4141616D01*
X9109941Y4159941D01*
X9098833Y4167363D01*
Y4182637D01*
X9109941Y4190059D01*
X9122185Y4208384D01*
X9126485Y4230000D01*
X9122185Y4251616D01*
X9109941Y4269941D01*
X9091616Y4282185D01*
X9084879Y4283526D01*
Y4296474D01*
X9091616Y4297814D01*
X9109941Y4310059D01*
X9122185Y4328384D01*
X9126485Y4350000D01*
X9122185Y4371616D01*
X9109941Y4389941D01*
X9091616Y4402186D01*
X9084879Y4403526D01*
Y4416474D01*
X9091616Y4417814D01*
X9109941Y4430059D01*
X9122185Y4448384D01*
X9126485Y4470000D01*
X9122185Y4491616D01*
X9109941Y4509941D01*
X9091616Y4522186D01*
X9070000Y4526485D01*
D02*
G37*
G36*
X9270000Y4546289D02*
X9252286Y4542766D01*
X9237268Y4532732D01*
X9227234Y4517714D01*
X9223711Y4500000D01*
X9227234Y4482286D01*
X9237268Y4467268D01*
X9252286Y4457234D01*
X9270000Y4453710D01*
X9287714Y4457234D01*
X9302732Y4467268D01*
X9312766Y4482286D01*
X9316289Y4500000D01*
X9312766Y4517714D01*
X9302732Y4532732D01*
X9287714Y4542766D01*
X9270000Y4546289D01*
D02*
G37*
G36*
X9282700Y4413763D02*
Y4382700D01*
X9313763D01*
X9312766Y4387714D01*
X9302732Y4402732D01*
X9287714Y4412766D01*
X9282700Y4413763D01*
D02*
G37*
G36*
X9257300D02*
X9252286Y4412766D01*
X9237268Y4402732D01*
X9227234Y4387714D01*
X9226237Y4382700D01*
X9257300D01*
Y4413763D01*
D02*
G37*
G36*
X9313763Y4357300D02*
X9282700D01*
Y4326236D01*
X9287714Y4327234D01*
X9302732Y4337268D01*
X9312766Y4352286D01*
X9313763Y4357300D01*
D02*
G37*
G36*
X9257300D02*
X9226237D01*
X9227234Y4352286D01*
X9237268Y4337268D01*
X9252286Y4327234D01*
X9257300Y4326236D01*
Y4357300D01*
D02*
G37*
G36*
X8602700Y4283763D02*
Y4252700D01*
X8633764D01*
X8632766Y4257714D01*
X8622732Y4272732D01*
X8607714Y4282766D01*
X8602700Y4283763D01*
D02*
G37*
G36*
X8577300D02*
X8572286Y4282766D01*
X8557268Y4272732D01*
X8547234Y4257714D01*
X8546237Y4252700D01*
X8577300D01*
Y4283763D01*
D02*
G37*
G36*
X8633764Y4227300D02*
X8602700D01*
Y4196236D01*
X8607714Y4197234D01*
X8622732Y4207268D01*
X8632766Y4222286D01*
X8633764Y4227300D01*
D02*
G37*
G36*
X8577300D02*
X8546237D01*
X8547234Y4222286D01*
X8557268Y4207268D01*
X8572286Y4197234D01*
X8577300Y4196236D01*
Y4227300D01*
D02*
G37*
G36*
X7238000Y4285289D02*
X7220286Y4281766D01*
X7205268Y4271732D01*
X7195234Y4256714D01*
X7191711Y4239000D01*
X7195234Y4221286D01*
X7205268Y4206268D01*
X7220286Y4196234D01*
X7238000Y4192710D01*
X7255714Y4196234D01*
X7270732Y4206268D01*
X7280766Y4221286D01*
X7284289Y4239000D01*
X7280766Y4256714D01*
X7270732Y4271732D01*
X7255714Y4281766D01*
X7238000Y4285289D01*
D02*
G37*
G36*
X9690000Y4660103D02*
X9639256Y4655105D01*
X9590463Y4640304D01*
X9545495Y4616268D01*
X9506080Y4583920D01*
X9473732Y4544505D01*
X9449696Y4499537D01*
X9434895Y4450744D01*
X9429897Y4400000D01*
X9434895Y4349256D01*
X9449696Y4300463D01*
X9473732Y4255495D01*
X9506080Y4216080D01*
X9545495Y4183733D01*
X9590463Y4159697D01*
X9639256Y4144895D01*
X9690000Y4139897D01*
X9740744Y4144895D01*
X9789537Y4159697D01*
X9834505Y4183733D01*
X9873920Y4216080D01*
X9906267Y4255495D01*
X9930303Y4300463D01*
X9945105Y4349256D01*
X9950103Y4400000D01*
X9945105Y4450744D01*
X9930303Y4499537D01*
X9906267Y4544505D01*
X9873920Y4583920D01*
X9834505Y4616268D01*
X9789537Y4640304D01*
X9740744Y4655105D01*
X9690000Y4660103D01*
D02*
G37*
G36*
X8592700Y4153763D02*
Y4122700D01*
X8623764D01*
X8622766Y4127714D01*
X8612732Y4142732D01*
X8597714Y4152766D01*
X8592700Y4153763D01*
D02*
G37*
G36*
X8567300D02*
X8562286Y4152766D01*
X8547268Y4142732D01*
X8537234Y4127714D01*
X8536237Y4122700D01*
X8567300D01*
Y4153763D01*
D02*
G37*
G36*
X8623764Y4097300D02*
X8592700D01*
Y4066236D01*
X8597714Y4067234D01*
X8612732Y4077268D01*
X8622766Y4092286D01*
X8623764Y4097300D01*
D02*
G37*
G36*
X8567300D02*
X8536237D01*
X8537234Y4092286D01*
X8547268Y4077268D01*
X8562286Y4067234D01*
X8567300Y4066236D01*
Y4097300D01*
D02*
G37*
%LPD*%
D10*
X9518686Y5489071D02*
G03*
X9510466Y5499535I-47360J-28744D01*
G01*
X10990692Y4612586D02*
G03*
X10896491Y4840000I-321332J113D01*
G01*
X10925605Y4455605D02*
G03*
X10990693Y4612586I-157135J157135D01*
G01*
X10821715Y4380000D02*
G03*
X10870000Y4400000I0J68285D01*
G01*
X10515210Y4380000D02*
G03*
X10335605Y4305605I0J-254000D01*
G01*
X9543734Y5448102D02*
G03*
X9552939Y5436744I47266J28898D01*
G01*
X6077808Y6412192D02*
X6320000Y6170000D01*
X6070000Y6420000D02*
X6077808Y6412192D01*
X5757426Y5107426D02*
X6320000Y5670000D01*
X5727426Y5107426D02*
X5757426D01*
X6070000Y6412192D02*
Y6420000D01*
X5720000Y5100000D02*
X5727426Y5107426D01*
X6070000Y6405264D02*
Y6412192D01*
Y6405264D02*
X6070440Y6404824D01*
X6320000Y5670000D02*
Y6170000D01*
X9340000Y5670000D02*
X9510466Y5499535D01*
X9518686Y5489071D02*
X9543734Y5448102D01*
X9925213Y5084772D02*
X9925333D01*
X9928963Y5081142D01*
X9975981Y5034124D02*
X10170105Y4840000D01*
X10896491D01*
X9552939Y5436744D02*
X9925213Y5084772D01*
X9975981Y5034124D02*
Y5034124D01*
X9928963Y5081142D02*
X9975981Y5034124D01*
X10870000Y4400000D02*
X10925605Y4455605D01*
X10515210Y4380000D02*
X10821715D01*
X10300000Y4270000D02*
X10335605Y4305605D01*
X10300000Y4250000D02*
Y4270000D01*
D11*
X5990000Y6210000D02*
G03*
X6000000Y6234142I-24142J24142D01*
G01*
X5965858Y6200000D02*
G03*
X5990000Y6210000I0J34142D01*
G01*
X5606360Y6263640D02*
G03*
X5760000Y6200000I153640J153640D01*
G01*
D02*
G03*
X5762324Y6200274I0J10001D01*
G01*
X5815611Y6211399D02*
G03*
X5801890Y6209729I389J-60399D01*
G01*
X5963085Y6201863D02*
G03*
X5928321Y6212396I-34085J-49864D01*
G01*
X9524668Y5804668D02*
G03*
X9560000Y5890000I-85379J85332D01*
G01*
X9524645Y5804645D02*
G03*
X9524668Y5804668I-85355J85355D01*
G01*
X9398284Y5800000D02*
G03*
X9350000Y5780000I0J-68284D01*
G01*
X9421000Y5457613D02*
G03*
X9429774Y5431803I50327J2713D01*
G01*
X9397232Y5512135D02*
G03*
X9395563Y5514435I-8846J-4664D01*
G01*
X9560000Y5904790D02*
G03*
X9485605Y6084395I-254000J0D01*
G01*
X8964395Y6605605D02*
G03*
X8784790Y6680000I-179605J-179605D01*
G01*
X9312401Y5742402D02*
G03*
X9270000Y5640000I102452J-102402D01*
G01*
X9312426Y5742427D02*
G03*
X9312401Y5742402I102427J-102427D01*
G01*
X8417071Y6607071D02*
G03*
X8410000Y6590000I17071J-17071D01*
G01*
X9420999Y5457613D02*
G03*
X9415035Y5478849I-50329J-2681D01*
G01*
X9440000Y5244190D02*
G03*
X9439982Y5244787I-10001J0D01*
G01*
X9366326Y5066326D02*
G03*
X9440000Y5244190I-177864J177864D01*
G01*
X6110000Y6140000D02*
G03*
X6077574Y6126568I0J-45858D01*
G01*
X5960000Y5910000D02*
G03*
X6030000Y6078995I-168995J168995D01*
G01*
X5445211Y5910000D02*
G03*
X5265605Y5835605I0J-254000D01*
G01*
X5963085Y6201863D02*
X5965858Y6200000D01*
X6000000Y6234142D02*
Y6240000D01*
X5770000Y5650000D02*
Y5850000D01*
X5762324Y6200274D02*
X5801890Y6209728D01*
X5815611Y6211399D02*
X5928321Y6212396D01*
X5600000Y6270000D02*
X5606360Y6263640D01*
X9560000Y5890000D02*
Y5904790D01*
X9524645Y5804645D02*
X9524668Y5804668D01*
X9520000Y5800000D02*
X9524645Y5804645D01*
X9398284Y5800000D02*
X9520000D01*
X9429774Y5431803D02*
Y5431803D01*
Y5431803D02*
X9439982Y5244787D01*
X8490000Y6680000D02*
X8784790D01*
X9395534Y5514466D02*
X9395563Y5514435D01*
X8964395Y6605605D02*
X9485605Y6084395D01*
X9312426Y5742426D02*
X9350000Y5780000D01*
X9312401Y5742402D02*
X9312426Y5742426D01*
X9270000Y5640000D02*
X9395534Y5514466D01*
X8417071Y6607071D02*
X8490000Y6680000D01*
X9397232Y5512135D02*
X9415035Y5478849D01*
X6030000Y6078995D02*
X6077574Y6126568D01*
X5445211Y5910000D02*
X5960000D01*
X4940000Y5510000D02*
X5265605Y5835605D01*
D12*
X6250000Y5850000D02*
G03*
X6260000Y5860000I0J10000D01*
G01*
X6058616Y6332470D02*
G03*
X6058467Y6332620I-18051J-17870D01*
G01*
X6069021Y6311070D02*
G03*
X6104055Y6278738I58839J28609D01*
G01*
X6158491Y6107996D02*
G03*
X6104321Y6278634I-96086J63414D01*
G01*
X5890100Y5850000D02*
X6250000D01*
X5840013Y6429987D02*
X5870000Y6400000D01*
X5819988Y6429987D02*
X5840013D01*
X6058616Y6332470D02*
X6069021Y6311070D01*
X5930000Y6340000D02*
X6051087D01*
X6058467Y6332620D01*
X5870000Y6400000D02*
X5930000Y6340000D01*
X6104055Y6278738D02*
X6104321Y6278634D01*
X6098000Y6016000D02*
X6158491Y6107996D01*
D14*
X8670000Y4730000D02*
X8680000Y4720000D01*
X8560000Y4730000D02*
X8670000D01*
X8430000Y4860000D02*
Y5090000D01*
Y4860000D02*
X8560000Y4730000D01*
X8260000Y5260000D02*
X8430000Y5090000D01*
D15*
X8260000Y5350000D02*
G03*
X8200000Y5410000I-60000J0D01*
G01*
X8010000D02*
G03*
X7970000Y5370000I0J-40000D01*
G01*
X7900000Y5300000D02*
G03*
X7970000Y5370000I0J70000D01*
G01*
X8710000Y5800000D02*
G03*
X8680000Y5830000I-30000J0D01*
G01*
X8260000Y5260000D02*
Y5350000D01*
X8010000Y5410000D02*
X8200000D01*
X7700000Y5300000D02*
X7900000D01*
X7750000Y5830000D02*
X8680000D01*
D59*
X3337000Y4400000D02*
D03*
D60*
X4170000Y6000000D02*
D03*
X9690000Y4400000D02*
D03*
D61*
X2302500Y5240000D02*
D03*
D62*
Y5960000D02*
D03*
D63*
X1797500Y5020000D02*
D03*
Y6180000D02*
D03*
D64*
X2264500Y5090000D02*
D03*
D65*
Y6110000D02*
D03*
D66*
X6070440Y6404824D02*
D03*
X6000000Y6240000D02*
D03*
X6260000Y5860000D02*
D03*
X5770000Y5650000D02*
D03*
X11919995Y6559997D02*
D03*
X11839995Y6399997D02*
D03*
X11919995Y6239997D02*
D03*
X11839995Y5119998D02*
D03*
X11919995Y4959998D02*
D03*
X11839995Y4799998D02*
D03*
X11679995Y6399997D02*
D03*
X11759995Y6239997D02*
D03*
X11679995Y5119998D02*
D03*
X11759995Y4959998D02*
D03*
X11679995Y4799998D02*
D03*
X11519995Y6399997D02*
D03*
X11599995Y6239997D02*
D03*
X11519995Y5119998D02*
D03*
X11599995Y4959998D02*
D03*
X11519995Y4799998D02*
D03*
X11359995Y6399997D02*
D03*
X11439995Y6239997D02*
D03*
X11359995Y5119998D02*
D03*
X11439995Y4959998D02*
D03*
X11359995Y4799998D02*
D03*
X11279995Y6559997D02*
D03*
X11199995Y6399997D02*
D03*
X11279995Y6239997D02*
D03*
X11199995Y6079997D02*
D03*
Y5759998D02*
D03*
X11279995Y4959998D02*
D03*
X11119995Y6559997D02*
D03*
X11039995Y6399997D02*
D03*
X11119995Y6239997D02*
D03*
X11039995Y6079997D02*
D03*
X11119995Y5919998D02*
D03*
X11039995Y5759998D02*
D03*
X10959995Y6559997D02*
D03*
X10879996Y6399997D02*
D03*
X10959995Y6239997D02*
D03*
X10879996Y6079997D02*
D03*
X10959995Y5919998D02*
D03*
X10879996Y5759998D02*
D03*
X10799995Y6559997D02*
D03*
X10719996Y6399997D02*
D03*
X10799995Y6239997D02*
D03*
X10719996Y6079997D02*
D03*
X10799995Y5919998D02*
D03*
X10719996Y5759998D02*
D03*
X10639995Y6559997D02*
D03*
X10559996Y6399997D02*
D03*
X10639995Y6239997D02*
D03*
X10559996Y6079997D02*
D03*
X10639995Y5919998D02*
D03*
X10559996Y5759998D02*
D03*
X10479996Y6559997D02*
D03*
X10399996Y6399997D02*
D03*
X10479996Y6239997D02*
D03*
X10399996Y6079997D02*
D03*
X10479996Y5919998D02*
D03*
X10399996Y5759998D02*
D03*
Y5439998D02*
D03*
Y5119998D02*
D03*
X10319996Y6559997D02*
D03*
X10239996Y6399997D02*
D03*
X10319996Y6239997D02*
D03*
X10239996Y6079997D02*
D03*
X10319996Y5919998D02*
D03*
X10239996Y5759998D02*
D03*
X10319996Y5279998D02*
D03*
X10239996Y5119998D02*
D03*
X10079996Y6079997D02*
D03*
X10159996Y5919998D02*
D03*
X10079996Y5759998D02*
D03*
Y5439998D02*
D03*
X10159996Y5279998D02*
D03*
X10079996Y5119998D02*
D03*
X9919996Y6079997D02*
D03*
X9999996Y5919998D02*
D03*
X9919996Y5759998D02*
D03*
X9999996Y5279998D02*
D03*
X9759996Y6079997D02*
D03*
X9839996Y5919998D02*
D03*
X9759996Y5759998D02*
D03*
Y5439998D02*
D03*
X9599996Y6079997D02*
D03*
X9679996Y5919998D02*
D03*
X10640000Y5470000D02*
D03*
X9700000Y5710000D02*
D03*
X9600000Y5480000D02*
D03*
X9580000Y5710000D02*
D03*
X9460000D02*
D03*
X10910000Y5460000D02*
D03*
X10790000Y5470000D02*
D03*
X10500000Y5480000D02*
D03*
X11080000Y5490000D02*
D03*
X11200000D02*
D03*
Y5700000D02*
D03*
X11080000D02*
D03*
X10200000Y5490000D02*
D03*
X10320000D02*
D03*
Y5700000D02*
D03*
X10200000D02*
D03*
X9840000D02*
D03*
X9960000D02*
D03*
Y5490000D02*
D03*
X9840000D02*
D03*
X9340000Y5670000D02*
D03*
X9517235Y5103122D02*
D03*
X8680000Y4720000D02*
D03*
X8580000Y4110000D02*
D03*
X8590000Y4240000D02*
D03*
X5970000Y6450000D02*
D03*
X5600000Y6270000D02*
D03*
X5819988Y6429987D02*
D03*
X5809988Y6359987D02*
D03*
X8910000Y4720000D02*
D03*
X8790000Y4640000D02*
D03*
X9450000Y5960000D02*
D03*
X9370000Y5410000D02*
D03*
X9439999Y5402700D02*
D03*
X9366326Y5066326D02*
D03*
X8180000Y6590000D02*
D03*
X8170000Y6220000D02*
D03*
X8550000Y6230000D02*
D03*
Y6410000D02*
D03*
Y6590000D02*
D03*
X8410000D02*
D03*
X8400000Y6220000D02*
D03*
Y6410000D02*
D03*
X9180000Y5860000D02*
D03*
X10300000Y4250000D02*
D03*
Y4750000D02*
D03*
X8980000Y5830000D02*
D03*
X8880000Y5840000D02*
D03*
X8790000D02*
D03*
X8423000Y5924000D02*
D03*
X8280000Y5920000D02*
D03*
X5770000Y5850000D02*
D03*
X5470000Y5100000D02*
D03*
X8290000Y5430000D02*
D03*
X8260000Y5260000D02*
D03*
X8034000Y5314000D02*
D03*
X8177000Y5304000D02*
D03*
X7700000Y5300000D02*
D03*
X7750000Y5830000D02*
D03*
X8710000Y5800000D02*
D03*
X8076000Y5769600D02*
D03*
X8246000D02*
D03*
X6110000Y6140000D02*
D03*
X6098000Y6016000D02*
D03*
X5890100Y5850000D02*
D03*
X4940000Y5510000D02*
D03*
X9939600Y4860000D02*
D03*
X10820000Y4740000D02*
D03*
X9140000Y4620000D02*
D03*
X8655000Y5969000D02*
D03*
X8786000Y6004600D02*
D03*
X8320000Y6040000D02*
D03*
X8170000Y6410000D02*
D03*
X9270000Y4370000D02*
D03*
Y4500000D02*
D03*
X8240000Y5000000D02*
D03*
X10560000Y4740000D02*
D03*
X10690000D02*
D03*
X9830000Y5290000D02*
D03*
X9729367Y5131407D02*
D03*
X9361000Y6001000D02*
D03*
X9222000Y6004000D02*
D03*
X9007000Y5966000D02*
D03*
X8902000Y5971000D02*
D03*
X8420000Y6040000D02*
D03*
X8123000Y5229000D02*
D03*
X8090000Y4920000D02*
D03*
X7238000Y4239000D02*
D03*
X7228000Y4804000D02*
D03*
X7225000Y4516000D02*
D03*
D67*
X5720000Y5100000D02*
D03*
X10970000Y5090000D02*
D03*
X10710000D02*
D03*
X11100000Y5200000D02*
D03*
X10580000D02*
D03*
X10836000D02*
D03*
X10840000Y4980000D02*
D03*
X11100000D02*
D03*
X10580000D02*
D03*
X8550000Y5550000D02*
D03*
Y5440000D02*
D03*
Y5340000D02*
D03*
Y5240000D02*
D03*
Y5130000D02*
D03*
X8660000Y5030000D02*
D03*
X8780000D02*
D03*
X8900000D02*
D03*
X9020000D02*
D03*
X6420000Y6280000D02*
D03*
X6560000D02*
D03*
X6700000D02*
D03*
X6840000D02*
D03*
X6990000D02*
D03*
X6420000Y6390000D02*
D03*
X6560000D02*
D03*
X6700000D02*
D03*
X6840000D02*
D03*
X6990000D02*
D03*
X6420000Y6510000D02*
D03*
X6560000D02*
D03*
X6700000D02*
D03*
Y6630000D02*
D03*
X6560000D02*
D03*
X6420000D02*
D03*
X2500000Y5890000D02*
D03*
Y5290000D02*
D03*
X8660000Y5240000D02*
D03*
X8780000D02*
D03*
X8900000D02*
D03*
X9020000D02*
D03*
X9130000D02*
D03*
Y5130000D02*
D03*
X9020000D02*
D03*
X8900000D02*
D03*
X8780000D02*
D03*
X8660000D02*
D03*
X9130000Y5030000D02*
D03*
X8550000D02*
D03*
X8660000Y5340000D02*
D03*
X8780000D02*
D03*
X8900000D02*
D03*
X9020000D02*
D03*
X9130000D02*
D03*
X8660000Y5440000D02*
D03*
X8780000D02*
D03*
X8900000D02*
D03*
X9020000D02*
D03*
X9130000D02*
D03*
Y5550000D02*
D03*
X9020000D02*
D03*
X8900000D02*
D03*
X8780000D02*
D03*
X8660000D02*
D03*
X9000000Y4170000D02*
D03*
X8860000D02*
D03*
Y4290000D02*
D03*
X9000000D02*
D03*
Y4410000D02*
D03*
X8860000D02*
D03*
X8790000Y4120000D02*
D03*
X9070000D02*
D03*
X8930000D02*
D03*
X8790000Y4230000D02*
D03*
X9070000D02*
D03*
X8930000D02*
D03*
X8790000Y4350000D02*
D03*
X9070000D02*
D03*
X8930000D02*
D03*
X9070000Y4470000D02*
D03*
X8930000D02*
D03*
X8790000D02*
D03*
X5608000Y6003000D02*
D03*
X5481000Y6155000D02*
D03*
X6060000Y5613000D02*
D03*
X6425000Y5743000D02*
D03*
X6881000Y5869000D02*
D03*
X6986000Y5871000D02*
D03*
X5872000Y6095000D02*
D03*
X5813000Y6038000D02*
D03*
X5929000Y6037000D02*
D03*
Y6152000D02*
D03*
X5816000Y6151000D02*
D03*
D68*
X6410000Y7090000D02*
D03*
X5910000D02*
D03*
X6220000D02*
D03*
X3500000Y4950000D02*
D03*
X3190000Y4960000D02*
D03*
X4900000Y5900000D02*
D03*
X3400000D02*
D03*
D69*
Y6740000D02*
D03*
X4910000D02*
D03*
X3200000Y5210000D02*
D03*
X2690000Y4990000D02*
D03*
X2700000Y5410000D02*
D03*
D70*
X2000000Y4400000D02*
D03*
X11600000D02*
D03*
Y6800000D02*
D03*
X2000000D02*
D03*
%TF.MD5,2c80a014a7e5ecff11ec2d2468aaaef6*%
M02*
